<?xml version="1.0" standalone="no"?>
<!DOCTYPE svg PUBLIC "-//W3C//DTD SVG 1.1//EN" "http://www.w3.org/Graphics/SVG/1.1/DTD/svg11.dtd" >
<svg>
<metadata>
Created by FontForge 20090622 at Tue Jun  7 08:34:51 2016
 By deploy user
Copyright 2014 by Joel Carrouche. All rights reserved.
</metadata>
<defs>
<font id="r0c0iLinotte-Regular" horiz-adv-x="546" >
  <font-face 
    font-family="r0c0i Linotte"
    font-weight="400"
    font-stretch="normal"
    units-per-em="1000"
    panose-1="0 0 0 0 0 0 0 0 0 0"
    ascent="759"
    descent="-241"
    x-height="459"
    cap-height="682"
    bbox="-85 -241 1083 1136.81"
    underline-thickness="50"
    underline-position="-50"
    unicode-range="U+000D-U+1F426"
  />
<missing-glyph horiz-adv-x="668" 
d="M80 680h508v-680h-508v680zM125 45h418v590h-418v-590z" />
    <glyph glyph-name="f_f" unicode="ff" horiz-adv-x="655" 
d="M204 377v-131v-205q0 -49 -39 -49q-41 0 -41 46v193.5t-1 145.5h-55q-32 0 -45 7t-13 30q0 38 49 38h64v59q1 96 47 157q45 60 146 60q68 0 68 -43q0 -15 -7 -25t-21 -10q-11 0 -27 3q-17 3 -27 3q-47 0 -72 -42q-25 -41 -25 -96v-67h219q0 47 3 82q3 34 15 75
q12 42 31 66q19 25 57 42q39 17 88 17q32 0 56 -11q18 -9 18 -33q0 -14 -9 -23t-22 -9q-8 0 -30 3q-24 3 -33 2q-29 0 -48 -15q-19 -14 -28 -33q-10 -20 -14 -52l-3.5 -30.5t-1.5 -23.5v-57h108q42 0 42 -37t-41 -37l-108 1v-135v-208q0 -42 -39 -42q-22 0 -33 11
q-10 10 -10 36v16v34v56v95v139z" />
    <glyph glyph-name="fi" unicode="fi" horiz-adv-x="575" 
d="M404 450q12 1 24 1h25q49 -3 48 -54q-1 0 -1 -181l1 -181q0 -23 -9 -33q-9 -11 -31 -11q-41 0 -41 43v342h-15h-99h-100v-68t1 -101t1 -101.5v-70.5q0 -42 -40 -42q-41 0 -41 40v343l-55 -1q-29 0 -45 8q-15 7 -15 29q-1 17 11 28q11 10 38 10l64 1v47q4 109 59 173
q54 63 158 63q45 0 83 -12q33 -14 32 -39q0 -14 -9 -24q-9 -11 -22 -11q-10 0 -40 6t-52 6q-62 0 -96 -39q-34 -38 -34 -103v-65q37 0 86 0.5t112 1.5z" />
    <glyph glyph-name="fl" unicode="fl" horiz-adv-x="594" 
d="M206 377v-125v-126v-20t1 -28t1 -28v-20q0 -36 -41 -36t-41 45l1 89v38.5t-1 72.5q-1 90 0 139h-79q-35 0 -36 34q0 40 52 40h64v49q0 101 56 166q55 64 168 64q105 0 138 -11q26 -9 26 -62q-1 -82 -1 -205v-289q0 -22 1 -54.5t3 -77.5q0 -36 -41 -39q-42 -1 -43 58
q-1 36 -1.5 104.5t-0.5 171.5v184.5t1 144.5q-26 3 -97 3q-62 0 -96 -45q-34 -44 -34 -106v-56h106q23 0 32 -9t9 -29q1 -16 -8 -27q-9 -10 -28 -10h-111z" />
    <glyph glyph-name="f_f_i" unicode="ffi" horiz-adv-x="870" 
d="M686 456h32h20q52 0 52 -54q-1 -69 -1 -159v-204q0 -22 -8 -33t-30 -11q-41 0 -41 43v342h-106h-104v-170v-171q0 -42 -40 -42q-41 0 -41 40v344h-222v-44t1 -87t1 -105v-100t-40 -49q-41 0 -41 46v339h-54q-32 0 -45 7t-13 30q0 38 49 38h63v59q1 95 47 156
q45 60 146 60q69 0 69 -43q0 -15 -7 -25t-21 -10q-11 0 -27 3q-17 3 -27 3q-47 0 -72 -42q-25 -41 -25 -96v-67h222v51q0 106 56 168t159 62q49 0 81 -12q32 -11 32 -38q0 -14 -9 -24q-9 -11 -22 -11q-11 0 -39 6q-29 6 -51 6q-61 0 -94 -40q-33 -41 -33 -105v-64h44.5
t54.5 1t52.5 1h36.5z" />
    <glyph glyph-name="f_f_l" unicode="ffl" horiz-adv-x="883" 
d="M608 377h-57h-55q0 -4 0.5 -88l1.5 -251q0 -46 -40 -46q-41 0 -41 42v190t-1 152h-216q-1 -36 0 -148q1 -57 1 -104v-86q0 -47 -39 -47q-41 0 -41 43v196t-1 146h-55q-32 0 -45 7t-13 30q0 13 6 21t23 11q16 3 30 3h42h13v59q1 96 47 155q45 59 146 59q69 0 69 -41
q0 -14 -8 -25q-7 -10 -21 -10q-10 0 -26 3q-18 3 -27 2q-23 0 -42 -8q-17 -7 -28 -24q-9 -15 -16 -33q-6 -17 -9 -43q-3 -27 -3 -42v-42v-8h218v50q0 102 60 165t172 63q99 0 127 -11q26 -9 26 -62q-1 -38 -1 -153v-310v-27.5t1 -37.5t1 -36.5v-25.5v-45q-5 -30 -39 -30
q-26 0 -36 21q-10 20 -10 74q-2 84 -2.5 225.5t1.5 344.5q-26 3 -88 3t-98 -43q-36 -44 -36 -108v-55h105q23 0 32 -9q10 -10 11 -28q0 -37 -36 -37z" />
    <glyph glyph-name="f_f_j" unicode="ffj" horiz-adv-x="873" 
d="M501 380v-170v-171q0 -42 -40 -42q-41 0 -41 40v344h-222v-44t1 -87t1 -105v-100t-40 -49q-41 0 -41 46v339h-54q-32 0 -45 7t-13 30q0 38 49 38h63v59q1 95 47 156q45 60 146 60q69 0 69 -43q0 -15 -7 -25t-21 -10q-11 0 -27 3q-17 3 -27 3q-47 0 -72 -42
q-25 -41 -25 -96v-67h222v51q0 106 56 168t159 62q46 0 81 -11q33 -12 32 -39q0 -14 -9 -24q-9 -11 -22 -11q-11 0 -39 6q-29 6 -51 6q-61 0 -94 -40q-33 -41 -33 -105v-64h44.5t54.5 1t52.5 1h36.5h30h16q34 0 47 -16q14 -17 14 -54l-1 -413q0 -114 -39 -160t-120 -46
q-79 0 -79 44q0 33 25 39q6 1 25 0q22 -5 33 -3q22 0 37 9t22 25q8 18 11 38q3 21 3 45v52v364z" />
    <glyph glyph-name="f_j" unicode="fj" horiz-adv-x="582" 
d="M415 449q12 1 24 1h24q25 -2 36 -15q11 -14 11 -46v-420q0 -114 -39 -160t-120 -46q-79 0 -79 44q0 33 24 39q6 1 25 0q22 -5 33 -3q18 0 32 6q13 6 21 21l7 14t5 11q4 10 6 36q1 13 1.5 22.5t0.5 15.5v44v365l-220 -1v-68.5t1 -101.5t1 -101.5v-69.5q0 -42 -40 -42
q-41 0 -41 40v343h-27h-27q-29 0 -45 8q-15 7 -15 29q0 14 6 23t23 12q16 3 30 3h42h12v54q1 104 59 166q57 61 157 61q56 0 84 -11q29 -12 29 -39q0 -15 -9 -25t-22 -10q-17 0 -45 6q-29 6 -46 6q-58 0 -94 -40q-36 -41 -36 -105v-62q42 0 93 0.5t114 1.5z" />
    <glyph glyph-name=".notdef" horiz-adv-x="668" 
d="M80 680h508v-680h-508v680zM125 45h418v590h-418v-590z" />
    <glyph glyph-name="NULL" horiz-adv-x="0" 
 />
    <glyph glyph-name="nonmarkingreturn" unicode="&#xd;" horiz-adv-x="250" 
 />
    <glyph glyph-name="space" unicode=" " horiz-adv-x="246" 
 />
    <glyph glyph-name="exclam" unicode="!" horiz-adv-x="232" 
d="M69 644q-1 19 11 30q13 11 34 11q26 0 35 -15t9 -51q-2 -150 -9 -372q-2 -36 -33 -36q-17 0 -24 10q-8 10 -9 36l-5 150zM112 -2q-21 0 -37 14q-15 13 -15 36q0 25 16 41q17 17 40 17q24 0 39 -15t15 -39q0 -26 -16 -41q-17 -15 -42 -15v2z" />
    <glyph glyph-name="quotedbl" unicode="&#x22;" horiz-adv-x="323" 
d="M52 673q-2 16 9 27t30 11q34 0 34 -41q0 -13 -0.5 -33.5t-1.5 -49.5l-1.5 -44.5t-0.5 -19.5q-1 -37 -33 -37t-32 34q0 15 -3 78t-3 76zM202 675q0 15 11 24q10 9 26 9q15 0 26 -9t11 -23l-2 -75t-3 -74q-2 -42 -32 -42q-32 0 -33 31q0 11 -0.5 31.5t-1.5 49.5t-1.5 49.5
t-0.5 31.5v-3z" />
    <glyph glyph-name="numbersign" unicode="#" horiz-adv-x="607" 
d="M340 165h-135l-19 -126q-5 -26 -13 -36q-9 -11 -28 -11q-18 0 -28 10q-11 10 -6 30l20 134h-75q-31 0 -30 37q0 35 41 35h75l28 179h-75q-33 0 -31 35q1 37 43 37h75l23 149q6 40 42 40q16 0 27 -9q10 -9 7 -24l-25 -155l136 -1l24 150q6 40 41 40q17 0 26 -9t6 -24
l-25 -156h83q35 0 33 -35q0 -20 -12 -27q-13 -8 -40 -8h-75l-28 -180h84q31 0 31 -34q-1 -37 -51 -37h-75l-20 -126q-3 -26 -12 -36q-9 -11 -28 -11q-41 0 -35 39zM216 237l135 -1l29 180h-136z" />
    <glyph glyph-name="dollar" unicode="$" horiz-adv-x="521" 
d="M226 729q0 35 32 35q34 0 34 -35v-64q72 -5 132 -34q26 -14 26 -38q0 -14 -10 -24q-11 -11 -25 -11q-12 0 -36 10q-56 27 -117 27q-53 0 -93 -33t-40 -80q0 -15 5 -30q4 -14 18 -24q7 -5 12 -9l9 -7q6 -5 32 -13l32 -9q5 -1 37 -9q43 -10 77 -23q33 -12 62 -33
q30 -21 45 -52q15 -32 15 -75q0 -78 -46 -128q-47 -52 -126 -65v-68q2 -38 -35 -38q-33 0 -33 34v68q-90 3 -154 38q-34 19 -34 45q0 15 11 28q10 12 26 12q13 0 33 -9q67 -37 135 -37q63 0 104 32t41 86q0 26 -10 45q-11 19 -33 33q-23 14 -43 21q-22 8 -55 15
q-45 11 -74 21q-31 11 -62 30q-32 20 -48 49t-16 70q0 70 53 123t126 65v65z" />
    <glyph glyph-name="percent" unicode="%" horiz-adv-x="782" 
d="M538 657q7 13 20 18t26 -1q30 -17 11 -54l-35 -55l-29 -46.5l-32 -51.5t-31 -51.5l-27 -47.5l-66 -111l-31.5 -52.5t-14.5 -25.5l-95 -164q-8 -14 -22 -18q-15 -4 -28 3q-12 7 -15 20q-3 12 5 26l187 308l176 304zM34 489q0 76 35 132t105 56q66 0 107 -48
q41 -49 41 -126q0 -78 -43 -125q-44 -48 -106 -48q-55 0 -97 47q-42 46 -42 114v-2zM174 616q-77 0 -77 -121q0 -44 21 -75q21 -32 55 -32q38 0 61 30q22 29 22 86q0 50 -21 82q-21 31 -60 31zM456 150q0 75 36 129t108 54q67 0 108 -48q40 -47 40 -125q0 -76 -42 -124
t-107 -48q-59 0 -101 47q-42 46 -42 116v-1zM599 275q-41 0 -60 -34t-19 -85q0 -47 20 -79q19 -31 57 -31q40 0 63 29q22 28 21 81q-2 119 -80 119h-2z" />
    <glyph glyph-name="ampersand" unicode="&#x26;" horiz-adv-x="653" 
d="M392 633q0 -14 -9 -24q-9 -11 -22 -11q-14 0 -27 7q-39 14 -63 14q-41 0 -68 -28q-27 -29 -27 -69q0 -65 68 -142q85 -95 228 -213q15 30 15 61q1 35 -17 69t-48 38q-38 5 -38 36q0 36 39 36h9t15 -1t15 -1h8q1 0 28.5 1.5t82.5 3.5q40 1 40 -31q0 -29 -29 -34
q-10 -2 -30 -3t-51 -2q19 -13 33 -47q13 -32 13 -64q0 -57 -25 -108q13 -11 33 -25l47 -33q23 -15 23 -32q0 -14 -10 -25q-11 -12 -24 -12q-20 0 -36 12q-35 22 -78 57q-71 -71 -201 -71q-100 0 -171 59q-70 58 -70 147q0 113 110 184q-53 74 -53 138q0 67 48 117t128 50
q50 0 86 -18q29 -15 29 -37zM288 64q86 0 137 48q-80 67 -222 213l-6 6q-74 -48 -74 -128q0 -61 47 -100q46 -39 117 -39h1z" />
    <glyph glyph-name="quotesingle" unicode="'" horiz-adv-x="174" 
d="M46 673q2 35 42 35q36 0 36 -43q0 -35 -1.5 -69t-3.5 -66q-2 -23 -7 -34q-6 -12 -25 -12q-31 0 -33 35q-5 76 -6 156z" />
    <glyph glyph-name="parenleft" unicode="(" horiz-adv-x="273" 
d="M186 695q18 24 38 24q14 0 24 -10q11 -11 11 -24q0 -10 -5 -18q-37 -62 -57 -103q-21 -44 -42 -127q-21 -84 -21 -176q0 -120 29 -209q29 -88 84 -185q8 -21 8 -24q0 -13 -11 -24q-10 -10 -24 -10q-24 0 -42 33q-124 201 -123 418q1 232 132 435h-1z" />
    <glyph glyph-name="parenright" unicode=")" horiz-adv-x="273" 
d="M85 692q130 -203 132 -435q1 -217 -123 -418q-18 -33 -42 -33q-13 0 -24 11t-11 24q0 3 8 24q55 97 84 185q29 89 29 209q0 92 -21 176q-21 85 -42 128q-22 46 -57 104q-5 8 -5 18q0 13 11 24q10 10 24 10q20 0 38 -24z" />
    <glyph glyph-name="asterisk" unicode="*" horiz-adv-x="365" 
d="M53 520q-25 6 -25 29q0 14 10 21t25 3l93 -24l-3 97q0 31 27 31q29 0 29 -29l-2 -99l92 30q12 5 23 -3t11 -21q0 -19 -23 -27l-86 -27l69 -81q10 -13 10 -22q0 -11 -9 -18q-10 -8 -19 -8q-14 0 -32 23l-61 83l-53 -82q-17 -23 -30 -23q-9 0 -19 8q-9 7 -9 18q0 10 8 21
l61 81z" />
    <glyph glyph-name="plus" unicode="+" horiz-adv-x="485" 
d="M57 233q-19 0 -28 12q-9 11 -7 29q2 17 13 24t36 7h136v60v71v38q0 18 11 27q10 9 26 9q35 0 35 -45v-160h149q35 0 35 -35q0 -18 -9 -27t-33 -9q-11 -1 -46.5 -1h-95.5v-94v-72q0 -33 -39 -33q-33 1 -33 43v157h-151z" />
    <glyph glyph-name="comma" unicode="," horiz-adv-x="206" 
d="M36 -68q0 9 18 29q17 19 22 36q3 5 -3 11q-7 6 -14 17q-8 11 -8 24q0 23 15 38t38 15q24 0 41 -18q17 -19 17 -43q0 -73 -73 -128q-13 -10 -27 -10q-6 0 -16 8q-9 7 -9 18z" />
    <glyph glyph-name="hyphen" unicode="-" horiz-adv-x="353" 
d="M79 200q-19 0 -30 11q-10 10 -10 27q0 38 47 38h187q40 0 40 -35q0 -21 -12 -30t-40 -9h-183z" />
    <glyph glyph-name="period" unicode="." horiz-adv-x="206" 
d="M100 -4q-23 0 -38 16t-15 39t17 40q16 16 42 16q24 0 39 -16q15 -17 15 -40q0 -25 -17 -40t-44 -15h1z" />
    <glyph glyph-name="slash" unicode="/" horiz-adv-x="376" 
d="M281 680q9 31 35 31q13 0 27 -9q13 -9 13 -22q0 -12 -13 -48l-252 -630q-9 -28 -32 -28q-14 0 -27 9t-13 22q0 11 9 38l254 638z" />
    <glyph glyph-name="zero" unicode="0" horiz-adv-x="622" 
d="M56 306q0 68 14 135q13 64 42 120q28 55 81 88q52 33 121 33q118 0 186 -96q68 -97 68 -254q0 -153 -75 -246t-184 -93q-106 0 -180 89t-74 227zM311 600q-49 0 -86 -26q-36 -26 -54 -70q-18 -45 -27 -91q-9 -47 -9 -99q0 -63 19 -117q19 -56 60 -93q40 -37 93 -37
q80 0 131 70t51 189q0 117 -46 197q-47 81 -129 81z" />
    <glyph glyph-name="one" unicode="1" horiz-adv-x="419" 
d="M112 488q-17 -11 -30 -11q-14 0 -24 12q-11 13 -11 26q0 18 21 36l114 86t51 35q16 10 39 7q11 -1 21 -11q9 -9 9 -22v-103v-103v-126v-153v-126q0 -18 -12 -28q-11 -10 -30 -10q-18 0 -29 11t-11 30q0 13 0.5 39t1.5 66t1.5 80t1.5 81t1 77.5v69.5v128l-112 -91h-2z" />
    <glyph glyph-name="two" unicode="2" horiz-adv-x="541" 
d="M255 605q-67 0 -126 -59q-25 -25 -45 -25q-15 0 -26 11t-11 27q0 24 32 51q34 32 80 53q48 22 96 23q93 0 159 -57t66 -145q0 -26 -6 -50q-6 -23 -14 -41t-27 -41l-30 -36t-40 -40l-25.5 -24.5l-16.5 -16.5l-165 -158h99.5t83.5 1q20 0 49.5 0.5t69.5 1.5q19 0 30 -12
q11 -13 11 -28q0 -42 -46 -41h-123h-139t-96 1q-23 0 -36 13t-13 34q0 27 36 63l135 132l59 58l24 24l26 26q3 3 8 9t13 14q15 16 21 27l6.5 11l8.5 14q9 15 12 29q3 13 3 27q0 53 -40 89q-41 36 -102 36z" />
    <glyph glyph-name="three" unicode="3" horiz-adv-x="531" 
d="M397 213q0 62 -44 95t-108 33h-40q-19 -1 -31 11t-12 31t20 39q16 15 41 40.5l60 61.5l79 82q-82 0 -147 -1.5t-114 -3.5q-44 0 -44 39q0 16 11 27t30 11h47h72h43t61 1t60.5 1h41.5q25 0 36 -9t11 -31q0 -18 -37 -58l-36 -35l-52 -54l-80 -83q86 2 150 -49
q65 -51 65 -137q0 -105 -62 -169q-62 -63 -170 -63q-92 -2 -171 45q-35 20 -35 45q0 18 11 29t24 11t45 -17q67 -39 129 -39q64 0 106 42t42 108z" />
    <glyph glyph-name="four" unicode="4" horiz-adv-x="567" 
d="M352 363q0 51 37 51q22 0 31 -10q8 -10 10 -34v-155l82 1q41 2 41 -35q0 -41 -36 -41h-88v-106q0 -41 -37 -41q-41 0 -41 42v51v55q-45 1 -142 0q-49 -1 -79.5 -1h-43.5q-26 0 -38 14q-12 13 -12 33q0 29 19 58l217 405q16 31 43 31q16 0 30 -11q13 -11 15 -24
q0 -7 -8 -25l-42 -78l-51 -90l-48 -84l-82 -155l224 2l1 149z" />
    <glyph glyph-name="five" unicode="5" horiz-adv-x="545" 
d="M109 633q3 19 18 33q14 13 36 13h264q41 0 41 -38q0 -40 -46 -39l-239 3l-6 -43l-26 -170q64 38 135 38q97 0 154 -58q57 -59 57 -144q0 -102 -66 -168t-169 -66q-86 0 -168 45q-45 24 -45 52q0 17 12 29t29 12q7 0 39 -17q73 -42 133 -42q61 0 105 41t44 105
q0 58 -36 97t-100 39q-42 0 -95 -22t-66 -22q-21 0 -36 12t-12 33q4 37 21 138q8 51 14 85.5t9 54.5z" />
    <glyph glyph-name="six" unicode="6" horiz-adv-x="574" 
d="M317 607q-71 0 -123 -66q-53 -66 -54 -162v-34q22 39 74 63q51 24 101 24q91 0 153 -52q63 -53 63 -154t-66 -165q-67 -65 -169 -65q-94 0 -155 57t-75 161q-4 38 -5.5 67t-1.5 49q0 155 73 255t192 100q79 0 136 -28q33 -15 33 -41q0 -17 -10 -27q-11 -11 -27 -11
q-8 0 -39 12q-48 17 -100 17zM296 361q-67 -1 -109 -39t-42 -102t45 -106t109 -42q65 0 108 43t43 112q0 64 -41 99q-41 34 -111 33z" />
    <glyph glyph-name="seven" unicode="7" horiz-adv-x="520" 
d="M198 601h-28.5t-35.5 -1t-34 -1h-22q-44 0 -44 40q0 38 41 38h76t113 -1t111.5 -1h71.5q41 0 41 -38q0 -21 -29 -65q-68 -91 -123 -199q-28 -55 -49.5 -105.5t-36.5 -98.5q-24 -71 -39 -135q-5 -20 -13 -28q-9 -9 -32 -9q-48 0 -39 50q11 52 42 140q75 219 217 417
q-39 1 -100 0q-31 -1 -52.5 -1h-34.5z" />
    <glyph glyph-name="eight" unicode="8" horiz-adv-x="575" 
d="M503 502q0 -54 -27 -93t-72 -57q52 -17 87 -57q35 -41 36 -97q1 -99 -66 -154t-171 -55q-107 0 -174 51q-68 51 -68 140q0 64 35 108q34 43 92 63q-38 17 -66 55t-28 89q0 85 62 138t147 53q87 0 150 -51t63 -129v-4zM292 311q-67 1 -116 -32q-48 -33 -47 -96
q2 -59 43 -90t113 -31q75 0 119 35q43 34 42 96q-1 55 -46 88t-106 33zM157 487q1 -50 39 -81q37 -31 93 -31t94 35t36 89q-2 46 -39 78q-38 32 -92 32q-57 0 -94 -33t-36 -88z" />
    <glyph glyph-name="nine" unicode="9" horiz-adv-x="575" 
d="M261 71q87 0 135 68t47 197q-21 -40 -69 -67t-107 -27q-86 0 -154 58q-69 58 -69 159q0 96 70 162q71 66 168 65q109 -2 174 -81q65 -80 65 -240q0 -194 -67 -282q-68 -89 -199 -89q-82 0 -144 35q-30 16 -30 42q0 17 10 28q10 12 27 12q11 0 41 -13q54 -25 102 -25v-2z
M284 315q61 0 105 39t44 104q0 64 -45 108q-44 43 -110 43q-62 0 -106 -43q-45 -44 -45 -111q0 -65 43 -102q43 -38 114 -39v1z" />
    <glyph glyph-name="colon" unicode=":" horiz-adv-x="206" 
d="M100 346q-23 0 -38 16t-15 39t17 40q16 16 42 16q24 0 39 -16q15 -17 15 -40q0 -25 -17 -40t-44 -15h1zM101 -4q-23 0 -38 16t-15 39t17 40q16 16 42 16q24 0 39 -16q15 -17 15 -40q0 -25 -17 -40t-44 -15h1z" />
    <glyph glyph-name="semicolon" unicode=";" horiz-adv-x="206" 
d="M37 -68q0 9 18 29q17 19 22 36q3 5 -12 20t-15 33q0 23 16 38t39 15q24 0 41 -18q17 -19 17 -43q0 -73 -74 -129q-13 -10 -26 -10q-6 0 -16 8q-9 7 -9 18zM101 349q-23 0 -39 16t-16 39t17 40q16 16 42 16t41 -16q15 -17 15 -40q0 -25 -17 -40t-44 -15h1z" />
    <glyph glyph-name="less" unicode="&#x3c;" horiz-adv-x="485" 
d="M114 263q46 -26 168 -84l99 -48.5t55 -29.5q14 -9 14 -23t-10 -27t-24 -13q-16 0 -30 8l-318 169q-34 19 -34 49q0 28 33 48q16 10 309 174q18 9 30 9q13 0 24 -12q10 -11 10 -27q0 -14 -14 -23z" />
    <glyph glyph-name="equal" unicode="=" horiz-adv-x="485" 
d="M64 335q-33 0 -33 38q0 37 44 37h66h84h113h78q34 0 34 -37t-50 -39h-96h-149h-89zM64 124q-33 0 -33 38t44 38h66h84h191q34 0 34 -36q0 -20 -12 -29q-11 -8 -39 -10h-335v-1z" />
    <glyph glyph-name="greater" unicode="&#x3e;" horiz-adv-x="485" 
d="M59 434q-15 9 -15 23q0 17 10 28q10 12 25 12q13 0 30 -9l207.5 -114t102.5 -59q32 -20 32 -48q0 -30 -33 -49l-318 -169q-18 -8 -31 -8t-24 14q-10 13 -10 27t15 23q17 10 55.5 29.5l99.5 48.5l102 50l63 33l-311 167v1z" />
    <glyph glyph-name="question" unicode="?" horiz-adv-x="484" 
d="M33 583q0 20 22 35q83 65 171 65q84 0 146 -51t62 -134q0 -31 -12 -58q-12 -26 -33 -46q-20 -18 -41 -33l-45 -30l-3 -1l-3 -1l-3 -3q-46 -30 -48 -68q-2 -9 3 -18q4 -8 4 -18q0 -16 -11 -25t-27 -9q-25 0 -37 20q-12 19 -12 53q0 70 82 116l24.5 14t16.5 10q12 7 33 24
t29 35q8 19 8 39q0 49 -37 80q-38 32 -90 32q-59 0 -110 -42q-29 -21 -44 -21q-13 0 -25 12t-12 26zM154 43q0 23 17 40q16 16 42 16q27 0 42 -15t15 -39q0 -27 -17 -41t-42 -14q-27 0 -43 15t-16 40z" />
    <glyph glyph-name="at" unicode="@" horiz-adv-x="918" 
d="M638 161q-12 -107 54 -107q52 0 79 63t27 161q0 120 -90 201t-230 81q-155 0 -255 -118t-100 -282q0 -135 95 -225q95 -91 222 -92q85 -2 177 36q25 12 36 12q14 0 23 -12t9 -25q0 -18 -20 -30q-99 -51 -225 -51q-104 0 -192 48q-89 48 -144 138q-55 89 -55 203
q0 125 51 230q51 106 153 173q101 67 236 67q163 0 273 -102t110 -243q0 -138 -47 -217q-47 -78 -137 -78q-43 0 -71 24q-29 24 -36 66q-23 -38 -60 -60q-38 -23 -82 -23q-75 0 -127 50q-51 49 -51 123q0 88 54 153t145 65q38 0 71 -18t52 -49q1 4 3 18q1 13 3 18
q11 29 34 29q40 0 33 -46l-9 -65zM456 322q-56 0 -90 -43t-34 -105q0 -51 33 -82q32 -31 79 -31q59 0 92 43t33 109q0 49 -33 79t-77 30h-3z" />
    <glyph glyph-name="A" unicode="A" horiz-adv-x="639" 
d="M24 38q0 13 15 48l105 246l45.5 113l80.5 206q14 32 48 32q36 0 50 -33q9 -20 26 -62.5l42 -108.5l42 -110l26 -67l2.5 -5t3.5 -8q4 -11 6 -15l88 -214q8 -21 8 -29q0 -13 -13 -23q-14 -11 -31 -11t-27 8t-17 27q-59 151 -60 153q-16 1 -63 1h-127h-102q-2 -6 -9 -24
l-18 -47q-23 -59 -30 -75q-15 -33 -25 -39q-7 -4 -18 -4q-47 0 -47 38zM320 579q-20 -60 -50.5 -139.5l-72.5 -182.5q59 -1 118.5 -1t122.5 2l-33 90l-26.5 71.5l-24.5 67.5l-21 56t-14 37z" />
    <glyph glyph-name="B" unicode="B" horiz-adv-x="597" 
d="M294 679q91 0 153 -48q61 -48 63 -132q1 -54 -24 -93q-26 -40 -66 -59q61 -15 97 -54t36 -100q0 -83 -47 -133q-46 -49 -128 -58q-20 -2 -62.5 -3t-108.5 -1h-74q-47 0 -48 58l1 216l-1 238v25.5t-1 34.5t-1 34.5v24.5q0 42 51 47q18 2 58.5 3t103.5 1zM163 300l2 -229
q10 -1 46.5 -1h99.5q70 1 114 30t44 87q0 114 -155 114zM429 502q-1 52 -40 79t-98 27q-69 1 -129 -3q1 -7 1 -66v-171q25 0 59.5 0.5t79.5 1.5q61 2 95 37q34 36 33 94z" />
    <glyph glyph-name="C" unicode="C" horiz-adv-x="608" 
d="M519 656q44 -20 44 -45q0 -18 -9 -30t-27 -12q-15 2 -39 13q-59 28 -123 28q-92 0 -162 -79q-71 -80 -72 -198q0 -107 68 -184q67 -76 170 -78q75 0 136 40q2 1 8 5l6 4q1 1 6 3q6 2 9 2h9q14 0 23 -13q9 -14 9 -30q0 -34 -69 -62q-70 -29 -144 -29q-127 1 -220 93
q-94 92 -92 242q2 162 100 260q99 99 226 98q80 0 146 -29z" />
    <glyph glyph-name="D" unicode="D" horiz-adv-x="675" 
d="M78 623q0 58 81 58h69h67q146 -8 241 -91q96 -84 96 -229q0 -358 -380 -361q-40 0 -70.5 0.5t-52.5 1.5q-48 3 -48 59l2 272l-3 289zM265 607q-69 0 -105 -3v-503q0 -16 15 -19t69 -3q303 0 303 273q0 86 -40 144q-41 58 -102 84q-63 26 -139 26z" />
    <glyph glyph-name="E" unicode="E" horiz-adv-x="543" 
d="M96 639q0 24 16 33t49 9h48h59.5t74.5 1t67.5 1h39.5q46 0 48 -36q0 -33 -27 -37q-15 -1 -75 -1h-166h-52q-1 -21 -1 -51v-70l-1 -97v-19h50q108 0 174 3q28 0 39 -7q12 -8 12 -30q-2 -36 -45 -36h-231v-72v-32.5t-1 -45.5t-1 -45.5v-32.5q66 0 131.5 0.5t132.5 1.5h18
h17q35 0 35 -36q0 -19 -11 -30t-39 -12h-262q-67 0 -84 10t-19 51v22.5t1 16.5l1 14v38v57v80v96v127v127z" />
    <glyph glyph-name="F" unicode="F" horiz-adv-x="525" 
d="M93 499l-2 125q-1 22 14 37t35 15h58h126.5t103.5 1q7 1 16.5 1h22.5q16 0 25 -10q9 -11 9 -27q0 -38 -34 -39h-60h-232v-69v-69v-106h96l159 2q16 1 25 -9q9 -11 9 -27q0 -37 -40 -38h-78h-78h-95v-89l1 -153q0 -48 -40 -48q-25 0 -34 12t-9 39v35v39v59v60z" />
    <glyph glyph-name="G" unicode="G" horiz-adv-x="711" 
d="M388 681q113 0 198 -55q25 -16 25 -36q0 -16 -9 -28t-25 -12t-46 18q-59 40 -147 40q-94 0 -171 -80q-76 -79 -76 -186q0 -127 68 -201q67 -73 180 -73q90 0 146 65q55 64 57 153h-141q-15 1 -24 12q-9 10 -9 24q0 33 34 36q5 1 171 1q30 0 41 -15q11 -16 11 -46
q0 -137 -82 -222t-210 -85q-144 0 -235 96q-91 95 -91 250q0 143 101 246q100 102 234 102v-4z" />
    <glyph glyph-name="H" unicode="H" horiz-adv-x="697" 
d="M609 32q0 -37 -42 -37q-43 0 -43 38v93l-1 161h-72t-102 -1t-104 -1h-77l2 -254q0 -36 -44 -36q-41 0 -41 36q0 20 0.5 62t1.5 107q1 129 0 199l-4 239q0 40 44 40q40 0 40 -35v-125t1 -156h15h38h58h92h93l62 1v56t-1 85t-1 81.5v45.5q2 50 43 50t41 -44v-147v-109
t1 -48v-301z" />
    <glyph glyph-name="I" unicode="I" horiz-adv-x="274" 
d="M98 402v41t-1 66t-1 72v59q0 42 44 42q19 0 29 -10q11 -11 11 -28v-101t-1 -148v-160l1 -192q0 -47 -42 -47q-20 0 -31 10q-12 11 -11 30v42v45l1 280z" />
    <glyph glyph-name="J" unicode="J" horiz-adv-x="484" 
d="M306 642q-1 19 11 31t31 12q44 0 44 -41q0 -44 3 -138q3 -95 3 -141v-71.5t-1 -48.5q-3 -121 -53 -186t-162 -65q-37 0 -76 17q-38 16 -57 33q-24 21 -24 44q0 16 11 27t27 11q6 0 9 -1q5 -2 11 -6q3 -2 5 -3.5t4 -3.5t4.5 -4l6.5 -5q8 -7 11 -8q31 -25 70 -25
q36 0 59 13q25 14 38 33t21 56q8 36 9 70q1 17 1.5 39t0.5 48z" />
    <glyph glyph-name="K" unicode="K" horiz-adv-x="606" 
d="M471 654q21 24 41 24q16 0 30 -12t14 -27q0 -14 -13 -30q-17 -20 -63.5 -70.5l-122.5 -132.5q-2 -2 -6.5 -7.5t-12.5 -13.5t-13 -14t-9 -10l153 -182l95 -111q16 -16 16 -36q0 -17 -13 -29q-14 -12 -31 -12q-22 0 -39 20q-5 5 -11 13.5l-14 19.5l-210 266
q-17 -20 -49 -52l-42 -42v-186q0 -37 -42 -37q-19 -1 -31 9t-12 28v29v33v115.5t1 156.5t1 157v117q0 44 42 44t42 -40v-67.5t-1 -95.5t-1 -94.5v-64.5z" />
    <glyph glyph-name="L" unicode="L" horiz-adv-x="494" 
d="M90 636q0 19 12 30q13 11 32 11q38 0 38 -41q0 -16 -0.5 -70.5t-1.5 -149.5v-99v-57.5t-1 -40.5v-81v-48v-19h75t42 1l153 6q39 0 39 -36q0 -43 -41 -43h-116q-56 0 -94 -0.5t-58 -1.5q-47 -2 -65 9q-17 10 -19 47v39q0 20 0.5 51.5t1.5 74.5q1 85 3 129v293v-4z" />
    <glyph glyph-name="M" unicode="M" horiz-adv-x="850" 
d="M195 543q-4 -33 -9 -79.5t-13 -107.5t-14 -114l-11 -99q-11 -92 -15 -117q-6 -35 -42 -35q-19 0 -30 14q-11 13 -9 33q7 42 19 126.5l29 214.5q34 256 36 265q3 16 20 25q16 9 36 9q31 -2 47 -46l155 -441q3 -11 9 -24q5 -12 9 -23q2 -5 3 -8.5t2 -6.5l9 28l28.5 66.5
l28.5 70.5l66 171l34 89.5l27 70.5q18 43 42 54q13 1 22 0q28 -2 36 -15q4 -13 8.5 -43.5t10.5 -78.5l14 -113.5l18 -150.5l27 -237q3 -47 -40 -47q-36 0 -41 38q-11 86 -27 256q-8 87 -14.5 149.5t-11.5 103.5l-184 -475q-19 -46 -55 -45q-18 0 -27 11q-10 11 -17 33
l-40 110.5l-56 161.5l-50 146l-22 63z" />
    <glyph glyph-name="N" unicode="N" horiz-adv-x="707" 
d="M163 47q0 -28 -9 -40t-30 -12q-43 0 -43 40v95t1 169v117v117v106q0 19 15 31t37 12q12 0 25 -8q12 -8 18 -15l7.5 -10l11.5 -15l245 -347l106 -149q-3 87 -3 235l-2 247q0 29 8 45q7 15 33 15q24 0 32 -14t8 -45v-332q1 -29 1.5 -90.5t0.5 -155.5q0 -20 -13 -32
q-14 -12 -36 -12q-18 0 -28 9q-11 9 -30 36l-354 505q-2 -56 0 -258q1 -102 1.5 -161.5t0.5 -79.5z" />
    <glyph glyph-name="O" unicode="O" horiz-adv-x="746" 
d="M377 687q133 0 228 -96q95 -97 95 -242q0 -152 -93 -255t-234 -103q-83 0 -156 39t-120 116t-47 174q0 84 28 153q28 70 75 117q46 46 105 72q58 25 120 24zM619 347q-2 116 -76 189q-76 74 -175 74q-95 0 -165 -79t-70 -198q0 -116 72 -189t176 -73q99 0 168 83t68 192z
" />
    <glyph glyph-name="P" unicode="P" horiz-adv-x="571" 
d="M88 443v52v49v96q6 34 50 39q45 3 156 3q97 0 165 -44q82 -57 81 -174q0 -71 -43 -130q-44 -60 -111 -78q-35 -9 -192 -9h-23v-42.5t1 -60.5t1 -63v-48q0 -39 -42 -39q-19 0 -31 9t-12 26v201v212v1zM171 421v-48v-50h49q96 -3 140 8q46 10 72 50q25 39 27 86
q2 77 -57 113q-47 26 -120 26q-88 0 -113 -3v-32t1 -52t1 -55v-41v-2z" />
    <glyph glyph-name="Q" unicode="Q" horiz-adv-x="757" 
d="M338 -9q-54 7 -102 30q-50 24 -92 61q-44 39 -69 103q-26 66 -26 144q0 139 92 245q91 105 218 108q8 2 12 2q137 0 231 -91q94 -92 96 -237q3 -221 -158 -323q-20 -14 -48 -24q12 -8 51 -36q40 -29 67 -42t60 -13q28 0 45 10t25 23t18 23t24 10q19 0 30 -10
q12 -11 12 -30q0 -43 -46 -77q-47 -35 -105 -33q-37 0 -73 17q-35 17 -88 58l-46 35t-30 21q-35 22 -57 24zM611 345q0 85 -39 147q-38 60 -95 88q-56 27 -120 27q-86 0 -156 -81q-71 -82 -71 -193q0 -116 74 -193q73 -76 191 -78q100 13 159 90t59 192z" />
    <glyph glyph-name="R" unicode="R" horiz-adv-x="605" 
d="M89 624q0 52 68 54q30 1 54.5 1.5t43.5 0.5q24 0 42 -0.5t31 -1.5q97 -6 154 -60t57 -144q0 -73 -39 -124q-40 -52 -103 -68l155 -215q14 -20 14 -30q0 -16 -13 -28q-13 -11 -31 -13q-18 0 -36 21l-168 243h-149v-108v-104q0 -48 -37 -49q-27 0 -36 12t-9 39
q1 31 1.5 147.5t0.5 320.5v53v53zM292 608h-79t-46 -1l1 -274h120q77 0 122 33t47 107q0 65 -43 99q-44 35 -120 35z" />
    <glyph glyph-name="S" unicode="S" horiz-adv-x="563" 
d="M466 650q27 -14 27 -40q0 -15 -10 -26q-11 -12 -27 -12q-13 0 -37 11q-60 28 -128 28q-62 0 -103 -34q-42 -35 -42 -87q0 -17 5 -32q4 -14 18 -24l22 -16q7 -5 33 -13q25 -8 33 -9q7 -2 39 -9q53 -12 86 -24q36 -12 68 -33t49 -54q17 -34 17 -77q0 -91 -66 -148t-173 -57
q-103 -1 -185 41q-37 16 -37 44q0 16 11 30q10 13 27 13q15 0 36 -10q76 -40 148 -40q67 0 111 33t44 89q0 52 -42 78q-43 26 -118 41q-23 5 -42 10t-36 10q-33 10 -66 30q-32 19 -49 50t-17 71q0 86 70 144t163 58q96 0 171 -37v1z" />
    <glyph glyph-name="T" unicode="T" horiz-adv-x="569" 
d="M286 675h42t74 1t71 1h33q43 0 43 -35q0 -22 -11 -31t-36 -9h-181v-60v-101q0 -28 0.5 -69.5t1.5 -97.5t1.5 -113t1.5 -117q0 -49 -45 -49q-20 0 -29 10t-9 36l1 376v93v93h-96.5t-95.5 -1q-37 0 -37 38t39 38h32h75h128z" />
    <glyph glyph-name="U" unicode="U" horiz-adv-x="682" 
d="M82 273v200v155q0 46 39 46q23 0 33 -10t10 -33q-1 -25 -1 -113.5v-243.5q0 -103 47 -153t132 -50q76 0 126 57q49 57 51 146q2 50 0 188q-1 69 -1 113v64q0 40 42 40q41 0 41 -49l1 -328q2 -146 -69 -227t-198 -81q-118 0 -186 74q-67 73 -67 207v-2z" />
    <glyph glyph-name="V" unicode="V" horiz-adv-x="639" 
d="M41 608q-12 31 -12 39q0 16 15 27q16 11 33 11q28 0 39 -29q1 -6 15 -45l22 -60l172 -441q5 11 13 33l21 55l175 456q10 31 39 31q17 0 31 -10q15 -11 15 -27q0 -11 -12 -42l-28.5 -71l-58.5 -141q-2 -2 -18 -43q-8 -21 -18 -44.5l-21 -49.5l-89 -217q-18 -39 -56 -39
q-22 0 -33 11q-11 10 -21 36l-19.5 49l-22.5 55l-30.5 74l-44.5 108l-53.5 130l-56.5 140z" />
    <glyph glyph-name="W" unicode="W" horiz-adv-x="845" 
d="M39 633q-4 19 8 33t33 14q34 0 42 -35l99 -518q15 40 51 151.5l94 297.5q15 51 53 51q16 0 28 -9q13 -10 17 -22l153 -456l61.5 293.5t38.5 198.5q5 28 15 38q11 11 31 11q17 0 31 -12q13 -12 9 -31l-129 -593q-4 -24 -14 -37q-9 -12 -34 -12q-15 0 -26 8q-10 7 -15 17
q-4 8 -9 23l-154 455l-55.5 -170l-92.5 -269l-12 -30t-18 -22t-30 -12q-31 1 -43 24q-12 22 -24 84q-2 8 -3 14t-2 11l-102 508z" />
    <glyph glyph-name="X" unicode="X" horiz-adv-x="623" 
d="M264 229l-154 -211q-18 -24 -38 -24q-17 0 -30 12t-13 27t15 36l215 278l-200 255q-16 20 -16 35q0 17 14 29q13 12 30 12q20 0 42 -31l181 -242l183 245q23 29 43 29q16 0 30 -12q13 -12 13 -26q0 -13 -14 -33l-205 -262l214 -271q19 -23 19 -38t-15 -27t-31 -12
q-14 0 -21 7q-9 9 -20 24l-141 192l-54 68z" />
    <glyph glyph-name="Y" unicode="Y" horiz-adv-x="599" 
d="M253 278l-213 324q-15 24 -15 37q0 16 14 28q13 12 30 12q19 0 42 -33q191 -304 192 -305l21 33l23.5 36.5l38.5 62.5l111 177q20 29 39 29q16 0 29 -11q12 -11 12 -26q0 -12 -14 -34l-221 -339v-118v-118q0 -17 -12 -26t-30 -9q-17 0 -30 11q-12 10 -12 30v35v36v83v75z
" />
    <glyph glyph-name="Z" unicode="Z" 
d="M76 598q-37 0 -37 37q0 40 41 40h212h34.5t52.5 1t53.5 1h36.5q43 0 43 -38q0 -16 -23 -51l-42 -66l-237 -344l-73 -107q94 0 205 3t137 3q41 0 41 -40q0 -38 -52 -38q-31 -1 -123.5 -1h-248.5q-55 0 -58 32q-2 15 1 24q9 33 52 91l60 85l194 274l63 98h-166h-97t-69 -1
v-3z" />
    <glyph glyph-name="bracketleft" unicode="[" horiz-adv-x="298" 
d="M75 672q1 20 14 33q12 12 32 12h53h71q35 0 35 -37q0 -34 -36 -34h-92v-139t-1 -94v-56t-1 -100t-1 -99v-54q-1 -28 -1 -80.5v-130.5h45h44q36 0 36 -36t-39 -36h-109q-28 0 -40 14q-12 13 -12 45q0 63 3 221q3 157 3 236v182v153h-4z" />
    <glyph glyph-name="backslash" unicode="\" horiz-adv-x="376" 
d="M348 43q10 -26 10 -38q0 -13 -14 -22t-27 -9q-23 0 -33 28l-251 630q-13 36 -13 48q0 14 12 23t26 9q26 0 36 -31z" />
    <glyph glyph-name="bracketright" unicode="]" horiz-adv-x="298" 
d="M215 582v-141v-109q0 -86 3 -243q3 -158 3 -213q0 -32 -12 -45t-40 -13h-110q-38 0 -38 36t36 36h44h45v130.5t-1 80.5q-2 33 -3 156q-1 62 -1 100.5v54.5q-2 123 0 233h-92q-36 0 -36 34q0 37 35 37h71h53q19 0 33 -12q13 -12 13 -32z" />
    <glyph glyph-name="asciicircum" unicode="^" horiz-adv-x="500" 
d="M413 289l-77 146l-91 165q-26 -47 -84 -168l-48.5 -99t-29.5 -55q-11 -14 -24 -14q-14 0 -27 10t-13 24q0 16 8 30l169 318q19 34 51 34q27 0 47 -33q23 -35 66 -112l107 -197q10 -16 10 -30t-12 -24q-11 -10 -28 -10q-14 0 -23 14z" />
    <glyph glyph-name="underscore" unicode="_" horiz-adv-x="500" 
d="M48 -78q-19 0 -28 12q-9 13 -8 28q0 37 50 37h203h186q38 0 38 -36q0 -39 -53 -39h-388v-2z" />
    <glyph glyph-name="grave" unicode="`" horiz-adv-x="239" 
d="M149 549q-34 32 -58.5 57.5l-41.5 44.5q-13 16 -13 30q0 13 12 24q13 11 26 11q19 0 31 -17l88 -109q9 -11 9 -21t-9 -19t-20 -9t-24 10v-2z" />
    <glyph glyph-name="a" unicode="a" horiz-adv-x="568" 
d="M496 171q0 -32 1.5 -67.5t3.5 -74.5q0 -34 -43 -34q-22 0 -28 18t-9 66q-50 -87 -162 -87q-94 0 -154 64t-60 156q0 106 66 177t163 71t148 -78q0 26 3 41q4 34 36 34q23 0 30 -13q8 -14 8 -42l-1 -78zM127 211q0 -64 41 -107q40 -42 99 -42q65 0 109 45q43 44 43 116
q0 76 -43 119q-44 44 -102 44q-61 0 -103 -49q-42 -50 -42 -123z" />
    <glyph glyph-name="b" unicode="b" horiz-adv-x="577" 
d="M74 681q1 40 42 40q42 0 42 -39q-1 -53 -1.5 -130.5t-0.5 -180.5q24 44 69 68t97 24q92 0 152 -69t60 -161q0 -101 -65 -172q-64 -70 -161 -70q-48 0 -91 24t-66 65l-1 -48q-5 -36 -42 -35q-35 0 -35 49l4 202l-4 435zM448 230q0 63 -42 110t-100 47q-63 0 -108 -46
q-45 -47 -45 -118q0 -69 44 -115q43 -45 101 -45q62 0 107 48t45 120z" />
    <glyph glyph-name="c" unicode="c" horiz-adv-x="447" 
d="M391 426q19 -13 19 -33q0 -15 -10 -26q-11 -12 -25 -12q-4 0 -40 14q-33 14 -69 14q-62 0 -102 -52q-41 -53 -41 -112q0 -64 38 -108t99 -44q53 0 86 21q29 16 39 16q14 0 24 -13q11 -14 11 -27q0 -16 -15 -28q-55 -46 -141 -46q-104 0 -164 69q-60 70 -59 153
q1 97 66 174q64 76 166 76q68 0 120 -31z" />
    <glyph glyph-name="d" unicode="d" horiz-adv-x="569" 
d="M496 439v-196v-26.5t1 -51.5t1 -65v-68q0 -39 -40 -39q-35 0 -38 35l-1 56q-56 -93 -161 -93q-94 0 -154 68q-60 67 -60 156q0 103 66 174t163 71q45 0 84 -21q38 -21 61 -57l-2 292q0 49 42 49t42 -39zM125 218q0 -63 42 -108t101 -45q61 0 105 44t44 116t-40 116
q-41 45 -100 45q-64 0 -107 -48q-44 -49 -44 -120h-1z" />
    <glyph glyph-name="e" unicode="e" horiz-adv-x="509" 
d="M131 203q1 -55 41 -96q39 -40 101 -40q59 0 109 33q25 12 33 12q14 0 26 -12t12 -26q0 -23 -27 -39q-61 -43 -162 -43q-89 0 -152 63q-64 63 -65 152q0 102 65 178q64 75 159 75q83 0 139 -55q57 -56 57 -124q0 -41 -13 -57q-14 -17 -63 -18q-17 -1 -34 -1h-36h-93h-99z
M273 391q-57 0 -96 -39t-45 -90q232 4 243 6q12 1 12 9q0 49 -33 81q-34 32 -79 32z" />
    <glyph glyph-name="f" unicode="f" horiz-adv-x="361" 
d="M206 379v-252v-20t1 -28t1 -28v-20q0 -36 -40 -36q-41 0 -41 45v89v38.5t-1 72.5q-1 90 0 139h-76q-37 0 -37 34q0 40 49 40h64v30v30q0 97 45 159t147 62q35 0 60 -13q18 -9 18 -32q0 -14 -7 -24t-21 -10q-13 0 -33 4q-23 4 -36 3q-45 -1 -70 -43q-25 -41 -25 -99v-68
h106q43 0 43 -38q0 -37 -36 -37z" />
    <glyph glyph-name="g" unicode="g" horiz-adv-x="564" 
d="M262 -156q67 0 111 45q44 46 44 118v70q-24 -41 -66 -63q-41 -22 -91 -22q-92 0 -153 66q-61 65 -61 156q0 105 66 176t163 71q89 0 145 -78l1 42q2 32 38 32q17 0 27 -10q11 -11 11 -28q-1 -115 -1.5 -195t-0.5 -125l1 -94q1 -106 -66 -172q-68 -66 -171 -66
q-81 0 -137 28q-34 16 -34 42q0 16 11 29q10 12 26 12q4 0 12 -2q6 -2 15 -6q9 -5 15 -6q43 -18 93 -18zM128 217q0 -65 41 -108q40 -42 99 -42q63 0 107 42t44 116q0 77 -41 120q-41 42 -102 42q-63 1 -105 -47t-42 -123h-1z" />
    <glyph glyph-name="h" unicode="h" horiz-adv-x="548" 
d="M77 684q0 50 45 50q39 0 39 -45v-40v-39t-1 -60t-1 -78.5v-96.5q20 41 62 67q40 25 93 25q79 0 126 -57q47 -58 47 -144v-229q0 -38 -44 -38q-18 0 -30 9t-12 26q2 60 3.5 116t1.5 108q0 62 -30 97q-30 34 -84 34q-56 0 -96 -43t-40 -108v-111v-94q0 -37 -42 -37
q-40 0 -40 36v33t1 42t1 38v22l-1 514z" />
    <glyph glyph-name="i" unicode="i" horiz-adv-x="241" 
d="M77 419q2 21 13 30q12 9 28 9q23 0 32 -12q10 -13 11 -46v-115v-115v-131q0 -23 -9 -33q-9 -11 -32 -11q-40 0 -40 41v383h-3zM113 596q-25 0 -40 17q-15 16 -13 42q4 25 21 39t39 14q27 0 42 -15t15 -40q0 -28 -17 -42t-45 -14z" />
    <glyph glyph-name="j" unicode="j" horiz-adv-x="229" 
d="M73 422q2 17 13 26q12 9 29 9q41 0 41 -34v-255q0 -146 -3 -260q-1 -58 -45 -100q-43 -41 -108 -43q-85 0 -85 46q0 19 9 31t23 12q8 0 26 -5t30 -5q68 0 72 97q2 31 2.5 107.5t-0.5 201.5v34.5t-1 52.5t-1 52.5v34.5zM107 595q-24 0 -39 15t-15 41t18 41t45 15t42 -16
q15 -17 15 -42q0 -29 -18 -42q-19 -14 -46 -14z" />
    <glyph glyph-name="k" unicode="k" horiz-adv-x="466" 
d="M428 61q12 -14 12 -27q0 -14 -12 -27t-30 -13q-17 0 -41 28l-151 179l-52 -51v-106q-1 -25 -9 -37t-30 -12q-24 0 -33 12t-9 39l2 116v439v52t-1 32q-1 21 11 33t32 12q40 0 40 -50v-89t-1 -128t-1 -128v-89l191 195q25 25 42 25q15 0 28 -13t13 -30q0 -13 -20 -33
l-147 -142z" />
    <glyph glyph-name="l" unicode="l" horiz-adv-x="235" 
d="M78 682q0 19 12 30q13 11 32 11q24 0 33 -13q9 -14 9 -43q-6 -492 -6 -502q0 -26 3 -72q3 -47 3 -63q0 -34 -38 -36q-21 -2 -33 13q-11 14 -13 48q-2 39 -2.5 194.5t1.5 430.5z" />
    <glyph glyph-name="m" unicode="m" horiz-adv-x="819" 
d="M73 237v74v51v30v18v9q0 40 43 40q34 0 37 -40l2 -42q20 44 60 65t84 21q49 0 87 -27q37 -27 51 -68q21 41 62 69q40 27 93 27q84 0 123 -54t39 -142v-95q0 -61 -3 -142q0 -34 -42 -34q-16 0 -28 9t-12 25q2 97 3 152t1 69q0 137 -96 137q-52 0 -85 -33t-34 -97v-102v-61
t-1 -47q0 -26 -9 -39t-34 -12q-17 0 -27 9t-10 26q1 184 0 237t-26 87q-24 33 -70 33q-126 0 -126 -169l1 -192q-2 -33 -43 -33q-16 0 -28 9t-12 26v25t1 23l3 164z" />
    <glyph glyph-name="n" unicode="n" horiz-adv-x="553" 
d="M77 405q0 26 9 40q9 13 33 13q21 0 29 -11q7 -11 9 -36l1 -44q20 46 64 71q46 26 97 26q83 0 126 -52q44 -53 44 -144v-131v-90q0 -27 -10 -38q-11 -12 -36 -12q-39 0 -39 38q0 13 0.5 37.5t1.5 60.5q2 72 0 110q-1 143 -107 145q-33 0 -60 -11q-26 -11 -41 -27
q-15 -17 -24 -42q-9 -26 -12 -51q-3 -26 -3 -57v-167q0 -37 -43 -37q-39 0 -39 37v51v80v136v105z" />
    <glyph glyph-name="o" unicode="o" 
d="M295 463q18 0 25 -7q88 -14 135 -81q47 -68 47 -151q0 -101 -69 -168q-68 -67 -169 -67q-89 0 -156 62q-66 61 -66 159q0 112 69 183q69 70 183 72zM419 226q0 68 -39 113t-109 49q-66 -4 -106 -52q-40 -47 -40 -129q0 -62 42 -102q43 -41 95 -41q64 0 111 45t47 118z
" />
    <glyph glyph-name="p" unicode="p" horiz-adv-x="571" 
d="M73 421q1 40 42 40q32 0 37 -32l1 -59q26 44 69 68t96 24q95 0 152 -66t57 -163q0 -101 -65 -172q-64 -70 -162 -70q-97 0 -146 72v-17t1 -32t1 -35.5v-27.5v-63v-71q0 -43 -45 -41q-38 2 -38 41l2 397l-1 208zM442 232q0 65 -41 111q-41 45 -99 45q-63 0 -107 -47
t-44 -120t39 -115t101 -42q64 0 108 48q44 49 44 121z" />
    <glyph glyph-name="q" unicode="q" horiz-adv-x="565" 
d="M487 20v-46t1 -62t1 -62v-46q-1 -37 -42 -37q-43 0 -42 43q1 52 1.5 115.5t0.5 139.5q-48 -75 -152 -75q-93 0 -153 68q-60 67 -60 158q0 106 65 176q64 69 164 69q43 0 81 -22q39 -23 63 -60l3 48q2 14 12 23t26 9q15 0 26 -9t11 -25q-3 -144 -3 -166l-1 -238zM122 217
q0 -62 42 -108t100 -46q62 0 104 42t42 117q0 76 -40 120q-41 45 -96 45q-63 0 -107 -47t-44 -123h-1z" />
    <glyph glyph-name="r" unicode="r" horiz-adv-x="357" 
d="M77 416q-2 41 41 41q31 0 34 -33l2 -70q24 53 65 80q40 27 83 27q46 0 46 -39q0 -16 -9 -28t-27 -12h-19q-56 0 -95 -49q-39 -50 -39 -123v-177q0 -38 -42 -38q-22 0 -31 12q-9 13 -8 42q0 11 0.5 39.5t1.5 76.5t1.5 82t0.5 56v22t-1 34t-1 34v24z" />
    <glyph glyph-name="s" unicode="s" horiz-adv-x="454" 
d="M237 462q79 0 132 -24q27 -14 27 -32q0 -37 -34 -37q-8 0 -47 12t-80 12q-40 0 -69 -20t-29 -51q0 -15 6 -24t23 -15q19 -7 27 -8q5 -1 14.5 -2.5t23.5 -3.5q10 -2 14 -3q79 -11 122 -39q44 -29 44 -92q0 -68 -51 -105q-52 -38 -133 -38q-62 0 -119 18t-57 41q0 42 35 42
q8 0 56 -15t90 -15t71 18t29 50q0 33 -26 47q-27 14 -83 23q-15 2 -27 4t-21 4q-17 3 -43 12q-25 9 -40 21q-14 11 -25 32q-10 19 -10 45q0 61 54 102q55 41 124 41h2z" />
    <glyph glyph-name="t" unicode="t" horiz-adv-x="357" 
d="M48 377q-35 0 -35 35q0 37 39 37h62l1 82q0 57 44 57q20 0 27 -10t7 -34q0 -17 -0.5 -40.5t-1.5 -53.5l101 1q37 0 37 -36t-37 -36h-100v-198q0 -60 14 -88q13 -27 50 -27q12 0 27 5t21 5q14 0 23 -11t9 -24q0 -25 -20 -36q-26 -12 -64 -12q-73 0 -106 42t-33 135v43.5
t1 62.5t1 62v43h-66z" />
    <glyph glyph-name="u" unicode="u" horiz-adv-x="560" 
d="M116 456q36 0 36 -42v-38.5t-1 -55.5t-1 -58.5v-46.5q0 -64 26 -107q25 -42 81 -42q78 0 111 54t33 151l1 143q0 22 12 34t31 12q41 0 41 -44v-12t-1 -33t-1 -43.5v-43.5v-47.5t1 -54.5q0 -78 6 -147q0 -36 -40 -36q-33 0 -39 33q-2 13 -3 39q-1 13 -1 20v9
q-50 -107 -160 -107q-88 0 -133 57t-45 155v103v102q0 47 46 47v-1z" />
    <glyph glyph-name="v" unicode="v" horiz-adv-x="493" 
d="M37 384q-13 27 -13 42q0 14 14 25q13 10 30 10q18 0 27 -12q10 -13 20 -39l131 -321l69 159.5t67 169.5q15 39 42 39q16 0 30 -9t14 -23q1 -13 -11 -42l-153 -339q-13 -27 -25 -37q-11 -10 -34 -10q-22 0 -34 12t-27 45l-146 331z" />
    <glyph glyph-name="w" unicode="w" horiz-adv-x="747" 
d="M34 412v6v6q0 14 15 25q14 10 31 10q26 0 35 -27l60.5 -230.5l29.5 -109.5l52.5 136.5l73.5 198.5q11 26 42 26q34 0 48 -36l123 -321l69 256l21 75q7 27 35 27q17 0 31 -10q15 -11 15 -25q0 -12 -1 -15q-5 -12 -16 -47t-28 -94l-29 -98t-19 -59q-2 -7 -4.5 -14.5
l-5.5 -16.5l-5.5 -16.5l-4.5 -13.5l-3.5 -10.5t-3.5 -8.5q-14 -32 -48 -32q-37 0 -50 43q-4 9 -33.5 85.5l-86.5 222.5l-107 -280q-17 -41 -30 -56q-14 -15 -39 -15q-23 0 -36 11q-11 10 -19 35l-34.5 112.5l-34.5 117.5l-27.5 96.5l-14.5 49.5z" />
    <glyph glyph-name="x" unicode="x" horiz-adv-x="492" 
d="M149 170l50 61l-20 22l-116 132q-18 22 -18 37q0 13 14 24q13 10 27 12q19 0 36 -21l124 -154l115 141q15 19 24 27q10 8 23 8t27 -12t14 -26q0 -5 -2 -13q-2 -6 -7 -13l-9 -12q-4 -6 -13 -15q-12 -12 -15 -16l-105 -123l140 -163q18 -23 18 -33q0 -14 -13 -26
q-14 -12 -30 -12q-20 0 -39 27l-124 154l-124 -152q-21 -29 -44 -29q-16 0 -28 12t-12 26q0 18 14 32z" />
    <glyph glyph-name="y" unicode="y" horiz-adv-x="493" 
d="M245 95l63.5 148l71.5 178q7 19 16 28t25 9q17 0 30 -10q14 -11 14 -25q0 -15 -7 -30q-83 -198 -231 -504q-62 -114 -144 -114q-68 0 -68 42q0 38 43 38q34 0 52 12q19 13 41 51q21 34 54 102l-39 81l-122 273q-16 33 -16 49t14 27q13 10 30 10q21 0 33 -20l144 -344z
" />
    <glyph glyph-name="z" unicode="z" horiz-adv-x="448" 
d="M254 385h-31.5t-50.5 -1q-60 -2 -96 0q-34 0 -34 37q0 38 53 38h35t50 -1t49.5 -1h34.5h19t26 1t27 1h20q43 -2 45 -30q2 -15 -1 -24q-11 -26 -51 -75l-197 -235l-17 -23l181 4q54 3 57 3q38 0 38 -38t-41 -40h-26h-34h-32.5t-58.5 -1t-66.5 -1h-55.5q-28 0 -42 11
q-13 10 -13 36q0 16 14 38q7 11 19.5 26.5l30.5 37.5l200 237l-47 -1z" />
    <glyph glyph-name="braceleft" unicode="{" horiz-adv-x="293" 
d="M22 270q0 8 1 11q2 6 4 9q4 6 5 8q1 3 7 7l8 6q1 1 9 6q7 4 9 6t6 4.5t9 6.5q10 7 15 12l12 12q7 7 10 15q3 7 3 17q0 36 -18 98q-17 60 -19 99q0 57 44 99q43 42 108 42q14 0 23 -10q9 -11 9 -24t-8 -24t-21 -11q-32 0 -57 -23q-24 -23 -24 -56q0 -35 18 -96
q19 -63 20 -99q0 -70 -96 -119q97 -52 97 -114q0 -36 -19 -99t-19 -102q0 -30 21 -54t56 -24q11 0 20 -10q9 -11 9 -24q0 -14 -8 -24q-8 -9 -23 -9q-69 0 -109 43t-40 102q0 35 18 98q19 65 20 99q0 8 -6 19q-5 9 -12 16l-19 16q-7 5 -11.5 8.5t-6.5 5.5l-14 9l-9 6
q-5 4 -13 15q-7 10 -7 26z" />
    <glyph glyph-name="bar" unicode="|" horiz-adv-x="256" 
d="M86 682q1 42 39 42q22 0 31 -10q8 -10 10 -39v-252v-252l1 -323q1 -46 -41 -46q-38 0 -38 42l1 329l-1 509h-2z" />
    <glyph glyph-name="braceright" unicode="}" horiz-adv-x="293" 
d="M266 263q0 -16 -7 -26q-8 -11 -13 -15l-9 -6l-14 -9q-2 -2 -6.5 -5l-11.5 -8q-14 -11 -19 -16q-7 -7 -12 -16q-6 -11 -6 -19q1 -34 20 -99q18 -63 18 -98q0 -59 -40 -102t-109 -43q-16 0 -23 10q-8 11 -8 25t9 23t20 9q35 0 56 24t21 54q0 39 -19 102t-19 99q0 62 97 114
q-96 49 -96 119q1 36 20 99q18 61 18 96q0 33 -24 56q-25 23 -57 23q-13 0 -21 11t-8 24t9 24t23 11q64 0 108 -42t44 -99q-2 -39 -19 -99q-18 -62 -18 -98q0 -10 3 -17q3 -8 10 -15l12 -12q4 -5 15 -12q5 -4 9 -6.5t6 -4.5t8 -5q3 -2 5 -3l4 -2t3.5 -2t3.5 -3q4 -3 6 -6
q1 -2 5 -6t5 -6t3 -8q1 -3 1 -9z" />
    <glyph glyph-name="asciitilde" unicode="~" horiz-adv-x="500" 
d="M107 228q-15 -23 -37 -23q-16 0 -25 12q-9 13 -5 29q12 38 44 65q31 26 75 28q34 0 65 -20l57 -39q28 -20 51 -20q34 0 53 46q11 23 36 23q14 0 25 -11t9 -26q-29 -99 -117 -99q-33 0 -64 20q-30 19 -57 39t-49 21q-15 0 -28 -8q-12 -8 -17 -14l-12 -20z" />
    <glyph glyph-name="uni00A0" unicode="&#xa0;" horiz-adv-x="246" 
 />
    <glyph glyph-name="exclamdown" unicode="&#xa1;" horiz-adv-x="229" 
d="M83 200q1 25 9 36q7 10 24 10q31 0 33 -35q4 -118 6 -210.5t2 -161.5q2 -38 -7 -52q-9 -15 -34 -15q-21 0 -34 11q-12 10 -10 30l7 238zM113 462q25 0 42 -15t17 -40q0 -24 -15 -39t-40 -15q-23 0 -40 17q-16 16 -16 41q0 22 15 36q16 14 38 14z" />
    <glyph glyph-name="cent" unicode="&#xa2;" horiz-adv-x="472" 
d="M398 533q19 -12 19 -32q0 -14 -10 -27t-25 -13q-10 0 -40 15q-33 14 -68 14q-62 0 -102 -52q-41 -53 -41 -112q0 -66 38 -110t99 -44q52 0 87 21q1 1 3.5 2.5l7.5 4.5q10 7 15 8q8 2 13 2q13 0 24 -14q10 -13 10 -27q0 -19 -14 -28q-45 -37 -113 -45v-72q0 -41 -37 -41
q-33 0 -33 37v78q-86 17 -134 81q-48 65 -47 138q0 85 51 156q51 70 134 87l-1 95q0 19 9 30q9 10 23 10q37 0 37 -40v-91q56 -5 99 -31h-4z" />
    <glyph glyph-name="sterling" unicode="&#xa3;" horiz-adv-x="525" 
d="M81 303q-31 0 -31 36q0 35 39 35h57q-6 31 -6 81q-4 103 44 164q48 60 138 60q51 0 92 -22q27 -16 19 -45q-9 -29 -41 -23q-6 1 -21 6t-25 6q-5 1 -10.5 1.5t-11.5 0.5q-101 0 -101 -135q0 -23 1.5 -45.5t5.5 -45.5h75h49q36 0 36 -33q0 -24 -11 -32t-44 -8h-45h-46
q22 -151 -15 -208q117 -37 154 -37q33 0 44 26q10 24 36 24q16 0 27 -11q10 -11 9 -27q-10 -85 -111 -85q-38 0 -129 25q-93 26 -112 27q-32 0 -48 -22l-4 -6l-4 -6l-5 -5q-2 -2 -6 -4q-2 -1 -8 -3q-3 -1 -11 -1q-17 0 -27 12q-11 13 -11 28q0 34 27 60q27 25 63 27
q3 0 12.5 -1.5t25.5 -3.5q19 22 21 87q1 64 -9 108h-78z" />
    <glyph glyph-name="currency" unicode="&#xa4;" horiz-adv-x="565" 
d="M297 511q45 0 88 -28l57 66q24 28 44 28q14 0 26 -12t12 -27v-9q0 -5 -3 -9q-2 -3 -4 -7q-1 -2 -2 -3.5t-3 -3.5q-2 -3 -5 -6l-7 -7l-7 -7l-55 -58q40 -58 40 -120q0 -59 -35 -112l64 -67q18 -18 18 -35q0 -15 -13 -27q-14 -12 -28 -12q-16 0 -40 27l-53 61
q-58 -37 -114 -37q-55 0 -108 41l-52 -59q-21 -27 -41 -27q-16 0 -28 12t-12 27q0 16 12 33l71 70q-27 46 -27 93q0 76 42 130l-71 73q-20 22 -22 33q-1 2 -1 8q0 16 12 27q12 10 27 12q19 0 36 -21l70 -81q52 31 114 31zM408 315q0 56 -33 92q-33 37 -89 35q-53 0 -87 -39
q-34 -38 -34 -103q0 -49 35 -84q34 -34 78 -34q50 -2 89 36q39 37 39 96z" />
    <glyph glyph-name="yen" unicode="&#xa5;" horiz-adv-x="587" 
d="M137 240q-31 0 -30 34q3 28 42 28h43h45l-199 301q-15 22 -15 36q0 15 13 27t30 12q26 0 42 -28l187 -300l179 290q22 37 45 37q16 0 30 -12t14 -26t-19 -43l-197 -295h84q23 0 32 -6t9 -23q0 -32 -38 -32h-100v-33v-33h100q39 0 39 -30q0 -32 -38 -32h-101v-70
q0 -44 -41 -44q-43 0 -43 47l1 67l-108 1q-33 0 -33 34q0 28 37 28h51h53q1 11 1 26.5v37.5h-68h-45z" />
    <glyph glyph-name="brokenbar" unicode="&#xa6;" horiz-adv-x="257" 
d="M88 163q2 41 39 41q22 0 31 -10q8 -10 10 -39v-178v-130q0 -46 -40 -46q-39 0 -39 43v175v144h-1zM86 532v164q2 17 13 26q12 9 28 9q39 0 39 -41v-159v-174q0 -42 -40 -42q-39 0 -39 40z" />
    <glyph glyph-name="section" unicode="&#xa7;" horiz-adv-x="493" 
d="M49 305q0 72 74 125q-41 27 -42 90q0 71 58 120q59 50 129 50t123 -24q25 -12 25 -33q0 -14 -9 -24t-25 -10q-9 0 -45 12t-71 12q-43 0 -76 -27t-32 -69q0 -26 18 -44q17 -17 39 -25q21 -8 54 -15q85 -18 128 -54q44 -36 47 -106q3 -80 -60 -137q26 -35 26 -81
q0 -76 -54 -124t-130 -48q-58 0 -113 21q-53 19 -54 48q0 15 9 27t23 12q9 0 30 -8q49 -25 104 -25q47 0 80 24t33 67t-30 63q-29 19 -94 34q-77 19 -120 54q-44 34 -45 102v-7zM242 375q-44 9 -70 22q-54 -44 -54 -87q0 -40 29 -60q28 -19 80 -33l104 -34q37 43 36 90
q-2 43 -33 66q-32 23 -89 35z" />
    <glyph glyph-name="dieresis" unicode="&#xa8;" horiz-adv-x="339" 
d="M86 564q-20 0 -33 15q-14 16 -14 36q0 21 15 36t38 15q22 0 36 -15q14 -16 14 -36q0 -23 -15 -36q-16 -14 -40 -14zM243 565q-20 0 -33 15q-14 16 -14 36q0 21 15 36t38 15q22 0 36 -15q14 -16 14 -37q0 -23 -15 -36q-14 -13 -39 -13z" />
    <glyph glyph-name="copyright" unicode="&#xa9;" horiz-adv-x="758" 
d="M381 685q137 0 233 -96t96 -242q0 -152 -93 -255t-237 -103q-62 0 -122 24q-61 24 -107 66q-47 42 -75 105q-29 64 -29 137q0 82 29 152t75 116t107 72t123 26v-2zM647 346q-2 123 -78 201q-77 78 -196 78q-116 0 -189 -84q-74 -85 -74 -210q0 -123 81 -201t197 -78
q112 0 187 87q75 86 73 204zM485 492q16 -10 16 -25q0 -12 -7 -20q-8 -9 -19 -9q-3 0 -33 12q-24 12 -57 12q-49 0 -80 -40q-32 -41 -32 -90q0 -53 35 -91q34 -37 81 -37q40 0 66 15q26 14 30 14q10 0 18 -9q8 -10 8 -19q0 -12 -12 -24q-45 -36 -111 -36q-77 0 -127 56
q-49 55 -49 128q0 76 50 135t125 59q53 0 99 -28z" />
    <glyph glyph-name="ordfeminine" unicode="&#xaa;" horiz-adv-x="395" 
d="M351 455q0 -16 0.5 -40t1.5 -57q0 -27 -32 -27q-21 0 -26 23v5.5t-1 8.5t-1 8.5v5.5q-35 -54 -112 -54q-67 0 -109 45t-42 110q0 76 47 126t116 50q64 0 102 -50v12v11q5 26 27 26q18 0 24 -10q6 -11 6 -31q-1 -19 -1 -59v-103zM95 483q0 -44 27 -72t68 -28q44 0 74 30
t30 78q0 52 -30 82t-70 30q-44 0 -72 -33q-28 -32 -28 -85z" />
    <glyph glyph-name="guillemotleft" unicode="&#xab;" horiz-adv-x="461" 
d="M110 238l105 -117q17 -17 17 -30q0 -10 -10 -19q-11 -9 -21 -9q-11 0 -28 14l-123 119q-21 22 -21 42t19 39q7 8 16 17l20 20l23.5 23l26.5 26l38 38q14 11 24 11t21 -9t11 -20q0 -12 -15 -28zM310 236l105 -117q16 -16 16 -30q0 -10 -10 -19q-11 -9 -21 -9q-11 0 -28 14
l-123 119q-22 22 -22 43q0 17 19 39l124 124q14 11 25 11q10 0 21 -9t11 -20t-15 -27z" />
    <glyph glyph-name="logicalnot" unicode="&#xac;" horiz-adv-x="485" 
d="M65 235q-17 0 -27 9t-10 26q0 37 41 37h52.5t117.5 1t117.5 1h53.5q35 0 35 -42v-30.5t1 -47.5t1 -49v-35q0 -38 -37 -38t-37 36v133q-67 -1 -143 -1.5t-163 -0.5z" />
    <glyph glyph-name="uni00AD" unicode="&#xad;" horiz-adv-x="353" 
d="M79 200q-19 0 -30 11q-10 10 -10 27q0 38 47 38h187q40 0 40 -35q0 -21 -12 -30t-40 -9h-183z" />
    <glyph glyph-name="registered" unicode="&#xae;" horiz-adv-x="757" 
d="M381 686q136 0 232 -96t96 -242q0 -152 -93 -255t-237 -103q-85 0 -159 40q-75 40 -124 118q-49 77 -49 176q0 84 28 152q28 69 75 114q47 46 107 71q59 25 124 25zM646 346q-2 123 -78 201q-77 78 -196 78q-116 0 -189 -82t-73 -210q0 -123 80 -201q79 -78 195 -78
q113 0 188 87q75 88 74 204zM266 499q0 33 41 33h30h46q57 0 89 -31q33 -32 33 -81q0 -38 -18 -66t-47 -42q13 -20 39 -54l21.5 -29l13.5 -19q10 -7 10 -21q0 -10 -8 -18t-20 -8q-14 0 -23 13l-89 125h-39h-24v-62t1 -47q0 -29 -28 -30q-29 0 -29 27l2 58v93v96v60zM376 482
h-27h-28v-130h48q82 0 82 68q0 63 -75 63v-1z" />
    <glyph glyph-name="macron" unicode="&#xaf;" horiz-adv-x="357" 
d="M74 591q-36 0 -36 34q0 36 47 36h40h42h27.5t34.5 1t31 1h17q36 0 38 -32q0 -38 -50 -38h-48h-52h-21t-27 -1t-25.5 -1h-15.5h-2z" />
    <glyph glyph-name="degree" unicode="&#xb0;" horiz-adv-x="286" 
d="M145 680q49 0 84 -33q34 -33 34 -85q0 -53 -34 -87t-88 -34q-48 0 -82 33t-34 83q0 55 33 90t87 35v-2zM215 563q0 33 -21 53q-22 20 -54 20q-31 0 -50 -22q-20 -23 -20 -57q0 -31 21 -52t50 -21q32 0 53 22t21 57z" />
    <glyph glyph-name="plusminus" unicode="&#xb1;" horiz-adv-x="485" 
d="M74 311q-20 0 -27 12q-8 12 -6 29q2 32 49 32h120v146q0 18 11 27q10 9 26 9q19 0 28 -10q9 -11 9 -34v-138h135q35 0 35 -36q0 -20 -9 -27q-9 -8 -33 -9q-11 -1 -42.5 -1h-85.5v-82v-60q0 -34 -40 -33q-33 0 -33 42v134h-78h-57zM62 1q-19 0 -26 12q-8 12 -6 27
q3 33 49 33h62h80h188q35 0 35 -35q0 -19 -12 -28q-11 -8 -40 -10h-169h-161v1z" />
    <glyph glyph-name="twosuperior" unicode="&#xb2;" horiz-adv-x="319" 
d="M150 692q-32 0 -60 -30q-14 -15 -31 -15q-10 0 -19 9t-9 23q0 17 24 37q41 38 94 38q56 2 93 -31q38 -33 38 -85v-9.5t-1 -9.5q-2 -9 -6 -18l-3.5 -8.5t-3.5 -6.5q-4 -8 -10 -15q-4 -5 -6 -8.5t-4 -5.5q-4 -6 -13 -15q-12 -12 -15 -14t-16 -15l-16 -16l-70 -67l104.5 1.5
t40.5 0.5q30 0 30 -30q0 -31 -34 -31h-65h-131q-15 0 -24 9t-9 25q0 25 24 46l99 97l19.5 19l13.5 13q10 10 21 27t11 32q0 23 -18 40q-17 16 -47 16z" />
    <glyph glyph-name="threesuperior" unicode="&#xb3;" horiz-adv-x="315" 
d="M213 492q0 30 -21 45t-53 15h-24q-27 0 -27 30q0 12 15 27l83 84h-60h-62q-32 0 -32 29q0 30 29 30h66h60h60q29 0 29 -28q0 -17 -19 -36l-85 -87q44 -2 77 -30q33 -29 33 -76q0 -59 -37 -93q-38 -35 -99 -35q-58 0 -93 22q-25 16 -25 34q0 13 9 22t20 9t29 -9
q34 -18 61 -18q31 0 51 18t20 49z" />
    <glyph glyph-name="acute" unicode="&#xb4;" horiz-adv-x="240" 
d="M92 548q-13 -10 -24 -10t-21 9q-11 9 -11 20t9 22l39 45l55 64q14 17 29 17t27 -12t12 -27q0 -10 -14 -24q-42 -47 -102 -102z" />
    <glyph glyph-name="mu" unicode="&#xb5;" horiz-adv-x="561" 
d="M122 454q35 0 35 -39v-84v-119q0 -63 24 -106t81 -43q65 0 102 52q38 53 38 127v168q0 47 44 47q40 0 40 -43v-84v-125q0 -99 19 -124l11 -11q9 -9 12 -16q3 -8 3 -18q0 -17 -10 -28q-11 -12 -28 -12q-28 0 -47 21q-25 25 -31 76q-49 -100 -172 -100q-30 0 -55 15
q-24 14 -34 35q0 -42 -2.5 -79.5t-7.5 -71.5q-14 -104 -66 -104q-44 0 -44 42q0 17 18 65q19 49 20 113q3 129 3 190v84v102q0 40 9 57q9 16 36 16z" />
    <glyph glyph-name="paragraph" unicode="&#xb6;" horiz-adv-x="625" 
d="M473 604h-136v-70v-184v-299q0 -28 -9 -43t-33 -15q-39 0 -39 40q0 12 0.5 44.5t1.5 86.5q2 107 0 146h-13q-211 0 -211 180q-1 85 51 136t144 51h67h42t99 1h33h33q46 0 46 -43v-39v-78v-127v-176v-174q0 -26 -9 -36t-30 -10q-22 0 -31 15t-9 45z" />
    <glyph glyph-name="periodcentered" unicode="&#xb7;" horiz-adv-x="206" 
d="M100 183q-23 0 -38 16t-15 39t17 40q16 16 42 16q24 0 39 -16q15 -17 15 -40q0 -25 -17 -40t-44 -15h1z" />
    <glyph glyph-name="cedilla" unicode="&#xb8;" horiz-adv-x="254" 
d="M103 -3h51l-18 -53q29 0 55 -20q25 -19 25 -59q0 -44 -28 -69t-72 -25q-28 0 -53 13q-22 13 -22 31q0 10 8 18t18 8q8 0 23 -7t30 -7q38 0 38 39q0 34 -45 34h-12q-14 2 -21 16q-8 15 -3 30z" />
    <glyph glyph-name="onesuperior" unicode="&#xb9;" horiz-adv-x="253" 
d="M76 637q-10 -7 -21 -7q-10 0 -19 9t-9 20q0 13 17 27l79 56q18 12 32 12q10 0 20 -8q9 -8 9 -18v-110v-111v-111q0 -26 -31 -26q-32 0 -32 30q0 26 3 128t3 146q-9 -8 -22 -17.5t-30 -20.5z" />
    <glyph glyph-name="ordmasculine" unicode="&#xba;" horiz-adv-x="391" 
d="M359 491q0 -71 -46 -117q-47 -47 -120 -47q-67 0 -116 47q-48 46 -48 110q0 76 48 126t117 50q73 -2 120 -48q46 -46 46 -120zM91 484q0 -44 30 -72q31 -29 70 -29q44 0 74 31t30 78q0 50 -29 81q-29 30 -72 30q-44 0 -72 -33q-29 -34 -29 -85z" />
    <glyph glyph-name="guillemotright" unicode="&#xbb;" horiz-adv-x="461" 
d="M47 356q-15 16 -15 27t11 20q10 9 21 9t25 -11l124 -124q19 -22 19 -39q0 -21 -22 -43l-123 -119q-17 -14 -28 -14t-21 9t-10 20q0 14 16 30l105 117zM247 355q-15 16 -15 28q0 11 11 20q10 9 21 9q10 0 24 -11l38 -38l26.5 -26l23.5 -23l20 -20t16 -17q19 -19 19 -39
t-21 -42l-123 -119q-17 -14 -28 -14t-21 9t-10 20q0 13 17 30l105 117z" />
    <glyph glyph-name="onequarter" unicode="&#xbc;" horiz-adv-x="762" 
d="M606 200q0 33 27 33q31 0 33 -26v-75l38 1q28 0 28 -26q0 -34 -26 -34h-40v-49q0 -27 -31 -27q-29 0 -29 27v25v24h-141q-16 0 -25 12t-9 26q0 19 15 42l113 209q12 22 30 22q14 0 26 -9t12 -20q0 -3 -5 -18l-116 -206l102 1v68h-2zM505 658q12 21 30 21q11 0 21 -8
q9 -8 9 -20t-9 -27l-154 -255l-207 -354q-10 -19 -27 -19q-10 0 -21 8q-10 7 -10 21q0 11 9 26l360 607h-1zM76 559q-9 -6 -19 -6q-11 0 -18 9q-8 10 -8 20q0 16 17 28l79 57q17 11 33 11q10 0 20 -8q9 -8 9 -18v-54v-55v-221q0 -27 -31 -27q-33 0 -33 30q0 25 3 129
q3 103 3 147q-13 -11 -25.5 -20.5t-26.5 -17.5z" />
    <glyph glyph-name="onehalf" unicode="&#xbd;" horiz-adv-x="762" 
d="M505 658q12 21 29 21q11 0 21 -8q9 -8 9 -20q0 -9 -9 -27l-154 -255l-207 -354q-10 -19 -28 -19q-10 0 -20 8q-9 7 -9 21q0 11 9 26l360 607h-1zM80 562q-11 -6 -19 -6q-10 0 -19 9t-9 20q0 13 17 27l79 57q17 11 33 11q10 0 20 -8q9 -8 9 -18v-54v-55v-221
q0 -27 -32 -27q-13 0 -23 8q-9 7 -9 21q0 25 3 129q3 103 3 147q-33 -27 -52 -39zM590 323q-32 0 -60 -30q-12 -15 -31 -15q-12 0 -21 9t-9 22q0 18 24 38q43 38 95 38q55 0 93 -32t38 -84v-9t-1 -9t-1.5 -8.5t-1.5 -7.5q-1 -7 -6 -16q-5 -10 -7 -13q-2 -2 -4 -5.5t-6 -8.5
q-7 -8 -10 -13q-3 -4 -13 -13q-5 -5 -8 -7.5t-5 -4.5l-15 -15l-15 -15l-70 -66h42.5t48.5 1t39 1h15q13 0 21 -9q8 -10 8 -22q0 -31 -34 -31h-31h-34h-131q-15 0 -24 9t-9 24q0 23 23 46l100 98q22 19 33 30q10 10 21 27q10 16 10 32q0 24 -18 41q-19 17 -47 17z" />
    <glyph glyph-name="threequarters" unicode="&#xbe;" horiz-adv-x="792" 
d="M636 200q0 33 27 33q31 0 33 -26v-75l38 1q28 0 28 -26q0 -34 -26 -34h-40v-49q0 -27 -31 -27q-29 0 -29 27v25v24h-43h-55h-42q-16 0 -25 12t-9 26q0 19 15 42l113 209q12 22 30 22q14 0 26 -9t12 -20q0 -3 -5 -18l-116 -206l102 1v68h-3zM548 658q12 21 29 21
q11 0 21 -8q9 -8 9 -20q0 -9 -9 -27l-154 -255l-207 -354q-10 -19 -28 -19q-10 0 -20 8q-9 7 -9 21q0 11 9 26l360 607h-1zM226 421q0 30 -21 45t-53 15h-24q-27 0 -27 30q0 13 15 28l83 83h-78.5t-44.5 -1q-32 0 -32 29q0 30 29 30h65h60h58q30 0 30 -27q0 -19 -19 -35
l-85 -88q43 -2 75 -30q31 -29 33 -75q0 -61 -37 -95q-38 -35 -99 -35q-54 0 -94 23q-24 13 -24 33q0 13 9 22t19 9q9 0 29 -9q31 -18 60 -18q31 0 51 18t20 48h2z" />
    <glyph glyph-name="questiondown" unicode="&#xbf;" horiz-adv-x="484" 
d="M436 -131q0 -20 -22 -36q-79 -64 -171 -64q-84 0 -145 51t-61 134q0 26 11 51q10 24 21 39q11 16 36 35l22 16.5t14 9.5l39 24q46 30 48 68q1 9 -3 18q-4 8 -4 18q0 16 11 25q10 9 27 9q23 0 37 -21q13 -20 13 -52q0 -70 -82 -116l-24.5 -14t-17.5 -11l-15 -11l-18 -14
q-19 -16 -28 -34t-9 -39q0 -47 38 -79q37 -31 90 -31q58 0 111 41q29 22 44 22q14 0 26 -12t12 -26v-1zM315 409q0 -23 -17 -40q-16 -16 -42 -16q-27 0 -42 15t-15 39q0 27 17 41t42 14q26 0 43 -15q16 -15 16 -40z" />
    <glyph glyph-name="Agrave" unicode="&#xc0;" horiz-adv-x="639" 
d="M24 38q0 13 15 48l105 246l45.5 113l80.5 206q14 32 48 32q36 0 50 -33q9 -20 26 -62.5l42 -108.5l42 -110l26 -67l2.5 -5t3.5 -8q4 -11 6 -15l88 -214q8 -21 8 -29q0 -13 -13 -23q-14 -11 -31 -11t-27 8t-17 27q-59 151 -60 153q-16 1 -63 1h-127h-102q-2 -6 -9 -24
l-18 -47q-23 -59 -30 -75q-15 -33 -25 -39q-7 -4 -18 -4q-47 0 -47 38zM320 579q-20 -60 -50.5 -139.5l-72.5 -182.5q59 -1 118.5 -1t122.5 2l-33 90l-26.5 71.5l-24.5 67.5l-21 56t-14 37zM341 742q-34 32 -58.5 57.5l-41.5 44.5q-13 16 -13 30q0 13 12 24q13 11 26 11
q19 0 31 -17l88 -109q9 -11 9 -22q0 -10 -9 -19t-20 -9t-24 10v-1z" />
    <glyph glyph-name="Aacute" unicode="&#xc1;" horiz-adv-x="639" 
d="M24 38q0 13 15 48l105 246l45.5 113l80.5 206q14 32 48 32q36 0 50 -33q9 -20 26 -62.5l42 -108.5l42 -110l26 -67l2.5 -5t3.5 -8q4 -11 6 -15l88 -214q8 -21 8 -29q0 -13 -13 -23q-14 -11 -31 -11t-27 8t-17 27q-59 151 -60 153q-16 1 -63 1h-127h-102q-2 -6 -9 -24
l-18 -47q-23 -59 -30 -75q-15 -33 -25 -39q-7 -4 -18 -4q-47 0 -47 38zM320 579q-20 -60 -50.5 -139.5l-72.5 -182.5q59 -1 118.5 -1t122.5 2l-33 90l-26.5 71.5l-24.5 67.5l-21 56t-14 37zM308 740q-13 -10 -24 -10t-21 9q-11 9 -11 20t9 22l39 45l55 64q14 17 29 17
t27 -12t12 -27q0 -10 -14 -24q-42 -47 -102 -102z" />
    <glyph glyph-name="Acircumflex" unicode="&#xc2;" horiz-adv-x="639" 
d="M24 38q0 13 15 48l105 246l45.5 113l80.5 206q14 32 48 32q36 0 50 -33q9 -20 26 -62.5l42 -108.5l42 -110l26 -67l2.5 -5t3.5 -8q4 -11 6 -15l88 -214q8 -21 8 -29q0 -13 -13 -23q-14 -11 -31 -11t-27 8t-17 27q-59 151 -60 153q-16 1 -63 1h-127h-102q-2 -6 -9 -24
l-18 -47q-23 -59 -30 -75q-15 -33 -25 -39q-7 -4 -18 -4q-47 0 -47 38zM320 579q-20 -60 -50.5 -139.5l-72.5 -182.5q59 -1 118.5 -1t122.5 2l-33 90l-26.5 71.5l-24.5 67.5l-21 56t-14 37zM427 725q-6 0 -24 12l-82 84q-77 -81 -83 -86q-11 -9 -24 -9q-9 0 -18 9t-9 19
q0 11 11 25l86 96q15 18 38 18q19 0 34 -16l87 -98q13 -16 13 -26q0 -9 -9 -18t-20 -9v-1z" />
    <glyph glyph-name="Atilde" unicode="&#xc3;" horiz-adv-x="639" 
d="M24 38q0 13 15 48l105 246l45.5 113l80.5 206q14 32 48 32q36 0 50 -33q9 -20 26 -62.5l42 -108.5l42 -110l26 -67l2.5 -5t3.5 -8q4 -11 6 -15l88 -214q8 -21 8 -29q0 -13 -13 -23q-14 -11 -31 -11t-27 8t-17 27q-59 151 -60 153q-16 1 -63 1h-127h-102q-2 -6 -9 -24
l-18 -47q-23 -59 -30 -75q-15 -33 -25 -39q-7 -4 -18 -4q-47 0 -47 38zM320 579q-20 -60 -50.5 -139.5l-72.5 -182.5q59 -1 118.5 -1t122.5 2l-33 90l-26.5 71.5l-24.5 67.5l-21 56t-14 37zM226 776q-5 -23 -31 -23q-14 0 -21 9q-8 9 -6 26q1 37 26 60t62 23q27 0 48 -15
t39 -30q17 -14 37 -16q27 0 29 39q2 11 11 17t20 6t21 -8q9 -8 9 -20q0 -46 -24 -70t-63 -24q-23 2 -40 10q-16 8 -28 20q-5 5 -11 10t-14 10q-14 8 -28 10q-31 0 -32 -33z" />
    <glyph glyph-name="Adieresis" unicode="&#xc4;" horiz-adv-x="639" 
d="M24 38q0 13 15 48l105 246l45.5 113l80.5 206q14 32 48 32q36 0 50 -33q9 -20 26 -62.5l42 -108.5l42 -110l26 -67l2.5 -5t3.5 -8q4 -11 6 -15l88 -214q8 -21 8 -29q0 -13 -13 -23q-14 -11 -31 -11t-27 8t-17 27q-59 151 -60 153q-16 1 -63 1h-127h-102q-2 -6 -9 -24
l-18 -47q-23 -59 -30 -75q-15 -33 -25 -39q-7 -4 -18 -4q-47 0 -47 38zM320 579q-20 -60 -50.5 -139.5l-72.5 -182.5q59 -1 118.5 -1t122.5 2l-33 90l-26.5 71.5l-24.5 67.5l-21 56t-14 37zM236 756q-20 0 -33 15q-14 16 -14 36q0 21 15 36t38 15q22 0 36 -15q14 -16 14 -36
q0 -23 -15 -36q-16 -14 -40 -14zM393 757q-20 0 -33 15q-14 16 -14 36q0 21 15 36t38 15q22 0 36 -15q14 -16 14 -37q0 -23 -15 -36q-14 -13 -39 -13z" />
    <glyph glyph-name="Aring" unicode="&#xc5;" horiz-adv-x="639" 
d="M321 854q44 0 75 -28q32 -29 32 -72q0 -32 -17 -60q-17 -27 -45 -39l5 -10l24.5 -61l40.5 -104l41 -106l27 -68l2.5 -5t3.5 -8q4 -11 6 -15l88 -214q8 -21 8 -29q0 -14 -13 -24t-31 -10t-28 8t-17 27q-59 151 -60 153q-16 1 -63 1h-127h-102q-2 -6 -9 -24l-18 -47
q-23 -59 -30 -75q-15 -33 -25 -39q-7 -4 -18 -4q-47 0 -47 38q0 13 15 48l105 246q17 38 48 115l76 194q1 3 5 9q-26 10 -45 35q-18 24 -18 56q0 47 35 77q34 30 77 30zM320 581q-20 -60 -50.5 -139.5l-72.5 -182.5q59 -1 118.5 -1t122.5 2l-33 90l-26.5 71.5l-24.5 67.5
l-21 56t-14 37zM378 751q0 24 -16 39q-17 15 -42 15t-41 -15q-17 -15 -17 -41t17 -43q16 -16 42 -16q25 0 42 18q16 18 15 43z" />
    <glyph glyph-name="AE" unicode="&#xc6;" horiz-adv-x="906" 
d="M17 45q0 17 23 46l201 294l102.5 154l68.5 100q30 42 73 42h77h146h115q45 0 45 -36q0 -32 -29 -37q-82 -1 -154.5 -1.5t-135.5 -0.5v-61v-57l-1 -94v-24h50h80h104q42 0 42 -35q0 -36 -41 -36h-127h-111v-69v-78v-78q31 0 101 1t182 3q41 0 41 -37q0 -41 -45 -42h-252
q-70 0 -89 10q-20 10 -21 51l1 123l-254 2q-8 -10 -33 -48l-68 -105q-22 -34 -48 -34q-17 0 -30 12q-14 12 -12 30zM247 259l217 1v54t1 39v80v75v43.5t1 31.5z" />
    <glyph glyph-name="Ccedilla" unicode="&#xc7;" horiz-adv-x="608" 
d="M335 -9q-119 9 -203 99q-84 91 -83 233q2 162 100 260q99 99 226 98q80 0 146 -29q44 -20 44 -45q0 -18 -9 -30t-27 -12q-15 2 -39 13q-59 28 -123 28q-92 0 -162 -79q-71 -80 -72 -198q0 -107 68 -184q67 -76 170 -78q75 0 136 40q2 1 8 5l6 4q1 1 6 3q6 2 9 2h9
q14 0 23 -13q9 -14 9 -30q0 -31 -59 -58q-60 -28 -129 -32l-14 -44q28 0 54 -20q25 -19 25 -59q0 -44 -27 -69q-26 -25 -70 -25q-27 0 -54 13q-22 13 -22 31q0 10 8 18t18 8q8 0 23 -7t30 -7q38 0 38 39q0 34 -44 34h-12q-15 1 -22 16q-8 15 -3 30z" />
    <glyph glyph-name="Egrave" unicode="&#xc8;" horiz-adv-x="543" 
d="M96 639q0 24 16 33t49 9h48h59.5t74.5 1t67.5 1h39.5q46 0 48 -36q0 -33 -27 -37q-15 -1 -75 -1h-166h-52q-1 -21 -1 -51v-70l-1 -97v-19h50q108 0 174 3q28 0 39 -7q12 -8 12 -30q-2 -36 -45 -36h-231v-72v-32.5t-1 -45.5t-1 -45.5v-32.5q66 0 131.5 0.5t132.5 1.5h18
h17q35 0 35 -36q0 -19 -11 -30t-39 -12h-262q-67 0 -84 10t-19 51v22.5t1 16.5l1 14v38v57v80v96v127v127zM325 742q-34 32 -58.5 57.5l-41.5 44.5q-13 16 -13 30q0 13 12 24q13 11 26 11q19 0 31 -17l88 -109q9 -11 9 -22q0 -10 -9 -19t-20 -9t-24 10v-1z" />
    <glyph glyph-name="Eacute" unicode="&#xc9;" horiz-adv-x="543" 
d="M96 639q0 24 16 33t49 9h48h59.5t74.5 1t67.5 1h39.5q46 0 48 -36q0 -33 -27 -37q-15 -1 -75 -1h-166h-52q-1 -21 -1 -51v-70l-1 -97v-19h50q108 0 174 3q28 0 39 -7q12 -8 12 -30q-2 -36 -45 -36h-231v-72v-32.5t-1 -45.5t-1 -45.5v-32.5q66 0 131.5 0.5t132.5 1.5h18
h17q35 0 35 -36q0 -19 -11 -30t-39 -12h-262q-67 0 -84 10t-19 51v22.5t1 16.5l1 14v38v57v80v96v127v127zM292 740q-13 -10 -24 -10t-21 9q-11 9 -11 20t9 22l39 45l55 64q14 17 29 17t27 -12t12 -27q0 -10 -14 -24q-42 -47 -102 -102z" />
    <glyph glyph-name="Ecircumflex" unicode="&#xca;" horiz-adv-x="543" 
d="M96 639q0 24 16 33t49 9h48h59.5t74.5 1t67.5 1h39.5q46 0 48 -36q0 -33 -27 -37q-15 -1 -75 -1h-166h-52q-1 -21 -1 -51v-70l-1 -97v-19h50q108 0 174 3q28 0 39 -7q12 -8 12 -30q-2 -36 -45 -36h-231v-72v-32.5t-1 -45.5t-1 -45.5v-32.5q66 0 131.5 0.5t132.5 1.5h18
h17q35 0 35 -36q0 -19 -11 -30t-39 -12h-262q-67 0 -84 10t-19 51v22.5t1 16.5l1 14v38v57v80v96v127v127zM411 725q-6 0 -24 12l-82 84q-77 -81 -83 -86q-11 -9 -24 -9q-9 0 -18 9t-9 19q0 11 11 25l86 96q15 18 38 18q19 0 34 -16l87 -98q13 -16 13 -26q0 -9 -9 -18
t-20 -9v-1z" />
    <glyph glyph-name="Edieresis" unicode="&#xcb;" horiz-adv-x="543" 
d="M96 639q0 24 16 33t49 9h48h59.5t74.5 1t67.5 1h39.5q46 0 48 -36q0 -33 -27 -37q-15 -1 -75 -1h-166h-52q-1 -21 -1 -51v-70l-1 -97v-19h50q108 0 174 3q28 0 39 -7q12 -8 12 -30q-2 -36 -45 -36h-231v-72v-32.5t-1 -45.5t-1 -45.5v-32.5q66 0 131.5 0.5t132.5 1.5h18
h17q35 0 35 -36q0 -19 -11 -30t-39 -12h-262q-67 0 -84 10t-19 51v22.5t1 16.5l1 14v38v57v80v96v127v127zM220 756q-20 0 -33 15q-14 16 -14 36q0 21 15 36t38 15q22 0 36 -15q14 -16 14 -36q0 -23 -15 -36q-16 -14 -40 -14zM377 757q-20 0 -33 15q-14 16 -14 36
q0 21 15 36t38 15q22 0 36 -15q14 -16 14 -37q0 -23 -15 -36q-14 -13 -39 -13z" />
    <glyph glyph-name="Igrave" unicode="&#xcc;" horiz-adv-x="274" 
d="M98 402v41t-1 66t-1 72v59q0 42 44 42q19 0 29 -10q11 -11 11 -28v-101t-1 -148v-160l1 -192q0 -47 -42 -47q-20 0 -31 10q-12 11 -11 30v42v45l1 280zM158 739q-34 32 -58.5 57.5l-41.5 44.5q-13 16 -13 30q0 13 12 24q13 11 26 11q19 0 31 -17l88 -109q9 -11 9 -22
q0 -10 -9 -19t-20 -9t-24 10v-1z" />
    <glyph glyph-name="Iacute" unicode="&#xcd;" horiz-adv-x="274" 
d="M98 402v41t-1 66t-1 72v59q0 42 44 42q19 0 29 -10q11 -11 11 -28v-101t-1 -148v-160l1 -192q0 -47 -42 -47q-20 0 -31 10q-12 11 -11 30v42v45l1 280zM125 737q-13 -10 -24 -10t-21 9q-11 9 -11 20t9 22l39 45l55 64q14 17 29 17t27 -12t12 -27q0 -10 -14 -24
q-42 -47 -102 -102z" />
    <glyph glyph-name="Icircumflex" unicode="&#xce;" horiz-adv-x="274" 
d="M98 402v41t-1 66t-1 72v59q0 42 44 42q19 0 29 -10q11 -11 11 -28v-101t-1 -148v-160l1 -192q0 -47 -42 -47q-20 0 -31 10q-12 11 -11 30v42v45l1 280zM244 722q-6 0 -24 12l-82 84q-77 -81 -83 -86q-11 -9 -24 -9q-9 0 -18 9t-9 19q0 11 11 25l86 96q15 18 38 18
q19 0 34 -16l87 -98q13 -16 13 -26q0 -9 -9 -18t-20 -9v-1z" />
    <glyph glyph-name="Idieresis" unicode="&#xcf;" horiz-adv-x="274" 
d="M98 402v41t-1 66t-1 72v59q0 42 44 42q19 0 29 -10q11 -11 11 -28v-101t-1 -148v-160l1 -192q0 -47 -42 -47q-20 0 -31 10q-12 11 -11 30v42v45l1 280zM53 753q-20 0 -33 15q-14 16 -14 36q0 21 15 36t38 15q22 0 36 -15q14 -16 14 -36q0 -23 -15 -36q-16 -14 -40 -14z
M210 754q-20 0 -33 15q-14 16 -14 36q0 21 15 36t38 15q22 0 36 -15q14 -16 14 -37q0 -23 -15 -36q-14 -13 -39 -13z" />
    <glyph glyph-name="Eth" unicode="&#xd0;" horiz-adv-x="679" 
d="M82 623q0 58 81 58h69h67q146 -8 241 -91q96 -84 96 -229q0 -358 -380 -361q-40 0 -70.5 0.5t-52.5 1.5q-48 3 -48 59l1 230h-39q-37 0 -37 36t43 36h34l-3 259zM270 607q-69 0 -105 -3v-239h91q39 0 39 -35q0 -19 -10 -28q-11 -9 -36 -9h-85v-192q0 -16 15 -19t69 -3
q303 0 303 273q0 86 -40 144q-41 58 -102 84q-63 26 -139 26v1z" />
    <glyph glyph-name="Ntilde" unicode="&#xd1;" horiz-adv-x="707" 
d="M163 47q0 -28 -9 -40t-30 -12q-43 0 -43 40v95t1 169v117v117v106q0 19 15 31t37 12q12 0 25 -8q12 -8 18 -15l7.5 -10l11.5 -15l245 -347l106 -149q-3 87 -3 235l-2 247q0 29 8 45q7 15 33 15q24 0 32 -14t8 -45v-332q1 -29 1.5 -90.5t0.5 -155.5q0 -20 -13 -32
q-14 -12 -36 -12q-18 0 -28 9q-11 9 -30 36l-354 505q-2 -56 0 -258q1 -102 1.5 -161.5t0.5 -79.5zM256 771q-5 -23 -31 -23q-14 0 -21 9q-8 9 -6 26q1 37 26 60t62 23q27 0 48 -15t39 -30q17 -14 37 -16q27 0 29 39q2 11 11 17t20 6t21 -8q9 -8 9 -20q0 -46 -24 -70
t-63 -24q-23 2 -40 10q-16 8 -28 20q-5 5 -11 10t-14 10q-14 8 -28 10q-31 0 -32 -33z" />
    <glyph glyph-name="Ograve" unicode="&#xd2;" horiz-adv-x="746" 
d="M377 687q133 0 228 -96q95 -97 95 -242q0 -152 -93 -255t-234 -103q-83 0 -156 39t-120 116t-47 174q0 84 28 153q28 70 75 117q46 46 105 72q58 25 120 24zM619 347q-2 116 -76 189q-76 74 -175 74q-95 0 -165 -79t-70 -198q0 -116 72 -189t176 -73q99 0 168 83t68 192z
M395 742q-34 32 -58.5 57.5l-41.5 44.5q-13 16 -13 30q0 13 12 24q13 11 26 11q19 0 31 -17l88 -109q9 -11 9 -22q0 -10 -9 -19t-20 -9t-24 10v-1z" />
    <glyph glyph-name="Oacute" unicode="&#xd3;" horiz-adv-x="746" 
d="M377 687q133 0 228 -96q95 -97 95 -242q0 -152 -93 -255t-234 -103q-83 0 -156 39t-120 116t-47 174q0 84 28 153q28 70 75 117q46 46 105 72q58 25 120 24zM619 347q-2 116 -76 189q-76 74 -175 74q-95 0 -165 -79t-70 -198q0 -116 72 -189t176 -73q99 0 168 83t68 192z
M362 740q-13 -10 -24 -10t-21 9q-11 9 -11 20t9 22l39 45l55 64q14 17 29 17t27 -12t12 -27q0 -10 -14 -24q-42 -47 -102 -102z" />
    <glyph glyph-name="Ocircumflex" unicode="&#xd4;" horiz-adv-x="746" 
d="M377 687q133 0 228 -96q95 -97 95 -242q0 -152 -93 -255t-234 -103q-83 0 -156 39t-120 116t-47 174q0 84 28 153q28 70 75 117q46 46 105 72q58 25 120 24zM619 347q-2 116 -76 189q-76 74 -175 74q-95 0 -165 -79t-70 -198q0 -116 72 -189t176 -73q99 0 168 83t68 192z
M481 725q-6 0 -24 12l-82 84q-77 -81 -83 -86q-11 -9 -24 -9q-9 0 -18 9t-9 19q0 11 11 25l86 96q15 18 38 18q19 0 34 -16l87 -98q13 -16 13 -26q0 -9 -9 -18t-20 -9v-1z" />
    <glyph glyph-name="Otilde" unicode="&#xd5;" horiz-adv-x="746" 
d="M377 687q133 0 228 -96q95 -97 95 -242q0 -152 -93 -255t-234 -103q-83 0 -156 39t-120 116t-47 174q0 84 28 153q28 70 75 117q46 46 105 72q58 25 120 24zM619 347q-2 116 -76 189q-76 74 -175 74q-95 0 -165 -79t-70 -198q0 -116 72 -189t176 -73q99 0 168 83t68 192z
M279 776q-5 -23 -31 -23q-14 0 -21 9q-8 9 -6 26q1 37 26 60t62 23q27 0 48 -15t39 -30q17 -14 37 -16q27 0 29 39q2 11 11 17t20 6t21 -8q9 -8 9 -20q0 -46 -24 -70t-63 -24q-23 2 -40 10q-16 8 -28 20q-5 5 -11 10t-14 10q-14 8 -28 10q-31 0 -32 -33z" />
    <glyph glyph-name="Odieresis" unicode="&#xd6;" horiz-adv-x="746" 
d="M377 687q133 0 228 -96q95 -97 95 -242q0 -152 -93 -255t-234 -103q-83 0 -156 39t-120 116t-47 174q0 84 28 153q28 70 75 117q46 46 105 72q58 25 120 24zM619 347q-2 116 -76 189q-76 74 -175 74q-95 0 -165 -79t-70 -198q0 -116 72 -189t176 -73q99 0 168 83t68 192z
M290 756q-20 0 -33 15q-14 16 -14 36q0 21 15 36t38 15q22 0 36 -15q14 -16 14 -36q0 -23 -15 -36q-16 -14 -40 -14zM447 757q-20 0 -33 15q-14 16 -14 36q0 21 15 36t38 15q22 0 36 -15q14 -16 14 -37q0 -23 -15 -36q-14 -13 -39 -13z" />
    <glyph glyph-name="multiply" unicode="&#xd7;" horiz-adv-x="485" 
d="M144 218l44 48l-126 130q-14 19 -14 32q0 12 12 23t25 12q17 0 33 -19l118 -131l105 120q25 30 43 30q13 0 26 -11q12 -11 12 -24q0 -6 -1 -9q-2 -6 -3 -8l-6 -9l-7 -9q-2 -2 -4 -4.5t-6 -6.5l-11 -11l-99 -108l126 -131q16 -13 16 -30q0 -12 -12 -24t-26 -12
q-15 0 -37 24l-115 126l-113 -127l-4 -4l-4 -4l-3 -3l-3 -3l-3 -3q-2 -2 -3 -2q-2 0 -3 -1t-3 -1h-4h-4q-14 0 -26 12t-12 25t11 27z" />
    <glyph glyph-name="Oslash" unicode="&#xd8;" horiz-adv-x="746" 
d="M376 684q80 0 153 -40l27 39q9 15 24 15q11 0 20 -9t9 -19q0 -9 -5 -17l-27 -41q57 -48 89 -115q33 -69 33 -151q0 -152 -93 -255t-234 -103q-91 0 -168 47l-33 -50q-10 -16 -23 -16q-11 0 -21 9t-10 20q0 7 8 21l33 51q-108 96 -108 250q0 84 28 153q28 70 75 117
q46 46 105 72q58 25 120 24zM618 342q-2 121 -87 198l-283 -435q59 -37 132 -37q99 0 168 83t68 192zM134 330q0 -115 73 -189l281 433q-56 32 -120 32q-95 0 -165 -79t-70 -198z" />
    <glyph glyph-name="Ugrave" unicode="&#xd9;" horiz-adv-x="682" 
d="M82 273v200v155q0 46 39 46q23 0 33 -10t10 -33q-1 -25 -1 -113.5v-243.5q0 -103 47 -153t132 -50q76 0 126 57q49 57 51 146q2 50 0 188q-1 69 -1 113v64q0 40 42 40q41 0 41 -49l1 -328q2 -146 -69 -227t-198 -81q-118 0 -186 74q-67 73 -67 207v-2zM366 738
q-34 32 -58.5 57.5l-41.5 44.5q-13 16 -13 30q0 13 12 24q13 11 26 11q19 0 31 -17l88 -109q9 -11 9 -22q0 -10 -9 -19t-20 -9t-24 10v-1z" />
    <glyph glyph-name="Uacute" unicode="&#xda;" horiz-adv-x="682" 
d="M82 273v200v155q0 46 39 46q23 0 33 -10t10 -33q-1 -25 -1 -113.5v-243.5q0 -103 47 -153t132 -50q76 0 126 57q49 57 51 146q2 50 0 188q-1 69 -1 113v64q0 40 42 40q41 0 41 -49l1 -328q2 -146 -69 -227t-198 -81q-118 0 -186 74q-67 73 -67 207v-2zM333 736
q-13 -10 -24 -10t-21 9q-11 9 -11 20t9 22l39 45l55 64q14 17 29 17t27 -12t12 -27q0 -10 -14 -24q-42 -47 -102 -102z" />
    <glyph glyph-name="Ucircumflex" unicode="&#xdb;" horiz-adv-x="682" 
d="M82 273v200v155q0 46 39 46q23 0 33 -10t10 -33q-1 -25 -1 -113.5v-243.5q0 -103 47 -153t132 -50q76 0 126 57q49 57 51 146q2 50 0 188q-1 69 -1 113v64q0 40 42 40q41 0 41 -49l1 -328q2 -146 -69 -227t-198 -81q-118 0 -186 74q-67 73 -67 207v-2zM452 721
q-6 0 -24 12l-82 84q-77 -81 -83 -86q-11 -9 -24 -9q-9 0 -18 9t-9 19q0 11 11 25l86 96q15 18 38 18q19 0 34 -16l87 -98q13 -16 13 -26q0 -9 -9 -18t-20 -9v-1z" />
    <glyph glyph-name="Udieresis" unicode="&#xdc;" horiz-adv-x="682" 
d="M82 273v200v155q0 46 39 46q23 0 33 -10t10 -33q-1 -25 -1 -113.5v-243.5q0 -103 47 -153t132 -50q76 0 126 57q49 57 51 146q2 50 0 188q-1 69 -1 113v64q0 40 42 40q41 0 41 -49l1 -328q2 -146 -69 -227t-198 -81q-118 0 -186 74q-67 73 -67 207v-2zM261 752
q-20 0 -33 15q-14 16 -14 36q0 21 15 36t38 15q22 0 36 -15q14 -16 14 -36q0 -23 -15 -36q-16 -14 -40 -14zM418 753q-20 0 -33 15q-14 16 -14 36q0 21 15 36t38 15q22 0 36 -15q14 -16 14 -37q0 -23 -15 -36q-14 -13 -39 -13z" />
    <glyph glyph-name="Yacute" unicode="&#xdd;" horiz-adv-x="599" 
d="M253 278l-213 324q-15 24 -15 37q0 16 14 28q13 12 30 12q19 0 42 -33q191 -304 192 -305l21 33l23.5 36.5l38.5 62.5l111 177q20 29 39 29q16 0 29 -11q12 -11 12 -26q0 -12 -14 -34l-221 -339v-118v-118q0 -17 -12 -26t-30 -9q-17 0 -30 11q-12 10 -12 30v35v36v83v75z
M288 736q-13 -10 -24 -10t-21 9q-11 9 -11 20t9 22l39 45l55 64q14 17 29 17t27 -12t12 -27q0 -10 -14 -24q-42 -47 -102 -102z" />
    <glyph glyph-name="Thorn" unicode="&#xde;" horiz-adv-x="567" 
d="M89 607q1 40 9 57t33 17t34 -14t8 -44v-78l119 2q115 2 182 -49q68 -51 65 -157q-1 -67 -47 -120q-45 -53 -118 -69q-35 -8 -188 -8h-16v-99q0 -46 -41 -48q-23 -2 -32 12q-9 13 -9 37v43.5t1 67.5t1 69v48zM172 216q61 0 102 1t63 3q118 14 119 126q1 75 -45 102
q-47 27 -132 27h-66t-40 -1z" />
    <glyph glyph-name="germandbls" unicode="&#xdf;" horiz-adv-x="568" 
d="M276 336q0 27 16 50q17 25 36 41q20 17 36 40t16 47q0 88 -108 88q-56 0 -87 -42q-31 -41 -31 -123v-63.5t1 -122.5q1 -151 0 -199q0 -32 -9 -45t-34 -13q-21 -2 -30 12q-9 13 -9 42v50v117v203q0 124 56 191q55 66 150 66q79 0 129 -44q49 -43 49 -119q0 -36 -27 -69
l-27 -31.5t-27 -27.5q-27 -26 -27 -42q0 -14 6 -24t21 -19t21 -12q4 -2 29 -12q49 -20 77 -48q29 -29 29 -84q0 -68 -44 -109q-43 -40 -119 -40q-56 0 -96 14q-39 13 -39 36q0 17 9 29t26 12q9 0 42 -9t65 -9q36 0 59 18t23 53t-22 54t-64 34q-45 17 -70 40q-25 24 -25 71z
" />
    <glyph glyph-name="agrave" unicode="&#xe0;" horiz-adv-x="568" 
d="M496 171q0 -32 1.5 -67.5t3.5 -74.5q0 -34 -43 -34q-22 0 -28 18t-9 66q-50 -87 -162 -87q-94 0 -154 64t-60 156q0 106 66 177t163 71t148 -78q0 26 3 41q4 34 36 34q23 0 30 -13q8 -14 8 -42l-1 -78zM127 211q0 -64 41 -107q40 -42 99 -42q65 0 109 45q43 44 43 116
q0 76 -43 119q-44 44 -102 44q-61 0 -103 -49q-42 -50 -42 -123zM295 544q-34 32 -58.5 57.5l-41.5 44.5q-13 16 -13 30q0 13 12 24q13 11 26 11q19 0 31 -17l88 -109q9 -11 9 -21t-9 -19t-20 -9t-24 10v-2z" />
    <glyph glyph-name="aacute" unicode="&#xe1;" horiz-adv-x="568" 
d="M496 171q0 -32 1.5 -67.5t3.5 -74.5q0 -34 -43 -34q-22 0 -28 18t-9 66q-50 -87 -162 -87q-94 0 -154 64t-60 156q0 106 66 177t163 71t148 -78q0 26 3 41q4 34 36 34q23 0 30 -13q8 -14 8 -42l-1 -78zM127 211q0 -64 41 -107q40 -42 99 -42q65 0 109 45q43 44 43 116
q0 76 -43 119q-44 44 -102 44q-61 0 -103 -49q-42 -50 -42 -123zM262 543q-13 -10 -24 -10t-21 9q-11 9 -11 20t9 22l39 45l55 64q14 17 29 17t27 -12t12 -27q0 -10 -14 -24q-42 -47 -102 -102z" />
    <glyph glyph-name="acircumflex" unicode="&#xe2;" horiz-adv-x="568" 
d="M496 171q0 -32 1.5 -67.5t3.5 -74.5q0 -34 -43 -34q-22 0 -28 18t-9 66q-50 -87 -162 -87q-94 0 -154 64t-60 156q0 106 66 177t163 71t148 -78q0 26 3 41q4 34 36 34q23 0 30 -13q8 -14 8 -42l-1 -78zM127 211q0 -64 41 -107q40 -42 99 -42q65 0 109 45q43 44 43 116
q0 76 -43 119q-44 44 -102 44q-61 0 -103 -49q-42 -50 -42 -123zM381 528q-6 0 -24 12l-82 84q-77 -81 -83 -86q-11 -9 -24 -9q-9 0 -18 9t-9 19q0 11 11 25l86 96q15 18 38 18q19 0 34 -16l87 -98q13 -16 13 -26q0 -9 -9 -18t-20 -9v-1z" />
    <glyph glyph-name="atilde" unicode="&#xe3;" horiz-adv-x="568" 
d="M496 171q0 -32 1.5 -67.5t3.5 -74.5q0 -34 -43 -34q-22 0 -28 18t-9 66q-50 -87 -162 -87q-94 0 -154 64t-60 156q0 106 66 177t163 71t148 -78q0 26 3 41q4 34 36 34q23 0 30 -13q8 -14 8 -42l-1 -78zM127 211q0 -64 41 -107q40 -42 99 -42q65 0 109 45q43 44 43 116
q0 76 -43 119q-44 44 -102 44q-61 0 -103 -49q-42 -50 -42 -123zM180 579q-5 -23 -31 -23q-14 0 -21 9q-8 9 -6 26q1 37 26 60t62 23q27 0 48 -15t39 -30q17 -14 37 -16q27 0 29 39q2 11 11 17t20 6t21 -8q9 -8 9 -20q0 -46 -24 -70t-63 -24q-23 2 -40 10q-16 8 -28 20
q-5 5 -11 10t-14 10q-14 8 -28 10q-31 0 -32 -33z" />
    <glyph glyph-name="adieresis" unicode="&#xe4;" horiz-adv-x="568" 
d="M496 171q0 -32 1.5 -67.5t3.5 -74.5q0 -34 -43 -34q-22 0 -28 18t-9 66q-50 -87 -162 -87q-94 0 -154 64t-60 156q0 106 66 177t163 71t148 -78q0 26 3 41q4 34 36 34q23 0 30 -13q8 -14 8 -42l-1 -78zM127 211q0 -64 41 -107q40 -42 99 -42q65 0 109 45q43 44 43 116
q0 76 -43 119q-44 44 -102 44q-61 0 -103 -49q-42 -50 -42 -123zM190 559q-20 0 -33 15q-14 16 -14 36q0 21 15 36t38 15q22 0 36 -15q14 -16 14 -36q0 -23 -15 -36q-16 -14 -40 -14zM347 560q-20 0 -33 15q-14 16 -14 36q0 21 15 36t38 15q22 0 36 -15q14 -16 14 -37
q0 -23 -15 -36q-14 -13 -39 -13z" />
    <glyph glyph-name="aring" unicode="&#xe5;" horiz-adv-x="568" 
d="M496 171q0 -32 1.5 -67.5t3.5 -74.5q0 -34 -43 -34q-22 0 -28 18t-9 66q-50 -87 -162 -87q-94 0 -154 64t-60 156q0 106 66 177t163 71t148 -78q0 26 3 41q4 34 36 34q23 0 30 -13q8 -14 8 -42l-1 -78zM127 211q0 -64 41 -107q40 -42 99 -42q65 0 109 45q43 44 43 116
q0 76 -43 119q-44 44 -102 44q-61 0 -103 -49q-42 -50 -42 -123zM273 724q45 0 77 -27t32 -72q0 -47 -31 -78q-32 -32 -78 -32q-43 0 -76 30t-33 75q0 47 34 77t76 30zM329 619q-1 25 -18 40t-42 15q-23 0 -39 -15t-16 -40q0 -27 16 -42t42 -15q25 0 42 18q16 18 15 43v-4z
" />
    <glyph glyph-name="ae" unicode="&#xe6;" horiz-adv-x="820" 
d="M443 204q0 -54 39 -94t100 -40q59 0 111 31q20 13 33 13q14 0 24 -13q11 -14 11 -27q0 -32 -55 -57q-54 -25 -130 -25q-54 0 -102 30t-72 76q-55 -106 -173 -106q-83 0 -135 36t-52 101q0 66 48 101q48 34 134 36q39 1 139 -3q-2 56 -37 90q-37 35 -92 35q-16 0 -34 -3
q-17 -3 -28 -6q-5 -2 -12 -4t-16 -5l-15 -5t-8 -3q-16 -4 -30 5t-14 27q0 23 22 36q56 32 143 32q58 -2 102 -28q45 -27 68 -74q27 46 74 75t99 29q82 0 137 -58q56 -59 56 -129q0 -40 -12 -55q-12 -14 -62 -16h-102h-56t-37 -1zM584 389q-57 0 -96 -39q-40 -40 -44 -90
h128.5t81.5 1q42 0 42 6q0 51 -33 87t-79 36v-1zM226 59q50 0 90 35t41 87l1 21q-50 3 -134 3q-108 1 -108 -72q0 -35 32 -53q31 -18 80 -18z" />
    <glyph glyph-name="ccedilla" unicode="&#xe7;" horiz-adv-x="447" 
d="M226 -15q-86 14 -135 79q-50 66 -48 140q1 97 66 174q64 76 166 76q68 0 120 -31q19 -13 19 -33q0 -15 -10 -26q-11 -12 -25 -12q-4 0 -40 14q-33 14 -69 14q-62 0 -102 -52q-41 -53 -41 -112q0 -64 38 -108t99 -44q53 0 86 21q29 16 39 16q14 0 24 -13q11 -14 11 -27
q0 -16 -15 -28q-51 -44 -132 -45l-14 -44q29 0 55 -20q25 -19 25 -59q0 -44 -28 -69t-72 -25q-28 0 -53 13q-22 13 -22 31q0 10 8 18t18 8q8 0 23 -7t30 -7q38 0 38 39q0 34 -45 34h-12q-14 2 -21 16q-8 15 -3 30z" />
    <glyph glyph-name="egrave" unicode="&#xe8;" horiz-adv-x="509" 
d="M131 203q1 -55 41 -96q39 -40 101 -40q59 0 109 33q25 12 33 12q14 0 26 -12t12 -26q0 -23 -27 -39q-61 -43 -162 -43q-89 0 -152 63q-64 63 -65 152q0 102 65 178q64 75 159 75q83 0 139 -55q57 -56 57 -124q0 -41 -13 -57q-14 -17 -63 -18q-17 -1 -34 -1h-36h-93h-99z
M273 391q-57 0 -96 -39t-45 -90q232 4 243 6q12 1 12 9q0 49 -33 81q-34 32 -79 32zM285 548q-34 32 -58.5 57.5l-41.5 44.5q-13 16 -13 30q0 13 12 24q13 11 26 11q19 0 31 -17l88 -109q9 -11 9 -21t-9 -19t-20 -9t-24 10v-2z" />
    <glyph glyph-name="eacute" unicode="&#xe9;" horiz-adv-x="509" 
d="M131 203q1 -55 41 -96q39 -40 101 -40q59 0 109 33q25 12 33 12q14 0 26 -12t12 -26q0 -23 -27 -39q-61 -43 -162 -43q-89 0 -152 63q-64 63 -65 152q0 102 65 178q64 75 159 75q83 0 139 -55q57 -56 57 -124q0 -41 -13 -57q-14 -17 -63 -18q-17 -1 -34 -1h-36h-93h-99z
M273 391q-57 0 -96 -39t-45 -90q232 4 243 6q12 1 12 9q0 49 -33 81q-34 32 -79 32zM252 547q-13 -10 -24 -10t-21 9q-11 9 -11 20t9 22l39 45l55 64q14 17 29 17t27 -12t12 -27q0 -10 -14 -24q-42 -47 -102 -102z" />
    <glyph glyph-name="ecircumflex" unicode="&#xea;" horiz-adv-x="509" 
d="M131 203q1 -55 41 -96q39 -40 101 -40q59 0 109 33q25 12 33 12q14 0 26 -12t12 -26q0 -23 -27 -39q-61 -43 -162 -43q-89 0 -152 63q-64 63 -65 152q0 102 65 178q64 75 159 75q83 0 139 -55q57 -56 57 -124q0 -41 -13 -57q-14 -17 -63 -18q-17 -1 -34 -1h-36h-93h-99z
M273 391q-57 0 -96 -39t-45 -90q232 4 243 6q12 1 12 9q0 49 -33 81q-34 32 -79 32zM371 532q-6 0 -24 12l-82 84q-77 -81 -83 -86q-11 -9 -24 -9q-9 0 -18 9t-9 19q0 11 11 25l86 96q15 18 38 18q19 0 34 -16l87 -98q13 -16 13 -26q0 -9 -9 -18t-20 -9v-1z" />
    <glyph glyph-name="edieresis" unicode="&#xeb;" horiz-adv-x="509" 
d="M131 203q1 -55 41 -96q39 -40 101 -40q59 0 109 33q25 12 33 12q14 0 26 -12t12 -26q0 -23 -27 -39q-61 -43 -162 -43q-89 0 -152 63q-64 63 -65 152q0 102 65 178q64 75 159 75q83 0 139 -55q57 -56 57 -124q0 -41 -13 -57q-14 -17 -63 -18q-17 -1 -34 -1h-36h-93h-99z
M273 391q-57 0 -96 -39t-45 -90q232 4 243 6q12 1 12 9q0 49 -33 81q-34 32 -79 32zM180 563q-20 0 -33 15q-14 16 -14 36q0 21 15 36t38 15q22 0 36 -15q14 -16 14 -36q0 -23 -15 -36q-16 -14 -40 -14zM337 564q-20 0 -33 15q-14 16 -14 36q0 21 15 36t38 15q22 0 36 -15
q14 -16 14 -37q0 -23 -15 -36q-14 -13 -39 -13z" />
    <glyph glyph-name="igrave" unicode="&#xec;" horiz-adv-x="240" 
d="M80 420q1 21 12 30q10 9 27 9q24 0 33 -12t9 -46v-115v-115l1 -131q0 -45 -43 -45q-39 0 -39 41v383v1zM141 550q-34 32 -58.5 57.5l-41.5 44.5q-13 16 -13 30q0 13 12 24q13 11 26 11q19 0 31 -17l88 -109q9 -11 9 -21t-9 -19t-20 -9t-24 10v-2z" />
    <glyph glyph-name="iacute" unicode="&#xed;" horiz-adv-x="240" 
d="M80 420q1 21 12 30q10 9 27 9q24 0 33 -12t9 -46v-115v-115l1 -131q0 -45 -43 -45q-39 0 -39 41v383v1zM108 549q-13 -10 -24 -10t-21 9q-11 9 -11 20t9 22l39 45l55 64q14 17 29 17t27 -12t12 -27q0 -10 -14 -24q-42 -47 -102 -102z" />
    <glyph glyph-name="icircumflex" unicode="&#xee;" horiz-adv-x="240" 
d="M80 420q1 21 12 30q10 9 27 9q24 0 33 -12t9 -46v-115v-115l1 -131q0 -45 -43 -45q-39 0 -39 41v383v1zM226 534q-6 0 -24 12l-82 84q-77 -81 -83 -86q-11 -9 -23 -9q-9 0 -18 9t-9 19q0 11 11 25l86 96q15 18 38 18q19 0 34 -16l87 -98q13 -16 13 -26q0 -9 -9 -18
t-20 -9z" />
    <glyph glyph-name="idieresis" unicode="&#xef;" horiz-adv-x="240" 
d="M80 420q1 21 12 30q10 9 27 9q24 0 33 -12t9 -46v-115v-115l1 -131q0 -45 -43 -45q-39 0 -39 41v383v1zM36 565q-20 0 -33 15q-14 16 -14 36q0 21 15 36t38 15q22 0 36 -15q14 -16 14 -36q0 -23 -15 -36q-16 -14 -40 -14zM193 566q-20 0 -33 15q-14 16 -14 36q0 21 15 36
t38 15q22 0 36 -15q14 -16 14 -37q0 -23 -15 -36q-14 -13 -39 -13z" />
    <glyph glyph-name="eth" unicode="&#xf0;" horiz-adv-x="551" 
d="M403 593q99 -121 98 -300q0 -54 -3 -87q-10 -103 -71 -159q-59 -55 -154 -55q-98 0 -162 63t-64 161q0 100 64 161q65 62 150 65q47 2 89 -21t69 -66q-1 112 -80 198l-63 -45q-9 -6 -18 -6q-10 0 -19 9t-9 19q0 17 19 27l47 34q-51 40 -111 54q-17 4 -24 18q-8 13 -3 27
q6 19 23 25q16 6 36 1q84 -23 146 -79l54 38q11 8 20 8q11 0 20 -10q9 -11 9 -21q0 -12 -24 -28zM273 366q-63 2 -104 -42t-41 -106q0 -68 40 -111t99 -43q61 0 105 42q43 42 43 107q0 64 -40 108q-41 45 -102 45z" />
    <glyph glyph-name="ntilde" unicode="&#xf1;" horiz-adv-x="553" 
d="M77 405q0 26 9 40q9 13 33 13q21 0 29 -11q7 -11 9 -36l1 -44q20 46 64 71q46 26 97 26q83 0 126 -52q44 -53 44 -144v-131v-90q0 -27 -10 -38q-11 -12 -36 -12q-39 0 -39 38q0 13 0.5 37.5t1.5 60.5q2 72 0 110q-1 143 -107 145q-33 0 -60 -11q-26 -11 -41 -27
q-15 -17 -24 -42q-9 -26 -12 -51q-3 -26 -3 -57v-167q0 -37 -43 -37q-39 0 -39 37v51v80v136v105zM188 583q-5 -23 -31 -23q-14 0 -21 9q-8 9 -6 26q1 37 26 60t62 23q27 0 48 -15t39 -30q17 -14 37 -16q27 0 29 39q2 11 11 17t20 6t21 -8q9 -8 9 -20q0 -46 -24 -70t-63 -24
q-23 2 -40 10q-16 8 -28 20q-5 5 -11 10t-14 10q-14 8 -28 10q-31 0 -32 -33z" />
    <glyph glyph-name="ograve" unicode="&#xf2;" 
d="M295 463q18 0 25 -7q88 -14 135 -81q47 -68 47 -151q0 -101 -69 -168q-68 -67 -169 -67q-89 0 -156 62q-66 61 -66 159q0 112 69 183q69 70 183 72zM419 226q0 68 -39 113t-109 49q-66 -4 -106 -52q-40 -47 -40 -129q0 -62 42 -102q43 -41 95 -41q64 0 111 45t47 118z
M291 546q-34 32 -58.5 57.5l-41.5 44.5q-13 16 -13 30q0 13 12 24q13 11 26 11q19 0 31 -17l88 -109q9 -11 9 -21t-9 -19t-20 -9t-24 10v-2z" />
    <glyph glyph-name="oacute" unicode="&#xf3;" 
d="M295 463q18 0 25 -7q88 -14 135 -81q47 -68 47 -151q0 -101 -69 -168q-68 -67 -169 -67q-89 0 -156 62q-66 61 -66 159q0 112 69 183q69 70 183 72zM419 226q0 68 -39 113t-109 49q-66 -4 -106 -52q-40 -47 -40 -129q0 -62 42 -102q43 -41 95 -41q64 0 111 45t47 118z
M258 545q-13 -10 -24 -10t-21 9q-11 9 -11 20t9 22l39 45l55 64q14 17 29 17t27 -12t12 -27q0 -10 -14 -24q-42 -47 -102 -102z" />
    <glyph glyph-name="ocircumflex" unicode="&#xf4;" 
d="M295 463q18 0 25 -7q88 -14 135 -81q47 -68 47 -151q0 -101 -69 -168q-68 -67 -169 -67q-89 0 -156 62q-66 61 -66 159q0 112 69 183q69 70 183 72zM419 226q0 68 -39 113t-109 49q-66 -4 -106 -52q-40 -47 -40 -129q0 -62 42 -102q43 -41 95 -41q64 0 111 45t47 118z
M376 530q-6 0 -24 12l-82 84q-77 -81 -83 -86q-11 -9 -23 -9q-9 0 -18 9t-9 19q0 11 11 25l86 96q15 18 38 18q19 0 34 -16l87 -98q13 -16 13 -26q0 -9 -9 -18t-20 -9z" />
    <glyph glyph-name="otilde" unicode="&#xf5;" 
d="M295 463q18 0 25 -7q88 -14 135 -81q47 -68 47 -151q0 -101 -69 -168q-68 -67 -169 -67q-89 0 -156 62q-66 61 -66 159q0 112 69 183q69 70 183 72zM419 226q0 68 -39 113t-109 49q-66 -4 -106 -52q-40 -47 -40 -129q0 -62 42 -102q43 -41 95 -41q64 0 111 45t47 118z
M175 581q-5 -23 -31 -23q-14 0 -21 9q-8 9 -6 26q1 37 26 60t62 23q27 0 48 -15t39 -30q17 -14 37 -16q27 0 29 39q2 11 11 17t20 6t21 -8q9 -8 9 -20q0 -46 -24 -70t-63 -24q-23 2 -40 10q-16 8 -28 20q-5 5 -11 10t-14 10q-14 8 -28 10q-31 0 -32 -33z" />
    <glyph glyph-name="odieresis" unicode="&#xf6;" 
d="M295 463q18 0 25 -7q88 -14 135 -81q47 -68 47 -151q0 -101 -69 -168q-68 -67 -169 -67q-89 0 -156 62q-66 61 -66 159q0 112 69 183q69 70 183 72zM419 226q0 68 -39 113t-109 49q-66 -4 -106 -52q-40 -47 -40 -129q0 -62 42 -102q43 -41 95 -41q64 0 111 45t47 118z
M186 561q-20 0 -33 15q-14 16 -14 36q0 21 15 36t38 15q22 0 36 -15q14 -16 14 -36q0 -23 -15 -36q-16 -14 -40 -14zM343 562q-20 0 -33 15q-14 16 -14 36q0 21 15 36t38 15q22 0 36 -15q14 -16 14 -37q0 -23 -15 -36q-14 -13 -39 -13z" />
    <glyph glyph-name="divide" unicode="&#xf7;" horiz-adv-x="485" 
d="M64 239q-17 0 -24 12q-8 12 -6 27q1 31 49 31l333 -1q34 0 34 -34q0 -35 -50 -35q-14 -1 -37.5 -1h-58.5h-149h-89zM244 400q-22 0 -37 15t-15 37q0 23 17 38q16 15 41 15q23 0 38 -15t15 -38q0 -25 -16 -38q-17 -14 -42 -14h-1zM241 42q-22 0 -37 15t-15 37q0 23 17 38
q16 15 41 15q23 0 38 -15t15 -38q0 -24 -16 -37t-42 -13z" />
    <glyph glyph-name="oslash" unicode="&#xf8;" 
d="M291 465q16 0 26 -7q34 -6 61 -21l20 32q10 18 24 18q10 0 18 -7q9 -8 9 -16q0 -10 -14 -33l-14 -22q79 -67 79 -183q0 -101 -68 -169q-67 -67 -168 -67q-41 0 -87 21l-22 -36q-8 -15 -21 -15q-9 0 -19 8q-9 7 -9 18q0 8 9 22l17 28q-89 68 -89 178t68 180q68 69 182 71
h-2zM122 212q0 -64 50 -108l166 268q-28 16 -69 17q-65 -3 -106 -50q-40 -46 -40 -126zM415 228q0 69 -39 111l-162 -263q28 -11 45 -11q64 0 111 45q46 45 46 118h-1z" />
    <glyph glyph-name="ugrave" unicode="&#xf9;" horiz-adv-x="560" 
d="M116 456q36 0 36 -42v-38.5t-1 -55.5t-1 -58.5v-46.5q0 -64 26 -107q25 -42 81 -42q78 0 111 54t33 151l1 143q0 22 12 34t31 12q41 0 41 -44v-12t-1 -33t-1 -43.5v-43.5v-47.5t1 -54.5q0 -78 6 -147q0 -36 -40 -36q-33 0 -39 33q-2 13 -3 39q-1 13 -1 20v9
q-50 -107 -160 -107q-88 0 -133 57t-45 155v103v102q0 47 46 47v-1zM299 548q-34 32 -58.5 57.5l-41.5 44.5q-13 16 -13 30q0 13 12 24q13 11 26 11q19 0 31 -17l88 -109q9 -11 9 -21t-9 -19t-20 -9t-24 10v-2z" />
    <glyph glyph-name="uacute" unicode="&#xfa;" horiz-adv-x="560" 
d="M116 456q36 0 36 -42v-38.5t-1 -55.5t-1 -58.5v-46.5q0 -64 26 -107q25 -42 81 -42q78 0 111 54t33 151l1 143q0 22 12 34t31 12q41 0 41 -44v-12t-1 -33t-1 -43.5v-43.5v-47.5t1 -54.5q0 -78 6 -147q0 -36 -40 -36q-33 0 -39 33q-2 13 -3 39q-1 13 -1 20v9
q-50 -107 -160 -107q-88 0 -133 57t-45 155v103v102q0 47 46 47v-1zM266 547q-13 -10 -24 -10t-21 9q-11 9 -11 20t9 22l39 45l55 64q14 17 29 17t27 -12t12 -27q0 -10 -14 -24q-42 -47 -102 -102z" />
    <glyph glyph-name="ucircumflex" unicode="&#xfb;" horiz-adv-x="560" 
d="M116 456q36 0 36 -42v-38.5t-1 -55.5t-1 -58.5v-46.5q0 -64 26 -107q25 -42 81 -42q78 0 111 54t33 151l1 143q0 22 12 34t31 12q41 0 41 -44v-12t-1 -33t-1 -43.5v-43.5v-47.5t1 -54.5q0 -78 6 -147q0 -36 -40 -36q-33 0 -39 33q-2 13 -3 39q-1 13 -1 20v9
q-50 -107 -160 -107q-88 0 -133 57t-45 155v103v102q0 47 46 47v-1zM385 532q-6 0 -24 12l-82 84q-77 -81 -83 -86q-11 -9 -24 -9q-9 0 -18 9t-9 19q0 11 11 25l86 96q15 18 38 18q19 0 34 -16l87 -98q13 -16 13 -26q0 -9 -9 -18t-20 -9v-1z" />
    <glyph glyph-name="udieresis" unicode="&#xfc;" horiz-adv-x="560" 
d="M116 456q36 0 36 -42v-38.5t-1 -55.5t-1 -58.5v-46.5q0 -64 26 -107q25 -42 81 -42q78 0 111 54t33 151l1 143q0 22 12 34t31 12q41 0 41 -44v-12t-1 -33t-1 -43.5v-43.5v-47.5t1 -54.5q0 -78 6 -147q0 -36 -40 -36q-33 0 -39 33q-2 13 -3 39q-1 13 -1 20v9
q-50 -107 -160 -107q-88 0 -133 57t-45 155v103v102q0 47 46 47v-1zM194 563q-20 0 -33 15q-14 16 -14 36q0 21 15 36t38 15q22 0 36 -15q14 -16 14 -36q0 -23 -15 -36q-16 -14 -40 -14zM351 564q-20 0 -33 15q-14 16 -14 36q0 21 15 36t38 15q22 0 36 -15q14 -16 14 -37
q0 -23 -15 -36q-14 -13 -39 -13z" />
    <glyph glyph-name="yacute" unicode="&#xfd;" horiz-adv-x="493" 
d="M245 95l63.5 148l71.5 178q7 19 16 28t25 9q17 0 30 -10q14 -11 14 -25q0 -15 -7 -30q-83 -198 -231 -504q-62 -114 -144 -114q-68 0 -68 42q0 38 43 38q34 0 52 12q19 13 41 51q21 34 54 102l-39 81l-122 273q-16 33 -16 49t14 27q13 10 30 10q21 0 33 -20l144 -344z
M230 547q-13 -10 -24 -10t-21 9q-11 9 -11 20t9 22l39 45l55 64q14 17 29 17t27 -12t12 -27q0 -10 -14 -24q-42 -47 -102 -102z" />
    <glyph glyph-name="thorn" unicode="&#xfe;" horiz-adv-x="572" 
d="M153 -178q-2 -41 -42 -41q-25 0 -32 12q-8 13 -8 42l2 411l-3 431q2 41 39 41q19 0 32 -8q12 -8 11 -30v-163v-106v-35q48 88 164 88q92 0 152 -69t60 -161q0 -103 -64 -173q-65 -71 -159 -71q-49 0 -90 23q-41 22 -63 63v-61.5t1 -77.5t1 -71.5v-42.5zM443 230
q0 67 -41 113q-41 45 -101 45q-69 0 -111 -43q-42 -44 -42 -121q0 -76 41 -119q40 -42 104 -42t107 46q44 47 44 123z" />
    <glyph glyph-name="ydieresis" unicode="&#xff;" horiz-adv-x="493" 
d="M245 95l63.5 148l71.5 178q7 19 16 28t25 9q17 0 30 -10q14 -11 14 -25q0 -15 -7 -30q-83 -198 -231 -504q-62 -114 -144 -114q-68 0 -68 42q0 38 43 38q34 0 52 12q19 13 41 51q21 34 54 102l-39 81l-122 273q-16 33 -16 49t14 27q13 10 30 10q21 0 33 -20l144 -344z
M158 563q-20 0 -33 15q-14 16 -14 36q0 21 15 36t38 15q22 0 36 -15q14 -16 14 -36q0 -23 -15 -36q-16 -14 -40 -14zM315 564q-20 0 -33 15q-14 16 -14 36q0 21 15 36t38 15q22 0 36 -15q14 -16 14 -37q0 -23 -15 -36q-14 -13 -39 -13z" />
    <glyph glyph-name="Amacron" unicode="&#x100;" horiz-adv-x="639" 
d="M24 38q0 13 15 48l105 246l45.5 113l80.5 206q14 32 48 32q36 0 50 -33q9 -20 26 -62.5l42 -108.5l42 -110l26 -67l2.5 -5t3.5 -8q4 -11 6 -15l88 -214q8 -21 8 -29q0 -13 -13 -23q-14 -11 -31 -11t-27 8t-17 27q-59 151 -60 153q-16 1 -63 1h-127h-102q-2 -6 -9 -24
l-18 -47q-23 -59 -30 -75q-15 -33 -25 -39q-7 -4 -18 -4q-47 0 -47 38zM320 579q-20 -60 -50.5 -139.5l-72.5 -182.5q59 -1 118.5 -1t122.5 2l-33 90l-26.5 71.5l-24.5 67.5l-21 56t-14 37zM217 783q-36 0 -36 34q0 36 47 36h40h42h27.5t34.5 1t31 1h17q36 0 38 -32
q0 -38 -50 -38h-48h-52h-21t-27 -1t-25.5 -1h-15.5h-2z" />
    <glyph glyph-name="amacron" unicode="&#x101;" horiz-adv-x="568" 
d="M496 171q0 -32 1.5 -67.5t3.5 -74.5q0 -34 -43 -34q-22 0 -28 18t-9 66q-50 -87 -162 -87q-94 0 -154 64t-60 156q0 106 66 177t163 71t148 -78q0 26 3 41q4 34 36 34q23 0 30 -13q8 -14 8 -42l-1 -78zM127 211q0 -64 41 -107q40 -42 99 -42q65 0 109 45q43 44 43 116
q0 76 -43 119q-44 44 -102 44q-61 0 -103 -49q-42 -50 -42 -123zM171 586q-36 0 -36 34q0 36 47 36h40h42h27.5t34.5 1t31 1h17q36 0 38 -32q0 -38 -50 -38h-48h-52h-21t-27 -1t-25.5 -1h-15.5h-2z" />
    <glyph glyph-name="Abreve" unicode="&#x102;" horiz-adv-x="639" 
d="M24 38q0 13 15 48l105 246l45.5 113l80.5 206q14 32 48 32q36 0 50 -33q9 -20 26 -62.5l42 -108.5l42 -110l26 -67l2.5 -5t3.5 -8q4 -11 6 -15l88 -214q8 -21 8 -29q0 -13 -13 -23q-14 -11 -31 -11t-27 8t-17 27q-59 151 -60 153q-16 1 -63 1h-127h-102q-2 -6 -9 -24
l-18 -47q-23 -59 -30 -75q-15 -33 -25 -39q-7 -4 -18 -4q-47 0 -47 38zM320 579q-20 -60 -50.5 -139.5l-72.5 -182.5q59 -1 118.5 -1t122.5 2l-33 90l-26.5 71.5l-24.5 67.5l-21 56t-14 37zM424 878q13 0 21 -9q8 -10 8 -21q0 -53 -37 -90t-93 -37q-52 0 -91 36
q-38 36 -40 86q0 14 8 24q7 9 21 9q13 0 20 -7q7 -8 9 -18q1 -31 21 -49q19 -18 51 -18q31 0 51 21q20 22 20 49q1 27 30 27z" />
    <glyph glyph-name="abreve" unicode="&#x103;" horiz-adv-x="568" 
d="M496 171q0 -32 1.5 -67.5t3.5 -74.5q0 -34 -43 -34q-22 0 -28 18t-9 66q-50 -87 -162 -87q-94 0 -154 64t-60 156q0 106 66 177t163 71t148 -78q0 26 3 41q4 34 36 34q23 0 30 -13q8 -14 8 -42l-1 -78zM127 211q0 -64 41 -107q40 -42 99 -42q65 0 109 45q43 44 43 116
q0 76 -43 119q-44 44 -102 44q-61 0 -103 -49q-42 -50 -42 -123zM378 681q13 0 21 -9q8 -10 8 -21q0 -53 -37 -90t-93 -37q-52 0 -91 36q-38 36 -40 86q0 14 8 24q7 9 21 9q13 0 20 -7q7 -8 9 -18q1 -31 21 -49q19 -18 51 -18q31 0 51 21q20 22 20 49q1 27 30 27z" />
    <glyph glyph-name="Aogonek" unicode="&#x104;" horiz-adv-x="639" 
d="M508 -110q0 -20 10 -30q11 -11 27 -11q11 0 23 3t20 3q10 0 18 -9q7 -8 7 -22q0 -40 -67 -40q-41 0 -69 25q-29 26 -29 70q0 67 90 129q-9 9 -15 25q-59 151 -60 153q-16 1 -63 1h-127h-102q-2 -6 -9 -24l-18 -47q-23 -59 -30 -75q-15 -33 -25 -39q-7 -4 -18 -4
q-47 0 -47 38q0 13 15 48l105 246l45.5 113l80.5 206q14 32 48 32q36 0 50 -33q9 -20 26 -62.5l42 -108.5l42 -110l26 -67l2.5 -5t3.5 -8q4 -11 6 -15l88 -214q8 -21 8 -29q0 -17 -21 -29q-42 -36 -60 -58q-20 -25 -20 -52h-3zM318 576q-20 -60 -50.5 -139.5l-72.5 -182.5
q59 -1 118.5 -1t122.5 2l-33 90l-26.5 71.5l-24.5 67.5l-21 56t-14 37z" />
    <glyph glyph-name="aogonek" unicode="&#x105;" horiz-adv-x="568" 
d="M494 170q0 -38 1 -72.5t3 -65.5q0 -23 -22 -36q-81 -59 -81 -111q0 -42 36 -42q11 0 23 3t20 3q10 0 18 -9q7 -8 7 -22q0 -40 -67 -40q-40 0 -69 26t-29 71q0 71 97 135q-10 17 -11 69q-50 -87 -162 -87q-94 0 -154 64t-60 156q0 106 66 177t163 71t148 -78v24t1 16
q2 35 38 35q39 0 39 -47l-1 -86zM127 210q0 -64 41 -107q40 -42 99 -42q64 0 108 45q43 44 43 116q0 76 -43 119q-44 44 -103 44q-61 0 -103 -49q-42 -50 -42 -123v-3z" />
    <glyph glyph-name="Cacute" unicode="&#x106;" horiz-adv-x="608" 
d="M519 656q44 -20 44 -45q0 -18 -9 -30t-27 -12q-15 2 -39 13q-59 28 -123 28q-92 0 -162 -79q-71 -80 -72 -198q0 -107 68 -184q67 -76 170 -78q75 0 136 40q2 1 8 5l6 4q1 1 6 3q6 2 9 2h9q14 0 23 -13q9 -14 9 -30q0 -34 -69 -62q-70 -29 -144 -29q-127 1 -220 93
q-94 92 -92 242q2 162 100 260q99 99 226 98q80 0 146 -29zM351 739q-13 -10 -24 -10t-21 9q-11 9 -11 20t9 22l39 45l55 64q14 17 29 17t27 -12t12 -27q0 -10 -14 -24q-42 -47 -102 -102z" />
    <glyph glyph-name="cacute" unicode="&#x107;" horiz-adv-x="447" 
d="M391 426q19 -13 19 -33q0 -15 -10 -26q-11 -12 -25 -12q-4 0 -40 14q-33 14 -69 14q-62 0 -102 -52q-41 -53 -41 -112q0 -64 38 -108t99 -44q53 0 86 21q29 16 39 16q14 0 24 -13q11 -14 11 -27q0 -16 -15 -28q-55 -46 -141 -46q-104 0 -164 69q-60 70 -59 153
q1 97 66 174q64 76 166 76q68 0 120 -31zM255 543q-13 -10 -24 -10t-21 9q-11 9 -11 20t9 22l39 45l55 64q14 17 29 17t27 -12t12 -27q0 -10 -14 -24q-42 -47 -102 -102z" />
    <glyph glyph-name="Ccircumflex" unicode="&#x108;" horiz-adv-x="608" 
d="M519 656q44 -20 44 -45q0 -18 -9 -30t-27 -12q-15 2 -39 13q-59 28 -123 28q-92 0 -162 -79q-71 -80 -72 -198q0 -107 68 -184q67 -76 170 -78q75 0 136 40q2 1 8 5l6 4q1 1 6 3q6 2 9 2h9q14 0 23 -13q9 -14 9 -30q0 -34 -69 -62q-70 -29 -144 -29q-127 1 -220 93
q-94 92 -92 242q2 162 100 260q99 99 226 98q80 0 146 -29zM470 724q-6 0 -24 12l-82 84q-77 -81 -83 -86q-11 -9 -24 -9q-9 0 -18 9t-9 19q0 11 11 25l86 96q15 18 38 18q19 0 34 -16l87 -98q13 -16 13 -26q0 -9 -9 -18t-20 -9v-1z" />
    <glyph glyph-name="ccircumflex" unicode="&#x109;" horiz-adv-x="447" 
d="M391 426q19 -13 19 -33q0 -15 -10 -26q-11 -12 -25 -12q-4 0 -40 14q-33 14 -69 14q-62 0 -102 -52q-41 -53 -41 -112q0 -64 38 -108t99 -44q53 0 86 21q29 16 39 16q14 0 24 -13q11 -14 11 -27q0 -16 -15 -28q-55 -46 -141 -46q-104 0 -164 69q-60 70 -59 153
q1 97 66 174q64 76 166 76q68 0 120 -31zM373 528q-6 0 -24 12l-82 84q-77 -81 -83 -86q-11 -9 -23 -9q-9 0 -18 9t-9 19q0 11 11 25l86 96q15 18 38 18q19 0 34 -16l87 -98q13 -16 13 -26q0 -9 -9 -18t-20 -9z" />
    <glyph glyph-name="Cdotaccent" unicode="&#x10a;" horiz-adv-x="608" 
d="M519 656q44 -20 44 -45q0 -18 -9 -30t-27 -12q-15 2 -39 13q-59 28 -123 28q-92 0 -162 -79q-71 -80 -72 -198q0 -107 68 -184q67 -76 170 -78q75 0 136 40q2 1 8 5l6 4q1 1 6 3q6 2 9 2h9q14 0 23 -13q9 -14 9 -30q0 -34 -69 -62q-70 -29 -144 -29q-127 1 -220 93
q-94 92 -92 242q2 162 100 260q99 99 226 98q80 0 146 -29zM360 759q-23 0 -38 17t-14 42q2 25 18 38q17 14 39 14q25 0 39 -15q14 -16 14 -38q0 -25 -16 -40q-17 -15 -42 -15v-3z" />
    <glyph glyph-name="cdotaccent" unicode="&#x10b;" horiz-adv-x="447" 
d="M391 426q19 -13 19 -33q0 -15 -10 -26q-11 -12 -25 -12q-4 0 -40 14q-33 14 -69 14q-62 0 -102 -52q-41 -53 -41 -112q0 -64 38 -108t99 -44q53 0 86 21q29 16 39 16q14 0 24 -13q11 -14 11 -27q0 -16 -15 -28q-55 -46 -141 -46q-104 0 -164 69q-60 70 -59 153
q1 97 66 174q64 76 166 76q68 0 120 -31zM264 563q-23 0 -38 17t-14 42q2 25 18 38q17 14 39 14q25 0 39 -15q14 -16 14 -38q0 -25 -16 -40q-17 -15 -42 -15v-3z" />
    <glyph glyph-name="Ccaron" unicode="&#x10c;" horiz-adv-x="608" 
d="M519 656q44 -20 44 -45q0 -18 -9 -30t-27 -12q-15 2 -39 13q-59 28 -123 28q-92 0 -162 -79q-71 -80 -72 -198q0 -107 68 -184q67 -76 170 -78q75 0 136 40q2 1 8 5l6 4q1 1 6 3q6 2 9 2h9q14 0 23 -13q9 -14 9 -30q0 -34 -69 -62q-70 -29 -144 -29q-127 1 -220 93
q-94 92 -92 242q2 162 100 260q99 99 226 98q80 0 146 -29zM258 891q11 0 23 -12q13 -12 33 -33l49 -51l18.5 18.5l19.5 20.5t17.5 18.5l12.5 12.5t9.5 9t8.5 7q10 9 23 9q9 0 18 -9t9 -18t-11 -25l-87 -96q-15 -18 -37 -18q-19 0 -34 16l-87 98q-13 16 -13 27q0 9 9 18
t20 9z" />
    <glyph glyph-name="ccaron" unicode="&#x10d;" horiz-adv-x="447" 
d="M391 426q19 -13 19 -33q0 -15 -10 -26q-11 -12 -25 -12q-4 0 -40 14q-33 14 -69 14q-62 0 -102 -52q-41 -53 -41 -112q0 -64 38 -108t99 -44q53 0 86 21q29 16 39 16q14 0 24 -13q11 -14 11 -27q0 -16 -15 -28q-55 -46 -141 -46q-104 0 -164 69q-60 70 -59 153
q1 97 66 174q64 76 166 76q68 0 120 -31zM161 695q11 0 23 -12q13 -12 33 -33l49 -51l18.5 18.5l19.5 20.5t17.5 18.5l12.5 12.5t9.5 9t8.5 7q10 9 24 9q9 0 18 -9t9 -18t-11 -25l-87 -96q-15 -18 -37 -18q-19 0 -34 16l-87 98q-13 16 -13 27q0 9 9 18t20 9z" />
    <glyph glyph-name="Dcaron" unicode="&#x10e;" horiz-adv-x="675" 
d="M78 623q0 58 81 58h69h67q146 -8 241 -91q96 -84 96 -229q0 -358 -380 -361q-40 0 -70.5 0.5t-52.5 1.5q-48 3 -48 59l2 272l-3 289zM265 607q-69 0 -105 -3v-503q0 -16 15 -19t69 -3q303 0 303 273q0 86 -40 144q-41 58 -102 84q-63 26 -139 26zM218 892q11 0 23 -12
q13 -12 33 -33l49 -51l18.5 18.5l19.5 20.5t17.5 18.5l12.5 12.5t9.5 9t8.5 7q10 9 24 9q9 0 18 -9t9 -18t-11 -25l-87 -96q-15 -18 -37 -18q-19 0 -34 16l-87 98q-13 16 -13 27q0 9 9 18t20 9z" />
    <glyph glyph-name="dcaron" unicode="&#x10f;" horiz-adv-x="684" 
d="M608 627q-16 2 -27 13q-12 12 -12 32q0 23 15 38t37 15q25 0 42 -18q16 -17 16 -49t-21 -66t-52 -52q-12 -5 -15 -5q-9 0 -16 6t-7 15q0 11 11 20q34 24 34 47v4h-5zM493 439v-196v-26.5t1 -51.5t1 -65v-68q0 -39 -40 -39q-35 0 -38 35l-1 56q-56 -93 -161 -93
q-94 0 -154 68q-60 67 -60 156q0 103 66 174t163 71q45 0 84 -21q38 -21 61 -57l-2 292q0 49 42 49t42 -39zM122 218q0 -63 42 -108t101 -45q61 0 105 44t44 116t-40 116q-41 45 -100 45q-64 0 -107 -48q-44 -49 -44 -120h-1z" />
    <glyph glyph-name="Dcroat" unicode="&#x110;" horiz-adv-x="679" 
d="M82 623q0 58 81 58h69h67q146 -8 241 -91q96 -84 96 -229q0 -358 -380 -361q-40 0 -70.5 0.5t-52.5 1.5q-48 3 -48 59l1 230h-39q-37 0 -37 36t43 36h34l-3 259zM270 607q-69 0 -105 -3v-239h91q39 0 39 -35q0 -19 -10 -28q-11 -9 -36 -9h-85v-192q0 -16 15 -19t69 -3
q303 0 303 273q0 86 -40 144q-41 58 -102 84q-63 26 -139 26v1z" />
    <glyph glyph-name="dcroat" unicode="&#x111;" horiz-adv-x="569" 
d="M496 608h46q37 0 37 -34t-40 -34h-43v-80v-210v-26v-24t1 -49t1 -61v-59q0 -39 -40 -39q-35 0 -38 35l-1 56q-56 -93 -161 -93q-94 0 -154 68q-60 67 -60 156q0 103 66 174t163 71q45 0 83 -21q37 -21 60 -57v160h-92q-40 0 -40 35q0 33 39 33h93v67q0 25 10 35
q11 11 33 11q38 0 38 -37zM125 217q0 -63 42 -108t101 -45q61 0 105 44t44 116t-40 116q-41 45 -100 45q-64 0 -107 -48q-44 -49 -44 -120h-1z" />
    <glyph glyph-name="Emacron" unicode="&#x112;" horiz-adv-x="543" 
d="M96 639q0 24 16 33t49 9h48h59.5t74.5 1t67.5 1h39.5q46 0 48 -36q0 -33 -27 -37q-15 -1 -75 -1h-166h-52q-1 -21 -1 -51v-70l-1 -97v-19h50q108 0 174 3q28 0 39 -7q12 -8 12 -30q-2 -36 -45 -36h-231v-72v-32.5t-1 -45.5t-1 -45.5v-32.5q66 0 131.5 0.5t132.5 1.5h18
h17q35 0 35 -36q0 -19 -11 -30t-39 -12h-262q-67 0 -84 10t-19 51v22.5t1 16.5l1 14v38v57v80v96v127v127zM201 783q-36 0 -36 34q0 36 47 36h40h42h27.5t34.5 1t31 1h17q36 0 38 -32q0 -38 -50 -38h-48h-52h-21t-27 -1t-25.5 -1h-15.5h-2z" />
    <glyph glyph-name="emacron" unicode="&#x113;" horiz-adv-x="509" 
d="M131 203q1 -55 41 -96q39 -40 101 -40q59 0 109 33q25 12 33 12q14 0 26 -12t12 -26q0 -23 -27 -39q-61 -43 -162 -43q-89 0 -152 63q-64 63 -65 152q0 102 65 178q64 75 159 75q83 0 139 -55q57 -56 57 -124q0 -41 -13 -57q-14 -17 -63 -18q-17 -1 -34 -1h-36h-93h-99z
M273 391q-57 0 -96 -39t-45 -90q232 4 243 6q12 1 12 9q0 49 -33 81q-34 32 -79 32zM161 590q-36 0 -36 34q0 36 47 36h40h42h27.5t34.5 1t31 1h17q36 0 38 -32q0 -38 -50 -38h-48h-52h-21t-27 -1t-25.5 -1h-15.5h-2z" />
    <glyph glyph-name="Ebreve" unicode="&#x114;" horiz-adv-x="543" 
d="M96 639q0 24 16 33t49 9h48h59.5t74.5 1t67.5 1h39.5q46 0 48 -36q0 -33 -27 -37q-15 -1 -75 -1h-166h-52q-1 -21 -1 -51v-70l-1 -97v-19h50q108 0 174 3q28 0 39 -7q12 -8 12 -30q-2 -36 -45 -36h-231v-72v-32.5t-1 -45.5t-1 -45.5v-32.5q66 0 131.5 0.5t132.5 1.5h18
h17q35 0 35 -36q0 -19 -11 -30t-39 -12h-262q-67 0 -84 10t-19 51v22.5t1 16.5l1 14v38v57v80v96v127v127zM408 878q13 0 21 -9q8 -10 8 -21q0 -53 -37 -90t-93 -37q-52 0 -91 36q-38 36 -40 86q0 14 8 24q7 9 21 9q13 0 20 -7q7 -8 9 -18q1 -31 21 -49q19 -18 51 -18
q31 0 51 21q20 22 20 49q1 27 30 27z" />
    <glyph glyph-name="ebreve" unicode="&#x115;" horiz-adv-x="509" 
d="M131 203q1 -55 41 -96q39 -40 101 -40q59 0 109 33q25 12 33 12q14 0 26 -12t12 -26q0 -23 -27 -39q-61 -43 -162 -43q-89 0 -152 63q-64 63 -65 152q0 102 65 178q64 75 159 75q83 0 139 -55q57 -56 57 -124q0 -41 -13 -57q-14 -17 -63 -18q-17 -1 -34 -1h-36h-93h-99z
M273 391q-57 0 -96 -39t-45 -90q232 4 243 6q12 1 12 9q0 49 -33 81q-34 32 -79 32zM368 685q13 0 21 -9q8 -10 8 -21q0 -53 -37 -90t-93 -37q-52 0 -91 36q-38 36 -40 86q0 14 8 24q7 9 21 9q13 0 20 -7q7 -8 9 -18q1 -31 21 -49q19 -18 51 -18q31 0 51 21q20 22 20 49
q1 27 30 27z" />
    <glyph glyph-name="Edotaccent" unicode="&#x116;" horiz-adv-x="543" 
d="M96 639q0 24 16 33t49 9h48h59.5t74.5 1t67.5 1h39.5q46 0 48 -36q0 -33 -27 -37q-15 -1 -75 -1h-166h-52q-1 -21 -1 -51v-70l-1 -97v-19h50q108 0 174 3q28 0 39 -7q12 -8 12 -30q-2 -36 -45 -36h-231v-72v-32.5t-1 -45.5t-1 -45.5v-32.5q66 0 131.5 0.5t132.5 1.5h18
h17q35 0 35 -36q0 -19 -11 -30t-39 -12h-262q-67 0 -84 10t-19 51v22.5t1 16.5l1 14v38v57v80v96v127v127zM301 760q-23 0 -38 17t-14 42q2 25 18 38q17 14 39 14q25 0 39 -15q14 -16 14 -38q0 -25 -16 -40q-17 -15 -42 -15v-3z" />
    <glyph glyph-name="edotaccent" unicode="&#x117;" horiz-adv-x="509" 
d="M131 203q1 -55 41 -96q39 -40 101 -40q59 0 109 33q25 12 33 12q14 0 26 -12t12 -26q0 -23 -27 -39q-61 -43 -162 -43q-89 0 -152 63q-64 63 -65 152q0 102 65 178q64 75 159 75q83 0 139 -55q57 -56 57 -124q0 -41 -13 -57q-14 -17 -63 -18q-17 -1 -34 -1h-36h-93h-99z
M273 391q-57 0 -96 -39t-45 -90q232 4 243 6q12 1 12 9q0 49 -33 81q-34 32 -79 32zM261 567q-23 0 -38 17t-14 42q2 25 18 38q17 14 39 14q25 0 39 -15q14 -16 14 -38q0 -25 -16 -40q-17 -15 -42 -15v-3z" />
    <glyph glyph-name="Eogonek" unicode="&#x118;" horiz-adv-x="543" 
d="M398 -110q0 -19 9 -31t26 -12q11 0 23 3t19 3q12 0 18 -9t6 -22q0 -35 -58 -39q-20 0 -33 4q-33 7 -54 30q-21 22 -21 60q0 67 75 121h-214q-67 0 -84 10t-19 51v21v21q2 36 3 106t1 176v113v113q2 46 13 57q12 12 53 12h48h59.5t74.5 1t67.5 1h39.5q46 0 48 -36
q0 -33 -27 -37q-15 -1 -75 -1h-166h-53v-94.5t-1 -118.5v-24h50q16 0 39 0.5t54 1.5t54 1.5t39 0.5q38 0 38 -37q0 -19 -10 -28q-11 -9 -45 -9h-222q1 -19 0.5 -75t-2.5 -150h148h151q35 0 35 -34t-31 -40q-30 -16 -55 -49q-25 -32 -25 -61h4z" />
    <glyph glyph-name="eogonek" unicode="&#x119;" horiz-adv-x="509" 
d="M128 200q1 -55 41 -96q39 -40 101 -40q59 0 109 33q25 12 33 12q14 0 26 -12t12 -26q0 -20 -27 -39q-13 -8 -22.5 -15t-17.5 -12q-13 -9 -34 -30t-29 -40q-9 -21 -9 -46q0 -18 11 -31q10 -12 27 -12q10 0 24 3q13 3 21 3q10 0 18 -9q7 -8 7 -22q0 -40 -69 -40
q-43 0 -72 26q-28 25 -28 71q0 64 59 117q-21 -3 -45 -3q-89 0 -152 63q-64 63 -65 152q0 102 65 178q64 75 159 75q83 0 139 -55q57 -56 57 -124q0 -41 -13 -57q-14 -17 -63 -18q-17 -1 -34 -1h-36h-93h-99zM270 388q-57 0 -96 -39t-45 -90q232 4 243 6q12 1 12 9
q0 49 -33 81q-34 32 -79 32z" />
    <glyph glyph-name="Ecaron" unicode="&#x11a;" horiz-adv-x="543" 
d="M96 639q0 24 16 33t49 9h48h59.5t74.5 1t67.5 1h39.5q46 0 48 -36q0 -33 -27 -37q-15 -1 -75 -1h-166h-52q-1 -21 -1 -51v-70l-1 -97v-19h50q108 0 174 3q28 0 39 -7q12 -8 12 -30q-2 -36 -45 -36h-231v-72v-32.5t-1 -45.5t-1 -45.5v-32.5q66 0 131.5 0.5t132.5 1.5h18
h17q35 0 35 -36q0 -19 -11 -30t-39 -12h-262q-67 0 -84 10t-19 51v22.5t1 16.5l1 14v38v57v80v96v127v127zM199 892q11 0 23 -12q13 -12 33 -33l49 -51l18.5 18.5l19.5 20.5t17.5 18.5l12.5 12.5t9.5 9t8.5 7q10 9 23 9q9 0 18 -9t9 -18t-11 -25l-87 -96q-15 -18 -37 -18
q-19 0 -34 16l-87 98q-13 16 -13 27q0 9 9 18t20 9z" />
    <glyph glyph-name="ecaron" unicode="&#x11b;" horiz-adv-x="509" 
d="M131 203q1 -55 41 -96q39 -40 101 -40q59 0 109 33q25 12 33 12q14 0 26 -12t12 -26q0 -23 -27 -39q-61 -43 -162 -43q-89 0 -152 63q-64 63 -65 152q0 102 65 178q64 75 159 75q83 0 139 -55q57 -56 57 -124q0 -41 -13 -57q-14 -17 -63 -18q-17 -1 -34 -1h-36h-93h-99z
M273 391q-57 0 -96 -39t-45 -90q232 4 243 6q12 1 12 9q0 49 -33 81q-34 32 -79 32zM159 699q11 0 23 -12q13 -12 33 -33l49 -51l18.5 18.5l19.5 20.5t17.5 18.5l12.5 12.5t9.5 9t8.5 7q10 9 23 9q9 0 18 -9t9 -18t-11 -25l-87 -96q-15 -18 -37 -18q-19 0 -34 16l-87 98
q-13 16 -13 27q0 9 9 18t20 9z" />
    <glyph glyph-name="Gcircumflex" unicode="&#x11c;" horiz-adv-x="711" 
d="M388 681q113 0 198 -55q25 -16 25 -36q0 -16 -9 -28t-25 -12t-46 18q-59 40 -147 40q-94 0 -171 -80q-76 -79 -76 -186q0 -127 68 -201q67 -73 180 -73q90 0 146 65q55 64 57 153h-141q-15 1 -24 12q-9 10 -9 24q0 33 34 36q5 1 171 1q30 0 41 -15q11 -16 11 -46
q0 -137 -82 -222t-210 -85q-144 0 -235 96q-91 95 -91 250q0 143 101 246q100 102 234 102v-4zM487 719q-6 0 -24 12l-82 84q-77 -81 -83 -86q-11 -9 -24 -9q-9 0 -18 9t-9 19q0 11 11 25l86 96q15 18 38 18q19 0 34 -16l87 -98q13 -16 13 -26q0 -9 -9 -18t-20 -9v-1z" />
    <glyph glyph-name="gcircumflex" unicode="&#x11d;" horiz-adv-x="564" 
d="M262 -156q67 0 111 45q44 46 44 118v70q-24 -41 -66 -63q-41 -22 -91 -22q-92 0 -153 66q-61 65 -61 156q0 105 66 176t163 71q89 0 145 -78l1 42q2 32 38 32q17 0 27 -10q11 -11 11 -28q-1 -115 -1.5 -195t-0.5 -125l1 -94q1 -106 -66 -172q-68 -66 -171 -66
q-81 0 -137 28q-34 16 -34 42q0 16 11 29q10 12 26 12q4 0 12 -2q6 -2 15 -6q9 -5 15 -6q43 -18 93 -18zM128 217q0 -65 41 -108q40 -42 99 -42q63 0 107 42t44 116q0 77 -41 120q-41 42 -102 42q-63 1 -105 -47t-42 -123h-1zM384 531q-6 0 -24 12l-82 84q-77 -81 -83 -86
q-11 -9 -23 -9q-9 0 -18 9t-9 19q0 11 11 25l86 96q15 18 38 18q19 0 34 -16l87 -98q13 -16 13 -26q0 -9 -9 -18t-20 -9z" />
    <glyph glyph-name="Gbreve" unicode="&#x11e;" horiz-adv-x="711" 
d="M388 681q113 0 198 -55q25 -16 25 -36q0 -16 -9 -28t-25 -12t-46 18q-59 40 -147 40q-94 0 -171 -80q-76 -79 -76 -186q0 -127 68 -201q67 -73 180 -73q90 0 146 65q55 64 57 153h-141q-15 1 -24 12q-9 10 -9 24q0 33 34 36q5 1 171 1q30 0 41 -15q11 -16 11 -46
q0 -137 -82 -222t-210 -85q-144 0 -235 96q-91 95 -91 250q0 143 101 246q100 102 234 102v-4zM484 872q13 0 21 -9q8 -10 8 -21q0 -53 -37 -90t-93 -37q-52 0 -91 36q-38 36 -40 86q0 14 8 24q7 9 21 9q13 0 20 -7q7 -8 9 -18q1 -31 21 -49q19 -18 51 -18q31 0 51 21
q20 22 20 49q1 27 30 27z" />
    <glyph glyph-name="gbreve" unicode="&#x11f;" horiz-adv-x="564" 
d="M262 -156q67 0 111 45q44 46 44 118v70q-24 -41 -66 -63q-41 -22 -91 -22q-92 0 -153 66q-61 65 -61 156q0 105 66 176t163 71q89 0 145 -78l1 42q2 32 38 32q17 0 27 -10q11 -11 11 -28q-1 -115 -1.5 -195t-0.5 -125l1 -94q1 -106 -66 -172q-68 -66 -171 -66
q-81 0 -137 28q-34 16 -34 42q0 16 11 29q10 12 26 12q4 0 12 -2q6 -2 15 -6q9 -5 15 -6q43 -18 93 -18zM128 217q0 -65 41 -108q40 -42 99 -42q63 0 107 42t44 116q0 77 -41 120q-41 42 -102 42q-63 1 -105 -47t-42 -123h-1zM381 684q13 0 21 -9q8 -10 8 -21q0 -53 -37 -90
t-93 -37q-52 0 -91 36q-38 36 -40 86q0 14 8 24q7 9 21 9q13 0 20 -7q7 -8 9 -18q1 -31 21 -49q19 -18 51 -18q31 0 51 21q20 22 20 49q1 27 30 27z" />
    <glyph glyph-name="Gdotaccent" unicode="&#x120;" horiz-adv-x="711" 
d="M388 681q113 0 198 -55q25 -16 25 -36q0 -16 -9 -28t-25 -12t-46 18q-59 40 -147 40q-94 0 -171 -80q-76 -79 -76 -186q0 -127 68 -201q67 -73 180 -73q90 0 146 65q55 64 57 153h-141q-15 1 -24 12q-9 10 -9 24q0 33 34 36q5 1 171 1q30 0 41 -15q11 -16 11 -46
q0 -137 -82 -222t-210 -85q-144 0 -235 96q-91 95 -91 250q0 143 101 246q100 102 234 102v-4zM377 754q-23 0 -38 17t-14 42q2 25 18 38q17 14 39 14q25 0 39 -15q14 -16 14 -38q0 -25 -16 -40q-17 -15 -42 -15v-3z" />
    <glyph glyph-name="gdotaccent" unicode="&#x121;" horiz-adv-x="564" 
d="M262 -156q67 0 111 45q44 46 44 118v70q-24 -41 -66 -63q-41 -22 -91 -22q-92 0 -153 66q-61 65 -61 156q0 105 66 176t163 71q89 0 145 -78l1 42q2 32 38 32q17 0 27 -10q11 -11 11 -28q-1 -115 -1.5 -195t-0.5 -125l1 -94q1 -106 -66 -172q-68 -66 -171 -66
q-81 0 -137 28q-34 16 -34 42q0 16 11 29q10 12 26 12q4 0 12 -2q6 -2 15 -6q9 -5 15 -6q43 -18 93 -18zM128 217q0 -65 41 -108q40 -42 99 -42q63 0 107 42t44 116q0 77 -41 120q-41 42 -102 42q-63 1 -105 -47t-42 -123h-1zM274 566q-23 0 -38 17t-14 42q2 25 18 38
q17 14 39 14q25 0 39 -15q14 -16 14 -38q0 -25 -16 -40q-17 -15 -42 -15v-3z" />
    <glyph glyph-name="Gcommaaccent" unicode="&#x122;" horiz-adv-x="711" 
d="M388 681q113 0 198 -55q25 -16 25 -36q0 -16 -9 -28t-25 -12t-46 18q-59 40 -147 40q-94 0 -171 -80q-76 -79 -76 -186q0 -127 68 -201q67 -73 180 -73q90 0 146 65q55 64 57 153h-141q-15 1 -24 12q-9 10 -9 24q0 33 34 36q5 1 171 1q30 0 41 -15q11 -16 11 -46
q0 -137 -82 -222t-210 -85q-144 0 -235 96q-91 95 -91 250q0 143 101 246q100 102 234 102v-4zM308 -199q0 6 14 22q13 15 18 29q1 4 -3 9q-5 5 -11 14t-6 20q0 18 13 30t31 12q20 0 33 -13q14 -14 14 -33q0 -56 -61 -102q-10 -7 -22 -7q-19 0 -19 19h-1z" />
    <glyph glyph-name="gcommaaccent" unicode="&#x123;" horiz-adv-x="564" 
d="M327 669q0 -6 -15 -22q-14 -16 -16 -31q0 -1 11 -12t11 -26q0 -18 -13 -30q-14 -12 -33 -12q-20 0 -34 13q-15 13 -15 33q0 54 61 102q13 7 21 7q7 0 13 -6t6 -15zM265 -157q67 0 111 45q44 46 44 118v70q-24 -41 -66 -63q-41 -22 -91 -22q-92 0 -153 66q-61 65 -61 156
q0 105 66 176t163 71q89 0 145 -78l1 42q2 32 38 32q17 0 27 -10q11 -11 11 -28q-1 -115 -1.5 -195t-0.5 -125l1 -94q1 -106 -66 -172q-68 -66 -171 -66q-81 0 -137 28q-34 16 -34 42q0 16 11 29q10 12 26 12q4 0 12 -2q6 -2 15 -6q9 -5 15 -6q43 -18 93 -18zM131 216
q0 -65 41 -108q40 -42 99 -42q63 0 107 42t44 116q0 77 -41 120q-41 42 -102 42q-63 1 -105 -47t-42 -123h-1z" />
    <glyph glyph-name="Hcircumflex" unicode="&#x124;" horiz-adv-x="697" 
d="M609 32q0 -37 -42 -37q-43 0 -43 38v93l-1 161h-72t-102 -1t-104 -1h-77l2 -254q0 -36 -44 -36q-41 0 -41 36q0 20 0.5 62t1.5 107q1 129 0 199l-4 239q0 40 44 40q40 0 40 -35v-125t1 -156h15h38h58h92h93l62 1v56t-1 85t-1 81.5v45.5q2 50 43 50t41 -44v-147v-109
t1 -48v-301zM452 722q-6 0 -24 12l-82 84q-77 -81 -83 -86q-11 -9 -23 -9q-9 0 -18 9t-9 19q0 11 11 25l86 96q15 18 38 18q19 0 34 -16l87 -98q13 -16 13 -26q0 -9 -9 -18t-20 -9z" />
    <glyph glyph-name="hcircumflex" unicode="&#x125;" horiz-adv-x="548" 
d="M77 684q0 50 45 50q39 0 39 -45v-40v-39t-1 -60t-1 -78.5v-96.5q20 41 62 67q40 25 93 25q79 0 126 -57q47 -58 47 -144v-229q0 -38 -44 -38q-18 0 -30 9t-12 26q2 60 3.5 116t1.5 108q0 62 -30 97q-30 34 -84 34q-56 0 -96 -43t-40 -108v-111v-94q0 -37 -42 -37
q-40 0 -40 36v33t1 42t1 38v22l-1 514zM227 740q-6 0 -24 12l-82 84q-77 -81 -83 -86q-11 -9 -24 -9q-9 0 -18 9t-9 19q0 11 11 25l86 96q15 18 38 18q19 0 34 -16l87 -98q13 -16 13 -26q0 -9 -9 -18t-20 -9v-1z" />
    <glyph glyph-name="Hbar" unicode="&#x126;" horiz-adv-x="697" 
d="M611 31q0 -37 -42 -37q-28 0 -35 16q-8 18 -8 48v68v81v80h-203.5t-152.5 -1v-54t1 -75t1 -74.5v-52.5q0 -36 -44 -36q-41 0 -41 36v374v78h-43q-32 0 -32 31t39 31h36v93q0 41 42 41q18 0 30 -9t12 -26v-98h357v94q0 43 41 43t41 -45v-92h37q35 0 35 -29q0 -18 -9 -25
q-8 -7 -30 -7h-34v-151zM526 362v120h-357v-121z" />
    <glyph glyph-name="hbar" unicode="&#x127;" horiz-adv-x="548" 
d="M77 687q0 49 45 49q38 0 38 -44v-79h82q36 0 36 -30q1 -19 -8 -28t-34 -9h-76q-1 -20 -1 -62.5v-108.5q20 41 62 67q40 25 93 25q79 0 126 -57q47 -58 47 -144v-229q0 -38 -44 -38q-18 0 -30 9t-12 26q2 60 3.5 116t1.5 108q0 62 -30 97q-30 34 -84 34q-56 0 -96 -43
t-40 -108v-111v-94q0 -37 -42 -37q-40 0 -40 36v33t1 42t1 38v22l-1 374h-50q-34 0 -34 32q0 35 42 35h42v74z" />
    <glyph glyph-name="Itilde" unicode="&#x128;" horiz-adv-x="274" 
d="M98 402v41t-1 66t-1 72v59q0 42 44 42q19 0 29 -10q11 -11 11 -28v-101t-1 -148v-160l1 -192q0 -47 -42 -47q-20 0 -31 10q-12 11 -11 30v42v45l1 280zM43 773q-5 -23 -31 -23q-14 0 -21 9q-8 9 -6 26q1 37 26 60t62 23q27 0 48 -15t39 -30q17 -14 37 -16q27 0 29 39
q2 11 11 17t20 6t21 -8q9 -8 9 -20q0 -46 -24 -70t-63 -24q-23 2 -40 10q-16 8 -28 20q-5 5 -11 10t-14 10q-14 8 -28 10q-31 0 -32 -33z" />
    <glyph glyph-name="itilde" unicode="&#x129;" horiz-adv-x="240" 
d="M80 420q1 21 12 30q10 9 27 9q24 0 33 -12t9 -46v-115v-115l1 -131q0 -45 -43 -45q-39 0 -39 41v383v1zM26 585q-5 -23 -31 -23q-14 0 -21 9q-8 9 -6 26q1 37 26 60t62 23q27 0 48 -15t39 -30q17 -14 37 -16q27 0 29 39q2 11 11 17t20 6t21 -8q9 -8 9 -20q0 -46 -24 -70
t-63 -24q-23 2 -40 10q-16 8 -28 20q-5 5 -11 10t-14 10q-14 8 -28 10q-31 0 -32 -33z" />
    <glyph glyph-name="Imacron" unicode="&#x12a;" horiz-adv-x="274" 
d="M98 402v41t-1 66t-1 72v59q0 42 44 42q19 0 29 -10q11 -11 11 -28v-101t-1 -148v-160l1 -192q0 -47 -42 -47q-20 0 -31 10q-12 11 -11 30v42v45l1 280zM34 780q-36 0 -36 34q0 36 47 36h40h42h27.5t34.5 1t31 1h17q36 0 38 -32q0 -38 -50 -38h-48h-52h-21t-27 -1
t-25.5 -1h-15.5h-2z" />
    <glyph glyph-name="imacron" unicode="&#x12b;" horiz-adv-x="240" 
d="M80 420q1 21 12 30q10 9 27 9q24 0 33 -12t9 -46v-115v-115l1 -131q0 -45 -43 -45q-39 0 -39 41v383v1zM17 592q-36 0 -36 34q0 36 47 36h40h42h27.5t34.5 1t31 1h17q36 0 38 -32q0 -38 -50 -38h-48h-52h-21t-27 -1t-25.5 -1h-15.5h-2z" />
    <glyph glyph-name="Ibreve" unicode="&#x12c;" horiz-adv-x="274" 
d="M98 402v41t-1 66t-1 72v59q0 42 44 42q19 0 29 -10q11 -11 11 -28v-101t-1 -148v-160l1 -192q0 -47 -42 -47q-20 0 -31 10q-12 11 -11 30v42v45l1 280zM241 875q13 0 21 -9q8 -10 8 -21q0 -53 -37 -90t-93 -37q-52 0 -91 36q-38 36 -40 86q0 14 8 24q7 9 21 9q13 0 20 -7
q7 -8 9 -18q1 -31 21 -49q19 -18 51 -18q31 0 51 21q20 22 20 49q1 27 30 27z" />
    <glyph glyph-name="ibreve" unicode="&#x12d;" horiz-adv-x="240" 
d="M80 420q1 21 12 30q10 9 27 9q24 0 33 -12t9 -46v-115v-115l1 -131q0 -45 -43 -45q-39 0 -39 41v383v1zM224 687q13 0 21 -9q8 -10 8 -21q0 -53 -37 -90t-93 -37q-52 0 -91 36q-38 36 -40 86q0 14 8 24q7 9 21 9q13 0 20 -7q7 -8 9 -18q1 -31 21 -49q19 -18 51 -18
q31 0 51 21q20 22 20 49q1 27 30 27z" />
    <glyph glyph-name="Iogonek" unicode="&#x12e;" horiz-adv-x="274" 
d="M98 399q0 51 -0.5 109.5t-1.5 124.5q0 45 43 45q41 0 41 -38v-102t-1 -135v-36v-136v-95v-96q0 -36 -21 -43q-39 -31 -60 -56q-19 -23 -19 -53q0 -20 10 -30q11 -11 27 -11q5 0 11 0.5t12 1.5t11 1.5t9 0.5q10 0 18 -9q7 -8 7 -22q0 -39 -68 -39q-43 0 -69 25
q-27 25 -27 72q0 70 89 129q-12 10 -12 48v33v62v127v126z" />
    <glyph glyph-name="iogonek" unicode="&#x12f;" horiz-adv-x="241" 
d="M77 417q2 21 13 30q12 9 28 9q23 0 32 -12q10 -13 11 -46v-115v-115v-131q0 -28 -17 -39q-65 -56 -65 -110q0 -42 36 -42q11 0 23 3t19 3q10 0 18 -9q7 -8 7 -22q0 -40 -67 -40q-40 0 -69 26t-29 71q0 65 76 125q-13 10 -13 33v383zM113 594q-25 0 -40 17q-15 16 -13 42
q4 25 21 39t39 14q27 0 42 -15t15 -40q0 -28 -17 -42t-45 -14z" />
    <glyph glyph-name="Idotaccent" unicode="&#x130;" horiz-adv-x="274" 
d="M98 402v41t-1 66t-1 72v59q0 42 44 42q19 0 29 -10q11 -11 11 -28v-101t-1 -148v-160l1 -192q0 -47 -42 -47q-20 0 -31 10q-12 11 -11 30v42v45l1 280zM134 757q-23 0 -38 17t-14 42q2 25 18 38q17 14 39 14q25 0 39 -15q14 -16 14 -38q0 -25 -16 -40q-17 -15 -42 -15v-3
z" />
    <glyph glyph-name="dotlessi" unicode="&#x131;" horiz-adv-x="240" 
d="M80 420q1 21 12 30q10 9 27 9q24 0 33 -12t9 -46v-115v-115l1 -131q0 -45 -43 -45q-39 0 -39 41v383v1z" />
    <glyph glyph-name="IJ" unicode="&#x132;" horiz-adv-x="758" 
d="M98 402v41t-1 66t-1 72v59q0 42 44 42q19 0 29 -10q11 -11 11 -28v-101t-1 -148v-160l1 -192q0 -47 -42 -47q-20 0 -31 10q-12 11 -11 30v42v45l1 280zM581 641q-1 19 11 31t31 12q44 0 44 -41q0 -44 3 -138q3 -95 3 -141v-71.5t-1 -48.5q-3 -121 -53 -186t-162 -65
q-37 0 -76 17q-38 16 -57 33q-24 21 -24 44q0 16 11 27t27 11q6 0 9 -1q5 -2 11 -6q8 -6 9 -7q2 -2 4.5 -4l6.5 -5q8 -7 11 -8q31 -25 70 -25q36 0 59 13q25 14 38 33t21 56q8 36 9 70q1 17 1.5 39t0.5 48z" />
    <glyph glyph-name="ij" unicode="&#x133;" horiz-adv-x="471" 
d="M77 419q2 21 13 30q12 9 28 9q23 0 32 -12q10 -13 11 -46v-115v-115v-131q0 -23 -9 -33q-9 -11 -32 -11q-40 0 -40 41v383h-3zM113 596q-25 0 -40 17q-15 16 -13 42q4 25 21 39t39 14q27 0 42 -15t15 -40q0 -28 -17 -42t-45 -14zM309 421q2 17 13 26q12 9 29 9
q41 0 41 -34v-255q0 -146 -3 -260q-1 -58 -45 -100q-43 -41 -108 -43q-85 0 -85 46q0 19 9 31t23 12q8 0 26 -5t30 -5q68 0 72 97q2 31 2.5 107.5t-0.5 201.5v34.5t-1 52.5t-1 52.5v34.5zM343 594q-24 0 -39 15t-15 41t18 41t45 15t42 -16q15 -17 15 -42q0 -29 -18 -42
q-19 -14 -46 -14z" />
    <glyph glyph-name="Jcircumflex" unicode="&#x134;" horiz-adv-x="484" 
d="M306 642q-1 19 11 31t31 12q44 0 44 -41q0 -44 3 -138q3 -95 3 -141v-71.5t-1 -48.5q-3 -121 -53 -186t-162 -65q-37 0 -76 17q-38 16 -57 33q-24 21 -24 44q0 16 11 27t27 11q6 0 9 -1q5 -2 11 -6q3 -2 5 -3.5t4 -3.5t4.5 -4l6.5 -5q8 -7 11 -8q31 -25 70 -25
q36 0 59 13q25 14 38 33t21 56q8 36 9 70q1 17 1.5 39t0.5 48zM454 723q-6 0 -24 12l-82 84q-77 -81 -83 -86q-11 -9 -24 -9q-9 0 -18 9t-9 19q0 11 11 25l86 96q15 18 38 18q19 0 34 -16l87 -98q13 -16 13 -26q0 -9 -9 -18t-20 -9v-1z" />
    <glyph glyph-name="jcircumflex" unicode="&#x135;" horiz-adv-x="229" 
d="M74 422q0 17 12 26t29 9q41 0 41 -34v-255q0 -146 -3 -260q-1 -58 -45 -100q-43 -41 -108 -43q-85 0 -85 46q0 19 9 31t23 12q8 0 26 -5t30 -5q67 0 71 97q3 43 3 309q-2 70 -2.5 113.5t0.5 60.5zM221 531q-6 0 -24 12l-82 84q-77 -81 -83 -86q-11 -9 -24 -9q-9 0 -18 9
t-9 19q0 11 11 25l86 96q15 18 38 18q19 0 34 -16l87 -98q13 -16 13 -26q0 -9 -9 -18t-20 -9v-1z" />
    <glyph glyph-name="Kcommaaccent" unicode="&#x136;" horiz-adv-x="606" 
d="M471 654q21 24 41 24q16 0 30 -12t14 -27q0 -14 -13 -30q-17 -20 -63.5 -70.5l-122.5 -132.5q-2 -2 -6.5 -7.5t-12.5 -13.5t-13 -14t-9 -10l153 -182l95 -111q16 -16 16 -36q0 -17 -13 -29q-14 -12 -31 -12q-22 0 -39 20q-5 5 -11 13.5l-14 19.5l-210 266
q-17 -20 -49 -52l-42 -42v-186q0 -37 -42 -37q-19 -1 -31 9t-12 28v29v33v115.5t1 156.5t1 157v117q0 44 42 44t42 -40v-67.5t-1 -95.5t-1 -94.5v-64.5zM251 -199q0 6 14 22q13 15 18 29q1 4 -3 9q-5 5 -11 14t-6 20q0 18 13 30t31 12q20 0 33 -13q14 -14 14 -33
q0 -56 -61 -102q-10 -7 -21 -7q-19 0 -19 19h-2z" />
    <glyph glyph-name="kcommaaccent" unicode="&#x137;" horiz-adv-x="466" 
d="M428 61q12 -14 12 -27q0 -14 -12 -27t-30 -13q-17 0 -41 28l-151 179l-52 -51v-106q-1 -25 -9 -37t-30 -12q-24 0 -33 12t-9 39l2 116v439v52t-1 32q-1 21 11 33t32 12q40 0 40 -50v-89t-1 -128t-1 -128v-89l191 195q25 25 42 25q15 0 28 -13t13 -30q0 -13 -20 -33
l-147 -142zM196 -197q0 6 14 22q13 15 18 29q1 4 -3 9q-5 5 -11 14t-6 20q0 18 13 30t31 12q20 0 33 -13q14 -14 14 -33q0 -56 -61 -102q-10 -7 -22 -7q-19 0 -19 19h-1z" />
    <glyph glyph-name="kgreenlandic" unicode="&#x138;" horiz-adv-x="466" 
d="M424 62q13 -14 13 -27q0 -14 -12 -27t-30 -13q-17 0 -41 28l-151 175l-52 -1v-152q-1 -25 -9 -37t-30 -12q-24 0 -33 12t-9 39l2 118l-1 252q-2 45 42 45q22 0 31 -12t9 -39l-1 -141h37q29 3 53 39l24 37.5l25 41.5q26 44 54 59q21 15 48 15q15 0 26 -12q11 -13 11 -28
q0 -22 -32 -36q-28 -12 -49 -42q-11 -15 -21 -30.5l-20 -32.5q-19 -32 -39 -46z" />
    <glyph glyph-name="Lacute" unicode="&#x139;" horiz-adv-x="494" 
d="M90 636q0 19 12 30q13 11 32 11q38 0 38 -41q0 -16 -0.5 -70.5t-1.5 -149.5v-99v-57.5t-1 -40.5v-81v-48v-19h75t42 1l153 6q39 0 39 -36q0 -43 -41 -43h-116q-56 0 -94 -0.5t-58 -1.5q-47 -2 -65 9q-17 10 -19 47v39q0 20 0.5 51.5t1.5 74.5q1 85 3 129v293v-4zM122 734
q-13 -10 -24 -10t-21 9q-11 9 -11 20t9 22l39 45l55 64q14 17 29 17t27 -12t12 -27q0 -10 -14 -24q-42 -47 -102 -102z" />
    <glyph glyph-name="lacute" unicode="&#x13a;" horiz-adv-x="235" 
d="M135 763q-11 -9 -24 -9q-11 0 -21 9t-10 21q0 10 9 22l79 96q14 17 29 17t27 -12t12 -28q0 -10 -14 -24zM78 681q0 19 12 30q13 11 32 11q24 0 33 -13q9 -14 9 -43q-6 -492 -6 -502q0 -26 3 -72q3 -47 3 -63q0 -34 -38 -36q-21 -2 -33 13q-11 14 -13 48q-2 39 -2.5 194.5
t1.5 430.5z" />
    <glyph glyph-name="Lcommaaccent" unicode="&#x13b;" horiz-adv-x="494" 
d="M90 636q0 19 12 30q13 11 32 11q38 0 38 -41q0 -16 -0.5 -70.5t-1.5 -149.5v-99v-57.5t-1 -40.5v-81v-48v-19h75t42 1l153 6q39 0 39 -36q0 -43 -41 -43h-116q-56 0 -94 -0.5t-58 -1.5q-47 -2 -65 9q-17 10 -19 47v39q0 20 0.5 51.5t1.5 74.5q1 85 3 129v293v-4z
M216 -199q0 6 14 22q13 15 18 29q1 4 -3 9q-5 5 -11 14t-6 20q0 18 12 30t32 12t33 -13q14 -14 14 -33q0 -56 -61 -102q-10 -7 -21 -7q-19 0 -19 19h-2z" />
    <glyph glyph-name="lcommaaccent" unicode="&#x13c;" horiz-adv-x="235" 
d="M78 682q0 19 12 30q13 11 32 11q24 0 33 -13q9 -14 9 -43q-6 -492 -6 -502q0 -26 3 -72q3 -47 3 -63q0 -34 -38 -36q-21 -2 -33 13q-11 14 -13 48q-2 39 -2.5 194.5t1.5 430.5zM65 -193q0 6 14 22q13 15 18 29q1 4 -3 9q-5 5 -11 14t-6 20q0 18 13 30t31 12q20 0 33 -13
q14 -14 14 -33q0 -56 -61 -102q-10 -7 -22 -7q-19 0 -19 19h-1z" />
    <glyph glyph-name="Lcaron" unicode="&#x13d;" horiz-adv-x="504" 
d="M420 579q-14 1 -28 15q-13 13 -13 33q0 22 15 39q15 16 38 16q28 0 44 -19q17 -20 17 -51q0 -33 -21 -67t-53 -54q-8 -5 -15 -5q-9 0 -16 6t-7 15q0 13 10 20q35 26 35 48v4h-6zM86 636q0 19 12 30q13 11 32 11q38 0 38 -41q0 -16 -0.5 -70.5t-1.5 -149.5v-99v-57.5
t-1 -40.5v-81v-48v-19h75t42 1l153 6q39 0 39 -36q0 -43 -41 -43h-116q-56 0 -94 -0.5t-58 -1.5q-47 -2 -65 9q-17 10 -19 47v39q0 20 0.5 51.5t1.5 74.5q1 85 3 129v293v-4z" />
    <glyph glyph-name="lcaron" unicode="&#x13e;" horiz-adv-x="347" 
d="M271 627q-16 2 -27 13q-12 12 -12 32q0 23 15 38t37 15q25 0 42 -18q16 -17 16 -49t-21 -66t-52 -52q-12 -5 -15 -5q-9 0 -16 6t-7 15q0 11 11 20q34 24 34 47v4h-5zM75 682q0 19 12 30q13 11 32 11q24 0 33 -13q9 -14 9 -43q-6 -492 -6 -502q0 -26 3 -72q3 -47 3 -63
q0 -34 -38 -36q-21 -2 -33 13q-11 14 -13 48q-2 39 -2.5 194.5t1.5 430.5z" />
    <glyph glyph-name="Ldot" unicode="&#x13f;" horiz-adv-x="494" 
d="M90 636q0 19 12 30q13 11 32 11q38 0 38 -41q0 -16 -0.5 -70.5t-1.5 -149.5v-99v-57.5t-1 -40.5v-81v-48v-19h75t42 1l153 6q39 0 39 -36q0 -43 -41 -43h-116q-56 0 -94 -0.5t-58 -1.5q-47 -2 -65 9q-17 10 -19 47v39q0 20 0.5 51.5t1.5 74.5q1 85 3 129v293v-4zM387 297
q-23 0 -38 16t-15 39t17 40q16 16 42 16q24 0 39 -16q15 -17 15 -40q0 -25 -17 -40t-44 -15h1z" />
    <glyph glyph-name="ldot" unicode="&#x140;" horiz-adv-x="367" 
d="M78 682q0 19 12 30q13 11 32 11q24 0 33 -13q9 -14 9 -43q-6 -492 -6 -502q0 -26 3 -72q3 -47 3 -63q0 -34 -38 -36q-21 -2 -33 13q-11 14 -13 48q-2 39 -2.5 194.5t1.5 430.5zM292 245q-23 0 -38 16t-15 39t17 40q16 16 42 16q24 0 39 -16q15 -17 15 -40q0 -25 -17 -40
t-44 -15h1z" />
    <glyph glyph-name="Lslash" unicode="&#x141;" horiz-adv-x="494" 
d="M92 639q0 19 12 30q13 11 32 11q37 0 39 -42l-2 -224v-42l74 43q16 9 30 9q12 0 21 -12t9 -26q0 -19 -32 -36l-103 -59v-68l-1 -150h74t42 1l153 5q39 0 39 -35q0 -43 -41 -43l-269 -1q-49 -2 -66 10q-18 12 -16 48l3 159v30l-38 -21q-8 -6 -18 -6q-14 0 -24 12
q-11 12 -9 26q0 17 26 34l63 35v313z" />
    <glyph glyph-name="lslash" unicode="&#x142;" horiz-adv-x="252" 
d="M88 271l-27 -18q-19 -13 -33 -13q-13 0 -22 11q-9 10 -9 24q0 19 26 36l66 42v152v152q0 32 9 47t33 15q40 0 39 -46v-49t-1 -80t-1 -83.5v-60.5l34 21q14 8 22 8q11 0 22 -11q10 -10 10 -24q0 -21 -31 -40l-57 -36v-159q0 -8 1 -38t3 -82q0 -43 -37 -43q-47 0 -48 61z
" />
    <glyph glyph-name="Nacute" unicode="&#x143;" horiz-adv-x="707" 
d="M163 47q0 -28 -9 -40t-30 -12q-43 0 -43 40v95t1 169v117v117v106q0 19 15 31t37 12q12 0 25 -8q12 -8 18 -15l7.5 -10l11.5 -15l245 -347l106 -149q-3 87 -3 235l-2 247q0 29 8 45q7 15 33 15q24 0 32 -14t8 -45v-332q1 -29 1.5 -90.5t0.5 -155.5q0 -20 -13 -32
q-14 -12 -36 -12q-18 0 -28 9q-11 9 -30 36l-354 505q-2 -56 0 -258q1 -102 1.5 -161.5t0.5 -79.5zM338 735q-13 -10 -24 -10t-21 9q-11 9 -11 20t9 22l39 45l55 64q14 17 29 17t27 -12t12 -27q0 -10 -14 -24q-42 -47 -102 -102z" />
    <glyph glyph-name="nacute" unicode="&#x144;" horiz-adv-x="553" 
d="M77 405q0 26 9 40q9 13 33 13q21 0 29 -11q7 -11 9 -36l1 -44q20 46 64 71q46 26 97 26q83 0 126 -52q44 -53 44 -144v-131v-90q0 -27 -10 -38q-11 -12 -36 -12q-39 0 -39 38q0 13 0.5 37.5t1.5 60.5q2 72 0 110q-1 143 -107 145q-33 0 -60 -11q-26 -11 -41 -27
q-15 -17 -24 -42q-9 -26 -12 -51q-3 -26 -3 -57v-167q0 -37 -43 -37q-39 0 -39 37v51v80v136v105zM270 547q-13 -10 -24 -10t-21 9q-11 9 -11 20t9 22l39 45l55 64q14 17 29 17t27 -12t12 -27q0 -10 -14 -24q-42 -47 -102 -102z" />
    <glyph glyph-name="Ncommaaccent" unicode="&#x145;" horiz-adv-x="707" 
d="M163 47q0 -28 -9 -40t-30 -12q-43 0 -43 40v95t1 169v117v117v106q0 19 15 31t37 12q12 0 25 -8q12 -8 18 -15l7.5 -10l11.5 -15l245 -347l106 -149q-3 87 -3 235l-2 247q0 29 8 45q7 15 33 15q24 0 32 -14t8 -45v-332q1 -29 1.5 -90.5t0.5 -155.5q0 -20 -13 -32
q-14 -12 -36 -12q-18 0 -28 9q-11 9 -30 36l-354 505q-2 -56 0 -258q1 -102 1.5 -161.5t0.5 -79.5zM297 -198q0 6 14 22q13 15 18 29q1 4 -3 9q-5 5 -11 14t-6 20q0 18 13 30t31 12q20 0 33 -13q14 -14 14 -33q0 -56 -61 -102q-10 -7 -22 -7q-19 0 -19 19h-1z" />
    <glyph glyph-name="ncommaaccent" unicode="&#x146;" horiz-adv-x="553" 
d="M77 405q0 26 9 40q9 13 33 13q21 0 29 -11q7 -11 9 -36l1 -44q20 46 64 71q46 26 97 26q83 0 126 -52q44 -53 44 -144v-131v-90q0 -27 -10 -38q-11 -12 -36 -12q-39 0 -39 38q0 13 0.5 37.5t1.5 60.5q2 72 0 110q-1 143 -107 145q-33 0 -60 -11q-26 -11 -41 -27
q-15 -17 -24 -42q-9 -26 -12 -51q-3 -26 -3 -57v-167q0 -37 -43 -37q-39 0 -39 37v51v80v136v105zM225 -196q0 6 14 22q13 15 18 29q1 4 -3 9q-5 5 -11 14t-6 20q0 18 13 30t31 12q20 0 33 -13q14 -14 14 -33q0 -56 -61 -102q-10 -7 -21 -7q-19 0 -19 19h-2z" />
    <glyph glyph-name="Ncaron" unicode="&#x147;" horiz-adv-x="707" 
d="M163 47q0 -28 -9 -40t-30 -12q-43 0 -43 40v95t1 169v117v117v106q0 19 15 31t37 12q12 0 25 -8q12 -8 18 -15l7.5 -10l11.5 -15l245 -347l106 -149q-3 87 -3 235l-2 247q0 29 8 45q7 15 33 15q24 0 32 -14t8 -45v-332q1 -29 1.5 -90.5t0.5 -155.5q0 -20 -13 -32
q-14 -12 -36 -12q-18 0 -28 9q-11 9 -30 36l-354 505q-2 -56 0 -258q1 -102 1.5 -161.5t0.5 -79.5zM244 887q11 0 23 -12q13 -12 33 -33l49 -51l18.5 18.5l19.5 20.5t17.5 18.5l12.5 12.5t9.5 9t8.5 7q10 9 24 9q9 0 18 -9t9 -18t-11 -25l-87 -96q-15 -18 -37 -18
q-19 0 -34 16l-87 98q-13 16 -13 27q0 9 9 18t20 9z" />
    <glyph glyph-name="ncaron" unicode="&#x148;" horiz-adv-x="553" 
d="M77 405q0 26 9 40q9 13 33 13q21 0 29 -11q7 -11 9 -36l1 -44q20 46 64 71q46 26 97 26q83 0 126 -52q44 -53 44 -144v-131v-90q0 -27 -10 -38q-11 -12 -36 -12q-39 0 -39 38q0 13 0.5 37.5t1.5 60.5q2 72 0 110q-1 143 -107 145q-33 0 -60 -11q-26 -11 -41 -27
q-15 -17 -24 -42q-9 -26 -12 -51q-3 -26 -3 -57v-167q0 -37 -43 -37q-39 0 -39 37v51v80v136v105zM177 699q11 0 23 -12q13 -12 33 -33l49 -51l18.5 18.5l19.5 20.5t17.5 18.5l12.5 12.5t9.5 9t8.5 7q10 9 23 9q9 0 18 -9t9 -18t-11 -25l-87 -96q-15 -18 -37 -18
q-19 0 -34 16l-87 98q-13 16 -13 27q0 9 9 18t20 9z" />
    <glyph glyph-name="napostrophe" unicode="&#x149;" horiz-adv-x="553" 
d="M50 627q-15 2 -28 13q-13 12 -13 32q0 23 15 38t37 15q25 0 42 -18q16 -17 16 -49t-21 -66t-52 -52q-17 -5 -16 -5q-9 0 -16 6t-7 15q0 13 10 20q34 24 34 47v4h-1zM77 405q0 26 9 40q9 13 33 13q21 0 29 -11q7 -11 9 -36l1 -44q20 46 64 71q46 26 97 26q83 0 126 -52
q44 -53 44 -144v-131v-90q0 -27 -10 -38q-11 -12 -36 -12q-39 0 -39 38q0 13 0.5 37.5t1.5 60.5q2 72 0 110q-1 143 -107 145q-33 0 -60 -11q-26 -11 -41 -27q-15 -17 -24 -42q-9 -26 -12 -51q-3 -26 -3 -57v-167q0 -37 -43 -37q-39 0 -39 37v51v80v136v105z" />
    <glyph glyph-name="Eng" unicode="&#x14a;" horiz-adv-x="707" 
d="M165 44q0 -28 -9 -40t-30 -12q-43 0 -43 40v95t1 169v117v117v106q0 19 15 31t37 12q12 0 25 -8q12 -8 18 -15l7.5 -10l11.5 -15l245 -347l104 -149l-1 235l-2 247q0 29 8 45q7 15 33 15q24 0 32 -14t8 -45v-682q0 -73 -39 -122q-39 -50 -106 -50q-85 0 -85 42q0 19 9 31
t23 12q9 0 24 -3t29 -3q66 0 66 108v56l-382 542q-2 -56 0 -258q1 -102 1.5 -161.5t0.5 -79.5z" />
    <glyph glyph-name="eng" unicode="&#x14b;" horiz-adv-x="553" 
d="M404 242q0 143 -107 145q-33 0 -60 -11q-26 -11 -41 -27q-15 -17 -24 -42q-9 -26 -12 -51q-3 -26 -3 -57v-167q0 -37 -43 -37q-39 0 -39 37v51v80v136l-2 106q0 26 9 40q9 13 33 13q21 0 29 -11q7 -11 9 -36l1 -44q20 46 64 71q46 26 97 26q83 0 126 -52q44 -53 44 -144
v-343q0 -70 -44 -114t-111 -45q-83 0 -83 43q0 19 9 31t22 12q8 0 25 -3q16 -3 30 -3q35 2 53 28q19 28 20 73v297z" />
    <glyph glyph-name="Omacron" unicode="&#x14c;" horiz-adv-x="746" 
d="M377 687q133 0 228 -96q95 -97 95 -242q0 -152 -93 -255t-234 -103q-83 0 -156 39t-120 116t-47 174q0 84 28 153q28 70 75 117q46 46 105 72q58 25 120 24zM619 347q-2 116 -76 189q-76 74 -175 74q-95 0 -165 -79t-70 -198q0 -116 72 -189t176 -73q99 0 168 83t68 192z
M271 783q-36 0 -36 34q0 36 47 36h40h42h27.5t34.5 1t31 1h17q36 0 38 -32q0 -38 -50 -38h-48h-52h-21t-27 -1t-25.5 -1h-15.5h-2z" />
    <glyph glyph-name="omacron" unicode="&#x14d;" 
d="M295 463q18 0 25 -7q88 -14 135 -81q47 -68 47 -151q0 -101 -69 -168q-68 -67 -169 -67q-89 0 -156 62q-66 61 -66 159q0 112 69 183q69 70 183 72zM419 226q0 68 -39 113t-109 49q-66 -4 -106 -52q-40 -47 -40 -129q0 -62 42 -102q43 -41 95 -41q64 0 111 45t47 118z
M167 588q-36 0 -36 34q0 36 47 36h40h42h27.5t34.5 1t31 1h17q36 0 38 -32q0 -38 -50 -38h-48h-52h-21t-27 -1t-25.5 -1h-15.5h-2z" />
    <glyph glyph-name="Obreve" unicode="&#x14e;" horiz-adv-x="746" 
d="M377 687q133 0 228 -96q95 -97 95 -242q0 -152 -93 -255t-234 -103q-83 0 -156 39t-120 116t-47 174q0 84 28 153q28 70 75 117q46 46 105 72q58 25 120 24zM619 347q-2 116 -76 189q-76 74 -175 74q-95 0 -165 -79t-70 -198q0 -116 72 -189t176 -73q99 0 168 83t68 192z
M477 878q13 0 21 -9q8 -10 8 -21q0 -53 -37 -90t-93 -37q-52 0 -91 36q-38 36 -40 86q0 14 8 24q7 9 21 9q13 0 20 -7q7 -8 9 -18q1 -31 21 -49q19 -18 51 -18q31 0 51 21q20 22 20 49q1 27 30 27z" />
    <glyph glyph-name="obreve" unicode="&#x14f;" 
d="M295 463q18 0 25 -7q88 -14 135 -81q47 -68 47 -151q0 -101 -69 -168q-68 -67 -169 -67q-89 0 -156 62q-66 61 -66 159q0 112 69 183q69 70 183 72zM419 226q0 68 -39 113t-109 49q-66 -4 -106 -52q-40 -47 -40 -129q0 -62 42 -102q43 -41 95 -41q64 0 111 45t47 118z
M373 683q13 0 21 -9q8 -10 8 -21q0 -53 -37 -90t-93 -37q-52 0 -91 36q-38 36 -40 86q0 14 8 24q7 9 21 9q13 0 20 -7q7 -8 9 -18q1 -31 21 -49q19 -18 51 -18q31 0 51 21q20 22 20 49q1 27 30 27z" />
    <glyph glyph-name="Ohungarumlaut" unicode="&#x150;" horiz-adv-x="746" 
d="M377 687q133 0 228 -96q95 -97 95 -242q0 -152 -93 -255t-234 -103q-83 0 -156 39t-120 116t-47 174q0 84 28 153q28 70 75 117q46 46 105 72q58 25 120 24zM619 347q-2 116 -76 189q-76 74 -175 74q-95 0 -165 -79t-70 -198q0 -116 72 -189t176 -73q99 0 168 83t68 192z
M324 737q-11 -14 -23 -14q-11 0 -21 8q-9 7 -9 20t7 20l71 107q12 19 29 19q15 0 26 -9t11 -24q0 -11 -9 -24zM471 729q-12 -12 -21 -12q-11 0 -21 8q-9 7 -9 21q0 9 7 20l79 107q12 20 28 20q14 0 26 -9t12 -22q0 -15 -10 -28z" />
    <glyph glyph-name="ohungarumlaut" unicode="&#x151;" 
d="M295 463q18 0 25 -7q88 -14 135 -81q47 -68 47 -151q0 -101 -69 -168q-68 -67 -169 -67q-89 0 -156 62q-66 61 -66 159q0 112 69 183q69 70 183 72zM419 226q0 68 -39 113t-109 49q-66 -4 -106 -52q-40 -47 -40 -129q0 -62 42 -102q43 -41 95 -41q64 0 111 45t47 118z
M209 542q-11 -14 -23 -14q-11 0 -21 8q-9 7 -9 20t7 20l71 107q12 19 29 19q15 0 26 -9t11 -24q0 -11 -9 -24zM356 534q-12 -12 -21 -12q-11 0 -21 8q-9 7 -9 21q0 9 7 20l79 107q12 20 28 20q14 0 26 -9t12 -22q0 -15 -10 -28z" />
    <glyph glyph-name="OE" unicode="&#x152;" horiz-adv-x="1071" 
d="M382 683q85 0 147 -34q64 -35 101 -93v57q1 33 15 48q13 15 48 15h26t43 -1h52.5t70.5 1t66.5 1h40.5q41 0 41 -36q0 -39 -39 -39h-284q-1 -43 -1.5 -73t-0.5 -47v-118h50h191q21 -2 30 -9q9 -8 8 -25q0 -18 -9 -27t-33 -9h-123h-114q-1 -4 -1 -18v-204q17 0 50 0.5
t82 1.5t87 1.5t65 0.5q41 0 41 -37q0 -42 -51 -42h-127h-136q-53 -1 -70 14t-18 61q-1 7 -1 21v36q-92 -138 -252 -138q-130 0 -228 92q-97 91 -97 239q0 81 29 153q29 71 75 116q47 46 105 71t120 24zM635 351q-2 117 -76 186q-75 69 -184 69q-96 0 -168 -79
q-72 -80 -72 -198q0 -115 74 -189q73 -73 180 -73q109 0 177 83q67 82 67 200z" />
    <glyph glyph-name="oe" unicode="&#x153;" horiz-adv-x="853" 
d="M299 453q50 -6 89 -33t60 -70q24 48 72 78t102 30q83 0 138 -55q56 -56 56 -129q0 -41 -12 -54q-12 -14 -61 -15q-58 -1 -152 -3q-47 -1 -72 -1h-30q3 -53 41 -94q37 -40 95 -40q39 0 87 23t57 23q14 0 24 -13q11 -14 11 -28q0 -18 -27 -37q-56 -43 -157 -43
q-55 0 -101 30t-72 77q-29 -50 -78 -78q-50 -29 -114 -29q-87 0 -153 63t-66 158q0 109 69 180t174 71q16 0 23 -7zM407 226q0 69 -38 113q-37 43 -107 48q-66 -5 -105 -51q-39 -47 -39 -126q0 -62 42 -104t94 -42q64 0 108 44t44 117zM625 389q-55 0 -94 -39t-43 -91
q222 0 253 10q0 52 -33 87q-33 34 -82 34z" />
    <glyph glyph-name="Racute" unicode="&#x154;" horiz-adv-x="605" 
d="M89 624q0 52 68 54q30 1 54.5 1.5t43.5 0.5q24 0 42 -0.5t31 -1.5q97 -6 154 -60t57 -144q0 -73 -39 -124q-40 -52 -103 -68l155 -215q14 -20 14 -30q0 -16 -13 -28q-13 -11 -31 -13q-18 0 -36 21l-168 243h-149v-108v-104q0 -48 -37 -49q-27 0 -36 12t-9 39
q1 31 1.5 147.5t0.5 320.5v53v53zM292 608h-79t-46 -1l1 -274h120q77 0 122 33t47 107q0 65 -43 99q-44 35 -120 35zM283 739q-13 -10 -24 -10t-21 9q-11 9 -11 20t9 22l39 45l55 64q14 17 29 17t27 -12t12 -27q0 -10 -14 -24q-42 -47 -102 -102z" />
    <glyph glyph-name="racute" unicode="&#x155;" horiz-adv-x="357" 
d="M77 416q-2 41 41 41q31 0 34 -33l2 -70q24 53 65 80q40 27 83 27q46 0 46 -39q0 -16 -9 -28t-27 -12h-19q-56 0 -95 -49q-39 -50 -39 -123v-177q0 -38 -42 -38q-22 0 -31 12q-9 13 -8 42q0 11 0.5 39.5t1.5 76.5t1.5 82t0.5 56v22t-1 34t-1 34v24zM197 547
q-13 -10 -24 -10t-21 9q-11 9 -11 20t9 22l39 45l55 64q14 17 29 17t27 -12t12 -27q0 -10 -14 -24q-42 -47 -102 -102z" />
    <glyph glyph-name="Rcommaaccent" unicode="&#x156;" horiz-adv-x="605" 
d="M89 624q0 52 68 54q30 1 54.5 1.5t43.5 0.5q24 0 42 -0.5t31 -1.5q97 -6 154 -60t57 -144q0 -73 -39 -124q-40 -52 -103 -68l155 -215q14 -20 14 -30q0 -16 -13 -28q-13 -11 -31 -13q-18 0 -36 21l-168 243h-149v-108v-104q0 -48 -37 -49q-27 0 -36 12t-9 39
q1 31 1.5 147.5t0.5 320.5v53v53zM292 608h-79t-46 -1l1 -274h120q77 0 122 33t47 107q0 65 -43 99q-44 35 -120 35zM258 -194q0 6 14 22q13 15 18 29q1 4 -3 9q-5 5 -11 14t-6 20q0 18 12 30t32 12t33 -13q14 -14 14 -33q0 -56 -61 -102q-10 -7 -21 -7q-19 0 -19 19h-2z
" />
    <glyph glyph-name="rcommaaccent" unicode="&#x157;" horiz-adv-x="357" 
d="M77 416q-2 41 41 41q31 0 34 -33l2 -70q24 53 65 80q40 27 83 27q46 0 46 -39q0 -16 -9 -28t-27 -12h-19q-56 0 -95 -49q-39 -50 -39 -123v-177q0 -38 -42 -38q-22 0 -31 12q-9 13 -8 42q0 11 0.5 39.5t1.5 76.5t1.5 82t0.5 56v22t-1 34t-1 34v24zM57 -196q0 6 14 22
q13 15 18 29q1 4 -3 9q-5 5 -11 14t-6 20q0 18 12 30t32 12t33 -13q14 -14 14 -33q0 -56 -61 -102q-10 -7 -21 -7q-19 0 -19 19h-2z" />
    <glyph glyph-name="Rcaron" unicode="&#x158;" horiz-adv-x="605" 
d="M89 624q0 52 68 54q30 1 54.5 1.5t43.5 0.5q24 0 42 -0.5t31 -1.5q97 -6 154 -60t57 -144q0 -73 -39 -124q-40 -52 -103 -68l155 -215q14 -20 14 -30q0 -16 -13 -28q-13 -11 -31 -13q-18 0 -36 21l-168 243h-149v-108v-104q0 -48 -37 -49q-27 0 -36 12t-9 39
q1 31 1.5 147.5t0.5 320.5v53v53zM292 608h-79t-46 -1l1 -274h120q77 0 122 33t47 107q0 65 -43 99q-44 35 -120 35zM189 891q11 0 23 -12q13 -12 33 -33l49 -51l18.5 18.5l19.5 20.5t17.5 18.5l12.5 12.5t9.5 9t8.5 7q10 9 24 9q9 0 18 -9t9 -18t-11 -25l-87 -96
q-15 -18 -37 -18q-19 0 -34 16l-87 98q-13 16 -13 27q0 9 9 18t20 9z" />
    <glyph glyph-name="rcaron" unicode="&#x159;" horiz-adv-x="357" 
d="M77 416q-2 41 41 41q31 0 34 -33l2 -70q24 53 65 80q40 27 83 27q46 0 46 -39q0 -16 -9 -28t-27 -12h-19q-56 0 -95 -49q-39 -50 -39 -123v-177q0 -38 -42 -38q-22 0 -31 12q-9 13 -8 42q0 11 0.5 39.5t1.5 76.5t1.5 82t0.5 56v22t-1 34t-1 34v24zM104 699q11 0 23 -12
q13 -12 33 -33l49 -51l18.5 18.5l19.5 20.5t17.5 18.5l12.5 12.5t9.5 9t8.5 7q10 9 23 9q9 0 18 -9t9 -18t-11 -25l-87 -96q-15 -18 -37 -18q-19 0 -34 16l-87 98q-13 16 -13 27q0 9 9 18t20 9z" />
    <glyph glyph-name="Sacute" unicode="&#x15a;" horiz-adv-x="563" 
d="M466 650q27 -14 27 -40q0 -15 -10 -26q-11 -12 -27 -12q-13 0 -37 11q-60 28 -128 28q-62 0 -103 -34q-42 -35 -42 -87q0 -17 5 -32q4 -14 18 -24l22 -16q7 -5 33 -13q25 -8 33 -9q7 -2 39 -9q53 -12 86 -24q36 -12 68 -33t49 -54q17 -34 17 -77q0 -91 -66 -148t-173 -57
q-103 -1 -185 41q-37 16 -37 44q0 16 11 30q10 13 27 13q15 0 36 -10q76 -40 148 -40q67 0 111 33t44 89q0 52 -42 78q-43 26 -118 41q-23 5 -42 10t-36 10q-33 10 -66 30q-32 19 -49 50t-17 71q0 86 70 144t163 58q96 0 171 -37v1zM279 739q-13 -10 -24 -10t-21 9
q-11 9 -11 20t9 22l39 45l55 64q14 17 29 17t27 -12t12 -27q0 -10 -14 -24q-42 -47 -102 -102z" />
    <glyph glyph-name="sacute" unicode="&#x15b;" horiz-adv-x="454" 
d="M237 462q79 0 132 -24q27 -14 27 -32q0 -37 -34 -37q-8 0 -47 12t-80 12q-40 0 -69 -20t-29 -51q0 -15 6 -24t23 -15q19 -7 27 -8q5 -1 14.5 -2.5t23.5 -3.5q10 -2 14 -3q79 -11 122 -39q44 -29 44 -92q0 -68 -51 -105q-52 -38 -133 -38q-62 0 -119 18t-57 41q0 42 35 42
q8 0 56 -15t90 -15t71 18t29 50q0 33 -26 47q-27 14 -83 23q-15 2 -27 4t-21 4q-17 3 -43 12q-25 9 -40 21q-14 11 -25 32q-10 19 -10 45q0 61 54 102q55 41 124 41h2zM226 548q-13 -10 -24 -10t-21 9q-11 9 -11 20t9 22l39 45l55 64q14 17 29 17t27 -12t12 -27
q0 -10 -14 -24q-42 -47 -102 -102z" />
    <glyph glyph-name="Scircumflex" unicode="&#x15c;" horiz-adv-x="563" 
d="M466 650q27 -14 27 -40q0 -15 -10 -26q-11 -12 -27 -12q-13 0 -37 11q-60 28 -128 28q-62 0 -103 -34q-42 -35 -42 -87q0 -17 5 -32q4 -14 18 -24l22 -16q7 -5 33 -13q25 -8 33 -9q7 -2 39 -9q53 -12 86 -24q36 -12 68 -33t49 -54q17 -34 17 -77q0 -91 -66 -148t-173 -57
q-103 -1 -185 41q-37 16 -37 44q0 16 11 30q10 13 27 13q15 0 36 -10q76 -40 148 -40q67 0 111 33t44 89q0 52 -42 78q-43 26 -118 41q-23 5 -42 10t-36 10q-33 10 -66 30q-32 19 -49 50t-17 71q0 86 70 144t163 58q96 0 171 -37v1zM397 724q-6 0 -24 12l-82 84
q-77 -81 -83 -86q-11 -9 -23 -9q-9 0 -18 9t-9 19q0 11 11 25l86 96q15 18 38 18q19 0 34 -16l87 -98q13 -16 13 -26q0 -9 -9 -18t-20 -9z" />
    <glyph glyph-name="scircumflex" unicode="&#x15d;" horiz-adv-x="454" 
d="M237 462q79 0 132 -24q27 -14 27 -32q0 -37 -34 -37q-8 0 -47 12t-80 12q-40 0 -69 -20t-29 -51q0 -15 6 -24t23 -15q19 -7 27 -8q5 -1 14.5 -2.5t23.5 -3.5q10 -2 14 -3q79 -11 122 -39q44 -29 44 -92q0 -68 -51 -105q-52 -38 -133 -38q-62 0 -119 18t-57 41q0 42 35 42
q8 0 56 -15t90 -15t71 18t29 50q0 33 -26 47q-27 14 -83 23q-15 2 -27 4t-21 4q-17 3 -43 12q-25 9 -40 21q-14 11 -25 32q-10 19 -10 45q0 61 54 102q55 41 124 41h2zM345 533q-6 0 -24 12l-82 84q-77 -81 -83 -86q-11 -9 -24 -9q-9 0 -18 9t-9 19q0 11 11 25l86 96
q15 18 38 18q19 0 34 -16l87 -98q13 -16 13 -26q0 -9 -9 -18t-20 -9v-1z" />
    <glyph glyph-name="Scedilla" unicode="&#x15e;" horiz-adv-x="563" 
d="M259 -10q-97 3 -168 41q-37 16 -37 44q0 16 11 30q10 13 27 13q15 0 36 -10q76 -40 148 -40q67 0 111 33t44 89q0 52 -42 78q-43 26 -118 41q-23 5 -42 10t-36 10q-33 10 -66 30q-32 19 -49 50t-17 71q0 86 70 144t163 58q96 0 171 -37q27 -14 27 -40q0 -15 -10 -26
q-11 -12 -27 -12q-13 0 -37 11q-60 28 -128 28q-62 0 -103 -34q-42 -35 -42 -87q0 -17 5 -32q4 -14 18 -24l22 -16q7 -5 33 -13q25 -8 33 -9q7 -2 39 -9q53 -12 86 -24q36 -12 68 -33t49 -54q17 -34 17 -77q0 -83 -56 -139q-55 -55 -147 -64l-15 -47q28 0 54 -20
q25 -19 25 -59q0 -44 -28 -69t-72 -25q-28 0 -53 13q-22 13 -22 31q0 10 8 18t18 8q8 0 23 -7t30 -7q38 0 38 39q0 34 -45 34h-12q-14 2 -21 16q-8 15 -3 30z" />
    <glyph glyph-name="scedilla" unicode="&#x15f;" horiz-adv-x="454" 
d="M205 -10q-59 4 -105 21q-46 16 -46 38q0 42 35 42q8 0 56 -15t90 -15t71 18t29 50q0 33 -26 47q-27 14 -83 23q-15 2 -27 4t-21 4q-17 3 -43 12q-25 9 -40 21q-14 11 -25 32q-10 19 -10 45q0 61 54 102q55 41 124 41q79 0 132 -24q27 -14 27 -32q0 -37 -34 -37
q-8 0 -47 12t-80 12q-40 0 -69 -20t-29 -51q0 -15 6 -24t23 -15q19 -7 27 -8q5 -1 14.5 -2.5t23.5 -3.5q10 -2 14 -3q79 -11 122 -39q44 -29 44 -92q0 -62 -43 -99q-44 -38 -114 -42l-15 -47q29 0 55 -20q25 -19 25 -59q0 -44 -28 -69t-72 -25q-28 0 -53 13q-22 10 -22 27
q0 10 8 20q7 9 18 9q8 0 23 -7t30 -7q38 0 38 39q0 34 -45 34h-12q-14 2 -21 16q-8 15 -3 30z" />
    <glyph glyph-name="Scaron" unicode="&#x160;" horiz-adv-x="563" 
d="M466 650q27 -14 27 -40q0 -15 -10 -26q-11 -12 -27 -12q-13 0 -37 11q-60 28 -128 28q-62 0 -103 -34q-42 -35 -42 -87q0 -17 5 -32q4 -14 18 -24l22 -16q7 -5 33 -13q25 -8 33 -9q7 -2 39 -9q53 -12 86 -24q36 -12 68 -33t49 -54q17 -34 17 -77q0 -91 -66 -148t-173 -57
q-103 -1 -185 41q-37 16 -37 44q0 16 11 30q10 13 27 13q15 0 36 -10q76 -40 148 -40q67 0 111 33t44 89q0 52 -42 78q-43 26 -118 41q-23 5 -42 10t-36 10q-33 10 -66 30q-32 19 -49 50t-17 71q0 86 70 144t163 58q96 0 171 -37v1zM185 891q11 0 23 -12q13 -12 33 -33
l49 -51l18.5 18.5l19.5 20.5t17.5 18.5l12.5 12.5t9.5 9t8.5 7q10 9 24 9q9 0 18 -9t9 -18t-11 -25l-87 -96q-15 -18 -37 -18q-19 0 -34 16l-87 98q-13 16 -13 27q0 9 9 18t20 9z" />
    <glyph glyph-name="scaron" unicode="&#x161;" horiz-adv-x="454" 
d="M237 462q79 0 132 -24q27 -14 27 -32q0 -37 -34 -37q-8 0 -47 12t-80 12q-40 0 -69 -20t-29 -51q0 -15 6 -24t23 -15q19 -7 27 -8q5 -1 14.5 -2.5t23.5 -3.5q10 -2 14 -3q79 -11 122 -39q44 -29 44 -92q0 -68 -51 -105q-52 -38 -133 -38q-62 0 -119 18t-57 41q0 42 35 42
q8 0 56 -15t90 -15t71 18t29 50q0 33 -26 47q-27 14 -83 23q-15 2 -27 4t-21 4q-17 3 -43 12q-25 9 -40 21q-14 11 -25 32q-10 19 -10 45q0 61 54 102q55 41 124 41h2zM133 700q11 0 23 -12q13 -12 33 -33l49 -51l18.5 18.5l19.5 20.5t17.5 18.5l12.5 12.5t9.5 9t8.5 7
q10 9 23 9q9 0 18 -9t9 -18t-11 -25l-87 -96q-15 -18 -37 -18q-19 0 -34 16l-87 98q-13 16 -13 27q0 9 9 18t20 9z" />
    <glyph glyph-name="uni0162" unicode="&#x162;" horiz-adv-x="569" 
d="M286 672h42t74 1t71 1h33q43 0 43 -35q0 -22 -11 -31t-36 -9h-181v-60v-101q0 -28 0.5 -69.5t1.5 -97.5t1.5 -113t1.5 -117q0 -40 -26 -48l-16 -50q28 0 54 -20q25 -19 25 -59q0 -44 -27 -69q-26 -25 -70 -25q-27 0 -54 13q-22 13 -22 31q0 10 8 18t18 8q8 0 23 -7t30 -7
q38 0 38 39q0 34 -44 34h-12q-15 2 -21 16t-1 30l26 62q-12 9 -12 34l1 376v93v93h-96.5t-95.5 -1q-37 0 -37 38t39 38h32h75h128z" />
    <glyph glyph-name="uni0163" unicode="&#x163;" horiz-adv-x="357" 
d="M51 373q-35 0 -35 35q0 37 39 37h62l1 82q0 57 44 57q20 0 27 -10t7 -34q0 -17 -0.5 -40.5t-1.5 -53.5l101 1q37 0 37 -36t-37 -36h-100v-198q0 -60 14 -88q13 -27 50 -27q12 0 27 5t21 5q14 0 23 -11t9 -24q0 -25 -20 -36q-26 -12 -67 -12l-17 -46q28 0 54 -20
q25 -19 25 -59q0 -44 -28 -69t-72 -25q-28 0 -53 13q-22 13 -22 31q0 10 8 18t18 8q8 0 23 -7t30 -7q38 0 38 39q0 34 -45 34h-12q-14 2 -21 16q-8 15 -3 30l24 54q-86 26 -86 171v43.5t1 62.5t1 62v43h-66z" />
    <glyph glyph-name="Tcaron" unicode="&#x164;" horiz-adv-x="569" 
d="M286 675h42t74 1t71 1h33q43 0 43 -35q0 -22 -11 -31t-36 -9h-181v-60v-101q0 -28 0.5 -69.5t1.5 -97.5t1.5 -113t1.5 -117q0 -49 -45 -49q-20 0 -29 10t-9 36l1 376v93v93h-96.5t-95.5 -1q-37 0 -37 38t39 38h32h75h128zM174 887q11 0 23 -12q13 -12 33 -33l49 -51
l18.5 18.5l19.5 20.5t17.5 18.5l12.5 12.5t9.5 9t8.5 7q10 9 24 9q9 0 18 -9t9 -18t-11 -25l-87 -96q-15 -18 -37 -18q-19 0 -34 16l-87 98q-13 16 -13 27q0 9 9 18t20 9z" />
    <glyph glyph-name="tcaron" unicode="&#x165;" horiz-adv-x="471" 
d="M396 602q-16 2 -27 13t-13 32q0 23 15 38t37 15q26 0 43 -18q16 -17 16 -49t-21 -66t-52 -52q-17 -5 -16 -5q-9 0 -16 6t-7 15q0 13 10 20q34 22 34 47v4h-3zM46 377q-35 0 -35 35q0 37 39 37h62l1 82q0 57 44 57q20 0 27 -10t7 -34q0 -17 -0.5 -40.5t-1.5 -53.5l101 1
q37 0 37 -36t-37 -36h-100v-198q0 -60 14 -88q13 -27 50 -27q12 0 27 5t21 5q14 0 23 -11t9 -24q0 -25 -20 -36q-26 -12 -64 -12q-73 0 -106 42t-33 135v43.5t1 62.5t1 62v43h-66z" />
    <glyph glyph-name="Tbar" unicode="&#x166;" horiz-adv-x="565" 
d="M284 676h42t74 1t71 1h33q43 0 43 -35q0 -41 -47 -41h-178v-240h100q37 0 37 -35q0 -19 -9 -28t-33 -9h-94l2 -247q0 -49 -44 -49q-20 0 -29 10t-9 36l1 251h-100q-38 0 -38 34q0 37 44 37h94l-1 240h-95t-95 -1q-37 0 -37 39q0 17 10 27q11 11 30 11h30h74h127z" />
    <glyph glyph-name="tbar" unicode="&#x167;" horiz-adv-x="357" 
d="M49 378q-35 0 -35 35q0 37 39 37h62l1 82q0 57 44 57q20 0 27 -10t7 -34q0 -17 -0.5 -40.5t-1.5 -53.5l101 1q37 0 37 -36t-37 -36h-100v-112l86 1q38 0 38 -31q0 -34 -44 -34h-80v-27q0 -59 14 -85q13 -25 50 -25q12 0 27 5t21 5q14 0 23 -11t9 -24q0 -25 -20 -36
q-26 -12 -64 -12q-72 0 -105 41q-33 40 -33 132v38h-56q-34 0 -34 31q0 34 41 34h48v111h-65v-3z" />
    <glyph glyph-name="Utilde" unicode="&#x168;" horiz-adv-x="682" 
d="M82 273v200v155q0 46 39 46q23 0 33 -10t10 -33q-1 -25 -1 -113.5v-243.5q0 -103 47 -153t132 -50q76 0 126 57q49 57 51 146q2 50 0 188q-1 69 -1 113v64q0 40 42 40q41 0 41 -49l1 -328q2 -146 -69 -227t-198 -81q-118 0 -186 74q-67 73 -67 207v-2zM251 772
q-5 -23 -31 -23q-14 0 -21 9q-8 9 -6 26q1 37 26 60t62 23q27 0 48 -15t39 -30q17 -14 37 -16q27 0 29 39q2 11 11 17t20 6t21 -8q9 -8 9 -20q0 -46 -24 -70t-63 -24q-23 2 -40 10q-16 8 -28 20q-5 5 -11 10t-14 10q-14 8 -28 10q-31 0 -32 -33z" />
    <glyph glyph-name="utilde" unicode="&#x169;" horiz-adv-x="560" 
d="M116 456q36 0 36 -42v-38.5t-1 -55.5t-1 -58.5v-46.5q0 -64 26 -107q25 -42 81 -42q78 0 111 54t33 151l1 143q0 22 12 34t31 12q41 0 41 -44v-12t-1 -33t-1 -43.5v-43.5v-47.5t1 -54.5q0 -78 6 -147q0 -36 -40 -36q-33 0 -39 33q-2 13 -3 39q-1 13 -1 20v9
q-50 -107 -160 -107q-88 0 -133 57t-45 155v103v102q0 47 46 47v-1zM184 583q-5 -23 -31 -23q-14 0 -21 9q-8 9 -6 26q1 37 26 60t62 23q27 0 48 -15t39 -30q17 -14 37 -16q27 0 29 39q2 11 11 17t20 6t21 -8q9 -8 9 -20q0 -46 -24 -70t-63 -24q-23 2 -40 10q-16 8 -28 20
q-5 5 -11 10t-14 10q-14 8 -28 10q-31 0 -32 -33z" />
    <glyph glyph-name="Umacron" unicode="&#x16a;" horiz-adv-x="682" 
d="M82 273v200v155q0 46 39 46q23 0 33 -10t10 -33q-1 -25 -1 -113.5v-243.5q0 -103 47 -153t132 -50q76 0 126 57q49 57 51 146q2 50 0 188q-1 69 -1 113v64q0 40 42 40q41 0 41 -49l1 -328q2 -146 -69 -227t-198 -81q-118 0 -186 74q-67 73 -67 207v-2zM242 779
q-36 0 -36 34q0 36 47 36h40h42h27.5t34.5 1t31 1h17q36 0 38 -32q0 -38 -50 -38h-48h-52h-21t-27 -1t-25.5 -1h-15.5h-2z" />
    <glyph glyph-name="umacron" unicode="&#x16b;" horiz-adv-x="560" 
d="M116 456q36 0 36 -42v-38.5t-1 -55.5t-1 -58.5v-46.5q0 -64 26 -107q25 -42 81 -42q78 0 111 54t33 151l1 143q0 22 12 34t31 12q41 0 41 -44v-12t-1 -33t-1 -43.5v-43.5v-47.5t1 -54.5q0 -78 6 -147q0 -36 -40 -36q-33 0 -39 33q-2 13 -3 39q-1 13 -1 20v9
q-50 -107 -160 -107q-88 0 -133 57t-45 155v103v102q0 47 46 47v-1zM175 590q-36 0 -36 34q0 36 47 36h40h42h27.5t34.5 1t31 1h17q36 0 38 -32q0 -38 -50 -38h-48h-52h-21t-27 -1t-25.5 -1h-15.5h-2z" />
    <glyph glyph-name="Ubreve" unicode="&#x16c;" horiz-adv-x="682" 
d="M82 273v200v155q0 46 39 46q23 0 33 -10t10 -33q-1 -25 -1 -113.5v-243.5q0 -103 47 -153t132 -50q76 0 126 57q49 57 51 146q2 50 0 188q-1 69 -1 113v64q0 40 42 40q41 0 41 -49l1 -328q2 -146 -69 -227t-198 -81q-118 0 -186 74q-67 73 -67 207v-2zM449 874
q13 0 21 -9q8 -10 8 -21q0 -53 -37 -90t-93 -37q-52 0 -91 36q-38 36 -40 86q0 14 8 24q7 9 21 9q13 0 20 -7q7 -8 9 -18q1 -31 21 -49q19 -18 51 -18q31 0 51 21q20 22 20 49q1 27 30 27z" />
    <glyph glyph-name="ubreve" unicode="&#x16d;" horiz-adv-x="560" 
d="M116 456q36 0 36 -42v-38.5t-1 -55.5t-1 -58.5v-46.5q0 -64 26 -107q25 -42 81 -42q78 0 111 54t33 151l1 143q0 22 12 34t31 12q41 0 41 -44v-12t-1 -33t-1 -43.5v-43.5v-47.5t1 -54.5q0 -78 6 -147q0 -36 -40 -36q-33 0 -39 33q-2 13 -3 39q-1 13 -1 20v9
q-50 -107 -160 -107q-88 0 -133 57t-45 155v103v102q0 47 46 47v-1zM382 685q13 0 21 -9q8 -10 8 -21q0 -53 -37 -90t-93 -37q-52 0 -91 36q-38 36 -40 86q0 14 8 24q7 9 21 9q13 0 20 -7q7 -8 9 -18q1 -31 21 -49q19 -18 51 -18q31 0 51 21q20 22 20 49q1 27 30 27z" />
    <glyph glyph-name="Uring" unicode="&#x16e;" horiz-adv-x="682" 
d="M82 273v200v155q0 46 39 46q23 0 33 -10t10 -33q-1 -25 -1 -113.5v-243.5q0 -103 47 -153t132 -50q76 0 126 57q49 57 51 146q2 50 0 188q-1 69 -1 113v64q0 40 42 40q41 0 41 -49l1 -328q2 -146 -69 -227t-198 -81q-118 0 -186 74q-67 73 -67 207v-2zM344 897
q45 0 77 -27t32 -72q0 -47 -31 -78q-32 -32 -78 -32q-43 0 -76 30t-33 75q0 47 34 77t76 30zM400 792q-1 25 -18 40t-42 15q-23 0 -39 -15t-16 -40q0 -27 16 -42t42 -15q25 0 42 18q16 18 15 43v-4z" />
    <glyph glyph-name="uring" unicode="&#x16f;" horiz-adv-x="560" 
d="M116 456q36 0 36 -42v-38.5t-1 -55.5t-1 -58.5v-46.5q0 -64 26 -107q25 -42 81 -42q78 0 111 54t33 151l1 143q0 22 12 34t31 12q41 0 41 -44v-12t-1 -33t-1 -43.5v-43.5v-47.5t1 -54.5q0 -78 6 -147q0 -36 -40 -36q-33 0 -39 33q-2 13 -3 39q-1 13 -1 20v9
q-50 -107 -160 -107q-88 0 -133 57t-45 155v103v102q0 47 46 47v-1zM277 728q45 0 77 -27t32 -72q0 -47 -31 -78q-32 -32 -78 -32q-43 0 -76 30t-33 75q0 47 34 77t76 30zM333 623q-1 25 -18 40t-42 15q-23 0 -39 -15t-16 -40q0 -27 16 -42t42 -15q25 0 42 18q16 18 15 43
v-4z" />
    <glyph glyph-name="Uhungarumlaut" unicode="&#x170;" horiz-adv-x="682" 
d="M82 273v200v155q0 46 39 46q23 0 33 -10t10 -33q-1 -25 -1 -113.5v-243.5q0 -103 47 -153t132 -50q76 0 126 57q49 57 51 146q2 50 0 188q-1 69 -1 113v64q0 40 42 40q41 0 41 -49l1 -328q2 -146 -69 -227t-198 -81q-118 0 -186 74q-67 73 -67 207v-2zM288 733
q-11 -14 -23 -14q-11 0 -21 8q-9 7 -9 20t7 20l71 107q12 19 29 19q15 0 26 -9t11 -24q0 -11 -9 -24zM435 725q-12 -12 -21 -12q-11 0 -21 8q-9 7 -9 21q0 9 7 20l79 107q12 20 28 20q14 0 26 -9t12 -22q0 -15 -10 -28z" />
    <glyph glyph-name="uhungarumlaut" unicode="&#x171;" horiz-adv-x="560" 
d="M116 456q36 0 36 -42v-38.5t-1 -55.5t-1 -58.5v-46.5q0 -64 26 -107q25 -42 81 -42q78 0 111 54t33 151l1 143q0 22 12 34t31 12q41 0 41 -44v-12t-1 -33t-1 -43.5v-43.5v-47.5t1 -54.5q0 -78 6 -147q0 -36 -40 -36q-33 0 -39 33q-2 13 -3 39q-1 13 -1 20v9
q-50 -107 -160 -107q-88 0 -133 57t-45 155v103v102q0 47 46 47v-1zM216 544q-11 -14 -23 -14q-11 0 -21 8q-9 7 -9 20t7 20l71 107q12 19 29 19q15 0 26 -9t11 -24q0 -11 -9 -24zM363 536q-12 -12 -21 -12q-11 0 -21 8q-9 7 -9 21q0 9 7 20l79 107q12 20 28 20q14 0 26 -9
t12 -22q0 -15 -10 -28z" />
    <glyph glyph-name="Uogonek" unicode="&#x172;" horiz-adv-x="682" 
d="M321 -115q0 -20 10 -30q11 -11 27 -11q11 0 23 3t20 3q11 0 19 -9q7 -8 7 -22q0 -40 -68 -40q-40 0 -69 26t-29 71q0 70 70 116q-118 4 -183 77t-65 204v200v155q0 46 39 46q23 0 33 -10t10 -33q-1 -25 -1 -113.5v-243.5q0 -103 47 -153t132 -50q76 0 126 57
q49 57 51 146q2 50 0 188q-1 69 -1 113v64q0 40 42 40q41 0 41 -49l1 -328q1 -124 -53 -204q-54 -79 -149 -99q-78 -45 -78 -109z" />
    <glyph glyph-name="uogonek" unicode="&#x173;" horiz-adv-x="560" 
d="M386 -112q0 -42 36 -42q11 0 23 3t19 3q11 0 19 -9q7 -8 7 -22q0 -40 -67 -40q-39 0 -70 26q-30 25 -30 71q0 67 96 132q-7 8 -8 21l-5 68q-50 -107 -160 -107q-88 0 -133 57t-45 155v103v102q0 47 46 47q36 0 36 -42v-40t-1 -57t-1 -58.5v-43.5q0 -64 26 -107
q25 -42 81 -42q78 0 111 54t33 151l1 143q0 22 12 34t31 12q41 0 41 -44v-12t-1 -33t-1 -43.5v-43.5v-47.5t1 -54.5q0 -78 6 -147q0 -25 -20 -34q-39 -30 -61 -57q-21 -26 -21 -54z" />
    <glyph glyph-name="Wcircumflex" unicode="&#x174;" horiz-adv-x="845" 
d="M39 633q-4 19 8 33t33 14q34 0 42 -35l99 -518q15 40 51 151.5l94 297.5q15 51 53 51q16 0 28 -9q13 -10 17 -22l153 -456l61.5 293.5t38.5 198.5q5 28 15 38q11 11 31 11q17 0 31 -12q13 -12 9 -31l-129 -593q-4 -24 -14 -37q-9 -12 -34 -12q-15 0 -26 8q-10 7 -15 17
q-4 8 -9 23l-154 455l-55.5 -170l-92.5 -269l-12 -30t-18 -22t-30 -12q-31 1 -43 24q-12 22 -24 84q-2 8 -3 14t-2 11l-102 508zM526 719q-6 0 -24 12l-82 84q-77 -81 -83 -86q-11 -9 -24 -9q-9 0 -18 9t-9 19q0 11 11 25l86 96q15 18 38 18q19 0 34 -16l87 -98
q13 -16 13 -26q0 -9 -9 -18t-20 -9v-1z" />
    <glyph glyph-name="wcircumflex" unicode="&#x175;" horiz-adv-x="747" 
d="M34 412v6v6q0 14 15 25q14 10 31 10q26 0 35 -27l60.5 -230.5l29.5 -109.5l52.5 136.5l73.5 198.5q11 26 42 26q34 0 48 -36l123 -321l69 256l21 75q7 27 35 27q17 0 31 -10q15 -11 15 -25q0 -12 -1 -15q-5 -12 -16 -47t-28 -94l-29 -98t-19 -59q-2 -7 -4.5 -14.5
l-5.5 -16.5l-5.5 -16.5l-4.5 -13.5l-3.5 -10.5t-3.5 -8.5q-14 -32 -48 -32q-37 0 -50 43q-4 9 -33.5 85.5l-86.5 222.5l-107 -280q-17 -41 -30 -56q-14 -15 -39 -15q-23 0 -36 11q-11 10 -19 35l-34.5 112.5l-34.5 117.5l-27.5 96.5l-14.5 49.5zM476 529q-6 0 -24 12l-82 84
q-77 -81 -83 -86q-11 -9 -24 -9q-9 0 -18 9t-9 19q0 11 11 25l86 96q15 18 38 18q19 0 34 -16l87 -98q13 -16 13 -26q0 -9 -9 -18t-20 -9v-1z" />
    <glyph glyph-name="Ycircumflex" unicode="&#x176;" horiz-adv-x="599" 
d="M253 278l-213 324q-15 24 -15 37q0 16 14 28q13 12 30 12q19 0 42 -33q191 -304 192 -305l21 33l23.5 36.5l38.5 62.5l111 177q20 29 39 29q16 0 29 -11q12 -11 12 -26q0 -12 -14 -34l-221 -339v-118v-118q0 -17 -12 -26t-30 -9q-17 0 -30 11q-12 10 -12 30v35v36v83v75z
M407 721q-6 0 -24 12l-82 84q-77 -81 -83 -86q-11 -9 -24 -9q-9 0 -18 9t-9 19q0 11 11 25l86 96q15 18 38 18q19 0 34 -16l87 -98q13 -16 13 -26q0 -9 -9 -18t-20 -9v-1z" />
    <glyph glyph-name="ycircumflex" unicode="&#x177;" horiz-adv-x="493" 
d="M245 95l63.5 148l71.5 178q7 19 16 28t25 9q17 0 30 -10q14 -11 14 -25q0 -15 -7 -30q-83 -198 -231 -504q-62 -114 -144 -114q-68 0 -68 42q0 38 43 38q34 0 52 12q19 13 41 51q21 34 54 102l-39 81l-122 273q-16 33 -16 49t14 27q13 10 30 10q21 0 33 -20l144 -344z
M349 532q-6 0 -24 12l-82 84q-77 -81 -83 -86q-11 -9 -24 -9q-9 0 -18 9t-9 19q0 11 11 25l86 96q15 18 38 18q19 0 34 -16l87 -98q13 -16 13 -26q0 -9 -9 -18t-20 -9v-1z" />
    <glyph glyph-name="Ydieresis" unicode="&#x178;" horiz-adv-x="599" 
d="M253 278l-213 324q-15 24 -15 37q0 16 14 28q13 12 30 12q19 0 42 -33q191 -304 192 -305l21 33l23.5 36.5l38.5 62.5l111 177q20 29 39 29q16 0 29 -11q12 -11 12 -26q0 -12 -14 -34l-221 -339v-118v-118q0 -17 -12 -26t-30 -9q-17 0 -30 11q-12 10 -12 30v35v36v83v75z
M216 752q-20 0 -33 15q-14 16 -14 36q0 21 15 36t38 15q22 0 36 -15q14 -16 14 -36q0 -23 -15 -36q-16 -14 -40 -14zM373 753q-20 0 -33 15q-14 16 -14 36q0 21 15 36t38 15q22 0 36 -15q14 -16 14 -37q0 -23 -15 -36q-14 -13 -39 -13z" />
    <glyph glyph-name="Zacute" unicode="&#x179;" 
d="M76 598q-37 0 -37 37q0 40 41 40h212h34.5t52.5 1t53.5 1h36.5q43 0 43 -38q0 -16 -23 -51l-42 -66l-237 -344l-73 -107q94 0 205 3t137 3q41 0 41 -40q0 -38 -52 -38q-31 -1 -123.5 -1h-248.5q-55 0 -58 32q-2 15 1 24q9 33 52 91l60 85l194 274l63 98h-166h-97t-69 -1
v-3zM263 735q-13 -10 -24 -10t-21 9q-11 9 -11 20t9 22l39 45l55 64q14 17 29 17t27 -12t12 -27q0 -10 -14 -24q-42 -47 -102 -102z" />
    <glyph glyph-name="zacute" unicode="&#x17a;" horiz-adv-x="448" 
d="M254 385h-31.5t-50.5 -1q-60 -2 -96 0q-34 0 -34 37q0 38 53 38h35t50 -1t49.5 -1h34.5h19t26 1t27 1h20q43 -2 45 -30q2 -15 -1 -24q-11 -26 -51 -75l-197 -235l-17 -23l181 4q54 3 57 3q38 0 38 -38t-41 -40h-26h-34h-32.5t-58.5 -1t-66.5 -1h-55.5q-28 0 -42 11
q-13 10 -13 36q0 16 14 38q7 11 19.5 26.5l30.5 37.5l200 237l-47 -1zM212 549q-13 -10 -24 -10t-21 9q-11 9 -11 20t9 22l39 45l55 64q14 17 29 17t27 -12t12 -27q0 -10 -14 -24q-42 -47 -102 -102z" />
    <glyph glyph-name="Zdotaccent" unicode="&#x17b;" 
d="M76 598q-37 0 -37 37q0 40 41 40h212h34.5t52.5 1t53.5 1h36.5q43 0 43 -38q0 -16 -23 -51l-42 -66l-237 -344l-73 -107q94 0 205 3t137 3q41 0 41 -40q0 -38 -52 -38q-31 -1 -123.5 -1h-248.5q-55 0 -58 32q-2 15 1 24q9 33 52 91l60 85l194 274l63 98h-166h-97t-69 -1
v-3zM271 755q-23 0 -38 17t-14 42q2 25 18 38q17 14 39 14q25 0 39 -15q14 -16 14 -38q0 -25 -16 -40q-17 -15 -42 -15v-3z" />
    <glyph glyph-name="zdotaccent" unicode="&#x17c;" horiz-adv-x="448" 
d="M254 385h-31.5t-50.5 -1q-60 -2 -96 0q-34 0 -34 37q0 38 53 38h35t50 -1t49.5 -1h34.5h19t26 1t27 1h20q43 -2 45 -30q2 -15 -1 -24q-11 -26 -51 -75l-197 -235l-17 -23l181 4q54 3 57 3q38 0 38 -38t-41 -40h-26h-34h-32.5t-58.5 -1t-66.5 -1h-55.5q-28 0 -42 11
q-13 10 -13 36q0 16 14 38q7 11 19.5 26.5l30.5 37.5l200 237l-47 -1zM220 569q-23 0 -38 17t-14 42q2 25 18 38q17 14 39 14q25 0 39 -15q14 -16 14 -38q0 -25 -16 -40q-17 -15 -42 -15v-3z" />
    <glyph glyph-name="Zcaron" unicode="&#x17d;" 
d="M76 598q-37 0 -37 37q0 40 41 40h212h34.5t52.5 1t53.5 1h36.5q43 0 43 -38q0 -16 -23 -51l-42 -66l-237 -344l-73 -107q94 0 205 3t137 3q41 0 41 -40q0 -38 -52 -38q-31 -1 -123.5 -1h-248.5q-55 0 -58 32q-2 15 1 24q9 33 52 91l60 85l194 274l63 98h-166h-97t-69 -1
v-3zM169 887q11 0 23 -12q13 -12 33 -33l49 -51l18.5 18.5l19.5 20.5t17.5 18.5l12.5 12.5t9.5 9t8.5 7q10 9 24 9q9 0 18 -9t9 -18t-11 -25l-87 -96q-15 -18 -37 -18q-19 0 -34 16l-87 98q-13 16 -13 27q0 9 9 18t20 9z" />
    <glyph glyph-name="zcaron" unicode="&#x17e;" horiz-adv-x="448" 
d="M254 385h-31.5t-50.5 -1q-60 -2 -96 0q-34 0 -34 37q0 38 53 38h35t50 -1t49.5 -1h34.5h19t26 1t27 1h20q43 -2 45 -30q2 -15 -1 -24q-11 -26 -51 -75l-197 -235l-17 -23l181 4q54 3 57 3q38 0 38 -38t-41 -40h-26h-34h-32.5t-58.5 -1t-66.5 -1h-55.5q-28 0 -42 11
q-13 10 -13 36q0 16 14 38q7 11 19.5 26.5l30.5 37.5l200 237l-47 -1zM118 701q11 0 23 -12q13 -12 33 -33l49 -51l18.5 18.5l19.5 20.5t17.5 18.5l12.5 12.5t9.5 9t8.5 7q10 9 24 9q9 0 18 -9t9 -18t-11 -25l-87 -96q-15 -18 -37 -18q-19 0 -34 16l-87 98q-13 16 -13 27
q0 9 9 18t20 9z" />
    <glyph glyph-name="florin" unicode="&#x192;" horiz-adv-x="433" 
d="M240 372l-46 -384q-6 -50 -15 -84q-9 -36 -28 -69q-19 -34 -54 -52t-84 -18q-22 0 -44 8q-25 10 -25 37q0 17 10 27q11 11 27 11q7 0 21 -3q13 -3 21 -3q26 0 44 12t27 38q10 28 14 47q4 20 9 56l46 380h-64q-26 0 -36 7q-11 8 -11 27q0 40 49 40h73q6 51 12 83
q6 34 21 74t38 65q23 24 62 41q40 17 91 17q59 0 59 -41q0 -14 -9 -24t-22 -10q-11 0 -26 3q-16 3 -28 2q-34 -2 -56 -19q-23 -19 -35 -54q-12 -36 -18 -63q-3 -14 -6 -31.5t-5 -39.5h105q38 0 38 -38q2 -17 -10 -27q-11 -10 -31 -10z" />
    <glyph glyph-name="AEacute" unicode="&#x1fc;" horiz-adv-x="906" 
d="M17 45q0 17 23 46l201 294l102.5 154l68.5 100q30 42 73 42h77h146h115q45 0 45 -36q0 -32 -29 -37q-82 -1 -154.5 -1.5t-135.5 -0.5v-61v-57l-1 -94v-24h50h80h104q42 0 42 -35q0 -36 -41 -36h-127h-111v-69v-78v-78q31 0 101 1t182 3q41 0 41 -37q0 -41 -45 -42h-252
q-70 0 -89 10q-20 10 -21 51l1 123l-254 2q-8 -10 -33 -48l-68 -105q-22 -34 -48 -34q-17 0 -30 12q-14 12 -12 30zM247 259l217 1v54t1 39v80v75v43.5t1 31.5zM537 744q-13 -10 -24 -10t-21 9q-11 9 -11 20t9 22l39 45l55 64q14 17 29 17t27 -12t12 -27q0 -10 -14 -24
q-42 -47 -102 -102z" />
    <glyph glyph-name="aeacute" unicode="&#x1fd;" horiz-adv-x="820" 
d="M443 204q0 -54 39 -94t100 -40q59 0 111 31q20 13 33 13q14 0 24 -13q11 -14 11 -27q0 -32 -55 -57q-54 -25 -130 -25q-54 0 -102 30t-72 76q-55 -106 -173 -106q-83 0 -135 36t-52 101q0 66 48 101q48 34 134 36q39 1 139 -3q-2 56 -37 90q-37 35 -92 35q-16 0 -34 -3
q-17 -3 -28 -6q-5 -2 -12 -4t-16 -5l-15 -5t-8 -3q-16 -4 -30 5t-14 27q0 23 22 36q56 32 143 32q58 -2 102 -28q45 -27 68 -74q27 46 74 75t99 29q82 0 137 -58q56 -59 56 -129q0 -40 -12 -55q-12 -14 -62 -16h-102h-56t-37 -1zM584 389q-57 0 -96 -39q-40 -40 -44 -90
h128.5t81.5 1q42 0 42 6q0 51 -33 87t-79 36v-1zM226 59q50 0 90 35t41 87l1 21q-50 3 -134 3q-108 1 -108 -72q0 -35 32 -53q31 -18 80 -18zM405 543q-13 -10 -24 -10t-21 9q-11 9 -11 20t9 22l39 45l55 64q14 17 29 17t27 -12t12 -27q0 -10 -14 -24q-42 -47 -102 -102z
" />
    <glyph glyph-name="Oslashacute" unicode="&#x1fe;" horiz-adv-x="746" 
d="M376 684q80 0 153 -40l27 39q9 15 24 15q11 0 20 -9t9 -19q0 -9 -5 -17l-27 -41q57 -48 89 -115q33 -69 33 -151q0 -152 -93 -255t-234 -103q-91 0 -168 47l-33 -50q-10 -16 -23 -16q-11 0 -21 9t-10 20q0 7 8 21l33 51q-108 96 -108 250q0 84 28 153q28 70 75 117
q46 46 105 72q58 25 120 24zM618 342q-2 121 -87 198l-283 -435q59 -37 132 -37q99 0 168 83t68 192zM134 330q0 -115 73 -189l281 433q-56 32 -120 32q-95 0 -165 -79t-70 -198zM362 736q-13 -10 -24 -10t-21 9q-11 9 -11 20t9 22l39 45l55 64q14 17 29 17t27 -12t12 -27
q0 -10 -14 -24q-42 -47 -102 -102z" />
    <glyph glyph-name="oslashacute" unicode="&#x1ff;" 
d="M291 465q16 0 26 -7q34 -6 61 -21l20 32q10 18 24 18q10 0 18 -7q9 -8 9 -16q0 -10 -14 -33l-14 -22q79 -67 79 -183q0 -101 -68 -169q-67 -67 -168 -67q-41 0 -87 21l-22 -36q-8 -15 -21 -15q-9 0 -19 8q-9 7 -9 18q0 8 9 22l17 28q-89 68 -89 178t68 180q68 69 182 71
h-2zM122 212q0 -64 50 -108l166 268q-28 16 -69 17q-65 -3 -106 -50q-40 -46 -40 -126zM415 228q0 69 -39 111l-162 -263q28 -11 45 -11q64 0 111 45q46 45 46 118h-1zM254 547q-13 -10 -24 -10t-21 9q-11 9 -11 20t9 22l39 45l55 64q14 17 29 17t27 -12t12 -27
q0 -10 -14 -24q-42 -47 -102 -102z" />
    <glyph glyph-name="uni0218" unicode="&#x218;" horiz-adv-x="563" 
d="M466 650q27 -14 27 -40q0 -15 -10 -26q-11 -12 -27 -12q-13 0 -37 11q-60 28 -128 28q-62 0 -103 -34q-42 -35 -42 -87q0 -17 5 -32q4 -14 18 -24l22 -16q7 -5 33 -13q25 -8 33 -9q7 -2 39 -9q53 -12 86 -24q36 -12 68 -33t49 -54q17 -34 17 -77q0 -91 -66 -148t-173 -57
q-103 -1 -185 41q-37 16 -37 44q0 16 11 30q10 13 27 13q15 0 36 -10q76 -40 148 -40q67 0 111 33t44 89q0 52 -42 78q-43 26 -118 41q-23 5 -42 10t-36 10q-33 10 -66 30q-32 19 -49 50t-17 71q0 86 70 144t163 58q96 0 171 -37v1zM234 -194q0 6 14 22q13 15 18 29
q1 4 -3 9q-5 5 -11 14t-6 20q0 18 13 30t31 12q20 0 33 -13q14 -14 14 -33q0 -56 -61 -102q-10 -7 -22 -7q-19 0 -19 19h-1z" />
    <glyph glyph-name="uni0219" unicode="&#x219;" horiz-adv-x="454" 
d="M237 462q79 0 132 -24q27 -14 27 -32q0 -37 -34 -37q-8 0 -47 12t-80 12q-40 0 -69 -20t-29 -51q0 -15 6 -24t23 -15q19 -7 27 -8q5 -1 14.5 -2.5t23.5 -3.5q10 -2 14 -3q79 -11 122 -39q44 -29 44 -92q0 -68 -51 -105q-52 -38 -133 -38q-62 0 -119 18t-57 41q0 42 35 42
q8 0 56 -15t90 -15t71 18t29 50q0 33 -26 47q-27 14 -83 23q-15 2 -27 4t-21 4q-17 3 -43 12q-25 9 -40 21q-14 11 -25 32q-10 19 -10 45q0 61 54 102q55 41 124 41h2zM180 -195q0 6 14 22q13 15 18 29q1 4 -3 9q-5 5 -11 14t-6 20q0 18 12 30t32 12t33 -13q14 -14 14 -33
q0 -56 -61 -102q-10 -7 -21 -7q-19 0 -19 19h-2z" />
    <glyph glyph-name="uni021A" unicode="&#x21a;" horiz-adv-x="569" 
d="M286 675h42t74 1t71 1h33q43 0 43 -35q0 -22 -11 -31t-36 -9h-181v-60v-101q0 -28 0.5 -69.5t1.5 -97.5t1.5 -113t1.5 -117q0 -49 -45 -49q-20 0 -29 10t-9 36l1 376v93v93h-96.5t-95.5 -1q-37 0 -37 38t39 38h32h75h128zM225 -198q0 6 14 22q13 15 18 29q1 4 -3 9
q-5 5 -11 14t-6 20q0 18 12 30t32 12t33 -13q14 -14 14 -33q0 -56 -61 -102q-10 -7 -21 -7q-19 0 -19 19h-2z" />
    <glyph glyph-name="uni021B" unicode="&#x21b;" horiz-adv-x="357" 
d="M48 377q-35 0 -35 35q0 37 39 37h62l1 82q0 57 44 57q20 0 27 -10t7 -34q0 -17 -0.5 -40.5t-1.5 -53.5l101 1q37 0 37 -36t-37 -36h-100v-198q0 -60 14 -88q13 -27 50 -27q12 0 27 5t21 5q14 0 23 -11t9 -24q0 -25 -20 -36q-26 -12 -64 -12q-73 0 -106 42t-33 135v43.5
t1 62.5t1 62v43h-66zM157 -199q0 6 14 22q13 15 18 29q1 4 -3 9q-5 5 -11 14t-6 20q0 18 12 30t32 12t33 -13q14 -14 14 -33q0 -56 -61 -102q-10 -7 -21 -7q-19 0 -19 19h-2z" />
    <glyph glyph-name="dotlessj" unicode="&#x237;" horiz-adv-x="229" 
d="M74 422q0 17 12 26t29 9q41 0 41 -34v-255q0 -146 -3 -260q-1 -58 -45 -100q-43 -41 -108 -43q-85 0 -85 46q0 19 9 31t23 12q8 0 26 -5t30 -5q67 0 71 97q3 43 3 309q-2 70 -2.5 113.5t0.5 60.5z" />
    <glyph glyph-name="circumflex" unicode="&#x2c6;" horiz-adv-x="348" 
d="M279 533q-6 0 -24 12l-82 84q-77 -81 -83 -86q-11 -9 -23 -9q-9 0 -18 9t-9 19q0 11 11 25l86 96q15 18 38 18q19 0 34 -16l87 -98q13 -16 13 -26q0 -9 -9 -18t-20 -9z" />
    <glyph glyph-name="caron" unicode="&#x2c7;" horiz-adv-x="342" 
d="M65 701q11 0 23 -12q13 -12 33 -33l49 -51l18.5 18.5l19.5 20.5t17.5 18.5l12.5 12.5t9.5 9t8.5 7q10 9 23 9q9 0 18 -9t9 -18t-11 -25l-87 -96q-15 -18 -37 -18q-19 0 -34 16l-87 98q-13 16 -13 27q0 9 9 18t20 9z" />
    <glyph glyph-name="breve" unicode="&#x2d8;" horiz-adv-x="346" 
d="M276 687q13 0 21 -9q8 -10 8 -21q0 -53 -37 -90t-93 -37q-52 0 -91 36q-38 36 -40 86q0 14 8 24q7 9 21 9q13 0 20 -7q7 -8 9 -18q1 -31 21 -49q19 -18 51 -18q31 0 51 21q20 22 20 49q1 27 30 27z" />
    <glyph glyph-name="dotaccent" unicode="&#x2d9;" horiz-adv-x="188" 
d="M90 568q-23 0 -38 17t-14 42q2 25 18 38q17 14 39 14q25 0 39 -15q14 -16 14 -38q0 -25 -16 -40q-17 -15 -42 -15v-3z" />
    <glyph glyph-name="ring" unicode="&#x2da;" horiz-adv-x="298" 
d="M149 729q45 0 77 -27t32 -72q0 -47 -31 -78q-32 -32 -78 -32q-43 0 -76 30t-33 75q0 47 34 77t76 30zM205 624q-1 25 -18 40t-42 15q-23 0 -39 -15t-16 -40q0 -27 16 -42t42 -15q25 0 42 18q16 18 15 43v-4z" />
    <glyph glyph-name="ogonek" unicode="&#x2db;" horiz-adv-x="246" 
d="M99 -113q0 -20 10 -30q11 -11 27 -11q11 0 23 3t20 3q10 0 18 -9q7 -8 7 -22q0 -40 -67 -40q-40 0 -69 26t-29 71q0 70 98 135l60 -1l-29.5 -24.5l-20.5 -17.5q-15 -14 -30 -36q-15 -23 -15 -44z" />
    <glyph glyph-name="tilde" unicode="&#x2dc;" horiz-adv-x="381" 
d="M97 584q-5 -23 -31 -23q-14 0 -21 9q-8 9 -6 26q1 37 26 60t62 23q27 0 48 -15t39 -30q17 -14 37 -16q27 0 29 39q2 11 11 17t20 6t21 -8q9 -8 9 -20q0 -46 -24 -70t-63 -24q-23 2 -40 10q-16 8 -28 20q-5 5 -11 10t-14 10q-14 8 -28 10q-31 0 -32 -33z" />
    <glyph glyph-name="hungarumlaut" unicode="&#x2dd;" horiz-adv-x="374" 
d="M90 545q-11 -14 -23 -14q-11 0 -21 8q-9 7 -9 20t7 20l71 107q12 19 29 19q15 0 26 -9t11 -24q0 -11 -9 -24zM237 537q-12 -12 -21 -12q-11 0 -21 8q-9 7 -9 21q0 9 7 20l79 107q12 20 28 20q14 0 26 -9t12 -22q0 -15 -10 -28z" />
    <glyph glyph-name="pi" unicode="&#x3c0;" horiz-adv-x="654" 
d="M352 607l-127 -1v-62q0 -51 1 -174.5t3 -323.5q0 -49 -45 -49q-20 0 -29 10t-9 36v78t1 110t1 110v78v93v93q-7 -1 -17.5 -1h-25.5h-25.5t-16.5 -1q-37 0 -37 37q0 17 10 27t30 12q10 -1 26 -1h39h38.5t25.5 -1q111 2 208.5 3t185.5 1q37 0 37 -36q0 -22 -7 -30
q-8 -9 -27 -9h-72l-1 -62q0 -23 0.5 -71t1.5 -121q1 -146 3 -306q1 -49 -45 -49q-39 0 -38 46v375v189h-89z" />
    <glyph glyph-name="Wgrave" unicode="&#x1e80;" horiz-adv-x="845" 
d="M39 633q-4 19 8 33t33 14q34 0 42 -35l99 -518q15 40 51 151.5l94 297.5q15 51 53 51q16 0 28 -9q13 -10 17 -22l153 -456l61.5 293.5t38.5 198.5q5 28 15 38q11 11 31 11q17 0 31 -12q13 -12 9 -31l-129 -593q-4 -24 -14 -37q-9 -12 -34 -12q-15 0 -26 8q-10 7 -15 17
q-4 8 -9 23l-154 455l-55.5 -170l-92.5 -269l-12 -30t-18 -22t-30 -12q-31 1 -43 24q-12 22 -24 84q-2 8 -3 14t-2 11l-102 508zM440 736q-34 32 -58.5 57.5l-41.5 44.5q-13 16 -13 30q0 13 12 24q13 11 26 11q19 0 31 -17l88 -109q9 -11 9 -22q0 -10 -9 -19t-20 -9t-24 10
v-1z" />
    <glyph glyph-name="wgrave" unicode="&#x1e81;" horiz-adv-x="747" 
d="M34 412v6v6q0 14 15 25q14 10 31 10q26 0 35 -27l60.5 -230.5l29.5 -109.5l52.5 136.5l73.5 198.5q11 26 42 26q34 0 48 -36l123 -321l69 256l21 75q7 27 35 27q17 0 31 -10q15 -11 15 -25q0 -12 -1 -15q-5 -12 -16 -47t-28 -94l-29 -98t-19 -59q-2 -7 -4.5 -14.5
l-5.5 -16.5l-5.5 -16.5l-4.5 -13.5l-3.5 -10.5t-3.5 -8.5q-14 -32 -48 -32q-37 0 -50 43q-4 9 -33.5 85.5l-86.5 222.5l-107 -280q-17 -41 -30 -56q-14 -15 -39 -15q-23 0 -36 11q-11 10 -19 35l-34.5 112.5l-34.5 117.5l-27.5 96.5l-14.5 49.5zM390 545q-34 32 -58.5 57.5
l-41.5 44.5q-13 16 -13 30q0 13 12 24q13 11 26 11q19 0 31 -17l88 -109q9 -11 9 -21t-9 -19t-20 -9t-24 10v-2z" />
    <glyph glyph-name="Wacute" unicode="&#x1e82;" horiz-adv-x="845" 
d="M39 633q-4 19 8 33t33 14q34 0 42 -35l99 -518q15 40 51 151.5l94 297.5q15 51 53 51q16 0 28 -9q13 -10 17 -22l153 -456l61.5 293.5t38.5 198.5q5 28 15 38q11 11 31 11q17 0 31 -12q13 -12 9 -31l-129 -593q-4 -24 -14 -37q-9 -12 -34 -12q-15 0 -26 8q-10 7 -15 17
q-4 8 -9 23l-154 455l-55.5 -170l-92.5 -269l-12 -30t-18 -22t-30 -12q-31 1 -43 24q-12 22 -24 84q-2 8 -3 14t-2 11l-102 508zM407 734q-13 -10 -24 -10t-21 9q-11 9 -11 20t9 22l39 45l55 64q14 17 29 17t27 -12t12 -27q0 -10 -14 -24q-42 -47 -102 -102z" />
    <glyph glyph-name="wacute" unicode="&#x1e83;" horiz-adv-x="747" 
d="M34 412v6v6q0 14 15 25q14 10 31 10q26 0 35 -27l60.5 -230.5l29.5 -109.5l52.5 136.5l73.5 198.5q11 26 42 26q34 0 48 -36l123 -321l69 256l21 75q7 27 35 27q17 0 31 -10q15 -11 15 -25q0 -12 -1 -15q-5 -12 -16 -47t-28 -94l-29 -98t-19 -59q-2 -7 -4.5 -14.5
l-5.5 -16.5l-5.5 -16.5l-4.5 -13.5l-3.5 -10.5t-3.5 -8.5q-14 -32 -48 -32q-37 0 -50 43q-4 9 -33.5 85.5l-86.5 222.5l-107 -280q-17 -41 -30 -56q-14 -15 -39 -15q-23 0 -36 11q-11 10 -19 35l-34.5 112.5l-34.5 117.5l-27.5 96.5l-14.5 49.5zM357 544q-13 -10 -24 -10
t-21 9q-11 9 -11 20t9 22l39 45l55 64q14 17 29 17t27 -12t12 -27q0 -10 -14 -24q-42 -47 -102 -102z" />
    <glyph glyph-name="Wdieresis" unicode="&#x1e84;" horiz-adv-x="845" 
d="M39 633q-4 19 8 33t33 14q34 0 42 -35l99 -518q15 40 51 151.5l94 297.5q15 51 53 51q16 0 28 -9q13 -10 17 -22l153 -456l61.5 293.5t38.5 198.5q5 28 15 38q11 11 31 11q17 0 31 -12q13 -12 9 -31l-129 -593q-4 -24 -14 -37q-9 -12 -34 -12q-15 0 -26 8q-10 7 -15 17
q-4 8 -9 23l-154 455l-55.5 -170l-92.5 -269l-12 -30t-18 -22t-30 -12q-31 1 -43 24q-12 22 -24 84q-2 8 -3 14t-2 11l-102 508zM335 750q-20 0 -33 15q-14 16 -14 36q0 21 15 36t38 15q22 0 36 -15q14 -16 14 -36q0 -23 -15 -36q-16 -14 -40 -14zM492 751q-20 0 -33 15
q-14 16 -14 36q0 21 15 36t38 15q22 0 36 -15q14 -16 14 -37q0 -23 -15 -36q-14 -13 -39 -13z" />
    <glyph glyph-name="wdieresis" unicode="&#x1e85;" horiz-adv-x="747" 
d="M34 412v6v6q0 14 15 25q14 10 31 10q26 0 35 -27l60.5 -230.5l29.5 -109.5l52.5 136.5l73.5 198.5q11 26 42 26q34 0 48 -36l123 -321l69 256l21 75q7 27 35 27q17 0 31 -10q15 -11 15 -25q0 -12 -1 -15q-5 -12 -16 -47t-28 -94l-29 -98t-19 -59q-2 -7 -4.5 -14.5
l-5.5 -16.5l-5.5 -16.5l-4.5 -13.5l-3.5 -10.5t-3.5 -8.5q-14 -32 -48 -32q-37 0 -50 43q-4 9 -33.5 85.5l-86.5 222.5l-107 -280q-17 -41 -30 -56q-14 -15 -39 -15q-23 0 -36 11q-11 10 -19 35l-34.5 112.5l-34.5 117.5l-27.5 96.5l-14.5 49.5zM285 560q-20 0 -33 15
q-14 16 -14 36q0 21 15 36t38 15q22 0 36 -15q14 -16 14 -36q0 -23 -15 -36q-16 -14 -40 -14zM442 561q-20 0 -33 15q-14 16 -14 36q0 21 15 36t38 15q22 0 36 -15q14 -16 14 -37q0 -23 -15 -36q-14 -13 -39 -13z" />
    <glyph glyph-name="uni1E9E" unicode="&#x1e9e;" horiz-adv-x="669" 
d="M478 585q-14 7 -57 15q-41 7 -72 7q-81 0 -130 -61t-49 -159v-160v-177q0 -31 -10 -42q-11 -12 -36 -12q-21 -1 -30 11t-9 41v39v98v194q0 145 76 225q76 81 195 81q50 0 107 -12q59 -12 80 -25q27 -15 27 -44q0 -18 -9 -30l-151 -190q213 -48 213 -198q-2 -80 -58 -136
q-57 -57 -145 -57q-60 0 -105 18t-45 42q0 19 10 30q10 12 28 12q7 0 42 -12q34 -12 72 -12q49 0 84 33q34 33 34 79q0 62 -43 95q-44 33 -126 48q-48 9 -48 42q0 19 12 34z" />
    <glyph glyph-name="Ygrave" unicode="&#x1ef2;" horiz-adv-x="599" 
d="M253 278l-213 324q-15 24 -15 37q0 16 14 28q13 12 30 12q19 0 42 -33q191 -304 192 -305l21 33l23.5 36.5l38.5 62.5l111 177q20 29 39 29q16 0 29 -11q12 -11 12 -26q0 -12 -14 -34l-221 -339v-118v-118q0 -17 -12 -26t-30 -9q-17 0 -30 11q-12 10 -12 30v35v36v83v75z
M321 738q-34 32 -58.5 57.5l-41.5 44.5q-13 16 -13 30q0 13 12 24q13 11 26 11q19 0 31 -17l88 -109q9 -11 9 -22q0 -10 -9 -19t-20 -9t-24 10v-1z" />
    <glyph glyph-name="ygrave" unicode="&#x1ef3;" horiz-adv-x="493" 
d="M245 95l63.5 148l71.5 178q7 19 16 28t25 9q17 0 30 -10q14 -11 14 -25q0 -15 -7 -30q-83 -198 -231 -504q-62 -114 -144 -114q-68 0 -68 42q0 38 43 38q34 0 52 12q19 13 41 51q21 34 54 102l-39 81l-122 273q-16 33 -16 49t14 27q13 10 30 10q21 0 33 -20l144 -344z
M263 548q-34 32 -58.5 57.5l-41.5 44.5q-13 16 -13 30q0 13 12 24q13 11 26 11q19 0 31 -17l88 -109q9 -11 9 -21t-9 -19t-20 -9t-24 10v-2z" />
    <glyph glyph-name="endash" unicode="&#x2013;" horiz-adv-x="500" 
d="M48 200q-19 0 -28 12q-9 13 -8 28q0 37 50 37h203h186q38 0 38 -36q0 -39 -53 -39h-388v-2z" />
    <glyph glyph-name="emdash" unicode="&#x2014;" horiz-adv-x="1000" 
d="M63 202q-19 0 -28 11t-8 27q0 38 50 38h438h421q37 0 37 -37q0 -20 -12 -29t-41 -9h-856z" />
    <glyph glyph-name="quoteleft" unicode="&#x2018;" horiz-adv-x="201" 
d="M109 605q14 -1 28 -15q13 -13 13 -33q1 -23 -15 -39t-39 -16q-27 0 -44 20t-17 51q0 34 22 68q23 35 55 54q12 5 16 5q10 0 17 -7q8 -8 8 -16q0 -10 -11 -21q-35 -26 -35 -48v-4z" />
    <glyph glyph-name="quoteright" unicode="&#x2019;" horiz-adv-x="201" 
d="M84 597q-17 1 -30 15q-13 13 -13 33q0 23 16 39t39 16q29 0 45 -19q17 -20 17 -51q0 -34 -22 -69t-54 -55l-17 -5q-9 0 -16 6t-7 17q0 13 11 21q34 25 34 49v4z" />
    <glyph glyph-name="quotesinglbase" unicode="&#x201a;" horiz-adv-x="201" 
d="M84 -2q-17 1 -30 15q-13 13 -13 34q0 23 16 39q17 17 39 17q29 0 45 -19q17 -20 17 -52q0 -34 -22 -68q-23 -35 -54 -54q-9 -6 -17 -6q-9 0 -16 7t-7 16q0 13 11 21q34 25 34 48v4z" />
    <glyph glyph-name="quotedblleft" unicode="&#x201c;" horiz-adv-x="350" 
d="M109 605q14 -1 28 -15q13 -13 13 -34q1 -23 -15 -39t-39 -16q-28 0 -44 19q-17 20 -17 52q0 34 22 68q23 35 55 54q6 6 16 6t17 -7q8 -8 8 -16q0 -12 -11 -21q-35 -26 -35 -48v-4zM260 606q14 -1 28 -15q13 -13 13 -34q1 -23 -15 -39t-39 -16q-28 0 -44 19q-17 20 -17 52
q0 34 22 68q23 35 55 54q6 6 16 6t17 -7q8 -8 8 -16q0 -12 -11 -21q-35 -26 -35 -48v-4z" />
    <glyph glyph-name="quotedblright" unicode="&#x201d;" horiz-adv-x="352" 
d="M84 594q-17 1 -30 15q-13 13 -13 33q0 23 16 39q17 17 39 17q29 0 45 -19q17 -20 17 -51q0 -34 -22 -68q-23 -35 -54 -54l-17 -5q-9 0 -16 6t-7 17q0 12 11 21q34 25 34 48v4zM233 591q-17 1 -30 15q-13 13 -13 33q0 23 16 39q17 17 39 17q29 0 45 -19q17 -20 17 -51
q0 -34 -22 -68q-23 -35 -54 -54l-17 -5q-9 0 -16 6t-7 17q0 12 11 21q34 25 34 48v4z" />
    <glyph glyph-name="quotedblbase" unicode="&#x201e;" horiz-adv-x="351" 
d="M84 -2q-17 1 -30 15q-13 13 -13 34q0 23 16 39q17 17 39 17q29 0 45 -19q17 -20 17 -52q0 -34 -22 -68q-23 -35 -54 -54q-9 -6 -17 -6q-9 0 -16 7t-7 16q0 13 11 21q34 25 34 48v4zM231 -4q-16 1 -28 15q-11 13 -13 34q0 22 17 39t39 17q28 0 44 -19q17 -20 17 -52
q0 -34 -22 -68q-23 -35 -54 -54q-9 -6 -16 -6q-10 0 -17 7q-8 8 -8 16q0 12 11 21q35 26 35 48v4z" />
    <glyph glyph-name="dagger" unicode="&#x2020;" horiz-adv-x="515" 
d="M66 398q-17 0 -28 11q-11 10 -9 27q2 20 12 29t36 9h60t80 -1l-2 203q0 44 39 44q25 0 34 -10q9 -11 9 -42v-45t-1 -60t-1 -56.5v-33.5l152 1q38 0 38 -36q0 -21 -12 -30t-40 -9l-138 1q0 -43 0.5 -111t1.5 -162t1.5 -161.5t0.5 -109.5q0 -45 -40 -45q-41 0 -41 44v150
v150v123v123h-149z" />
    <glyph glyph-name="daggerdbl" unicode="&#x2021;" horiz-adv-x="515" 
d="M67 397q-17 0 -28 11t-9 29q1 18 12 27q10 9 36 9h55.5t83.5 -1l-2 207q0 40 40 40q23 0 32 -10q9 -11 9 -39v-42t-1 -58t-1 -58v-42l152 2q38 0 38 -36q0 -21 -12 -30t-40 -9l-138 2v-48t1 -78t1 -88v-76l150 2q38 0 38 -36q0 -21 -12 -30t-40 -9l-137 2v-34.5t1 -53.5
t1 -53.5v-34.5q0 -30 -9 -42t-32 -12q-22 0 -31 12t-9 38l1 180l-124 -1q-31 0 -46 9t-15 30q0 37 50 37l136 -2v33v33v113v113l-149 -2z" />
    <glyph glyph-name="bullet" unicode="&#x2022;" horiz-adv-x="338" 
d="M163 98q-62 0 -99 37q-38 38 -38 100q0 64 41 103q40 39 104 39q61 0 100 -40q39 -41 39 -102q0 -63 -40 -100t-105 -37h-2z" />
    <glyph glyph-name="ellipsis" unicode="&#x2026;" horiz-adv-x="617" 
d="M100 -4q-23 0 -38 16t-15 39t17 40q16 16 42 16q24 0 39 -16q15 -17 15 -40q0 -25 -17 -40t-44 -15h1zM305 -4q-23 0 -38 16t-15 39t17 40q16 16 42 16t41 -16q15 -17 15 -40q0 -25 -17 -40t-44 -15h-1zM512 -4q-23 0 -39 16t-16 39t17 40q16 16 42 16t41 -16
q15 -17 15 -40q0 -25 -17 -40t-44 -15h1z" />
    <glyph glyph-name="perthousand" unicode="&#x2030;" horiz-adv-x="1125" 
d="M535 657q7 13 20 18t26 -1q30 -16 10 -53q-6 -11 -63 -102q-57 -92 -90 -150q-26 -50 -66 -117l-31 -52t-13 -21l-95 -164q-8 -14 -21 -18q-14 -5 -27 3q-12 7 -15 20q-3 12 5 26l187 308l176 304zM28 489q0 76 36 132t107 56q66 0 107 -48q41 -49 41 -126
q0 -78 -43 -125q-44 -48 -106 -48q-56 0 -98 47q-42 46 -42 114zM169 616q-77 0 -77 -121q0 -43 20 -75t54 -32q39 0 62 30q23 31 23 86q0 50 -21 82q-21 31 -60 31zM451 150q0 75 36 129t108 54q67 0 108 -48q40 -47 40 -125q0 -76 -42 -124t-107 -48q-59 0 -101 47
q-42 46 -42 116v-1zM594 275q-41 0 -60 -34t-19 -85q0 -47 20 -79q19 -31 57 -31q40 0 63 29q22 28 21 81q-2 119 -80 119h-2zM791 149q0 75 36 129t108 54q67 0 108 -48q40 -47 40 -125q0 -76 -42 -124t-107 -48q-59 0 -101 47q-42 46 -42 116v-1zM937 274q-41 0 -60 -34
q-20 -35 -20 -85q0 -48 21 -79t58 -31q41 0 62 29t20 81q-5 119 -81 119z" />
    <glyph glyph-name="guilsinglleft" unicode="&#x2039;" horiz-adv-x="276" 
d="M117 238l105 -117q17 -17 17 -30q0 -10 -10 -19q-11 -9 -21 -9q-11 0 -28 14l-123 119q-21 22 -21 42t19 39q7 8 16 17l20 20l23.5 23l26.5 26l38 38q14 11 24 11t21 -9t11 -20q0 -12 -15 -28z" />
    <glyph glyph-name="guilsinglright" unicode="&#x203a;" horiz-adv-x="276" 
d="M54 355q-15 16 -15 27t11 20q10 9 21 9t25 -11l60 -60l39.5 -39.5t25.5 -26.5q19 -20 19 -38q0 -21 -22 -43l-123 -119q-15 -15 -28 -14q-11 0 -21 9t-10 20q0 14 16 30l105 117z" />
    <glyph glyph-name="fraction" unicode="&#x2044;" horiz-adv-x="433" 
d="M370 658q12 21 30 21q11 0 21 -8q9 -8 9 -20t-9 -27l-154 -255l-207 -354q-10 -19 -27 -19q-10 0 -21 8q-10 7 -10 21q0 11 9 26l360 607h-1z" />
    <glyph glyph-name="zerosuperior" unicode="&#x2070;" horiz-adv-x="365" 
d="M35 547q0 89 38 150q37 60 111 60q71 0 110 -53t39 -144q0 -89 -43 -139q-44 -51 -108 -51q-62 0 -105 48q-43 47 -43 128zM182 696q-47 0 -66 -42q-20 -43 -20 -103q0 -50 23 -87q22 -36 60 -36q40 0 66 36q25 35 25 95q0 59 -22 99t-64 40z" />
    <glyph glyph-name="foursuperior" unicode="&#x2074;" horiz-adv-x="338" 
d="M197 572q0 34 28 34q31 0 33 -26v-75h38q28 0 28 -26q0 -33 -26 -33h-40v-50q0 -26 -31 -27q-29 0 -29 27v49h-140q-17 0 -27 12q-10 11 -10 25q0 20 16 43l113 209q10 22 30 22q14 0 26 -9t12 -19q0 -5 -5 -18l-116 -207l101 1v68h-1z" />
    <glyph glyph-name="fivesuperior" unicode="&#x2075;" horiz-adv-x="322" 
d="M61 723q1 15 12 24q10 9 24 9h145q31 0 31 -31q0 -30 -33 -30l-122 1l-3 -21l-11 -73q32 17 61 17q57 0 90 -33t33 -85q0 -59 -36 -96t-98 -37q-54 0 -97 23q-26 15 -26 36q0 12 9 21t22 9q9 0 26 -10q35 -19 67 -19q29 0 50 18t21 48q0 29 -18 47t-49 18q-18 0 -46 -11
t-38 -11q-15 0 -25 10q-11 10 -9 27q0 1 9 60l8.5 51t5.5 36z" />
    <glyph glyph-name="sixsuperior" unicode="&#x2076;" horiz-adv-x="340" 
d="M185 697q-34 0 -61 -30q-26 -29 -28 -73v-10v-9q10 19 36 30q27 11 51 11q54 0 90 -30t36 -88q0 -57 -37 -93q-38 -36 -99 -36q-54 0 -89 32q-35 31 -42 90q-2 15 -3.5 31t-1.5 33q0 90 42 146t113 56q45 0 75 -14q21 -12 21 -31q0 -13 -7 -21q-8 -9 -19 -9q1 0 -24 5
q-27 8 -48 8zM169 566q-32 0 -51 -18t-19 -49t20 -49q19 -18 51 -18t52 19q21 19 21 51t-19 48q-20 16 -54 15z" />
    <glyph glyph-name="sevensuperior" unicode="&#x2077;" horiz-adv-x="309" 
d="M205 696h-30.5t-43.5 -1t-44.5 -1h-33.5q-32 0 -32 32q0 28 32 28h102h101q31 0 31 -30q0 -17 -18 -42q-72 -102 -108 -207q-8 -23 -24 -76q-7 -28 -33 -28q-38 0 -33 33q7 34 27 84q40 108 108 207z" />
    <glyph glyph-name="eightsuperior" unicode="&#x2078;" horiz-adv-x="341" 
d="M297 649q0 -58 -50 -81q29 -9 47 -30t18 -52q2 -59 -37 -89t-102 -30q-62 0 -101 30t-39 83q0 67 66 91q-19 7 -34 30q-15 22 -15 48q0 49 36 79t85 30q53 0 89 -30t36 -76zM173 540q-33 0 -54 -15t-21 -44q0 -27 20 -42q19 -15 51 -15q37 0 57 16q21 16 21 45
q0 26 -21 41t-52 15zM111 642q0 -23 17 -38q16 -15 42 -15t45 17q18 16 18 42q0 22 -18 36q-19 14 -45 14t-42 -15t-16 -40z" />
    <glyph glyph-name="ninesuperior" unicode="&#x2079;" horiz-adv-x="341" 
d="M153 431q40 0 64 30q24 31 23 86q-13 -17 -36 -29q-24 -12 -51 -12q-49 0 -87 32q-37 31 -37 90q0 56 40 92t97 36q68 0 104 -46q36 -47 36 -133q0 -109 -38 -159q-37 -49 -117 -49q-46 0 -85 17q-18 10 -18 33q0 11 8 21q7 9 20 9q7 0 25 -7q33 -11 54 -11h-2zM164 557
q31 0 51 19q21 19 21 51q0 30 -21 50q-22 20 -51 20q-31 0 -51 -19q-21 -20 -21 -51t20 -49q19 -17 53 -19z" />
    <glyph glyph-name="zeroinferior" unicode="&#x2080;" horiz-adv-x="365" 
d="M35 7q0 89 38 150q37 60 111 60q71 0 110 -53t39 -144q0 -89 -43 -139q-44 -51 -108 -51q-62 0 -105 48q-43 47 -43 128zM182 156q-47 0 -66 -42q-20 -43 -20 -103q0 -50 23 -87q22 -36 60 -36q40 0 66 36q25 35 25 95q0 59 -22 99t-64 40z" />
    <glyph glyph-name="oneinferior" unicode="&#x2081;" horiz-adv-x="253" 
d="M76 97q-10 -7 -21 -7q-10 0 -19 9t-9 20q0 13 17 27l79 56q18 12 32 12q10 0 20 -8q9 -8 9 -18v-110v-111v-111q0 -26 -31 -26q-32 0 -32 30q0 26 3 128t3 146q-9 -8 -22 -17.5t-30 -20.5z" />
    <glyph glyph-name="twoinferior" unicode="&#x2082;" horiz-adv-x="319" 
d="M150 154q-32 0 -60 -30q-14 -15 -30 -15q-12 0 -21 9t-9 23q0 17 24 37q43 38 94 38q56 2 93 -31q38 -33 38 -85v-9.5t-1 -9.5q-2 -9 -6 -18l-3.5 -8.5t-3.5 -6.5q-4 -8 -10 -15q-4 -5 -6 -8.5t-4 -5.5q-4 -6 -13 -15q-12 -12 -15 -14t-16 -15l-16 -16l-70 -67l104.5 1.5
t40.5 0.5q29 0 29 -30q0 -31 -33 -31h-65h-130q-15 0 -24 9t-9 24q0 22 24 45l99 97l19.5 19l13.5 13q10 10 21 27t11 32q0 23 -18 40q-17 16 -47 16z" />
    <glyph glyph-name="threeinferior" unicode="&#x2083;" horiz-adv-x="315" 
d="M214 -46q0 30 -21 45t-53 15h-24q-27 0 -27 30q0 12 15 27l39 39l25.5 25l19.5 19h-60h-62q-32 0 -32 29q0 30 29 30h66h117q30 0 30 -29q0 -17 -19 -36l-85 -87q44 -2 77 -30q33 -29 33 -76q0 -59 -37 -93q-38 -35 -99 -35q-58 0 -93 22q-25 16 -25 34q0 14 9 23t20 9
q10 0 29 -10q39 -18 61 -18q31 0 51 18t20 49h-4z" />
    <glyph glyph-name="fourinferior" unicode="&#x2084;" horiz-adv-x="338" 
d="M197 32q0 34 28 34q31 0 33 -26v-75h38q28 0 28 -26q0 -33 -26 -33h-40v-50q0 -26 -31 -27q-29 0 -29 27v49h-43h-55h-42q-17 0 -27 12q-10 11 -10 25q0 20 16 43l113 209q10 22 30 22q14 0 26 -9t12 -19q0 -5 -5 -18l-116 -207l101 1v68h-1z" />
    <glyph glyph-name="fiveinferior" unicode="&#x2085;" horiz-adv-x="322" 
d="M61 183q1 15 12 24q10 9 24 9h145q31 0 31 -31q0 -32 -33 -30l-122 1l-3 -21l-11 -73q32 17 61 17q57 0 90 -33t33 -85q0 -59 -36 -96t-98 -37q-54 0 -97 23q-26 15 -26 36q0 12 9 21t22 9q9 0 26 -10q35 -19 67 -19q29 0 50 18t21 48q0 29 -18 47t-49 18q-18 0 -46 -11
t-38 -11q-15 0 -25 10q-11 10 -9 27q0 1 9 60l8.5 51t5.5 36z" />
    <glyph glyph-name="sixinferior" unicode="&#x2086;" horiz-adv-x="340" 
d="M185 157q-34 0 -61 -30q-26 -29 -28 -73v-10v-9q10 19 36 30q27 11 51 11q54 0 90 -30t36 -88q0 -57 -37 -93q-38 -36 -99 -36q-54 0 -89 32q-35 31 -42 90q-2 15 -3.5 31t-1.5 33q0 90 42 146t113 56q45 0 75 -14q21 -12 21 -31q0 -13 -7 -21q-8 -9 -19 -9q1 0 -24 5
q-27 8 -48 8zM169 26q-32 0 -51 -18t-19 -49t20 -49q19 -18 51 -18t52 19q21 19 21 51t-19 48q-20 16 -54 15z" />
    <glyph glyph-name="seveninferior" unicode="&#x2087;" horiz-adv-x="309" 
d="M207 156h-30.5t-43.5 -1t-44.5 -1h-33.5q-32 0 -32 32q0 28 32 28h102h101q31 0 31 -30q0 -17 -18 -42q-72 -102 -108 -207q-7 -17 -13 -36t-12 -40q-7 -28 -33 -28q-38 0 -33 33q4 26 26 84q40 108 108 207z" />
    <glyph glyph-name="eightinferior" unicode="&#x2088;" horiz-adv-x="341" 
d="M297 108q0 -58 -50 -81q29 -9 47 -30t18 -52q2 -59 -37 -89t-102 -30q-62 0 -101 30t-39 82q0 68 66 92q-19 7 -34 30q-15 22 -15 48q0 50 36 80t85 30q53 0 89 -30t36 -76zM174 1q-33 0 -55 -15q-23 -15 -21 -45q0 -28 20 -43q19 -15 51 -15q37 0 57 16q21 16 21 45
q0 26 -21 41t-52 15v1zM113 103q0 -23 17 -38q16 -15 42 -15t45 17q18 16 18 42q0 22 -18 36q-19 14 -45 14t-42 -15q-17 -15 -17 -40v-1z" />
    <glyph glyph-name="nineinferior" unicode="&#x2089;" horiz-adv-x="341" 
d="M153 -109q40 0 64 30q24 31 23 86q-13 -17 -36 -29q-24 -12 -51 -12q-49 0 -87 32q-37 31 -37 90q0 56 40 92t97 36q68 0 104 -46q36 -47 36 -133q0 -109 -38 -159q-37 -49 -117 -49q-46 0 -85 17q-18 10 -18 33q0 11 8 21q7 9 20 9q7 0 25 -7q33 -11 54 -11h-2zM164 17
q31 0 51 19q21 19 21 51q0 30 -21 50q-22 20 -51 20q-31 0 -51 -19q-21 -20 -21 -51t20 -49q19 -17 53 -19z" />
    <glyph glyph-name="franc" unicode="&#x20a3;" horiz-adv-x="527" 
d="M39 119q-35 0 -35 32q0 35 38 35h57l2 292v25t-1 35t-1 35.5v26.5q0 20 3 38q8 38 45 38h58h111h130q32 0 45 -7q14 -8 14 -27q0 -22 -12 -31t-40 -9h-270v-69v-69v-81l211 1q35 0 35 -38q0 -36 -40 -36l-103 1q-104 0 -105 -1v-123h115q37 0 37 -31q0 -36 -41 -36h-111
v-71q0 -27 -8 -40q-8 -12 -33 -12q-42 0 -42 45v38v41h-59v-2z" />
    <glyph glyph-name="lira" unicode="&#x20a4;" horiz-adv-x="538" 
d="M90 235q-18 0 -27 9t-7 24q1 31 45 31h51v59h-49q-24 0 -33 6t-9 24t11 24q10 6 36 6h45v26.5t1 15.5q5 108 58 164q54 57 139 57q55 0 87 -21q23 -14 23 -36q0 -15 -10 -26q-11 -12 -24 -12q-10 0 -34 9t-43 9q-49 0 -82 -41t-33 -123v-21q16 1 42 1h63q43 0 43 -28
q0 -32 -40 -33h-108v-59h112q32 0 32 -30q0 -20 -10 -27t-36 -7h-99v-136q130 -37 165 -37q22 0 39 24q16 24 34 24q17 0 27 -10q10 -11 9 -27q-3 -43 -33 -64t-77 -21q-30 0 -127 24q-98 24 -114 24q-32 0 -48 -21q-1 -2 -2 -3.5t-3 -3.5t-3 -3.5t-2 -3.5q-2 -3 -6 -6
q-4 -2 -10 -4q-4 -1 -13 -1q-22 0 -30 23q-7 10 -4 32q9 28 33 46t53 21q3 1 15 1t15 -1l-1 124h-61v-2z" />
    <glyph glyph-name="Euro" unicode="&#x20ac;" horiz-adv-x="580" 
d="M513 661q29 -12 29 -39q0 -39 -34 -39q-9 0 -42 10t-68 10q-70 0 -120 -46q-51 -47 -75 -121q38 1 89.5 1h118.5q34 0 34 -32t-35 -32h-55h-88h-78q-1 -15 -1.5 -27t-0.5 -20v-30h212q33 0 33 -31q0 -34 -49 -34h-103t-82 1q43 -159 208 -159q28 0 67 12t49 12
q14 -2 23 -15q9 -14 9 -27q0 -29 -46 -45q-47 -17 -114 -15q-108 2 -184 64q-76 63 -97 177h-52q-41 0 -41 33q0 30 41 30h44q-1 5 -1 24q0 25 3 51h-38q-36 0 -36 30q0 33 40 33h46q28 114 108 180t177 65q58 0 111 -19z" />
    <glyph glyph-name="uni20B9" unicode="&#x20b9;" horiz-adv-x="528" 
d="M75 602q-18 0 -27 11q-9 10 -9 26q2 35 48 35h365q37 0 37 -33q0 -20 -11 -29t-39 -9h-116q59 -44 65 -111h66q35 0 35 -32q0 -19 -10 -28q-11 -9 -39 -9h-56q-12 -60 -54 -102t-106 -54l190 -199q19 -19 19 -36t-12 -27q-13 -11 -30 -11q-19 -1 -39 20l-217 239l-44 -1
q-39 0 -39 39q0 34 38 34h59q128 0 151 98h-226q-18 0 -27 11q-9 10 -9 26q1 34 49 34h121t96 -1q-4 51 -40 79q-36 29 -94 33h-96z" />
    <glyph glyph-name="uni20BA" unicode="&#x20ba;" horiz-adv-x="534" 
d="M218 250q-2 -110 0 -170q67 -1 120 32q52 33 72 84q10 22 20 32q9 9 27 8q44 -3 36 -50q-20 -73 -76 -120t-144 -64q-14 -2 -34.5 -3.5t-48.5 -1.5q-53 0 -53 45v180l-71 -24q-17 -5 -27 3q-11 7 -15 21q-4 28 37 43l77 26v65l-77 -26q-16 -6 -27 2t-14 21q-7 28 36 43
l83 28l1 213q0 41 44 41q18 0 29 -9t11 -25v-76v-115l117 40q35 11 44 -18q13 -32 -36 -48l-124 -42v-65l121 42q35 9 45 -19q9 -32 -37 -48z" />
    <glyph glyph-name="uni20BD" unicode="&#x20bd;" horiz-adv-x="614" 
d="M78 267q-38 0 -38 34q0 38 48 38h41l-2 256q0 40 17 60q16 19 63 21q37 1 67.5 1.5t55.5 0.5q111 0 176 -51t65 -150t-66 -154q-65 -55 -180 -55h-114v-84h162q39 0 39 -33q0 -39 -46 -39h-154v-74q0 -24 -9 -34t-32 -10q-42 0 -42 44v76h-53q-39 0 -39 35q0 37 45 37h47
v83h-51v-2zM211 338h117q79 1 121 33q42 31 42 105q0 129 -163 129q-79 0 -116 -3v-177z" />
    <glyph glyph-name="uni2113" unicode="&#x2113;" horiz-adv-x="434" 
d="M254 -7q-59 0 -99 39t-42 95q0 10 -3 36q-27 -11 -41 -11q-29 3 -29 35q0 10 8 20t21 11q19 3 40 15l-3 73q-8 98 -6 173q1 21 2.5 39.5t4.5 35.5q6 32 21 64q15 31 45 49t74 18q67 0 102 -47q34 -47 36 -117q1 -68 -35 -138q-37 -71 -94 -125q-15 -16 -37 -33
q-12 -9 -21.5 -15t-16.5 -10v-21q0 -50 19 -82q19 -33 61 -33q27 0 64 20q21 12 32 12q13 0 24 -11q10 -10 10 -24q0 -20 -16 -30q-56 -35 -117 -35zM167 466q0 -51 1 -98t3 -92q14 10 24 18.5t18 16.5t17.5 19t21.5 27q55 83 55 157q0 26 -4 45q-4 20 -21 40q-16 19 -43 19
q-39 0 -55 -45q-16 -44 -16 -106z" />
    <glyph glyph-name="trademark" unicode="&#x2122;" horiz-adv-x="670" 
d="M147 675h36h66q24 0 24 -22q0 -27 -25 -27h-77l1 -200v-24v-27q0 -28 -29 -28q-26 0 -24 26v178v77h-83q-22 0 -22 24q0 23 23 25l109 -1zM353 584l-26 -220q-3 -20 -25 -20q-11 0 -19 8q-8 7 -6 18q15 97 39 285q4 19 33 19q19 0 28 -24l79 -223l81 219q11 23 28 29h10
q14 0 22 -12l31 -244l6 -47q1 -28 -25 -28q-23 0 -24 22l-24 217l-76 -205q-12 -22 -32 -22q-11 0 -15 6q-5 6 -9 18z" />
    <glyph glyph-name="Omega" unicode="&#x2126;" horiz-adv-x="701" 
d="M83 -6q-42 0 -42 38q0 21 12 32q13 11 32 11h21t43 -1t42 -1h19q-70 46 -119 118q-50 74 -50 168q0 139 87 231q87 91 219 91q137 0 224 -89t86 -225q0 -90 -45 -165q-46 -76 -114 -125h57h53q27 0 39 -9t12 -30q0 -40 -46 -40h-89h-85q-20 0 -33 10t-13 30q0 27 25 49
q74 59 117 124t43 158q0 103 -65 171t-162 68q-100 0 -165 -68t-65 -180q0 -61 24 -113q24 -53 57 -87q34 -36 82 -72q27 -21 27 -45q0 -20 -13 -32q-14 -12 -37 -11z" />
    <glyph glyph-name="estimated" unicode="&#x212e;" horiz-adv-x="691" 
d="M190 292v-212q71 -50 153 -50q70 0 129 38q58 37 91 90q5 5 12 2l23 -16q1 -2 0 -6q-44 -65 -109 -105q-67 -41 -145 -41q-128 0 -213 94q-86 95 -86 225t86 224q85 93 213 93t215 -93t87 -225v-12q0 -5 -4 -5zM495 329v209q-69 51 -152 51q-85 0 -153 -53v-207h305z" />
    <glyph glyph-name="onethird" unicode="&#x2153;" horiz-adv-x="762" 
d="M505 658q12 21 29 21q11 0 21 -8q9 -8 9 -20q0 -9 -9 -27l-154 -255l-207 -354q-10 -19 -28 -19q-10 0 -20 8q-9 7 -9 21q0 11 9 26l360 607h-1zM662 121q0 30 -21 45t-53 15h-24q-27 0 -27 30q0 13 15 27l83 84h-78.5t-44.5 -1q-32 0 -32 29q0 30 29 30h65h60h58
q30 0 30 -28q0 -17 -19 -36l-85 -87q43 -2 75 -30q31 -29 33 -75q0 -61 -37 -95q-38 -35 -99 -35q-54 0 -94 23q-24 13 -24 34q0 13 9 21q10 8 20 8q9 0 29 -9q31 -17 61 -17q31 0 51 18t20 48v1zM80 563q-11 -6 -19 -6q-10 0 -19 9t-9 20q0 13 17 27l79 57q17 11 33 11
q10 0 20 -8q9 -8 9 -18v-54v-55v-221q0 -27 -32 -27q-13 0 -23 8q-9 7 -9 21q0 25 3 129q3 103 3 147q-33 -27 -52 -39z" />
    <glyph glyph-name="twothirds" unicode="&#x2154;" horiz-adv-x="802" 
d="M559 658q12 21 29 21q11 0 21 -8q9 -8 9 -20t-9 -27l-21 -35l-45 -74l-50.5 -83.5l-37.5 -63.5l-206 -354q-10 -19 -28 -19q-10 0 -20 8q-9 7 -9 21q0 13 9 27l360 607h-2zM701 121q0 30 -21 45t-53 15h-24q-27 0 -27 30q0 13 15 27l83 84h-78.5t-44.5 -1q-32 0 -32 29
q0 30 29 30h65h60h58q30 0 30 -28q0 -17 -19 -36l-85 -87q43 -2 75 -30q31 -29 33 -75q0 -61 -37 -95q-38 -35 -99 -35q-54 0 -94 23q-24 13 -24 34q0 13 9 21q10 8 20 8q9 0 29 -9q31 -17 61 -17q31 0 51 18t20 48v1zM156 624q-34 0 -60 -29q-14 -15 -31 -15q-12 0 -21 9
t-9 22q0 18 24 38q41 38 96 38t93 -32t38 -84v-9t-1 -9t-1.5 -8.5t-1.5 -7.5q-1 -7 -6 -16q-5 -10 -7 -13q-2 -2 -4 -5.5t-6 -8.5q-7 -8 -10 -13q-3 -4 -13 -13q-5 -5 -8 -7.5t-5 -4.5l-15 -15l-15 -15l-70 -66h42.5t48.5 1t39 1h15q13 0 21 -9q8 -10 8 -22q0 -31 -33 -31
h-31h-35h-131q-33 0 -33 33q0 22 24 45l99 97q24 22 33 33q5 5 10 12t10 15q11 17 11 32q0 23 -18 40q-17 16 -46 16z" />
    <glyph glyph-name="oneeighth" unicode="&#x215b;" horiz-adv-x="782" 
d="M510 658q12 21 30 21q11 0 21 -8q9 -8 9 -20t-9 -27l-154 -255l-207 -354q-10 -19 -27 -19q-10 0 -21 8q-10 7 -10 21q0 11 9 26l360 607h-1zM727 277q0 -60 -50 -80q30 -9 47 -31q18 -23 18 -52q2 -59 -37 -90q-38 -31 -102 -31q-62 0 -101 30t-39 82q0 67 66 91
q-19 7 -34 30q-15 22 -15 48q0 50 36 80t85 30q53 0 89 -30t36 -76zM603 167q-33 0 -54 -15t-21 -44q0 -27 20 -42q19 -15 51 -15q37 0 57 16q21 16 21 45q0 27 -21 42t-52 15zM541 269q0 -22 17 -37q16 -15 42 -15q28 0 45 16q18 16 18 42q0 22 -18 36q-19 14 -45 14
t-42 -15t-16 -40zM83 557q-11 -6 -18 -6q-10 0 -19 9t-9 20q0 13 17 27l79 57q17 11 33 11q10 0 20 -8q9 -8 9 -18v-54v-55v-221q0 -27 -31 -27q-33 0 -33 30q0 25 3 129q3 103 3 147q-33 -27 -52 -39z" />
    <glyph glyph-name="threeeighths" unicode="&#x215c;" horiz-adv-x="812" 
d="M550 658q12 21 30 21q11 0 21 -8q9 -8 9 -20t-9 -27l-154 -255l-207 -354q-10 -19 -27 -19q-10 0 -21 8q-10 7 -10 21q0 11 9 26l360 607h-1zM751 277q0 -60 -50 -80q28 -9 46 -31q18 -23 18 -52q1 -59 -36 -90t-101 -31q-62 0 -101 30t-39 82q0 67 66 91q-19 7 -34 30
q-15 22 -15 48q0 50 36 80t85 30q53 0 89 -30t36 -76v-1zM629 167q-33 0 -55 -15t-22 -44q0 -27 20 -42q19 -15 51 -15q37 0 57 16q21 16 21 45q0 27 -21 42t-52 15zM566 269q1 -22 18 -37q16 -15 42 -15q28 0 45 16q18 16 18 42q0 22 -18 36q-19 14 -45 14t-42 -15
q-17 -15 -17 -40zM222 417q0 30 -21 45t-54 15h-24q-27 0 -27 30q0 13 15 28l83 83h-78.5t-44.5 -1q-33 0 -33 29q0 30 29 30h66h60h60q30 0 30 -27q0 -19 -19 -35l-85 -88q43 -1 76 -30t33 -75q0 -61 -37 -95q-38 -35 -99 -35q-55 0 -93 23q-24 13 -24 33q0 13 9 22t19 9
q11 0 29 -9q34 -18 61 -18q31 0 51 18t20 48h-2z" />
    <glyph glyph-name="fiveeighths" unicode="&#x215d;" horiz-adv-x="812" 
d="M552 658q12 21 29 21q11 0 21 -8q9 -8 9 -20q0 -9 -9 -27l-154 -255l-207 -354q-10 -19 -28 -19q-10 0 -20 8q-9 7 -9 21q0 11 9 26l360 607h-1zM753 277q0 -59 -50 -80q28 -9 46 -31q18 -23 18 -52q2 -59 -37 -90q-38 -31 -102 -31q-62 0 -101 30t-39 82q0 65 66 91
q-19 7 -34 30q-15 22 -15 48q0 50 36 80t85 30q52 0 90 -30q37 -30 37 -76v-1zM627 167q-32 0 -54 -15t-22 -44q0 -27 20 -42q19 -15 53 -15q37 0 57 16q21 16 21 45q0 27 -21 42t-52 15zM565 269q1 -22 18 -37q16 -15 42 -15q28 0 45 16q18 16 18 42q0 22 -18 36
q-19 14 -45 14t-42 -15q-17 -15 -17 -40zM66 649q2 14 12 23t24 9h145q30 0 30 -31q0 -30 -32 -30l-123 2l-3 -21l-11 -73q31 16 62 16q57 0 90 -33t33 -84q0 -59 -36 -96t-98 -37q-56 0 -96 24q-27 13 -27 36q0 11 9 20t22 9q10 0 27 -9q35 -20 66 -20q29 0 50 18t21 48
q0 29 -18 47t-49 18q-18 0 -46 -11t-38 -11q-15 0 -25 9q-11 9 -9 26q1 4 3 19.5t7 43.5t8 49l5 35z" />
    <glyph glyph-name="seveneighths" unicode="&#x215e;" horiz-adv-x="782" 
d="M502 658q12 21 29 21q11 0 21 -8q9 -8 9 -20t-9 -27l-21 -35l-45 -74l-50.5 -83.5l-37.5 -63.5l-206 -354q-10 -19 -28 -19q-10 0 -20 8q-9 7 -9 21q0 13 9 27l360 607h-2zM722 277q0 -60 -50 -80q28 -9 46 -31q18 -23 18 -52q1 -59 -36 -90t-101 -31q-62 0 -101 30
t-39 82q0 67 66 91q-19 7 -34 30q-15 22 -15 48q0 50 36 80t85 30q53 0 89 -30t36 -76v-1zM600 167q-33 0 -55 -15t-22 -44q0 -27 20 -42q19 -15 51 -15q37 0 57 16q21 16 21 45q0 27 -21 42t-52 15zM537 269q1 -22 18 -37q16 -15 42 -15q28 0 45 16q18 16 18 42
q0 22 -18 36q-19 14 -45 14t-42 -15q-17 -15 -17 -40zM218 617h-29t-44 -1t-45.5 -1h-33.5q-32 0 -32 31q0 29 33 29h203q30 0 30 -29q0 -16 -17 -42q-69 -98 -109 -207q-7 -18 -24 -77q-8 -27 -33 -27q-16 0 -25 9q-9 8 -7 25q3 15 9.5 36t16.5 48q45 115 108 207z" />
    <glyph glyph-name="arrowleft" unicode="&#x2190;" horiz-adv-x="709" 
d="M40 240q0 26 18 44l184 176q9 9 23 9q16 0 27 -11q10 -10 10 -27q0 -11 -19 -30l-139 -128l492 3q35 0 35 -36q0 -37 -35 -37l-263 1l-227 3l142 -128q20 -17 20 -31q0 -17 -12 -27q-13 -11 -28 -11q-12 0 -23 10l-186 175q-19 16 -19 45z" />
    <glyph glyph-name="arrowup" unicode="&#x2191;" horiz-adv-x="536" 
d="M268 684q24 0 48 -24l171 -183q10 -11 10 -23q0 -17 -10 -27t-27 -10q-14 0 -30 19l-127 140l1 -542q0 -38 -36 -38t-36 37l3 543l-130 -154q-15 -17 -31 -17q-15 0 -26 11t-11 27q0 10 11 24l176 198q17 20 45 20z" />
    <glyph glyph-name="arrowright" unicode="&#x2192;" horiz-adv-x="709" 
d="M669 242q0 -28 -20 -45l-189 -181q-11 -9 -21 -9q-15 0 -28 11q-12 10 -12 27q0 16 19 31l145 132l-226 -2l-264 -1q-34 0 -34 36t34 36l492 -2l-143 132q-19 16 -19 29q0 17 10 27q11 11 27 11t23 -10l188 -179q19 -20 19 -45z" />
    <glyph glyph-name="arrowdown" unicode="&#x2193;" horiz-adv-x="536" 
d="M271 -5q-28 0 -45 20l-180 201q-11 14 -11 24q0 16 11 27t27 11q14 0 31 -18l132 -156l-3 543q0 36 37 36q36 0 36 -38l-1 -542l129 142q18 20 30 20q17 0 27 -10q11 -11 11 -27q0 -14 -11 -23l-173 -186q-24 -24 -49 -24h2z" />
    <glyph glyph-name="partialdiff" unicode="&#x2202;" horiz-adv-x="551" 
d="M229 640q-27 7 -27 33q0 25 19 35t48 3q102 -27 174 -118q72 -92 71 -237q2 -81 -15 -149q-21 -103 -86 -159q-64 -55 -159 -55q-89 0 -147 55q-59 56 -59 142q0 99 67 173q68 75 169 78q48 2 89 -21t62 -66q3 105 -52 185q-55 81 -151 103zM285 369q-65 1 -113 -47
t-48 -117q-1 -60 35 -100q36 -39 90 -39q63 0 111 42t56 107q7 61 -29 107q-36 45 -99 45z" />
    <glyph glyph-name="Delta" unicode="&#x2206;" horiz-adv-x="628" 
d="M62 -4q-18 0 -31 11q-12 10 -12 30q0 12 15 47l23 55.5l25 57.5l23 52.5t18 40.5t12 27t5 12l128 318q12 31 47 31t49 -32l148 -373l84 -196q12 -26 12 -42q0 -15 -10 -25t-28 -10zM116 70h195h201l-195 499z" />
    <glyph glyph-name="product" unicode="&#x220f;" horiz-adv-x="561" 
d="M312 608l-150 -1v-63q0 -97 1 -244t3 -346q0 -50 -44 -50q-39 0 -39 46v234v234v93v93q-2 77 66 77q69 -1 133.5 -1.5t127.5 -0.5q31 0 48 -20t17 -54v-61q0 -26 0.5 -87t1.5 -159q2 -197 3 -344q0 -49 -44 -49q-39 0 -39 46v234v233l-1 189z" />
    <glyph glyph-name="summation" unicode="&#x2211;" horiz-adv-x="537" 
d="M83 562l-6 9q-5 6 -6 9l-6 9q-5 6 -6 10q-2 6 -3 10l-3 12q-1 4 -1 12q2 20 16 32q14 11 38 13h41.5t24.5 -1q26 0 64 0.5t88 1.5t80.5 1.5t42.5 0.5q48 0 48 -37q1 -36 -31 -37h-158h-159l199 -257q26 -27 27 -55q0 -5 -2 -15l-3 -12q-2 -6 -7 -12l-7 -10t-9 -12
q-7 -8 -7 -10l-196 -255q91 0 291 3h18h17q36 0 36 -36q0 -19 -11 -30t-39 -11h-297q-62 0 -84 11q-21 10 -21 45q0 29 39 73l204 271z" />
    <glyph glyph-name="minus" unicode="&#x2212;" horiz-adv-x="485" 
d="M66 230q-33 0 -33 38t44 38h66h84h191q34 0 34 -36q0 -20 -12 -29q-11 -8 -39 -10h-335v-1z" />
    <glyph glyph-name="uni2215" unicode="&#x2215;" horiz-adv-x="433" 
d="M368 658q12 21 30 21q11 0 21 -8q9 -8 9 -20t-9 -27l-154 -255l-207 -354q-10 -19 -27 -19q-10 0 -21 8q-10 7 -10 21q0 11 9 26l360 607h-1z" />
    <glyph glyph-name="uni2219" unicode="&#x2219;" horiz-adv-x="206" 
d="M100 184q-23 0 -38 16t-15 39t17 40q16 16 42 16q24 0 39 -16q15 -17 15 -40q0 -25 -17 -40t-44 -15h1z" />
    <glyph glyph-name="radical" unicode="&#x221a;" horiz-adv-x="628" 
d="M71 369q-22 -6 -37 3q-14 9 -16 32q-2 31 39 42l87 20q29 8 42 -1q14 -10 26 -40l88.5 -234l36.5 -95l10.5 30t15.5 48t16 49.5t12 33.5l128 388q14 41 42 41q17 1 30 -8q12 -9 12 -26q0 -7 -14 -49l-122 -343l-69 -193q-15 -40 -27 -53q-12 -14 -35 -14q-26 0 -36 12
q-11 13 -23 44l-132 331z" />
    <glyph glyph-name="infinity" unicode="&#x221e;" horiz-adv-x="714" 
d="M194 448q94 0 157 -114q63 122 162 122q79 1 126 -51q47 -53 47 -129q0 -80 -45 -132q-45 -53 -120 -53q-88 0 -171 119q-64 -115 -162 -115q-69 0 -115 51q-46 50 -46 124q0 75 48 126t120 51zM508 386q-36 -2 -69 -33q-33 -32 -57 -79q14 -22 30 -41t34 -36
q36 -33 68 -33q46 0 72 30q26 31 26 77q0 50 -27 83t-76 32h-1zM188 165q39 0 72 33q32 32 54 74q-59 105 -125 105q-39 0 -67 -30q-28 -29 -28 -77q0 -47 26 -76q25 -28 71 -28z" />
    <glyph glyph-name="integral" unicode="&#x222b;" horiz-adv-x="329" 
d="M247 693q17 2 29 -10t12 -30q0 -35 -33 -35h-11t-13 1q-14 2 -26 0q-29 -2 -39 -46q-11 -45 -3 -120q6 -53 39 -195q34 -145 35 -201q0 -77 -28 -126q-13 -25 -45 -43t-69 -18q-19 0 -34 9q-14 9 -16 26q-1 20 8 33q9 12 24 12q2 0 6.5 -0.5t10.5 -1.5t11 -1.5t10 -0.5
q28 0 39 30q10 30 3 103q-8 48 -17.5 98t-20.5 102t-18 90t-11 62t-6 46.5t-2 42.5q0 40 18 78q18 37 45 57q29 22 50 29t51 6z" />
    <glyph glyph-name="approxequal" unicode="&#x2248;" horiz-adv-x="485" 
d="M112 327q-15 -23 -38 -23q-16 0 -25 13q-9 14 -5 30q12 34 44 57t75 23q34 0 60 -15l48 -30q22 -14 48 -16q35 0 51 34q12 23 37 23q15 0 24 -11t8 -26q-25 -88 -114 -88q-42 2 -85 31t-70 31q-37 0 -57 -32zM108 137q-2 -2 -3 -4q-2 -4 -3 -5l-4 -4l-4 -4q-2 -2 -4 -3
l-6 -3q-2 -1 -6 -1h-8q-16 0 -25 13t-6 28q12 37 42 59q31 23 76 23q43 0 87 -30q43 -29 72 -31q37 0 53 34q13 22 36 22q16 0 27 -12q10 -12 9 -25q-21 -86 -117 -86q-37 0 -83 29q-45 28 -72 30q-37 0 -57 -29z" />
    <glyph glyph-name="notequal" unicode="&#x2260;" horiz-adv-x="485" 
d="M224 123l-20 -58q-11 -27 -30 -27q-12 0 -22 8q-9 7 -9 21q0 2 3 14l16 43h-96q-33 0 -33 38t44 38l112 -1l50 135h-173q-33 0 -33 38q0 37 44 37h189l23 64q10 24 30 24q10 0 21 -6q10 -6 10 -17q0 -6 -6 -24l-15 -40h89q34 0 34 -37t-50 -39h-100l-49 -135h165
q34 0 34 -36q0 -20 -12 -29q-11 -8 -39 -10z" />
    <glyph glyph-name="lessequal" unicode="&#x2264;" horiz-adv-x="485" 
d="M69 0q-33 0 -33 37q0 36 44 36h66h84h111h78q34 0 34 -35q0 -20 -12 -29t-39 -9h-334h1zM425 510l-32.5 -16.5l-57.5 -29.5l-68 -34.5l-65 -32.5l-53.5 -27t-34.5 -19l66.5 -33l101.5 -47q118 -54 153 -72q14 -9 14 -24q0 -18 -10 -29q-11 -12 -27 -11q-12 0 -26 8
l-318 159q-33 18 -33 50q0 28 32 48q40 24 309 165q16 10 30 10q15 -2 24 -13q9 -12 9 -28t-14 -24z" />
    <glyph glyph-name="greaterequal" unicode="&#x2265;" horiz-adv-x="485" 
d="M83 0q-27 0 -39 9t-12 29q0 35 34 35h78h111h84h66q44 0 44 -36q0 -37 -33 -37h-333zM63 511q-14 8 -14 24t9 28q9 11 24 13q14 0 30 -10q268 -141 309 -165q32 -20 32 -48q0 -32 -33 -50l-318 -158q-14 -9 -27 -9q-16 -1 -27 11q-10 11 -10 29q0 15 14 24l54 26l97 45
l101.5 47l66.5 33q-18 10 -60.5 32l-111.5 57l-138 70z" />
    <glyph glyph-name="star" unicode="&#x22c6;" horiz-adv-x="536" 
d="M470 344q15 1 24 -6q9 -8 9 -20q0 -14 -21 -30q-8 -5 -22 -15t-36 -24l-60 -39l38 -76.5t33 -70.5q3 -9 3 -12q0 -14 -10 -23q-11 -9 -21 -9q-9 0 -17 5q-11 9 -26.5 23.5l-36.5 34.5l-36 33.5l-24 21.5q-17 -14 -48 -45l-27 -26.5t-18 -16.5q-2 -2 -5 -4.5t-7 -5.5
t-6 -5l-4 -4q-4 -4 -7 -6q-2 -2 -4 -2.5t-4 -1.5t-7 -1q-14 0 -24 9t-10 22q0 2 2 12q12 28 36 78q24 49 33 69q0 2 -3 7l-57 36l-35 22.5t-30 18.5q-13 9 -13 22q0 11 8 21q8 9 18 8q5 0 20.5 -1t41.5 -3t45.5 -3t32.5 -1q6 0 15 30q9 29 18 71q5 20 7.5 32t3.5 15
q8 26 30 26q28 0 31 -23l18 -84l9.5 -44.5l4.5 -21.5q41 1 76 3t64 5z" />
    <glyph glyph-name="triagup" unicode="&#x25b2;" horiz-adv-x="456" 
d="M178 410q1 1 3 5q1 2 3 4l3 3l3 3l3 3l4 2q2 2 5 2h6h7q22 0 33 -20q19 -32 51 -93q31 -62 48 -87l8.5 -14.5l9.5 -16.5t9.5 -15.5t7.5 -11.5t6.5 -10t7.5 -12t6.5 -12l4.5 -9t4 -7.5t4 -7.5q4 -7 6 -14q2 -8 2 -11q0 -15 -11 -26t-26 -11q-7 0 -16 3t-15 6t-15 9
q-11 7 -13 8q-44 27 -93 27h-9t-9 -1l-15 -2q-6 -2 -15 -6q-8 -4 -14 -6t-16 -7t-16 -7q-6 -4 -16 -9q-6 -3 -10.5 -5.5t-8.5 -4.5q-6 -4 -18 -7q-11 -3 -19 -3q-17 0 -27 12q-10 11 -10 26q0 10 7 23l51 98q30 52 93 204z" />
    <glyph glyph-name="triagrt" unicode="&#x25ba;" horiz-adv-x="442" 
d="M386 280q3 -3 7 -6t7 -6l4 -6q3 -5 3 -9v-12q0 -23 -19 -33q-5 -4 -23.5 -14.5l-50.5 -28.5q-63 -36 -93 -57q-113 -79 -145 -79q-16 0 -26 12q-11 13 -11 27q0 7 3 16t6 15q3 7 10 16l9 14q29 49 29 97q0 13 -3 27q-2 7 -3 12t-2 8q-2 7 -12 26q-5 10 -8 15.5t-4 7.5
q-2 3 -9 17l-9 19q-3 7 -6 18q-3 10 -3 20q0 16 11 27q10 10 24 10q8 0 21 -7l103 -52q78 -47 189 -93z" />
    <glyph glyph-name="triagdn" unicode="&#x25bc;" horiz-adv-x="444" 
d="M177 78q-48 115 -93 195l-51 98q-7 13 -7 23q0 15 10 26q10 12 27 12q14 0 23 -4q12 -5 29 -15q19 -11 20 -12q6 -2 16 -7t16 -7t14 -6q9 -5 15 -6l15 -2q5 -1 9 -1h9q49 0 93 27q4 1 14 8q9 6 15 9t15 6t16 3q15 0 26 -11t11 -26q0 -7 -1 -11q-2 -7 -6 -14
q-2 -4 -3.5 -7.5t-3.5 -7.5l-4.5 -9t-6.5 -12q-8 -15 -13 -22l-7 -11.5t-9 -15.5l-9.5 -16.5l-8.5 -14.5l-97 -172q-11 -20 -33 -20q-7 0 -10 1q-6 2 -7 2q-3 0 -6 3q-2 2 -2.5 3t-1.5 2l-4 6l-4 6h-5z" />
    <glyph glyph-name="triaglf" unicode="&#x25c4;" horiz-adv-x="442" 
d="M54 276q118 51 192 93l101 52q13 7 21 7q14 0 24 -10q11 -11 11 -27q0 -13 -3 -23q-4 -13 -13 -29q-11 -19 -12 -20l-9 -19l-5 -11.5t-4 -7.5t-3.5 -7l-3.5 -9q-4 -10 -6 -20q-1 -5 -1 -10v-10q0 -48 29 -97l9 -13q7 -9 10 -16q3 -6 6 -15t3 -16q0 -16 -11 -27t-24 -11
q-16 0 -65 29q-24 14 -43.5 26.5l-35.5 23.5l-23 16t-26 16l-29 16.5l-32 18.5q-35 19 -57 33q-19 10 -19 33v12q0 4 3 9l4 6q3 3 7 6t7 6z" />
    <glyph glyph-name="lozenge" unicode="&#x25ca;" horiz-adv-x="529" 
d="M49 391l79 126.5t61 105.5q16 32 32 48q14 14 38 16q25 0 38 -11t35 -48l149 -248q11 -30 11 -34q0 -14 -11 -39q-12 -22 -50 -85.5l-103 -170.5l-8.5 -15t-5.5 -9q-2 -5 -12 -16q-8 -10 -18 -13q-9 -3 -22 -3q-23 0 -36 12q-13 11 -30 41l-133 219q-2 2 -4 6t-6 9
q-6 9 -10 18q-3 8 -6 19q-3 12 -3 23q1 23 18 49h-3zM415 343l-154 268l-156 -271l156 -266z" />
    <glyph glyph-name="uni261A" unicode="&#x261a;" horiz-adv-x="1031" 
d="M971 409v-58v-58v-46.5t1 -64.5t1 -64.5v-46.5v-12.5t-1 -10.5q-2 -10 -7 -15l-9 -9q-3 -3 -16 -4q-7 -1 -11.5 -1.5t-6.5 -0.5h-24q-10 -1 -24 -1h-34h-7h-20.5t-13.5 1q-12 2 -21 7q-11 6 -14 18t-3 34q-59 -2 -148 -25q-98 -27 -193 -27q-21 0 -40 3q-18 3 -41 11
q-20 7 -34 24q-13 16 -13 39q0 13 6 21q-26 6 -42 25t-16 45q0 20 16 27q-22 7 -39 23q-16 15 -16 36q0 31 13 40h-57t-42 1q-97 1 -97 66q0 8 2 18q1 7 8 14l10 10q3 3 14 7q5 2 8.5 2.5t5.5 1.5q6 2 17 2h17h19h17q151 0 270 -3q-23 7 -39 30q-16 22 -16 39q0 28 17 47
q16 18 44 18q15 0 23 -6q99 -68 160 -99q12 -6 26 -12t31 -11q57 -22 123 -25q7 30 55 30h22.5t31.5 -1t31.5 -1h21.5q11 0 25 -9q13 -9 13 -21z" />
    <glyph glyph-name="uni261B" unicode="&#x261b;" horiz-adv-x="1031" 
d="M51 416q0 12 13 21t25 9q9 0 22.5 0.5t31.5 1.5t31.5 1.5t21.5 0.5q47 0 55 -30q66 3 123 25q17 5 31 11t26 12q61 31 160 99q7 6 23 6q27 0 44 -18q17 -19 17 -46q0 -17 -16 -39q-17 -23 -39 -30q118 3 271 3h15h16h15q12 0 15 -1q4 -1 14 -3q9 -2 13 -4l11 -7
q6 -5 9 -10q4 -8 5 -13q1 -4 1.5 -7.5t0.5 -8.5q0 -65 -97 -66q-17 -1 -42 -1h-57q13 -9 13 -40q0 -21 -16 -36q-17 -16 -39 -23q16 -7 16 -27q0 -26 -16 -45t-42 -25q6 -8 6 -21q0 -23 -13 -39q-14 -17 -34 -24q-11 -4 -21 -6l-20 -4q-20 -3 -40 -3q-96 0 -193 27
q-89 23 -148 25q0 -41 -14 -50t-57 -9h-3h-3h-34t-24 1q-50 1 -60 9q-14 11 -14 47v46.5t1 64.5t1 64.5v46.5v58v58z" />
    <glyph glyph-name="uni261C" unicode="&#x261c;" horiz-adv-x="1031" 
d="M972 406v-58v-58v-46.5t1 -64.5t1 -64.5v-46.5v-12.5t-1 -10.5q-2 -10 -7 -15l-9 -9q-3 -3 -16 -4q-7 -1 -11.5 -1.5t-6.5 -0.5h-24q-10 -1 -24 -1h-34h-7h-20.5t-13.5 1q-12 2 -21 7q-11 6 -14 18t-3 34q-59 -2 -148 -25q-99 -28 -222 -28q-20 0 -39 3q-17 3 -39 11
q-20 8 -32 24t-12 39q0 13 5 21q-27 6 -41 25q-15 19 -15 45q0 19 15 27q-55 19 -55 57q0 22 12 30h-39q-7 0 -16 0.5t-21 1.5q-23 1 -37 6q-13 4 -29 14q-14 8 -22 23q-7 13 -7 33q0 28 21 43t42 18t53 3q45 0 131 -3q43 -2 70.5 -2.5t40.5 -1.5q-29 17 -29 60q0 28 17 50
q16 21 42 21q14 0 24 -5l103 -60t60 -33q12 -6 26 -12t31 -11q66 -25 123 -28q5 17 18 23t38 6h22.5t31.5 -1t31.5 -1h22.5q12 0 24 -9t12 -21zM306 75q0 -7 5 -12q4 -4 13 -7q5 -2 9 -2.5t9 -1.5t10 -1.5t11 -0.5h20h18h12q68 0 117 11q18 4 63 15l42.5 9.5t36.5 7.5
q34 6 63 6q19 0 24 -1q6 7 6 102v134v31q-33 4 -69.5 13t-76.5 24q-87 31 -204 109q-26 -2 -26 -30q0 -20 12 -36q11 -15 24 -25q12 -9 33 -21l6 -4q-12 -6 -33 -6q-22 0 -56 0.5t-81 1.5t-81 1.5t-56 0.5h-21h-27q-5 0 -10 -0.5t-12 -1.5q-12 -1 -19 -8q-6 -6 -6 -16
q0 -18 11 -27q10 -8 21 -10q5 -1 12.5 -1h17.5h276q7 0 12 -4q6 -5 6 -10q0 -16 -17 -16q-26 -1 -57 -1.5t-69 -0.5h-18.5t-12.5 -1q-10 -1 -19 -9t-9 -24q0 -10 8 -16q8 -7 25 -8q9 -1 15.5 -1.5t11.5 -0.5h32h48h49q15 0 15 -13q0 -17 -15 -17h-24t-28 -1t-27.5 -1h-23.5
q-42 0 -42 -32q0 -26 68 -26q11 0 24 0.5t27 1.5t24.5 1.5t17.5 0.5q22 0 22 -18q0 -4 -3 -7q-2 -2 -9 -4q-8 -2 -10 -2h-13h-13q-7 -1 -13.5 -1h-13.5h-19q-19 -1 -28 -9t-9 -27z" />
    <glyph glyph-name="uni261E" unicode="&#x261e;" horiz-adv-x="1031" 
d="M52 415q0 12 12 21t24 9q8 0 21.5 0.5t32.5 1.5t32.5 1.5t21.5 0.5q24 0 38 -6t18 -22q57 3 123 28q17 5 31 11t26 12q20 10 60 33l103 60q10 5 24 5q25 0 42 -21q17 -22 17 -49q0 -43 -29 -60q13 1 40.5 2t70.5 3q85 3 131 3h21.5t17.5 -1t16.5 -2.5t18.5 -4.5
q20 -6 30 -19t10 -35q0 -20 -7 -33t-22 -22q-13 -8 -29 -13q-14 -5 -37 -6q-12 -1 -21 -1.5t-16 -0.5h-39q12 -8 12 -30q0 -38 -55 -57q15 -8 15 -27q0 -26 -15 -45q-14 -19 -41 -25q5 -8 5 -21q0 -23 -12 -39t-32 -24q-22 -8 -39 -11q-20 -3 -39 -3q-123 0 -222 28
q-89 23 -148 25q0 -41 -14 -50t-57 -9h-3h-3h-34t-24 1q-50 1 -60 9q-14 11 -14 47v46.5t1 64.5t1 64.5v46.5v58v58zM707 86q0 19 -9 27t-28 9h-19q-7 0 -13.5 0.5t-13.5 1.5h-13h-13q-2 0 -10 2q-5 1 -9 5q-3 3 -3 7q0 18 22 18h17.5t24.5 -1t27 -1h24q68 0 68 26
q0 32 -42 32q-11 0 -23.5 0.5t-27.5 1.5t-28 1.5t-24 0.5q-15 0 -15 17q0 13 15 13h48h49h32q5 0 11.5 0.5t15.5 1.5q17 1 25 8q8 6 8 17q0 16 -9 24t-19 9q-5 1 -12.5 1.5t-18.5 0.5q-38 0 -69 0.5t-57 1.5q-17 0 -17 16q0 6 6 11q7 5 12 5h276q10 0 17.5 0.5t12.5 1.5
q10 1 21 11q11 9 11 27q0 10 -6 16q-7 7 -19 8q-7 1 -12 1.5t-10 0.5h-27h-21q-23 0 -57 -0.5t-80 -1.5t-80 -1.5t-57 -0.5q-21 0 -33 6q47 28 61 45q13 17 13 41q0 28 -26 30q-117 -78 -204 -109q-40 -15 -76.5 -24t-69.5 -13v-31v-134q0 -95 6 -102q5 1 24 1q28 0 63 -6
q17 -3 36.5 -7.5l42.5 -9.5q45 -11 63 -15q49 -11 117 -11h12h18h20q6 0 11 0.5t10 1.5t9 2t9 3q7 2 13 8q5 5 5 12z" />
    <glyph glyph-name="smileface" unicode="&#x263a;" horiz-adv-x="757" 
d="M380 685q136 0 231 -96q95 -97 95 -242q0 -153 -91 -254q-92 -102 -235 -102q-131 0 -231 93t-100 238q0 162 99 263t233 101zM658 346q-2 128 -82 210q-81 82 -204 82q-122 0 -198 -87q-77 -88 -77 -220q0 -127 86 -210q85 -82 204 -82q115 0 193 92q78 91 78 213v2z
M230 310q16 0 21 -24q6 -46 44 -73q37 -27 89 -27q53 0 85 28t43 72q4 24 21 24q26 0 26 -20v-3q-12 -68 -60 -108q-47 -40 -114 -40q-71 0 -123 42q-53 42 -56 108q0 21 25 21h-1zM280 389q-18 0 -30 12t-12 32t14 32q13 12 33 12t32 -13q12 -14 12 -33t-14 -30t-35 -11v-1
zM473 389q-18 0 -30 12t-12 32t14 32q13 12 33 12t32 -13q12 -14 12 -33t-14 -30t-35 -11v-1z" />
    <glyph glyph-name="heart" unicode="&#x2665;" horiz-adv-x="607" 
d="M426 471q60 0 96 -33t36 -89q0 -38 -27 -81t-61 -76l-35 -36l-38 -42t-34 -43t-24 -37q-14 -26 -32 -26q-20 0 -32 26q-14 28 -53 68q-40 39 -77 71q-36 30 -67 77q-30 45 -30 86q0 57 39 93t90 36q91 0 126 -80q36 88 124 88z" />
    </font>
</defs>
</svg>
