<?xml version="1.0" standalone="no"?>
<!DOCTYPE svg PUBLIC "-//W3C//DTD SVG 1.1//EN" "http://www.w3.org/Graphics/SVG/1.1/DTD/svg11.dtd" >
<svg>
<metadata>
Created by FontForge 20090622 at Tue Jun  7 08:40:35 2016
 By deploy user
Copyright 2014 by Joel Carrouche. All rights reserved.
</metadata>
<defs>
<font id="r0c0iLinotte-Bold" horiz-adv-x="577" >
  <font-face 
    font-family="r0c0i Linotte"
    font-weight="700"
    font-stretch="normal"
    units-per-em="1000"
    panose-1="0 0 0 0 0 0 0 0 0 0"
    ascent="757"
    descent="-243"
    x-height="462"
    cap-height="683"
    bbox="-95 -243 1135 1141.8"
    underline-thickness="50"
    underline-position="-50"
    unicode-range="U+000D-U+1F426"
  />
<missing-glyph horiz-adv-x="668" 
d="M80 680h508v-680h-508v680zM125 45h418v590h-418v-590z" />
    <glyph glyph-name="f_f" unicode="ff" horiz-adv-x="706" 
d="M249 332v-105v-175q0 -65 -65 -65q-68 0 -68 62v135v101.5t-1 44.5h-41q-35 0 -52 14q-16 13 -16 47q0 25 15 42t44 17l50 1v51q1 100 54 163q52 63 162 63q75 0 75 -65q0 -24 -12 -39t-31 -15h-9t-12 1t-12 1h-8q-35 0 -54 -30q-20 -31 -20 -71v-56h183q0 23 1 44t3 39
q4 36 18 75q14 40 36 65t63 42q42 17 96 17q38 0 68 -18q21 -14 21 -51q0 -20 -13 -36q-14 -17 -31 -17q-11 0 -30 3q-21 3 -31 2q-19 0 -33 -11t-21 -24q-8 -14 -12 -39q-4 -23 -4 -43v-46h83q57 0 57 -57q0 -35 -15 -48q-16 -14 -49 -14h-76v-106v-177q0 -61 -65 -61
q-68 0 -68 61v20v40v83v142z" />
    <glyph glyph-name="fi" unicode="fi" horiz-adv-x="602" 
d="M403 457q52 3 78 0q31 -5 47 -25q16 -21 15 -54q-1 -20 -1 -100.5v-223.5q0 -29 -18 -45q-18 -17 -49 -18q-68 -2 -68 60v283h-33h-126v-139v-144q0 -60 -66 -60q-68 0 -68 58v134v152h-39q-37 0 -54 14q-17 13 -18 45q-1 27 15 43t45 16l50 1v27q3 113 60 182t182 69
q51 0 96 -20q34 -17 33 -54q0 -20 -15 -38t-36 -18q-14 0 -44 6t-49 6q-42 0 -67 -27t-27 -71v-18v-22v-18q60 0 98 0.5t55 1.5z" />
    <glyph glyph-name="fl" unicode="fl" horiz-adv-x="639" 
d="M245 334v-192v-45v-48q0 -28 -18 -43t-46 -15q-69 0 -69 59l1 89v90v106h-47q-32 0 -48 14q-14 13 -16 44q0 26 17 45q16 18 45 18h49v39q0 106 67 170q68 65 193 65q133 0 168 -21q13 -8 24 -27q10 -19 10 -40v-63.5t-1 -84.5t-1 -90.5v-81.5v-145q0 -11 0.5 -26
t1.5 -35t1.5 -34t0.5 -23q-2 -32 -16 -46t-51 -19q-38 -3 -57 18q-20 21 -21 75q-2 57 -2.5 186.5t1.5 335.5q-23 3 -78 3q-50 0 -78 -33q-29 -34 -29 -79v-41h75q59 0 59 -58q1 -28 -12 -46q-14 -18 -42 -17z" />
    <glyph glyph-name="f_f_i" unicode="ffi" horiz-adv-x="917" 
d="M713 459h48h25q36 0 54 -22q18 -23 17 -57q-1 -31 -1.5 -111.5t-0.5 -212.5q0 -60 -65 -62q-29 -2 -48 12q-20 14 -20 47v283h-160v-142v-142q0 -60 -66 -60q-68 0 -68 58v286h-183v-132.5t1 -146.5q0 -31 -16 -48q-17 -18 -48 -18q-69 0 -69 62v36.5t1 98.5q2 129 0 146
h-40q-35 0 -52 14q-16 13 -16 47q0 25 15 42t44 17h50v52q1 98 53 162q51 63 161 63q76 0 76 -65q0 -24 -12 -39t-31 -15h-10t-12 1t-11.5 1h-7.5q-34 0 -55 -30t-21 -71v-56h183v37q1 108 60 174q58 66 180 66q55 0 94 -18q32 -17 32 -57q-2 -21 -15 -39q-14 -18 -34 -18
q-14 0 -42 6q-29 6 -48 6q-43 0 -68 -28q-26 -29 -26 -72v-56q25 0 63 0.5t89 1.5v-1z" />
    <glyph glyph-name="f_f_l" unicode="ffl" horiz-adv-x="946" 
d="M556 335v-135t1 -146q0 -62 -65 -62q-68 0 -68 58v179t-1 106h-90h-91q-2 -30 0 -117q1 -44 1 -84v-77q0 -64 -65 -64q-68 0 -68 61v281h-41q-35 0 -52 14q-16 13 -16 47q0 37 26 48q27 11 84 11v50q1 98 53 160q51 61 161 61q75 0 75 -63q0 -24 -12 -40t-31 -16h-9
t-11 1t-10.5 1h-7.5q-22 0 -36 -10t-22 -24t-12 -37q-2 -12 -3 -22t-1 -18v-43h180v44q0 102 69 167q70 65 193 65q40 0 68 -1t45 -3q33 -5 51 -15q14 -8 23 -27q9 -20 9 -42q-1 -155 -1.5 -268t-0.5 -188q0 -10 0.5 -24t1.5 -34q1 -39 0 -58q-2 -30 -6 -42q-12 -35 -60 -35
q-37 0 -57 23q-19 22 -19 81q-5 157 0 510q-24 3 -76 3q-50 0 -78 -31t-28 -79v-43h73q31 0 45 -15q13 -15 15 -42q1 -27 -12 -45q-14 -18 -42 -18z" />
    <glyph glyph-name="f_f_j" unicode="ffj" horiz-adv-x="920" 
d="M561 336v-142v-142q0 -60 -66 -60q-68 0 -68 58v286h-183v-132.5t1 -146.5q0 -31 -16 -48q-17 -18 -48 -18q-69 0 -69 62v36.5t1 98.5q2 129 0 146h-40q-35 0 -52 14q-16 13 -16 47q0 25 15 42q15 16 44 16l50 1v52q1 98 53 162q51 63 161 63q76 0 76 -65q0 -24 -12 -39
t-31 -15h-10t-12 1t-11.5 1h-7.5q-34 0 -55 -30t-21 -71v-56h183v37q1 108 60 174q58 66 180 66q55 0 94 -17q33 -15 32 -57q0 -20 -14 -39q-14 -18 -35 -18q-7 0 -17.5 1.5l-24.5 3.5t-26 3.5t-22 1.5q-43 0 -68 -28q-26 -29 -26 -72v-56q26 0 64 0.5t89 1.5h36h13
q54 0 75 -26t21 -89l-1 -383q0 -98 -48 -147q-48 -50 -135 -50q-48 0 -78 15t-30 58q0 40 29 57q14 6 27 5q7 0 22 -3q13 -3 25 -1q34 1 45 30q10 28 9 90v323z" />
    <glyph glyph-name="f_j" unicode="fj" horiz-adv-x="609" 
d="M410 461q52 3 78 0q62 -9 62 -82l-1 -415q0 -98 -48 -147q-48 -50 -135 -50q-50 0 -78 15q-29 15 -29 58q0 41 28 57q17 6 28 5q6 0 21 -3q14 -3 26 -1q34 1 45 30q10 28 9 90v323h-166v-142v-142q0 -60 -66 -60q-68 0 -68 58v134v152h-39q-37 0 -54 14q-17 13 -18 45
q0 17 6 29q6 11 14 18q7 6 24 9q16 3 29 3h35v40q1 105 62 172q60 66 171 65q69 0 101 -17t32 -57q0 -25 -14 -42q-13 -16 -38 -16q-7 0 -17 1.5l-24 3.5l-25 3.5t-21 1.5q-40 0 -67 -30q-26 -29 -28 -76v-50q64 0 104.5 0.5t57.5 1.5z" />
    <glyph glyph-name=".notdef" horiz-adv-x="668" 
d="M80 680h508v-680h-508v680zM125 45h418v590h-418v-590z" />
    <glyph glyph-name="NULL" horiz-adv-x="0" 
 />
    <glyph glyph-name="nonmarkingreturn" unicode="&#xd;" horiz-adv-x="250" 
 />
    <glyph glyph-name="space" unicode=" " horiz-adv-x="243" 
 />
    <glyph glyph-name="exclam" unicode="!" horiz-adv-x="258" 
d="M55 620q-1 31 18 49t54 18q40 0 57 -20t15 -65q-2 -155 -15 -333q-4 -52 -57 -52q-47 0 -52 53l-9 131zM127 -6q-31 0 -53 20q-21 19 -21 51q0 31 23 56q22 24 54 24q35 0 56 -21t21 -54q0 -36 -22 -57q-23 -21 -58 -21v2z" />
    <glyph glyph-name="quotedbl" unicode="&#x22;" horiz-adv-x="372" 
d="M39 659q-1 25 14 42t48 17q23 0 40 -15q16 -15 16 -37q0 -27 -3 -84t-3 -59q-5 -51 -52 -51q-22 0 -36 11q-14 10 -15 30q-4 84 -9 145v1zM217 671q0 23 18 35t43 12q24 0 41 -14t15 -35l-9 -144q-3 -52 -51 -52q-50 0 -51 39q-4 51 -5.5 90.5t-1.5 68.5h1z" />
    <glyph glyph-name="numbersign" unicode="#" horiz-adv-x="636" 
d="M328 151h-96l-14 -92q-9 -62 -65 -62q-29 0 -44 17q-15 16 -10 47l14 90h-47q-47 0 -45 57q0 55 58 55h52l22 133h-49q-50 0 -48 57q1 27 18 42q16 15 45 15h53l18 111q10 64 64 64q26 0 41 -15q15 -16 11 -41l-19 -119l99 -1l19 114q11 62 63 62q26 0 41 -15t11 -42
l-19 -120h58q50 0 50 -58q0 -55 -60 -55h-65l-20 -133h58q47 0 47 -58q-2 -54 -62 -54h-60l-14 -92q-9 -62 -62 -62q-30 0 -45 17q-15 16 -10 47zM249 263h97l21 133h-98z" />
    <glyph glyph-name="dollar" unicode="$" horiz-adv-x="536" 
d="M220 718q-2 25 12 39q13 13 36 13q52 0 52 -48v-54q67 -8 117 -33q35 -17 35 -57q0 -20 -16 -39q-17 -20 -39 -20q-16 0 -55 14q-42 19 -90 19q-38 0 -66 -22q-29 -23 -29 -54t29 -46q28 -15 87 -27q97 -20 149 -63q53 -44 53 -129q0 -80 -46 -132q-47 -53 -124 -69v-60
q2 -26 -14 -38q-15 -12 -38 -12q-52 0 -52 44v60q-87 6 -141 37q-44 24 -44 63q0 27 18 47t41 20q24 0 51 -12q64 -30 116 -30q42 0 71 22q30 22 30 57q2 32 -27 50q-30 19 -79 29q-97 21 -153 62q-55 40 -55 119q0 73 49 126q50 55 124 71v54z" />
    <glyph glyph-name="percent" unicode="%" horiz-adv-x="809" 
d="M522 642q13 22 33 30q19 7 42 -3q45 -27 19 -72q-8 -14 -66 -105q-59 -92 -87 -141l-39 -69l-39 -66l-15 -24.5t-8 -13.5l-95 -160q-10 -17 -33 -22q-22 -4 -39 5q-18 10 -24 30q-6 19 6 42l177 281l170 293zM21 483q0 83 41 138q40 54 114 54q72 0 114 -50t42 -132
q0 -80 -45 -128t-111 -48q-62 0 -108 46t-46 121zM175 584q-59 0 -59 -94q0 -37 15 -61t42 -24q28 0 45 27q16 26 16 66q0 87 -58 87zM465 156q0 83 41 135q40 51 116 51q74 0 117 -49t43 -132q0 -81 -45 -129t-114 -48q-64 0 -111 47q-46 46 -46 123zM620 258
q-59 0 -59 -100q0 -41 15 -63q15 -23 42 -23q29 0 46 24t15 65q0 97 -58 97h-1z" />
    <glyph glyph-name="ampersand" unicode="&#x26;" horiz-adv-x="669" 
d="M410 619q0 -21 -15 -39t-36 -18q-15 0 -33 7q-26 8 -45 8q-31 0 -51 -19q-21 -20 -21 -51q0 -25 12 -49q11 -23 21 -34l12 -12.5l18 -18.5q40 -42 86 -85.5t100 -89.5q8 18 8 27q1 27 -9 51q-11 25 -33 32q-48 12 -48 55q0 52 61 52h29h27q11 0 23 0.5t26 1.5t24 1.5
t16 0.5q58 0 58 -49q0 -41 -31 -50q-26 -8 -63 -9q14 -11 23 -38t9 -53q0 -50 -24 -99l60 -42q28 -19 28 -47q0 -23 -16 -42t-39 -19q-34 0 -57 19q-19 12 -52 39q-77 -60 -189 -60q-106 0 -180 59q-73 58 -73 155q0 112 102 177q-45 63 -45 127q0 73 53 128q52 54 140 54
q59 0 95 -21q30 -18 30 -50zM291 110q53 0 85 26q-69 63 -156 153q-12 12 -15 16q-43 -34 -43 -93q0 -43 37 -73t93 -30z" />
    <glyph glyph-name="quotesingle" unicode="'" horiz-adv-x="209" 
d="M41 664q1 55 64 55q25 0 42 -15t17 -42q0 -25 -1.5 -58.5t-5.5 -77.5q-4 -55 -57 -55q-22 0 -36 14q-14 13 -15 36q-5 79 -6 141z" />
    <glyph glyph-name="parenleft" unicode="(" horiz-adv-x="308" 
d="M172 682q16 22 30 33q13 10 35 10q23 0 41 -18q17 -18 19 -40q0 -13 -7 -26q-31 -52 -51 -98q-10 -22 -19 -52t-18 -68q-18 -77 -18 -159q0 -74 17 -148q8 -36 17 -64.5t18 -50.5q18 -44 48 -102q12 -29 12 -37q0 -22 -20 -39t-44 -17q-23 0 -37 11q-13 10 -30 41
q-117 198 -117 404q2 235 126 422z" />
    <glyph glyph-name="parenright" unicode=")" horiz-adv-x="309" 
d="M134 683q124 -193 124 -423q1 -205 -116 -404q-18 -30 -31 -40t-37 -10q-23 0 -43 17q-19 16 -19 39q0 16 12 37q30 58 48 102q9 22 18 50.5t17 64.5q17 74 17 148q0 117 -29 206q-29 87 -78 171q-6 16 -6 27q2 24 19 41q18 18 41 18q22 0 35 -10q13 -11 30 -33z" />
    <glyph glyph-name="asterisk" unicode="*" horiz-adv-x="371" 
d="M63 498q-39 6 -39 43q0 19 15 30t35 6l75 -20l-2 81q-2 18 11 29t32 11t30 -10q12 -11 11 -28l-3 -83l72 26q18 8 33 -4t15 -33q0 -34 -29 -40l-70 -19l55 -66q10 -13 10 -27q0 -16 -13 -26q-14 -11 -30 -11q-10 0 -18 5q-8 4 -12 9q-4 4 -12 17l-43 66l-38 -64
q-18 -32 -44 -32q-15 0 -28 11q-12 10 -12 24q0 16 9 30l49 66z" />
    <glyph glyph-name="plus" unicode="+" horiz-adv-x="495" 
d="M68 210q-29 0 -42 18t-12 46q1 51 57 51h62h61v45v61v38q0 27 17 42q16 15 41 15q55 0 55 -57v-64v-80q37 0 67.5 0.5t55.5 1.5q54 0 54 -57q0 -24 -14 -40q-13 -14 -41 -16h-124v-52v-54v-36q0 -51 -61 -51q-26 2 -39 16t-13 39v137h-125z" />
    <glyph glyph-name="comma" unicode="," horiz-adv-x="233" 
d="M29 -74q0 8 6 19t16 22t15 20q8 15 2 21q-7 7 -18 22q-12 16 -12 36q0 32 22 54t54 22q35 0 58 -22q24 -23 24 -57q0 -91 -91 -157q-17 -13 -38 -13q-12 0 -25 11q-12 10 -12 26z" />
    <glyph glyph-name="hyphen" unicode="-" horiz-adv-x="364" 
d="M90 178q-30 0 -45 18t-15 44q0 30 16 47q16 18 48 18h179q58 0 58 -63q0 -31 -18 -47q-19 -17 -53 -17h-85h-82h-3z" />
    <glyph glyph-name="period" unicode="." horiz-adv-x="233" 
d="M110 -7q-33 0 -55 21t-22 56q0 34 24 57q25 23 60 23q34 0 57 -21t23 -56q0 -36 -24 -58q-23 -22 -61 -22h-2z" />
    <glyph glyph-name="slash" unicode="/" horiz-adv-x="407" 
d="M262 670q16 43 57 43q23 0 45 -16t22 -37q0 -18 -11 -48l-238 -598q-14 -42 -51 -42q-23 0 -45 15q-23 15 -23 37q0 16 9 42l238 604h-3z" />
    <glyph glyph-name="zero" unicode="0" horiz-adv-x="628" 
d="M43 314q0 163 71 267t201 104q126 0 198 -94q72 -95 72 -256q0 -160 -78 -250t-193 -90q-114 0 -192 86q-78 85 -78 233h-1zM313 558q-137 0 -137 -239q0 -86 36 -143t96 -57q64 0 102 57q38 58 38 155q0 100 -34 164q-35 65 -99 65z" />
    <glyph glyph-name="one" unicode="1" horiz-adv-x="429" 
d="M127 450q-19 -11 -39 -11q-22 0 -40 21t-18 44q0 32 37 59l84 59l50 34q34 22 53 23q23 4 45 -5q33 -17 33 -51v-93v-94v-387q0 -26 -21 -41t-49 -15t-48 17q-19 16 -19 48q0 14 0.5 49t1.5 91t1.5 101t0.5 80v65v63l-38 -31t-34 -25v-1z" />
    <glyph glyph-name="two" unicode="2" horiz-adv-x="550" 
d="M254 553q-48 0 -96 -48q-26 -26 -60 -26q-25 0 -43 19t-18 46q0 41 52 80q70 59 162 61q103 1 175 -57q72 -59 72 -156q0 -17 -3 -33q-3 -15 -6 -28q-3 -12 -12 -27q-5 -8 -8 -13.5t-5 -10.5q-5 -9 -18 -24q-13 -14 -19 -22t-24 -24q-9 -8 -15 -14l-9 -9t-9.5 -9
l-17.5 -16q-20 -19 -28 -25l-100 -89q43 -2 153 0h16h33h30q26 0 42 -19q17 -20 17 -46q0 -35 -18 -51t-49 -15h-115q-54 0 -110.5 0.5t-116.5 1.5q-32 0 -51 21q-19 20 -19 54q0 46 47 93q4 3 15 12.5t29 26.5l36 33l35 32l30.5 29l24.5 24l18 18l18 18q2 2 6 6.5l9 10.5
l15 18q4 6 12 15q9 10 11 15q2 3 3.5 6.5l3.5 8.5q5 9 6 16q2 10 2 15q0 36 -28 60q-29 24 -72 24z" />
    <glyph glyph-name="three" unicode="3" horiz-adv-x="544" 
d="M361 217q0 48 -35 69t-89 21h-19t-18 -1q-26 0 -42 19t-16 46q0 32 28 57q61 55 131 125q-21 -1 -95 -3q-37 -1 -60 -1h-33q-67 0 -67 63q0 27 15 45t47 18h48h67h42t59 1t59.5 1h42.5q30 0 46 -16t16 -43q0 -35 -33 -66l-141 -141q76 -6 129 -55q55 -50 56 -130
q2 -113 -67 -174q-69 -62 -181 -63q-88 -1 -166 42q-47 26 -47 66q0 28 18 48t41 20q25 0 60 -19q52 -28 93 -28q49 0 81 27q31 27 31 76z" />
    <glyph glyph-name="four" unicode="4" horiz-adv-x="584" 
d="M332 350q0 68 60 68q34 0 48 -13q16 -14 17 -42v-115l56 1q58 0 58 -59q0 -69 -55 -69h-58v-40.5t-1 -34.5q-2 -57 -63 -57q-63 -2 -63 57v78h-118h-117q-32 0 -50 24t-18 53q0 46 27 90l76 135l117 216q22 42 65 42q27 0 51 -18t24 -40q0 -20 -10 -36q-12 -23 -30 -54.5
l-41 -70.5l-38 -64.5t-22 -36.5l-63 -114l147 2l1 104v-6z" />
    <glyph glyph-name="five" unicode="5" horiz-adv-x="554" 
d="M88 609q4 29 26 49q20 19 50 19h252q64 0 64 -64q0 -65 -68 -63l-200 3l-6 -33l-16 -104q14 10 44 17q32 8 53 8q100 0 162 -57t62 -150q0 -107 -66 -174q-66 -68 -181 -68q-100 0 -177 41q-26 15 -37 30q-10 14 -10 38q0 26 19 46q19 21 46 21q17 0 46 -15
q58 -30 114 -30q47 0 77 27t30 75q0 42 -29 68t-77 26q-30 0 -72 -16t-63 -16q-32 0 -56 21t-20 51q5 40 18 125l12 76l8 52z" />
    <glyph glyph-name="six" unicode="6" horiz-adv-x="585" 
d="M324 559q-52 0 -91 -41q-38 -40 -43 -102v-12v-14q19 24 59 39q39 15 74 15q97 0 162 -54t65 -159q0 -106 -68 -172t-180 -66q-99 0 -163 56q-63 55 -81 162q-9 49 -9 116q0 157 77 258t203 101q80 0 138 -26q44 -20 44 -63q0 -26 -16 -45t-42 -19q-6 0 -45 10
q-50 15 -82 15zM300 331q-51 0 -81 -27q-29 -27 -31 -78q-1 -46 32 -76t80 -30q49 0 82 30t33 82q0 47 -31 72q-32 26 -82 26z" />
    <glyph glyph-name="seven" unicode="7" horiz-adv-x="530" 
d="M195 553h-26t-33 -1t-31 -1h-21q-64 0 -64 67q0 29 18 44t47 15h358q32 0 47 -17t15 -44q0 -34 -31 -80q-32 -48 -60.5 -95.5t-54.5 -95.5q-50 -94 -70 -159q-17 -47 -39 -129q-8 -33 -22 -47q-15 -15 -51 -15q-74 0 -71 67q1 6 1.5 12t2.5 12t4 13t4 15t4 15t4 12
q4 13 12 35l8.5 21t5.5 16q57 162 181 343h-68h-68z" />
    <glyph glyph-name="eight" unicode="8" horiz-adv-x="588" 
d="M526 499q0 -47 -24 -86q-24 -38 -63 -55q48 -14 78 -52q29 -38 31 -90q1 -108 -68 -165t-184 -57q-112 0 -184 54t-72 149q0 56 31 99q32 44 82 60q-32 12 -57 51q-26 40 -26 84q0 90 68 144q67 54 158 54q97 0 165 -54t68 -138zM295 300q-50 2 -84 -25t-33 -73
q2 -43 31 -65q31 -23 80 -23q55 0 87 26q31 25 31 72q-2 40 -33 66q-31 25 -78 25zM203 484q1 -36 26 -57q24 -21 65 -21q42 0 68 24t26 63q-2 32 -28 54q-28 23 -66 23t-66 -23q-27 -23 -27 -62z" />
    <glyph glyph-name="nine" unicode="9" horiz-adv-x="590" 
d="M266 129q59 0 98 42t39 120q-23 -26 -60 -42q-36 -16 -78 -16q-92 0 -159 57t-67 163q0 102 73 168t180 66q126 0 189 -85q63 -86 63 -234q0 -196 -67 -285q-68 -90 -216 -90q-87 0 -151 33q-39 21 -39 64q0 25 17 47q16 21 42 21q21 0 49 -11q51 -19 87 -19v1zM285 350
q48 0 82 29q33 28 33 77q0 47 -33 77t-79 30q-45 0 -78 -30t-33 -79q0 -47 30 -74q29 -26 79 -28z" />
    <glyph glyph-name="colon" unicode=":" horiz-adv-x="233" 
d="M110 306q-33 0 -55 21t-22 56q0 34 24 57q25 23 60 23q34 0 57 -21t23 -56q0 -36 -24 -58q-23 -22 -61 -22h-2zM108 -7q-33 0 -55 21t-22 56q0 34 24 57q25 23 60 23q34 0 57 -21t23 -56q0 -36 -24 -58q-23 -22 -61 -22h-2z" />
    <glyph glyph-name="semicolon" unicode=";" horiz-adv-x="233" 
d="M33 -72q0 9 6 18t15 21q10 13 14 20q8 15 2 21q-7 7 -18 22q-12 16 -12 36q0 31 23 54q22 22 54 22q35 0 57 -22q23 -23 23 -57q0 -91 -91 -157q-17 -13 -38 -13q-12 0 -25 11q-12 10 -12 26zM113 303q-33 0 -55 22t-22 55q0 34 24 57q25 23 60 23q34 0 57 -21t23 -56
q0 -36 -24 -58q-23 -22 -61 -22h-2z" />
    <glyph glyph-name="less" unicode="&#x3c;" horiz-adv-x="495" 
d="M431 409q-14 -8 -47.5 -25.5l-87.5 -45.5l-88 -45.5t-48 -25.5q11 -6 47 -23l96 -46q122 -58 143 -72q17 -15 17 -33q0 -21 -15 -40t-36 -19q-24 0 -41 10l-293 155q-47 23 -47 69q0 43 48 72q21 13 92 51l194 102q20 11 39 11q21 0 36 -19q15 -20 15 -42q0 -19 -23 -34
h-1z" />
    <glyph glyph-name="equal" unicode="=" horiz-adv-x="495" 
d="M80 315q-27 0 -40 18q-13 17 -13 44q0 26 17 41q16 15 47 15h53h76h108h86q54 0 54 -61q0 -57 -58 -58q-13 -1 -36 -1h-57h-147h-90v2zM80 105q-27 0 -40 19t-13 43q0 25 17 42q16 16 47 16h53h76h108h86q54 0 54 -61q0 -56 -58 -59h-330z" />
    <glyph glyph-name="greater" unicode="&#x3e;" horiz-adv-x="495" 
d="M61 406q-23 15 -23 34q0 22 15 42t36 20q19 0 39 -11l194 -102t92 -51q48 -29 48 -72q0 -46 -47 -69l-293 -155q-17 -10 -41 -10q-21 0 -36 20q-15 19 -15 41q0 18 17 33q21 14 143 72l96 46t47 23q-14 8 -48 25.5l-88 45.5l-87.5 45.5t-47.5 25.5z" />
    <glyph glyph-name="question" unicode="?" horiz-adv-x="490" 
d="M29 573q0 34 36 57q79 57 168 57q94 0 159 -57q64 -57 64 -142q0 -59 -36 -96q-37 -38 -94 -69q-45 -26 -45 -57q0 -8 1 -10t1 -11q0 -24 -17 -39t-45 -15q-33 0 -54 24t-21 64q0 67 75 111q65 38 81 55q19 20 19 44q0 34 -25 55q-26 21 -63 21q-43 0 -84 -31
q-35 -23 -58 -23q-21 0 -40 21q-19 20 -19 42zM138 61q0 32 23 53q22 21 59 21q34 0 57 -21q22 -21 22 -52q0 -35 -24 -54q-23 -19 -58 -19t-57 19t-22 54v-1z" />
    <glyph glyph-name="at" unicode="@" horiz-adv-x="943" 
d="M666 167q-4 -35 5 -59q9 -23 35 -23q41 0 62 54t21 144q0 113 -81 185t-217 72q-143 0 -240 -108q-97 -107 -97 -265q0 -121 83 -204q82 -82 212 -84q72 0 147 29q25 9 39 9q19 0 34 -18t15 -39q0 -29 -28 -44q-86 -45 -202 -45q-172 0 -290 111q-119 111 -119 282
q0 131 57 239q57 109 162 173q106 65 239 65q175 0 288 -105t113 -249q0 -149 -55 -225t-156 -76q-42 0 -75 24q-32 24 -40 63q-15 -30 -52 -51q-38 -21 -78 -21q-78 0 -130 50q-51 49 -51 123q0 94 54 159t150 65q30 0 59 -15q28 -15 45 -38q2 7 4 13l4 12q13 25 48 25
q29 0 42 -16q14 -17 11 -42l-8 -64zM477 294q-44 0 -70 -32q-25 -31 -25 -78q0 -37 23 -62q22 -24 57 -24q47 0 71 33t24 83q0 37 -24 60q-25 23 -57 23z" />
    <glyph glyph-name="A" unicode="A" horiz-adv-x="659" 
d="M17 61q0 23 17 63q64 141 93 216l120 294q9 23 30 35t47 12q64 0 84 -50l36 -89.5l92 -231.5q4 -6 8 -17t8 -17l46.5 -114l28.5 -68q11 -27 11 -42q0 -22 -22 -40q-23 -18 -54 -18q-49 0 -65 43l-46 118q-10 1 -48.5 1h-107.5h-93l-43 -114q-20 -47 -60 -47q-34 0 -57 16
q-24 16 -24 51zM326 513l-87 -249q49 0 91.5 0.5t79.5 1.5q-5 12 -39 114l-28.5 84.5t-16.5 49.5v-1z" />
    <glyph glyph-name="B" unicode="B" horiz-adv-x="611" 
d="M313 683q98 0 163 -54q64 -54 64 -136q0 -50 -25 -87q-26 -38 -64 -54q55 -14 89 -52q35 -40 35 -96q0 -92 -49 -142q-50 -51 -135 -60q-25 -2 -68 -3.5t-106 -1.5l-82 1q-28 0 -46 18q-17 17 -19 53l1 143l1 166v48t-1 66t-1 66v47q0 29 15 47q16 19 40 23q46 6 189 6z
M207 283l2 -165q8 -1 36 -1h79q50 2 81 22q31 21 31 63q0 83 -114 83zM406 486q0 36 -27 57q-26 20 -69 22h-30h-44h-29v-172q25 0 51 0.5t54 1.5q43 0 69 24t26 68z" />
    <glyph glyph-name="C" unicode="C" horiz-adv-x="610" 
d="M520 658q55 -24 54 -66q-2 -30 -16 -47q-15 -18 -43 -18q-20 2 -50 15q-53 21 -102 21q-75 0 -130 -64q-56 -65 -57 -165q-1 -91 57 -151q58 -59 135 -61q54 0 110 27q35 18 51 17q26 0 41 -22q15 -23 14 -51q-1 -39 -73 -70q-72 -32 -156 -30q-129 1 -225 93
q-96 91 -94 243q2 107 52 190q51 84 126 126q74 42 158 40q88 0 147 -27h1z" />
    <glyph glyph-name="D" unicode="D" horiz-adv-x="686" 
d="M68 604q0 78 121 78h54h50q151 -1 255 -86q103 -84 103 -233q0 -359 -382 -362q-60 0 -95 0.5t-46 1.5q-21 3 -40 23q-18 19 -18 45l1 210l-2 322zM284 558h-44.5t-30.5 -1v-407q0 -12 5 -17q4 -5 12 -6q5 -1 25 -1h10q250 0 250 225q0 103 -65 156q-64 52 -162 52v-1z
" />
    <glyph glyph-name="E" unicode="E" horiz-adv-x="550" 
d="M77 619q1 15 4 26t14 19q21 15 54 15h40h88t81 1t60 1h25q29 0 44 -15q14 -15 16 -40q2 -51 -36 -62q-21 -3 -222 -3h-35v-69l-2 -91v-7h32q42 0 79 0.5t69 1.5q39 0 57 -12t17 -49q-1 -58 -60 -58h-194q-1 -8 -1 -22v-34v-102q60 0 108 0.5t84 1.5h33h29q54 0 54 -60
q0 -63 -62 -65h-274q-60 0 -82 13t-25 54q-2 19 0 33v13t1 32q1 42 3 114q1 36 1 69v64v116v114v1z" />
    <glyph glyph-name="F" unicode="F" horiz-adv-x="534" 
d="M72 485l-3 119q-1 31 18 52t48 21h50h150t75 1q9 1 21 1h28q22 0 37 -15t15 -40q0 -62 -52 -65h-54h-192v-85v-96h83l131 2q24 2 39 -16t15 -46q0 -62 -64 -62h-63h-63h-80v-80l1 -117q0 -65 -67 -65q-39 0 -55 16t-16 54v32v41v47v47z" />
    <glyph glyph-name="G" unicode="G" horiz-adv-x="716" 
d="M383 688q55 0 102 -9.5t86 -32.5q43 -25 43 -58q0 -24 -15 -45t-39 -21q-28 0 -62 20q-53 29 -117 29q-80 0 -141 -64q-62 -65 -62 -156q0 -107 55 -168t147 -61q74 0 116 45q43 46 44 104h-84q-25 1 -40 18q-15 16 -15 42q0 56 59 58h143q43 0 60 -23q16 -22 16 -68
q0 -133 -83 -219q-82 -85 -231 -85q-137 0 -230 98q-93 97 -93 249q0 149 102 248t243 99h-4z" />
    <glyph glyph-name="H" unicode="H" horiz-adv-x="707" 
d="M635 55q1 -31 -18 -46q-20 -15 -55 -15q-32 0 -51 15q-20 15 -18 45v75l-1 135h-280l1 -215q0 -55 -74 -55q-68 0 -68 57q0 20 0.5 60t1.5 101q2 122 0 188l-4 219q0 62 73 62q30 0 49 -13q19 -14 21 -39v-239h19h30h34h78h80l42 1v55.5t-1 71.5t-1 66v39q3 60 73 60
q33 0 50 -16q18 -17 18 -46q0 -7 -0.5 -77.5l-1.5 -207.5z" />
    <glyph glyph-name="I" unicode="I" horiz-adv-x="299" 
d="M79 417v92v109q-1 32 20 49q20 16 52 16q28 0 48 -15q19 -15 19 -42v-237v-156l1 -176q0 -31 -20 -46t-51 -15t-51 17q-20 16 -18 48v42v47v269v-2z" />
    <glyph glyph-name="J" unicode="J" horiz-adv-x="491" 
d="M270 617q-1 30 18 49t51 19q35 0 55 -16q21 -17 21 -51q0 -20 0.5 -49.5t1.5 -69.5t1.5 -71.5t0.5 -54.5q0 -22 -0.5 -51t-1.5 -66q-9 -263 -235 -263q-82 0 -143 50q-32 29 -32 63q0 27 18 45t43 18t60 -24q28 -21 59 -21q54 0 72 51t18 155z" />
    <glyph glyph-name="K" unicode="K" horiz-adv-x="625" 
d="M440 647q31 37 63 37q27 0 50 -21t23 -43q0 -27 -27 -57q-44 -53 -153 -165q-2 -2 -6 -6.5l-9 -10.5t-8.5 -9.5l-5.5 -5.5l132 -160l75 -83q28 -31 28 -63q0 -29 -24 -48q-25 -20 -52 -20q-32 0 -58 32l-33 43l-163 214q-11 -14 -33 -36q-21 -21 -27 -29l1 -164
q0 -58 -70 -59q-32 -2 -51 15q-19 16 -19 46v38v51v234v242q0 31 20 48q19 16 51 16q33 0 51 -15t18 -45v-141.5t-1 -100.5z" />
    <glyph glyph-name="L" unicode="L" horiz-adv-x="509" 
d="M73 621q1 14 5 25t15 19q21 15 52 15q65 0 65 -59q0 -17 -0.5 -67t-1.5 -135q-1 -29 -1 -74v-105v-120h58t34 1l134 5q30 2 44 -15t14 -45q0 -69 -61 -69l-112 1q-45 0 -78 -0.5t-54 -1.5q-65 -3 -89 12t-28 61q-1 10 -1.5 19.5t-0.5 18.5q0 28 3 111q3 82 3 129v140v135
v-1z" />
    <glyph glyph-name="M" unicode="M" horiz-adv-x="861" 
d="M227 440q-4 -29 -10 -83.5l-15 -135.5q-18 -161 -21 -177q-10 -55 -70 -55q-31 0 -51 20q-20 19 -15 51l27 177l16.5 115t16.5 120l13.5 101.5t7.5 56.5q6 25 33 37q28 12 58 11q50 -2 72 -64l131 -385q1 -2 1.5 -5t2.5 -7t2.5 -6.5t1.5 -4.5l7 19q46 114 147 390l4 7
q2 4 3 6.5t2 4.5t2.5 4.5t3.5 6.5q4 7 9 12l10 10q6 6 14 9q10 4 15 5q24 1 36 0q44 -5 56 -27q8 -23 18 -97q10 -75 30 -246l17.5 -148.5l12.5 -104.5q2 -32 -19 -48q-22 -17 -51 -17q-63 0 -69 55q-6 57 -15 153.5l-22 236.5l-138 -373q-23 -50 -81 -48q-20 1 -34 11
q-14 9 -18 18q-2 5 -5.5 12t-8.5 18l-126 368z" />
    <glyph glyph-name="N" unicode="N" horiz-adv-x="718" 
d="M209 62q0 -70 -62 -70q-70 0 -73 60v91t1 146v215v114q1 28 27 45q25 16 57 16q25 0 42 -12q16 -12 36 -39l222 -311l53 -79q-1 46 -1.5 88.5t-0.5 82.5l-2 193q0 41 17 60q16 18 56 18q66 0 66 -69v-339v-79v-135q0 -29 -24 -45q-25 -17 -58 -17q-26 0 -42 12
q-15 11 -34 41l-282 403q-2 -65 0 -206q1 -71 1.5 -115.5t0.5 -64.5v-4z" />
    <glyph glyph-name="O" unicode="O" horiz-adv-x="745" 
d="M373 684q137 0 236 -96t99 -243q0 -149 -97 -252q-98 -104 -240 -104q-132 0 -232 93t-100 242q0 161 102 263q51 51 108.5 74.5t123.5 22.5zM567 341q-2 97 -60 155q-59 59 -141 59q-79 0 -133 -63t-54 -160q0 -96 56 -155t140 -59q79 0 136 67t57 157z" />
    <glyph glyph-name="P" unicode="P" horiz-adv-x="583" 
d="M70 402v25.5t-1 44.5t-1 44v25v23v24v10t1 11q2 14 4 21q15 43 66 48q7 1 44 1.5t106 2.5q106 1 180 -45q96 -62 92 -186q-2 -77 -48 -140q-47 -63 -122 -80q-34 -7 -139 -7h-41q-2 -30 0 -87q1 -29 1 -49v-32q0 -60 -73 -60q-69 0 -69 57q0 42 -0.5 128t0.5 220v1z
M211 412v-32v-33h45q67 -2 96 6q31 7 51 38q19 30 21 66q1 64 -54 90q-30 14 -81 14h-52.5t-28.5 -1v-18t1 -40t1 -47.5v-40.5z" />
    <glyph glyph-name="Q" unicode="Q" horiz-adv-x="762" 
d="M334 -8q-56 9 -105 33q-48 23 -91 63q-41 38 -67 102q-25 62 -25 142q0 139 91 242q92 104 223 110q1 1 12 1q139 0 240 -92q100 -91 100 -237q1 -119 -44 -198q-45 -78 -113 -114q-5 -3 -9 -5t-7 -4q5 -3 11 -7.5l14 -10.5l14 -10.5t11 -7.5l10 -6t11 -7q11 -7 24 -10
q12 -3 26 -3q29 0 55 21q25 21 42 21q29 0 49 -17q19 -16 19 -47q0 -53 -54 -87q-54 -35 -117 -33q-29 0 -62 15t-51 27q-9 6 -24.5 18l-38.5 29l-37 28l-20 16q-35 25 -72 30zM566 345q0 98 -58 155q-59 57 -141 57q-73 0 -127 -66t-54 -156q0 -98 55 -159q55 -62 150 -63
q88 9 132 71t44 159z" />
    <glyph glyph-name="R" unicode="R" horiz-adv-x="614" 
d="M72 600q0 37 23 56q24 19 65 21q40 1 75 3h79q109 -2 177 -60q67 -58 67 -160q0 -64 -33 -115t-88 -72q16 -23 129 -171q17 -23 17 -45q0 -26 -22 -44q-22 -17 -52 -19q-14 0 -24 6q-9 5 -16 12q-6 5 -16 19l-16.5 24.5l-41.5 61.5l-84 120h-51h-51v-35t1 -54t1 -53v-32
q0 -63 -58 -67q-42 -1 -61 14q-18 15 -18 56q1 186 0 439v20t-1 29t-1 28.5v19.5v-2zM299 559h-57.5t-33.5 -1l1 -206h81q55 0 92 26t38 78q1 51 -30 78q-16 14 -38.5 19.5t-52.5 5.5z" />
    <glyph glyph-name="S" unicode="S" horiz-adv-x="574" 
d="M472 652q37 -16 37 -60q0 -20 -17 -42q-17 -21 -42 -21q-23 0 -57 15q-48 19 -97 19q-43 0 -73 -24t-30 -58q0 -33 30 -48t92 -27q106 -23 162 -66q56 -44 56 -132q0 -99 -69 -157q-69 -59 -178 -60q-113 -2 -194 39q-46 21 -46 64q0 28 17 50q16 21 42 21q24 0 54 -13
q71 -31 124 -31q46 0 78 23q31 22 31 60q0 35 -31 54q-32 19 -87 30q-103 19 -162 62q-58 42 -58 122q0 91 72 154t173 63q51 0 93.5 -9.5t79.5 -27.5z" />
    <glyph glyph-name="T" unicode="T" horiz-adv-x="580" 
d="M299 675q4 0 27 0.5l66 1.5t72 1.5t45 0.5q58 0 58 -58q0 -67 -59 -67l-150 1v-40q-2 -98 3 -453q1 -35 -18 -51q-20 -17 -56 -17q-67 0 -65 65l2 360v67v69q-19 -1 -57.5 -1h-98.5q-56 0 -56 63q0 59 59 61h27q11 0 30 0.5t45 -0.5l126 -3v0z" />
    <glyph glyph-name="U" unicode="U" horiz-adv-x="694" 
d="M70 279q1 117 1.5 199.5t0.5 133.5q0 31 18 48q19 17 50 17q40 0 57 -17q16 -16 16 -54q-1 -23 -1 -103v-218q0 -82 37 -122q38 -41 105 -41q64 0 98 46q35 47 36 118q1 24 1.5 50t0.5 54v58.5t-1 63.5t-1 58.5v42.5q0 66 71 66q37 0 53 -19q17 -20 17 -60l1 -295
q0 -141 -75 -226t-208 -85q-127 0 -202 76t-75 213v-4z" />
    <glyph glyph-name="V" unicode="V" horiz-adv-x="660" 
d="M34 560q-18 49 -18 60q0 29 26 47q25 18 56 18q47 0 63 -43q22 -56 36 -99l134 -356q2 6 6 16.5l9 24.5q11 30 15 38l141 377q16 40 64 40q26 0 50 -18t24 -45q0 -12 -16 -57q-12 -32 -78 -192q-2 -3 -4 -7.5t-4 -11.5t-6.5 -18l-10.5 -27t-13.5 -34t-17.5 -39l-79 -183
q-22 -55 -86 -55q-35 0 -51 16t-31 51l-207 498z" />
    <glyph glyph-name="W" unicode="W" horiz-adv-x="865" 
d="M29 608q-6 33 14 54q19 21 54 21q59 0 69 -52l75 -397q2 5 29 92.5l80 258.5q16 57 80 57q25 0 44 -13q19 -14 27 -36l117 -354l33.5 176l32.5 179q7 49 24 69q16 19 51 19q31 0 54 -20q22 -20 18 -51l-111 -540q-9 -39 -25 -56t-57 -19q-19 0 -34 6t-24 18
q-10 13 -14 23l-5 12t-6 15l-126 363l-38.5 -120.5l-85.5 -260.5q-8 -25 -30 -41t-52 -15q-46 1 -64 29q-18 27 -30 89l-59.5 297t-38.5 199z" />
    <glyph glyph-name="X" unicode="X" horiz-adv-x="639" 
d="M288 214l-136 -188q-22 -31 -57 -31q-28 0 -51 19q-24 19 -24 45q0 23 16 45l192 244l-48.5 60.5l-131.5 162.5q-18 22 -18 45q0 24 24 45t52 21q33 0 57 -31l153 -204l153 206q22 30 59 30q28 0 51 -21q22 -21 22 -45q0 -21 -13 -37l-26.5 -34.5l-28.5 -36.5l-32 -40.5
l-37 -45.5l-34.5 -42.5l-25.5 -31.5l182 -227q29 -38 29 -60q0 -24 -25 -45q-26 -21 -54 -21q-35 0 -63 39l-127 177l-29 38z" />
    <glyph glyph-name="Y" unicode="Y" horiz-adv-x="616" 
d="M221 284l-190 288q-16 25 -16 42q0 27 23 47t51 20q34 0 53 -31l166 -267q1 3 162 264q23 35 60 35q25 0 48 -18q22 -18 22 -42q0 -23 -16 -45l-207 -315v-208q0 -27 -21 -42t-51 -15q-32 0 -51 18t-19 47v15.5t1 22.5t1 22.5v16.5v122z" />
    <glyph glyph-name="Z" unicode="Z" horiz-adv-x="565" 
d="M91 547q-28 0 -43 17q-15 16 -15 45q0 31 16 48q16 18 48 18l209 1h78h81q33 0 50 -16q18 -17 18 -45q0 -26 -30 -69l-23 -34l-246 -349l-19 -29t-9 -15q76 0 168 3q91 3 99 3q35 0 50 -18t15 -45t-16 -44q-17 -18 -54 -18q-64 -1 -155 -1.5t-211 -0.5q-54 0 -66 37
q-5 15 -5 28q4 43 45 99l65 89l191 265l24 35h-138h-123z" />
    <glyph glyph-name="bracketleft" unicode="[" horiz-adv-x="327" 
d="M59 659q1 28 21 45t50 17h121q56 0 56 -61q0 -58 -58 -58h-62v-107.5t-1 -78.5v-107v-108v-67v-70v-61v-46v-18h63q30 2 44 -15t14 -45q0 -62 -62 -62h-103q-44 -2 -63 18q-20 20 -20 63q0 38 3 203q2 83 2.5 140.5t-0.5 91.5v64.5t-1 101.5t-1 100v60h-3z" />
    <glyph glyph-name="backslash" unicode="\" horiz-adv-x="407" 
d="M376 66q9 -26 9 -42q0 -22 -23 -37t-45 -15q-38 0 -51 42l-238 598q-11 30 -11 48q0 21 22 37t45 16q41 0 57 -43z" />
    <glyph glyph-name="bracketright" unicode="]" horiz-adv-x="327" 
d="M259 653v-51.5t-1 -99.5q-2 -123 0 -174q-1 -34 -0.5 -92t2.5 -142q3 -167 3 -199q0 -44 -21 -63t-64 -18h-102q-61 0 -61 62q0 28 14 45t44 15h63v19v46v61v70v68v108v66t-1 42q-2 94 0 186h-62q-58 0 -58 58q0 61 56 61h120q29 0 51 -17q21 -17 21 -45z" />
    <glyph glyph-name="asciicircum" unicode="^" horiz-adv-x="500" 
d="M387 285q-7 11 -16.5 29.5l-23.5 44.5l-60 114l-42 81q-14 -26 -45 -93l-30 -64.5l-28 -58.5l-23.5 -46t-14.5 -26q-15 -17 -34 -17q-20 0 -39 15t-19 36q0 24 10 41l155 294q22 46 70 46q43 0 72 -47q13 -21 51 -92l103 -194q11 -20 11 -39q0 -21 -20 -36t-42 -15
q-21 0 -33 23z" />
    <glyph glyph-name="underscore" unicode="_" horiz-adv-x="500" 
d="M71 -126q-30 0 -45 18t-15 44q0 63 62 63h176h184q57 0 57 -63q0 -29 -19 -45t-54 -16h-175h-172z" />
    <glyph glyph-name="grave" unicode="`" horiz-adv-x="268" 
d="M146 540q-56 52 -96 96q-16 19 -16 39q0 19 21 37t41 18q29 0 47 -25q10 -15 39 -51l24 -31t15 -21q10 -13 10 -30q0 -16 -15 -31t-31 -15q-18 0 -37 14h-2z" />
    <glyph glyph-name="a" unicode="a" 
d="M517 166q0 -20 1 -48.5t3 -66.5q0 -57 -70 -57q-26 0 -39 16q-14 16 -21 54q-44 -72 -135 -72q-99 0 -160 64t-61 162q0 110 66 179t167 69q82 0 124 -62q4 19 9 30q15 28 52 28q64 0 64 -65l-1 -78zM175 219q0 -48 29 -80t71 -32q48 0 80 33q32 34 32 87q0 56 -31 87
q-32 32 -75 32q-46 0 -76 -34q-30 -35 -30 -93z" />
    <glyph glyph-name="b" unicode="b" horiz-adv-x="586" 
d="M61 660q1 64 66 64q31 0 51 -12q19 -12 18 -46q-3 -221 -3 -267q41 68 137 68t158 -68t62 -164q0 -104 -66 -174t-168 -70q-41 0 -78 20q-35 19 -55 54l-2 -24q-11 -47 -66 -44q-56 1 -54 72l3 180l-2 413zM412 233q0 49 -30 82t-73 33q-48 0 -81 -33t-33 -90
q0 -51 32 -85q31 -33 75 -33q45 0 78 36t33 90h-1z" />
    <glyph glyph-name="c" unicode="c" horiz-adv-x="452" 
d="M397 435q25 -18 25 -47q0 -25 -16 -45q-17 -21 -40 -21q-14 0 -45 12q-21 10 -48 10q-44 0 -74 -39t-30 -85q0 -48 31 -79t76 -31q31 0 63 18q23 13 41 13q23 0 38 -21t15 -46q0 -29 -25 -45q-53 -41 -138 -41q-59 0 -105 21q-47 21 -74 54t-42 71q-15 37 -15 77
q0 102 69 179t175 77q71 0 120 -31z" />
    <glyph glyph-name="d" unicode="d" horiz-adv-x="580" 
d="M522 443v-215v-39v-63v-75q0 -57 -66 -57q-48 0 -58 39l-5 34q-47 -75 -137 -75q-102 0 -162 66t-60 158q0 106 67 177q67 72 171 72q74 0 113 -52l-1 243q0 71 67 71q34 0 54 -15q19 -15 18 -49zM173 221q0 -46 30 -79t74 -33q48 0 80 32t32 84q0 55 -30 87t-75 32
q-48 0 -79 -34t-31 -91z" />
    <glyph glyph-name="e" unicode="e" horiz-adv-x="513" 
d="M172 194q5 -36 34 -60q30 -24 68 -24q46 0 84 23q26 14 45 14q23 0 39 -19q17 -20 17 -45q0 -34 -34 -53q-58 -37 -161 -37q-95 0 -162 66q-68 66 -69 159q0 106 68 179q67 72 167 72q89 0 149 -57t60 -130q0 -45 -15 -64q-15 -20 -63 -21q-63 -2 -225 -3h-2zM268 359
q-38 0 -65 -24t-30 -57q42 0 82 1t80 3q12 0 12 6q0 31 -23 51t-56 20z" />
    <glyph glyph-name="f" unicode="f" horiz-adv-x="389" 
d="M246 332v-192v-19.5t1 -25.5t1 -26v-22q0 -28 -19 -43q-20 -15 -48 -15t-48 14q-20 13 -18 45l1 89v29t-1 55q-2 67 0 114h-48q-31 0 -45 14q-14 13 -15 45q-1 28 14 45t44 17h49v26v24q1 100 53 164q51 63 166 63q40 0 69 -20q19 -13 19 -48q0 -20 -12 -36
q-12 -17 -29 -17q-12 0 -31 3q-21 3 -33 2q-32 -2 -50 -30q-17 -28 -19 -72q-1 0 0 -28v-28h77q31 0 45 -15t15 -43q0 -63 -56 -63z" />
    <glyph glyph-name="g" unicode="g" horiz-adv-x="573" 
d="M263 -111q46 0 81 30t35 77v49q-16 -25 -50 -42q-32 -16 -70 -16q-99 0 -162 68q-63 67 -63 162q0 105 66 176t165 71q76 0 120 -62l2 19q3 16 21 27q19 11 43 11q30 0 47 -16q18 -17 18 -43q-1 -109 -1.5 -184.5t-0.5 -117.5l1 -103q2 -98 -70 -165q-73 -68 -180 -68
q-92 0 -144 28q-42 22 -42 63q0 27 18 48t42 21q10 0 46 -13q40 -15 77 -15zM172 221q0 -50 30 -81t74 -31q43 0 75 30q31 30 31 87t-30 87t-72 30q-47 2 -77 -33t-30 -90z" />
    <glyph glyph-name="h" unicode="h" horiz-adv-x="563" 
d="M60 660q0 70 71 70q33 0 50 -16q18 -17 18 -46v-34v-35.5t-1 -52.5t-1 -66.5v-77.5q16 30 53 48q36 18 75 18q88 0 135 -57q47 -58 47 -148v-115t-1 -94q-1 -28 -22 -43t-52 -15q-29 0 -48 15t-18 43q0 13 3 96q3 82 3 101q0 44 -21 70q-21 25 -59 25q-37 0 -66 -29
q-28 -28 -28 -75v-99v-92q0 -27 -20 -41t-51 -14q-29 0 -48 15t-19 43q0 9 0.5 25.5t1.5 40.5t1.5 39.5t0.5 23.5v477h-4z" />
    <glyph glyph-name="i" unicode="i" horiz-adv-x="266" 
d="M63 404q1 30 21 45q19 15 45 15q70 0 72 -63q1 -19 1 -46.5v-65.5v-112l1 -121q0 -30 -19 -46t-51 -16q-29 0 -49 14q-19 13 -19 41v357zM128 561q-38 0 -60 27q-23 27 -18 65q6 32 31 48q26 17 54 17q39 0 60 -22q21 -23 21 -57q0 -38 -25 -57t-64 -19z" />
    <glyph glyph-name="j" unicode="j" horiz-adv-x="264" 
d="M65 410q0 24 21 39t50 15q31 0 48 -13q18 -14 18 -39v-237v-169t-1 -83q-2 -65 -55 -111q-54 -47 -127 -48q-111 0 -111 74q0 28 15 46t35 18q9 0 24 -4q16 -5 30 -3q29 2 41 25q11 23 13 71q1 43 0 262q-2 45 -2.5 84.5t0.5 74.5zM122 558q-36 0 -58 21t-22 59t26 59
q25 21 63 21q41 0 63 -22q23 -23 23 -60q0 -79 -92 -79z" />
    <glyph glyph-name="k" unicode="k" horiz-adv-x="493" 
d="M457 94q16 -19 16 -39q0 -22 -22 -43q-23 -21 -48 -21q-26 0 -54 34l-120 151l-34 -33l-1 -90q-2 -62 -66 -62q-32 0 -50 18t-18 50l2 102v439v33v34q-2 29 20 44q21 15 49 15q69 0 69 -59q1 -37 1 -89.5t-2 -121.5q-3 -138 -3 -168l145 149q29 29 54 29q23 0 44 -21
t21 -44q0 -21 -20 -41q-19 -19 -61 -58t-56 -53z" />
    <glyph glyph-name="l" unicode="l" horiz-adv-x="268" 
d="M68 660q0 31 20 48q19 16 51 16q34 0 53 -17q18 -17 17 -51q-2 -106 -3 -224.5t-1 -252.5q0 -11 0.5 -27t1.5 -36t1.5 -34.5t0.5 -23.5q-2 -32 -15 -45t-50 -18q-77 -8 -78 93q-4 147 0 571z" />
    <glyph glyph-name="m" unicode="m" horiz-adv-x="827" 
d="M59 244v83v51v25q0 61 71 61q49 0 58 -45l3 -26q16 31 53 51t74 20q49 0 83 -22q35 -23 51 -58q23 35 61 57q39 22 81 24q88 1 132 -51q44 -53 44 -141l1 -107q0 -54 -3 -121q-2 -51 -68 -51q-31 0 -49 15t-18 40q0 12 0.5 35t1.5 58t1.5 63t0.5 50q0 96 -66 96
q-35 0 -57 -24q-23 -24 -24 -63q-1 -20 -1 -48v-63v-57t-1 -42q-2 -29 -19 -44q-19 -15 -50 -14q-65 2 -65 54q1 92 1.5 144t0.5 66q-2 39 -19 65q-18 27 -51 27q-89 0 -87 -126v-177q0 -27 -21 -40q-20 -13 -51 -13q-28 0 -48 14q-19 13 -19 45v24.5t1 34.5l2 134z" />
    <glyph glyph-name="n" unicode="n" horiz-adv-x="565" 
d="M60 390q0 38 16 55q16 18 54 18q55 0 62 -49l2 -27q15 36 54 57t83 21q86 0 132 -52t46 -148v-57v-69v-82q0 -63 -73 -63q-29 0 -47 15t-18 44v33t1 52t1 53.5v36.5q0 55 -15 87t-58 33q-60 1 -81 -36q-21 -38 -21 -114l1 -147q0 -29 -19 -42t-48 -13q-70 0 -70 57
q0 13 0.5 40.5t1.5 71.5q1 87 0 154z" />
    <glyph glyph-name="o" unicode="o" horiz-adv-x="551" 
d="M296 465q20 0 33 -5q92 -14 140 -80t48 -151q0 -104 -70 -171t-177 -67q-97 0 -166 63t-69 162q0 112 69 181q35 35 83 51t109 17zM380 230q0 47 -28 81q-29 34 -75 36q-50 -2 -78 -36q-29 -35 -29 -96q0 -47 30 -78t68 -31q47 0 80 35q33 34 33 90z" />
    <glyph glyph-name="p" unicode="p" horiz-adv-x="582" 
d="M61 407q1 60 69 60q46 0 57 -41l3 -33q22 34 60 54t83 20q98 0 157 -66q58 -65 58 -168q0 -105 -66 -174t-169 -69q-77 0 -117 51v-34v-41v-18.5t1 -35.5t1 -39v-31q0 -66 -77 -66q-61 0 -61 63l2 390zM412 237q0 50 -31 81q-32 32 -73 32q-46 0 -79 -34q-33 -35 -33 -87
q0 -59 27 -90t78 -31q46 0 78 36q32 37 32 92z" />
    <glyph glyph-name="q" unicode="q" 
d="M515 46v-45.5t1 -65.5t1 -65.5v-46.5q-1 -55 -69 -55q-35 0 -54 16q-20 16 -18 48q1 63 1.5 117t0.5 102q-18 -26 -49 -42t-69 -16q-100 0 -163 67t-63 162q0 107 68 177q67 69 173 69q34 0 66 -17q31 -17 51 -45l7 29q14 32 58 32q25 0 42 -15t17 -40q-1 -33 -1.5 -69.5
t-0.5 -76.5l-2 -220h3zM172 215q0 -45 30 -78t74 -33q47 0 77 33t30 88t-30 88t-70 33q-48 0 -79 -34t-31 -93z" />
    <glyph glyph-name="r" unicode="r" horiz-adv-x="378" 
d="M60 399q0 62 67 62q42 0 51 -39l6 -40q16 37 51 60t72 23q61 0 61 -63q0 -26 -14 -46q-13 -19 -39 -19h-15q-49 0 -77 -36q-29 -37 -29 -106q0 -4 0.5 -21.5t1.5 -49.5q2 -63 0 -74q-2 -56 -69 -56q-34 0 -50 15q-17 15 -17 53q0 20 0.5 50.5t1.5 72.5t1.5 71.5t0.5 46.5
v49v49z" />
    <glyph glyph-name="s" unicode="s" horiz-adv-x="457" 
d="M226 463q87 0 134 -22q35 -14 35 -45q0 -58 -52 -58q-11 0 -52 11t-64 11q-29 0 -48 -12q-20 -12 -20 -31q0 -6 1 -9q1 -5 4 -7q4 -4 6 -5q3 -2 9 -3q4 -1 10 -3q4 -2 12 -3q10 -2 12 -2l14 -1q10 -2 14 -3q84 -12 128 -43q45 -32 45 -96q0 -73 -52 -113
q-53 -41 -145 -41q-72 0 -126 21t-54 51q0 64 53 64q19 0 63 -12q43 -12 79 -12q27 0 44 11t17 30q0 21 -18 29t-67 15q-35 4 -60 12q-26 7 -51 21q-25 13 -39 38q-13 23 -13 56q0 67 57 111q58 44 134 44z" />
    <glyph glyph-name="t" unicode="t" horiz-adv-x="382" 
d="M55 341q-50 0 -50 59q0 25 15 42q15 16 39 16h41l2 62q2 77 74 77q55 0 55 -57q0 -8 -0.5 -28.5t-1.5 -53.5l72 1q56 0 56 -58q0 -26 -12 -42t-36 -16h-79v-152q0 -75 43 -75q12 0 24 3t19 3q22 0 35 -16q14 -17 14 -37q0 -41 -25 -57q-28 -17 -85 -17q-155 0 -155 183
v34.5t1 48.5t1 48v33h-45z" />
    <glyph glyph-name="u" unicode="u" horiz-adv-x="571" 
d="M133 462q60 0 60 -70v-164q0 -117 75 -117q97 0 97 149l1 137q0 32 20 49q19 16 51 16q67 0 67 -63v-27v-54v-70v-38.5t1 -35.5q1 -39 3 -81q1 -21 1.5 -33t0.5 -14q0 -26 -19 -39t-48 -13q-51 0 -60 41v6t-1 11q-2 13 -3 24q-48 -86 -138 -86q-92 0 -137 58t-45 157v96
v94q0 67 76 67h-2z" />
    <glyph glyph-name="v" unicode="v" horiz-adv-x="510" 
d="M43 336q-26 54 -24 71q1 27 25 43q23 16 51 16q24 0 38 -12t24 -40l99 -255q7 17 31.5 81.5l66.5 176.5q16 46 60 46q26 0 50 -15t24 -38q2 -23 -9 -50l-141 -309q-26 -56 -83 -56q-56 0 -84 61l-126 280h-2z" />
    <glyph glyph-name="w" unicode="w" horiz-adv-x="754" 
d="M26 401l-1 5q0 26 25 42t54 16q47 0 57 -43q1 -3 4 -16l8 -36t11.5 -49.5l14.5 -56.5t13.5 -52.5t10.5 -38.5l86 247q16 39 67 39t72 -50l85 -234l42 168q5 23 10.5 43t11.5 38q13 37 57 37q29 0 52 -16q24 -17 24 -42q0 -11 -3 -21q-1 -1 -31 -100l-25.5 -82.5
t-17.5 -53.5q-5 -13 -9.5 -26.5l-9.5 -27.5l-15 -39q-9 -29 -27 -42q-19 -14 -55 -14q-56 0 -74 50q-13 27 -87 239l-79 -208q-15 -44 -33 -63t-55 -19q-38 0 -54 15q-16 14 -28 48l-101 339v4z" />
    <glyph glyph-name="x" unicode="x" horiz-adv-x="497" 
d="M128 184l38 44l-16 17l-19 22l-30 34l-31 34.5t-21 24.5q-16 20 -16 43q0 22 21 40q20 17 44 19q32 2 53 -25l69.5 -88t25.5 -32l89 111q25 34 57 34q26 0 48 -19q23 -20 23 -45q0 -9 -3 -18q-3 -10 -10 -18l-7 -8.5t-6 -6.5l-7.5 -7.5t-10.5 -11.5l-10.5 -12t-8.5 -9
l-71 -80l109 -118l15 -18q5 -7 8 -15q3 -9 3 -21q0 -23 -21 -42q-20 -19 -48 -19q-32 0 -57 36q-52 61 -89 110l-91 -115q-23 -32 -54 -32q-26 0 -49 20q-22 19 -22 44q0 24 17 43z" />
    <glyph glyph-name="y" unicode="y" horiz-adv-x="514" 
d="M360 412q18 50 58 50q29 0 52 -16q24 -17 24 -39t-14 -53l-128.5 -281.5l-93.5 -194.5q-57 -104 -154 -104q-88 0 -88 66q0 62 63 62q27 0 42 12q16 13 32 45l37 72l-24 48l-126 270q-18 34 -18 59q0 22 24 39q25 17 49 17q23 0 34 -7q13 -8 20 -25q106 -263 111 -273z
" />
    <glyph glyph-name="z" unicode="z" horiz-adv-x="459" 
d="M224 342h-24t-39 -1q-47 -2 -72 0q-55 1 -55 63q0 25 15 42q15 16 47 16h95h89h12t32 1q42 2 44 0q40 -2 48 -30q5 -13 5 -34q-8 -41 -45 -84l-34.5 -38.5l-47.5 -52.5l-46 -51l-30 -33l-17 -21l107 2q60 3 67 3q27 0 42 -16q15 -17 15 -45q0 -62 -64 -63h-40h-48h-24
t-45 -1t-52.5 -1h-47.5q-76 0 -76 65q0 36 51 96l169 185l-28 -1z" />
    <glyph glyph-name="braceleft" unicode="{" horiz-adv-x="308" 
d="M3 267q0 21 9 33t28 28l24 18q19 14 26 24q8 11 8 24q0 37 -16 91q-17 55 -18 93q0 64 51 108q52 44 122 44q26 0 41 -15t15 -40q0 -22 -12 -40t-31 -18q-25 0 -41 -18q-17 -19 -17 -42q0 -30 17 -86q17 -54 18 -88q0 -74 -89 -112q22 -11 39 -22.5t29 -23.5
q24 -24 24 -61q0 -35 -18 -96q-18 -62 -18 -97q0 -24 15 -40t37 -16q17 0 31 -15q13 -14 13 -37q0 -26 -15 -42t-40 -16q-80 0 -125 48t-45 113q0 33 18 93q17 58 19 93q0 11 -9 20q-10 10 -25 21q-18 13 -24 19q-36 22 -36 60z" />
    <glyph glyph-name="bar" unicode="|" horiz-adv-x="282" 
d="M74 668q1 31 19 46t44 15q30 0 48 -12t20 -47v-246v-246l1 -311q1 -31 -17 -48q-17 -16 -49 -16q-29 0 -47 15t-18 43v323v485z" />
    <glyph glyph-name="braceright" unicode="}" horiz-adv-x="310" 
d="M301 268q0 -38 -36 -60l-10 -7.5t-15 -10.5q-17 -11 -25 -21t-8 -20q2 -35 19 -93q18 -60 18 -93q0 -65 -45 -113t-125 -48q-25 0 -40 16t-15 42q0 24 13 38q13 15 31 15q22 0 36 17t14 41q0 36 -18 98q-18 61 -18 96q0 38 24 62t68 47q-90 37 -90 111q2 36 19 88
q18 54 18 87q0 24 -18 42t-42 18q-19 0 -31 18t-12 41q0 26 15 41t41 15q70 0 122 -44q51 -44 51 -108q-2 -38 -18 -93q-16 -54 -16 -90q0 -13 8 -24q7 -10 26 -24q20 -15 23 -18q7 -5 11.5 -9.5l7.5 -7.5q6 -6 12 -18t6 -27z" />
    <glyph glyph-name="asciitilde" unicode="~" horiz-adv-x="500" 
d="M138 215q-20 -32 -56 -32q-24 0 -39 18q-15 17 -13 46q5 43 42 77t86 36q36 0 68 -18q31 -18 54 -36q22 -18 38 -18q29 0 45 34q14 29 54 29q22 0 39 -18q16 -18 15 -40q-5 -47 -40 -81q-37 -35 -88 -35q-39 0 -89 35t-68 35q-31 0 -49 -32h1z" />
    <glyph glyph-name="uni00A0" unicode="&#xa0;" horiz-adv-x="243" 
 />
    <glyph glyph-name="exclamdown" unicode="&#xa1;" horiz-adv-x="262" 
d="M76 186q5 53 54 53q53 0 57 -52q7 -108 10.5 -190.5t3.5 -142.5q2 -45 -15 -65t-57 -20q-35 0 -54 18t-18 49l11 220zM127 465q35 0 58 -21q22 -21 22 -57q0 -33 -21 -54t-55 -21q-32 0 -54 24q-23 25 -23 56t21 51q22 20 53 20z" />
    <glyph glyph-name="cent" unicode="&#xa2;" horiz-adv-x="486" 
d="M410 537q26 -15 26 -47q0 -26 -16 -45q-17 -20 -42 -20q-13 0 -44 12q-21 9 -50 9q-45 0 -75 -38t-30 -84q0 -49 31 -80q32 -32 76 -32q38 0 66 19q27 13 42 13q23 0 38 -21t15 -46q0 -30 -24 -46q-40 -31 -95 -37v-61q1 -28 -14 -40t-38 -12q-53 0 -53 46v69
q-86 18 -132 81q-46 62 -46 137q0 86 49 156q50 71 129 92v77q-1 28 14 42q14 13 35 13q56 0 56 -48l-1 -77q46 -4 84 -29z" />
    <glyph glyph-name="sterling" unicode="&#xa3;" horiz-adv-x="542" 
d="M99 280q-24 0 -37 16t-13 42t15 41t42 15h29q-6 28 -6 63q-3 102 54 164t148 62q61 0 105 -26q31 -21 29 -59q-2 -21 -15 -39t-31 -19q-15 -2 -37 4q-24 6 -37 6q-75 0 -75 -101q0 -11 1.5 -24.5l3.5 -30.5h51h41q54 0 54 -55q0 -35 -15 -48q-15 -14 -55 -15h-55
q16 -88 -11 -141q72 -22 96 -22q28 0 38 19q18 24 51 24q26 0 44 -18t17 -43q-3 -53 -36 -81q-32 -28 -85 -28q-37 0 -126 20q-87 19 -99 21q-31 0 -48 -17l-6 -6l-6 -6l-6 -4q-3 -2 -9 -4q-5 -2 -12 -3q-5 -1 -16 -1q-29 0 -48 18t-19 47q0 39 24 69t62 35q10 1 27 0
q8 -1 12.5 -1.5t5.5 -0.5q13 20 14 58q2 39 -6 68h-56z" />
    <glyph glyph-name="currency" unicode="&#xa4;" horiz-adv-x="584" 
d="M306 514q37 1 87 -24l44 54q25 30 57 30q23 0 42 -19q20 -20 20 -45v-9q0 -6 -1 -9t-1 -7q0 -3 -3 -7l-4 -6l-6 -6l-6 -6q-3 -3 -7 -6t-7 -6l-47 -49q24 -48 24 -88q0 -46 -25 -95l50 -51q26 -26 26 -56q0 -23 -21 -42q-22 -20 -46 -20q-29 0 -56 35l-43 47
q-53 -27 -96 -27q-45 0 -91 26l-44 -50q-24 -31 -52 -31t-48 19q-21 19 -21 45q0 27 14 44l65 64q-22 40 -22 83q0 51 25 98l-58 58q-28 25 -28 57q0 31 19 47t45 18q31 1 54 -26l56 -64q43 26 105 28v-4zM379 317q0 37 -24 63q-24 25 -61 24q-40 0 -64 -27t-24 -75
q0 -38 24 -62q23 -23 59 -25q39 -2 65 26t26 72z" />
    <glyph glyph-name="yen" unicode="&#xa5;" horiz-adv-x="600" 
d="M152 219q-42 0 -42 48q1 42 45 42h56l-180 261q-16 20 -16 43q0 24 21 45t47 21q43 0 62 -34l154 -250l152 246q22 39 59 39q26 0 48 -19q23 -20 23 -42t-21 -55l-177 -256h50q49 0 49 -44q0 -22 -12 -34t-33 -12h-70v-36h67q48 0 48 -45q0 -43 -43 -43h-71v-37
q0 -29 -20 -44t-51 -15q-70 0 -70 67v31l-72 1q-47 0 -47 47q0 40 47 40h74v35h-46h-31v0z" />
    <glyph glyph-name="brokenbar" unicode="&#xa6;" horiz-adv-x="284" 
d="M76 153q1 31 19 46t44 15q63 0 67 -61v-148v-23t1 -38t1 -42.5v-35.5q0 -32 -18 -48q-17 -16 -48 -16q-29 0 -47 15t-18 44l1 155v139zM71 533v138q1 30 21 45q19 15 48 15q65 0 65 -61l-1 -133v-164q1 -30 -18 -46t-49 -16q-27 0 -46 17q-18 16 -18 45z" />
    <glyph glyph-name="section" unicode="&#xa7;" horiz-adv-x="501" 
d="M38 292q-1 67 65 123q-38 30 -39 91q0 76 61 131q62 56 139 56q78 0 135 -26q33 -16 34 -49q1 -22 -12 -40q-13 -17 -36 -19q-15 -1 -55 11q-39 12 -66 12q-30 0 -54 -18t-22 -48q0 -20 18 -33t35 -18q8 -2 19 -5t25 -6q84 -18 129 -54t48 -114q1 -80 -57 -135
q22 -35 22 -75q0 -88 -55 -140q-56 -53 -141 -53q-58 0 -124 23q-56 21 -56 62q0 25 15 45t38 20q19 0 39 -9q43 -17 86 -17q79 0 79 57q0 15 -6 26t-22 18l-30 12q-7 2 -16.5 5t-22.5 6q-6 2 -8 3q-79 19 -121 57t-44 107v-6zM241 348q-28 7 -52 15q-32 -32 -32 -60t19 -43
t54 -24l91 -26q21 38 17 66q-8 55 -96 72h-1z" />
    <glyph glyph-name="dieresis" unicode="&#xa8;" horiz-adv-x="382" 
d="M101 544q-28 0 -46 18t-18 45q0 28 20 48t50 20q29 0 47 -18t18 -46q0 -29 -19 -48t-51 -19h-1zM273 546q-28 0 -46 18t-18 45q0 29 19 48q20 20 49 20q28 0 48 -18q19 -18 19 -46q0 -29 -19 -48t-51 -19h-1z" />
    <glyph glyph-name="copyright" unicode="&#xa9;" horiz-adv-x="761" 
d="M383 688q140 0 238 -97q99 -98 99 -244q0 -151 -97 -254q-98 -104 -241 -104q-86 0 -162 39t-127 117t-51 178q0 108 51 194q51 85 128 129t161 42h1zM626 345q-2 113 -69 185q-68 72 -180 72q-102 0 -170 -77t-68 -191t69 -183t179 -69q106 0 174 78t66 185h-1zM488 492
q20 -14 20 -33q0 -44 -38 -44q-12 0 -36 11q-19 8 -39 8q-37 0 -61 -30t-24 -70t27 -67t62 -27q22 0 48 15q21 10 30 10q17 0 27 -13q11 -14 11 -30q0 -22 -20 -36q-44 -32 -102 -32q-80 0 -128 54t-48 121q0 75 50 133q49 57 125 57q50 0 94 -26z" />
    <glyph glyph-name="ordfeminine" unicode="&#xaa;" horiz-adv-x="402" 
d="M364 452q0 -14 0.5 -34t1.5 -47q0 -41 -51 -41q-23 0 -35 19q0 1 -3 10q-2 5 -2.5 8t-1.5 5q-29 -45 -93 -45q-71 0 -114 45q-43 44 -43 113q0 80 48 128t120 48q56 0 87 -40q1 1 3 8q1 6 3 9q12 22 38 22q47 0 47 -48q-1 -17 -1 -56.5v-103.5h-4zM122 488q0 -33 20 -55
q19 -21 50 -21t54 23q22 22 22 60t-21 59t-50 21q-31 0 -52 -22q-21 -23 -21 -63z" />
    <glyph glyph-name="guillemotleft" unicode="&#xab;" horiz-adv-x="536" 
d="M159 236l95 -109q17 -20 17 -39q0 -13 -15 -28q-14 -14 -30 -16q-20 -2 -36 12l-133 121q-26 29 -26 57t23 51q45 46 132 126q14 11 33 11q16 0 33 -14t17 -30q0 -13 -15 -31zM394 237l96 -109q17 -20 17 -39q0 -13 -15 -28q-14 -14 -30 -16q-20 -2 -36 12l-133 121
q-27 28 -27 57q0 25 23 51l132 126q16 11 34 11q16 0 33 -14q16 -13 16 -30q0 -15 -15 -31z" />
    <glyph glyph-name="logicalnot" unicode="&#xac;" horiz-adv-x="495" 
d="M83 206q-25 0 -40 17q-15 16 -15 45q0 59 67 59h314q25 0 39 -18q14 -19 14 -45v-17.5t1 -40.5t1 -51.5v-51.5q0 -29 -18 -42q-18 -14 -45 -12q-26 1 -43 15q-16 13 -16 39v108q-228 -3 -260 -3z" />
    <glyph glyph-name="uni00AD" unicode="&#xad;" horiz-adv-x="364" 
d="M90 178q-30 0 -45 18t-15 44q0 30 16 47q16 18 48 18h179q58 0 58 -63q0 -31 -18 -47q-19 -17 -53 -17h-85h-82h-3z" />
    <glyph glyph-name="registered" unicode="&#xae;" horiz-adv-x="762" 
d="M382 686q137 -2 237 -97q101 -96 101 -243q0 -152 -97 -255q-98 -104 -243 -104q-86 0 -162 40t-126 119t-50 179q0 109 51 195q52 87 127 128q77 42 162 41v-3zM626 341q-2 115 -69 186q-68 71 -183 71q-106 0 -172 -75t-66 -192q0 -114 69 -184t179 -70q107 0 176 79
t67 186zM260 481q0 20 14 32q13 12 35 12h9h24h46q55 0 92 -32q36 -32 36 -86q0 -68 -57 -102l60 -79q11 -11 11 -27q0 -15 -12 -25q-12 -11 -30 -12q-20 0 -36 22l-69 103h-43v-45t1 -42q0 -38 -37 -39q-46 0 -46 39v51v87v89v53zM342 452v-48v-46h33q59 0 60 46
q0 48 -51 48h-42z" />
    <glyph glyph-name="macron" unicode="&#xaf;" horiz-adv-x="380" 
d="M96 563q-29 0 -42 15q-14 16 -14 37q0 24 15 39t44 15h37h39h24t32 1t32 1h24q54 0 54 -53t-68 -53h-89h-45h-42z" />
    <glyph glyph-name="degree" unicode="&#xb0;" horiz-adv-x="289" 
d="M149 680q53 0 86 -35t33 -84q0 -52 -35 -87q-34 -34 -90 -34q-50 0 -86 33t-36 83q0 57 35 92t92 35zM200 559q0 26 -16 41q-17 15 -40 15q-24 0 -39 -16q-15 -17 -15 -43q0 -24 17 -39q16 -15 39 -15q22 0 39 17q16 16 16 42z" />
    <glyph glyph-name="plusminus" unicode="&#xb1;" horiz-adv-x="495" 
d="M87 308q-55 0 -54 64q1 25 17 39t42 14h102v109q0 26 17 41q16 15 42 15q57 0 57 -57l1 -109l107 2q52 0 52 -58q0 -57 -54 -58q-10 -1 -36.5 -1h-71.5v-107q0 -53 -62 -51q-26 2 -39 16t-13 38v104h-63h-45zM74 3q-27 0 -39 18q-12 19 -11 42q0 26 18 41t48 15h51h74
h188q53 0 53 -59q0 -55 -57 -58q-23 -1 -47 -1h-50h-130h-94z" />
    <glyph glyph-name="twosuperior" unicode="&#xb2;" horiz-adv-x="324" 
d="M150 665q-21 0 -44 -23q-14 -17 -41 -17q-17 0 -29 14q-12 13 -12 32q0 28 36 54q41 32 87 32q61 1 104 -32q42 -33 42 -90q0 -52 -54 -103q-5 -5 -18 -16l-33 -28l-30 -27h52h35h15q42 0 42 -46q0 -47 -47 -47h-60h-126q-19 0 -33 14q-13 13 -13 36q0 35 30 62l85 80
q22 19 31 28q10 10 17 21q8 13 8 21q0 14 -12 25q-11 10 -30 10h-2z" />
    <glyph glyph-name="threesuperior" unicode="&#xb3;" horiz-adv-x="322" 
d="M194 496q0 38 -58 38h-22q-17 0 -26 12t-9 31q0 14 20 37q23 23 37 35.5t19 16.5h-42h-42q-46 0 -46 44q0 18 11 32t32 14h65h114q18 0 29 -12q11 -13 11 -29q0 -25 -17 -39q-3 -4 -20 -21l-49 -49q37 -5 65 -32q26 -26 28 -72q2 -65 -40 -99q-41 -34 -105 -34
q-55 0 -93 20q-31 16 -31 45q0 19 14 33t29 14q12 0 39 -11q21 -12 40 -12q50 0 50 39z" />
    <glyph glyph-name="acute" unicode="&#xb4;" horiz-adv-x="267" 
d="M113 534q-15 -12 -35 -12q-16 0 -32 15q-17 15 -17 31t11 32l85 100q21 25 46 25q23 0 43 -19q21 -20 21 -42q0 -18 -19 -37q-17 -18 -42.5 -41t-59.5 -51z" />
    <glyph glyph-name="mu" unicode="&#xb5;" horiz-adv-x="571" 
d="M135 459q29 0 44 -16q15 -17 15 -42v-76v-99q0 -117 75 -117q97 0 97 163v124q0 65 68 65q34 0 51 -16q18 -17 18 -46v-185q0 -75 22 -100q24 -26 24 -54q0 -26 -16 -45t-45 -19q-41 0 -60 18q-26 22 -36 66q-42 -87 -143 -87q-37 0 -56 24q0 -31 -2 -59.5t-6 -54.5
q-12 -120 -92 -120q-74 0 -74 66q0 31 21 82q20 50 22 104q1 88 0 207v71v74q0 75 75 75z" />
    <glyph glyph-name="paragraph" unicode="&#xb6;" horiz-adv-x="660" 
d="M464 562l-89 -1v-66v-148v-283q0 -66 -66 -66q-64 0 -64 61q0 5 0.5 35.5l1.5 87.5q1 112 0 114h-14q-202 0 -204 182q-2 96 57 149t162 53h63t112 1h98q35 -2 54 -19q20 -18 20 -48v-226v-328q0 -63 -64 -63q-66 0 -66 71z" />
    <glyph glyph-name="periodcentered" unicode="&#xb7;" horiz-adv-x="233" 
d="M110 161q-33 0 -55 21t-22 56q0 34 24 57q25 23 60 23q34 0 57 -21t23 -56q0 -36 -24 -58q-23 -22 -61 -22h-2z" />
    <glyph glyph-name="cedilla" unicode="&#xb8;" horiz-adv-x="276" 
d="M101 0l71 1l-14 -44q30 0 53 -22q24 -23 24 -63q0 -50 -31 -78t-81 -28q-30 0 -57 12q-27 13 -27 42q0 16 11 27q10 10 26 10q8 0 23 -6t26 -6q31 0 31 26q0 25 -30 25h-18q-17 2 -26 19q-9 19 -2 36z" />
    <glyph glyph-name="onesuperior" unicode="&#xb9;" horiz-adv-x="258" 
d="M79 613q-10 -7 -26 -7t-28 15t-12 31q0 25 27 42l69 48q23 14 42 14q18 0 33 -12t15 -26v-99v-105v-105q0 -18 -13 -28t-33 -10q-48 0 -48 44q0 9 0.5 34.5t1.5 67.5t1.5 71.5t0.5 46.5q-2 -2 -4 -3.5t-4 -3.5q-3 -3 -11 -9l-8 -6h-3z" />
    <glyph glyph-name="ordmasculine" unicode="&#xba;" horiz-adv-x="399" 
d="M370 492q0 -70 -48 -118t-127 -48q-72 0 -121 46t-49 114q0 77 50 127q49 49 122 49q79 -2 126 -46q48 -45 48 -123zM126 491q0 -34 20 -57q19 -22 50 -22q32 0 53 23q21 22 21 60q0 35 -20 58q-19 22 -48 22q-33 0 -54 -22q-21 -23 -21 -63z" />
    <glyph glyph-name="guillemotright" unicode="&#xbb;" horiz-adv-x="536" 
d="M47 346q-15 18 -15 31q0 16 17 30t33 14q19 0 33 -11q87 -80 132 -126q23 -23 23 -51t-26 -57l-133 -121q-17 -14 -36 -12q-16 2 -30 16q-15 15 -15 28q0 19 17 39l95 109zM284 345q-15 16 -15 31q0 17 16 30q17 14 33 14q18 0 34 -11l132 -126q23 -26 23 -51
q0 -29 -27 -57l-133 -121q-17 -14 -36 -12q-16 2 -30 16q-15 15 -15 28q0 19 17 39l96 109z" />
    <glyph glyph-name="onequarter" unicode="&#xbc;" horiz-adv-x="781" 
d="M605 187q0 45 41 45q25 0 35 -7q10 -8 12 -24v-51l22 1q38 0 38 -40q0 -50 -37 -50h-22v-32q-2 -36 -47 -36q-42 -2 -42 36v34h-124q-20 0 -33 18q-13 17 -13 37q0 31 21 63l98 178q18 28 43 28q21 0 38 -13q18 -14 18 -30q0 -9 -7 -24l-99 -169l58 1v39v-4zM494 644
q20 32 43 32q17 0 31 -12q13 -12 13 -28q0 -13 -11 -33l-154 -253l-197 -332q-13 -25 -39 -25q-17 0 -30 12q-14 12 -14 30q0 13 13 36l344 573h1zM89 534q-10 -7 -24 -7q-17 0 -29 14q-12 13 -12 30q0 22 27 42l69 47q24 15 44 15q19 0 34 -12t15 -27v-48v-49v-211
q0 -18 -14 -27t-33 -9q-48 0 -48 44q0 9 0.5 34.5t1.5 67.5t1.5 71.5t0.5 46.5q-13 -13 -28 -20z" />
    <glyph glyph-name="onehalf" unicode="&#xbd;" horiz-adv-x="781" 
d="M491 649q20 32 42 32q17 0 31 -12q13 -12 13 -28q0 -13 -11 -33q-5 -10 -22.5 -38.5l-47.5 -76.5l-51 -82.5l-34 -56.5l-196 -332q-13 -25 -39 -25q-17 0 -30 12t-13 30q0 14 13 36l344 573zM89 540q-10 -7 -26 -7t-28 14q-12 13 -12 30q0 22 27 42l69 47q24 15 43 15
t34 -12t15 -27v-98v-106v-105q0 -18 -14 -27t-33 -9q-47 0 -47 44q0 9 0.5 34.5t1.5 67.5t1.5 71.5t0.5 46.5q-5 -5 -11.5 -10t-16.5 -10zM590 295q-26 0 -44 -23q-13 -16 -41 -16q-18 0 -30 14q-12 13 -12 32q0 26 36 56q43 31 90 31q60 1 103 -32q42 -33 42 -89
q0 -29 -17 -58t-30 -42q-7 -7 -21 -19l-35 -30l-30 -26h51h35h15q42 0 42 -47t-46 -47h-32h-29h-126q-19 0 -33 14q-13 13 -13 36q0 33 30 62l85 80q48 43 54 57q2 8 2 11q0 14 -12 25q-11 10 -29 10z" />
    <glyph glyph-name="threequarters" unicode="&#xbe;" horiz-adv-x="811" 
d="M635 187q0 45 41 45q25 0 35 -7q10 -8 12 -24v-51l22 1q38 0 38 -40q0 -50 -37 -50h-22v-32q-2 -36 -48 -36q-42 -2 -42 36v34h-124q-20 0 -33 18q-13 17 -13 37q0 31 21 63l98 178q18 28 43 28q21 0 38 -13q18 -14 18 -30q0 -9 -7 -24l-99 -169l58 1v39zM538 645
q20 32 42 32q17 0 31 -12q13 -12 13 -28q0 -13 -11 -33q-5 -10 -22.5 -38.5l-47.5 -76.5l-51 -82.5l-34 -56.5l-196 -332q-13 -25 -39 -25q-17 0 -30 12t-13 30q0 14 13 36l344 573zM208 416q0 38 -58 38h-22q-17 0 -26 12t-9 31q0 16 20 36q37 37 57 54h-41h-41
q-47 0 -47 43q0 19 11 33t32 14h65h56h57q19 0 30 -12q11 -13 11 -29q0 -22 -17 -39q-3 -4 -29 -30l-40 -40q37 -5 64 -31q26 -26 28 -72q2 -65 -40 -99q-41 -34 -105 -34q-55 0 -93 20q-30 16 -30 46q0 20 13 33q14 14 28 14q12 0 39 -11q20 -11 40 -11q50 0 50 39z" />
    <glyph glyph-name="questiondown" unicode="&#xbf;" horiz-adv-x="490" 
d="M449 -117q0 -35 -36 -60q-79 -56 -168 -56q-94 0 -157 57t-63 143q0 59 36 98t94 70q43 25 45 57q0 8 -1 10t-1 11q0 24 17 39q16 15 45 15q34 0 54 -24q20 -25 20 -64q0 -67 -74 -111q-65 -38 -81 -57q-18 -20 -18 -42q0 -34 26 -55q25 -21 63 -21q43 0 84 30
q34 24 59 24q20 0 40 -21q19 -20 19 -42zM339 394q0 -32 -24 -53t-58 -21q-35 0 -57 21t-22 53q0 34 24 54q23 19 58 19t57 -19q23 -20 23 -54h-1z" />
    <glyph glyph-name="Agrave" unicode="&#xc0;" horiz-adv-x="659" 
d="M17 61q0 23 17 63q64 141 93 216l120 294q9 23 30 35t47 12q64 0 84 -50l36 -89.5l92 -231.5q4 -6 8 -17t8 -17l46.5 -114l28.5 -68q11 -27 11 -42q0 -22 -22 -40q-23 -18 -54 -18q-49 0 -65 43l-46 118q-10 1 -48.5 1h-107.5h-93l-43 -114q-20 -47 -60 -47q-34 0 -57 16
q-24 16 -24 51zM326 513l-87 -249q49 0 91.5 0.5t79.5 1.5q-5 12 -39 114l-28.5 84.5t-16.5 49.5v-1zM330 728q-56 52 -96 96q-16 19 -16 39q0 19 21 37t41 18q29 0 47 -25q10 -15 39 -51l24 -31t15 -21q10 -13 10 -30q0 -16 -15 -31t-31 -15q-18 0 -37 14h-2z" />
    <glyph glyph-name="Aacute" unicode="&#xc1;" horiz-adv-x="659" 
d="M17 61q0 23 17 63q64 141 93 216l120 294q9 23 30 35t47 12q64 0 84 -50l36 -89.5l92 -231.5q4 -6 8 -17t8 -17l46.5 -114l28.5 -68q11 -27 11 -42q0 -22 -22 -40q-23 -18 -54 -18q-49 0 -65 43l-46 118q-10 1 -48.5 1h-107.5h-93l-43 -114q-20 -47 -60 -47q-34 0 -57 16
q-24 16 -24 51zM326 513l-87 -249q49 0 91.5 0.5t79.5 1.5q-5 12 -39 114l-28.5 84.5t-16.5 49.5v-1zM325 722q-15 -12 -35 -12q-16 0 -32 15q-17 15 -17 31t11 32l85 100q21 25 46 25q23 0 43 -19q21 -20 21 -42q0 -18 -19 -37q-17 -18 -42.5 -41t-59.5 -51z" />
    <glyph glyph-name="Acircumflex" unicode="&#xc2;" horiz-adv-x="659" 
d="M17 61q0 23 17 63q64 141 93 216l120 294q9 23 30 35t47 12q64 0 84 -50l36 -89.5l92 -231.5q4 -6 8 -17t8 -17l46.5 -114l28.5 -68q11 -27 11 -42q0 -22 -22 -40q-23 -18 -54 -18q-49 0 -65 43l-46 118q-10 1 -48.5 1h-107.5h-93l-43 -114q-20 -47 -60 -47q-34 0 -57 16
q-24 16 -24 51zM326 513l-87 -249q49 0 91.5 0.5t79.5 1.5q-5 12 -39 114l-28.5 84.5t-16.5 49.5v-1zM429 715q-13 -1 -33 14l-42 42t-27 28l-39 -43t-26 -26q-16 -16 -36 -16q-14 0 -30 14q-15 13 -15 29q0 19 13 32l34.5 40l49.5 54q19 22 51 22q25 0 45 -20l87 -96
q13 -16 13 -33q0 -12 -14 -28q-14 -15 -30 -15z" />
    <glyph glyph-name="Atilde" unicode="&#xc3;" horiz-adv-x="659" 
d="M17 61q0 23 17 63q64 141 93 216l120 294q9 23 30 35t47 12q64 0 84 -50l36 -89.5l92 -231.5q4 -6 8 -17t8 -17l46.5 -114l28.5 -68q11 -27 11 -42q0 -22 -22 -40q-23 -18 -54 -18q-49 0 -65 43l-46 118q-10 1 -48.5 1h-107.5h-93l-43 -114q-20 -47 -60 -47q-34 0 -57 16
q-24 16 -24 51zM326 513l-87 -249q49 0 91.5 0.5t79.5 1.5q-5 12 -39 114l-28.5 84.5t-16.5 49.5v-1zM245 755q-5 -29 -43 -29q-20 0 -33 13q-14 13 -15 39q3 43 30 69q28 26 71 26q28 0 50 -14q23 -15 38 -27q16 -14 30 -15q22 0 23 25q5 32 45 32q17 0 31 -12
q13 -12 13 -30q0 -53 -27 -80t-71 -27q-26 0 -48 14q-19 12 -37 27q-17 14 -31 15q-22 0 -24 -23z" />
    <glyph glyph-name="Adieresis" unicode="&#xc4;" horiz-adv-x="659" 
d="M17 61q0 23 17 63q64 141 93 216l120 294q9 23 30 35t47 12q64 0 84 -50l36 -89.5l92 -231.5q4 -6 8 -17t8 -17l46.5 -114l28.5 -68q11 -27 11 -42q0 -22 -22 -40q-23 -18 -54 -18q-49 0 -65 43l-46 118q-10 1 -48.5 1h-107.5h-93l-43 -114q-20 -47 -60 -47q-34 0 -57 16
q-24 16 -24 51zM326 513l-87 -249q49 0 91.5 0.5t79.5 1.5q-5 12 -39 114l-28.5 84.5t-16.5 49.5v-1zM237 732q-28 0 -46 18t-18 45q0 28 20 48t50 20q29 0 47 -18t18 -46q0 -29 -19 -48t-51 -19h-1zM409 734q-28 0 -46 18t-18 45q0 29 19 48q20 20 49 20q28 0 48 -18
q19 -18 19 -46q0 -29 -19 -48t-51 -19h-1z" />
    <glyph glyph-name="Aring" unicode="&#xc5;" horiz-adv-x="659" 
d="M326 849q49 0 84 -30q34 -30 34 -78q0 -58 -47 -93l12 -20l126 -318q4 -6 8 -17t8 -17l48 -117.5l27 -64.5q11 -27 11 -42q0 -22 -22 -40q-23 -18 -54 -18q-49 0 -65 43l-46 118q-10 1 -48.5 1h-107.5h-93l-43 -114q-20 -47 -60 -47q-34 0 -57 16q-24 16 -24 51
q0 23 17 63q64 141 93 216l119 291q1 6 9 15q-48 31 -48 88q0 52 37 83q38 32 84 32zM325 513l-87 -249q49 0 91.5 0.5t79.5 1.5q-5 12 -39 114l-28.5 84.5t-16.5 49.5v-1zM373 739q0 19 -14 33t-36 14q-20 0 -33 -13q-14 -14 -14 -36q0 -18 14 -34q13 -15 35 -15t36 15
t12 35v1z" />
    <glyph glyph-name="AE" unicode="&#xc6;" horiz-adv-x="917" 
d="M9 72q2 26 31 63q66 91 183 270l98.5 149l59.5 88q30 43 89 38h90h165h89q28 0 45 -15q16 -15 18 -38q0 -52 -38 -63q-19 -2 -82.5 -3t-172.5 -1v-68l-2 -91v-9h32h77h84q31 0 46 -16q15 -17 15 -42q0 -58 -61 -58h-194q-1 -9 -1 -22.5v-31.5v-51v-51q20 -1 51 -0.5
t75 2.5q87 3 119 3q29 0 44 -16q15 -17 15 -45q0 -30 -18 -48q-17 -17 -50 -19h-246q-70 0 -96 13t-31 57v89l-206 1q-2 -2 -10 -15l-22 -36l-26 -41l-21 -31q-25 -40 -73 -39q-29 1 -50 23q-22 21 -20 53zM289 271l150 1v30v30v71v51v30t1 22z" />
    <glyph glyph-name="Ccedilla" unicode="&#xc7;" horiz-adv-x="610" 
d="M321 -9q-121 14 -204 103q-84 89 -82 232q2 107 52 190q51 84 126 126q74 42 158 40q88 0 147 -27q55 -24 54 -66q-2 -30 -16 -47q-15 -18 -43 -18q-20 2 -50 15q-53 21 -102 21q-75 0 -130 -64q-56 -65 -57 -165q-1 -91 57 -151q58 -59 135 -61q54 0 110 27q35 18 51 17
q26 0 41 -22q15 -23 14 -51q-2 -35 -58 -63q-58 -29 -131 -35l-11 -34q30 0 53 -22q24 -23 24 -63q0 -50 -31 -78t-81 -28q-31 0 -56 12q-28 12 -28 41q0 16 12 27q11 10 26 10q8 0 23 -6t26 -6q30 0 30 26q0 25 -30 25h-18q-16 1 -25 19t-3 36z" />
    <glyph glyph-name="Egrave" unicode="&#xc8;" horiz-adv-x="550" 
d="M73 619q2 30 22 45q21 15 54 15h40h88t81 1t60 1h25q29 0 44 -15q14 -15 16 -40q2 -51 -36 -62q-21 -3 -222 -3h-35v-69l-2 -91v-7h32q42 0 79 0.5t69 1.5q39 0 57 -12t17 -49q-1 -58 -60 -58h-194q-1 -8 -1 -22v-34v-102q60 0 108 0.5t84 1.5h33h29q54 0 54 -60
q0 -63 -62 -65h-274q-60 0 -82 13t-25 54q-2 19 0 33v13t1 32q1 42 3 114q1 36 1 69v64v116v114zM301 731q-56 52 -96 96q-16 19 -16 39q0 19 21 37t41 18q29 0 47 -25q10 -15 39 -51l24 -31t15 -21q10 -13 10 -30q0 -16 -15 -31t-31 -15q-18 0 -37 14h-2z" />
    <glyph glyph-name="Eacute" unicode="&#xc9;" horiz-adv-x="550" 
d="M73 619q2 30 22 45q21 15 54 15h40h88t81 1t60 1h25q29 0 44 -15q14 -15 16 -40q2 -51 -36 -62q-21 -3 -222 -3h-35v-69l-2 -91v-7h32q42 0 79 0.5t69 1.5q39 0 57 -12t17 -49q-1 -58 -60 -58h-194q-1 -8 -1 -22v-34v-102q60 0 108 0.5t84 1.5h33h29q54 0 54 -60
q0 -63 -62 -65h-274q-60 0 -82 13t-25 54q-2 19 0 33v13t1 32q1 42 3 114q1 36 1 69v64v116v114zM296 725q-15 -12 -35 -12q-16 0 -32 15q-17 15 -17 31t11 32l85 100q21 25 46 25q23 0 43 -19q21 -20 21 -42q0 -18 -19 -37q-17 -18 -42.5 -41t-59.5 -51z" />
    <glyph glyph-name="Ecircumflex" unicode="&#xca;" horiz-adv-x="550" 
d="M73 619q2 30 22 45q21 15 54 15h40h88t81 1t60 1h25q29 0 44 -15q14 -15 16 -40q2 -51 -36 -62q-21 -3 -222 -3h-35v-69l-2 -91v-7h32q42 0 79 0.5t69 1.5q39 0 57 -12t17 -49q-1 -58 -60 -58h-194q-1 -8 -1 -22v-34v-102q60 0 108 0.5t84 1.5h33h29q54 0 54 -60
q0 -63 -62 -65h-274q-60 0 -82 13t-25 54q-2 19 0 33v13t1 32q1 42 3 114q1 36 1 69v64v116v114zM400 718q-13 -1 -33 14l-42 42t-27 28l-39 -43t-26 -26q-16 -16 -36 -16q-14 0 -30 14q-15 13 -15 29q0 19 13 32l34.5 40l49.5 54q19 22 51 22q25 0 45 -20l87 -96
q13 -16 13 -33q0 -12 -14 -28q-14 -15 -30 -15z" />
    <glyph glyph-name="Edieresis" unicode="&#xcb;" horiz-adv-x="550" 
d="M73 619q2 30 22 45q21 15 54 15h40h88t81 1t60 1h25q29 0 44 -15q14 -15 16 -40q2 -51 -36 -62q-21 -3 -222 -3h-35v-69l-2 -91v-7h32q42 0 79 0.5t69 1.5q39 0 57 -12t17 -49q-1 -58 -60 -58h-194q-1 -8 -1 -22v-34v-102q60 0 108 0.5t84 1.5h33h29q54 0 54 -60
q0 -63 -62 -65h-274q-60 0 -82 13t-25 54q-2 19 0 33v13t1 32q1 42 3 114q1 36 1 69v64v116v114zM208 735q-28 0 -46 18t-18 45q0 28 20 48t50 20q29 0 47 -18t18 -46q0 -29 -19 -48t-51 -19h-1zM380 737q-28 0 -46 18t-18 45q0 29 19 48q20 20 49 20q28 0 48 -18
q19 -18 19 -46q0 -29 -19 -48t-51 -19h-1z" />
    <glyph glyph-name="Igrave" unicode="&#xcc;" horiz-adv-x="299" 
d="M79 417v92v109q-1 32 20 49q20 16 52 16q28 0 48 -15q19 -15 19 -42v-237v-156l1 -176q0 -31 -20 -46t-51 -15t-51 17q-20 16 -18 48v42v47l2 269zM151 728q-56 52 -96 96q-16 19 -16 39q0 19 21 37t41 18q29 0 47 -25q10 -15 39 -51l24 -31t15 -21q10 -13 10 -30
q0 -16 -15 -31t-31 -15q-18 0 -37 14h-2z" />
    <glyph glyph-name="Iacute" unicode="&#xcd;" horiz-adv-x="299" 
d="M79 417v92v109q-1 32 20 49q20 16 52 16q28 0 48 -15q19 -15 19 -42v-237v-156l1 -176q0 -31 -20 -46t-51 -15t-51 17q-20 16 -18 48v42v47l2 269zM146 722q-15 -12 -35 -12q-16 0 -32 15q-17 15 -17 31t11 32l85 100q21 25 46 25q23 0 43 -19q21 -20 21 -42
q0 -18 -19 -37q-17 -18 -42.5 -41t-59.5 -51z" />
    <glyph glyph-name="Icircumflex" unicode="&#xce;" horiz-adv-x="299" 
d="M79 417v92v109q-1 32 20 49q20 16 52 16q28 0 48 -15q19 -15 19 -42v-237v-156l1 -176q0 -31 -20 -46t-51 -15t-51 17q-20 16 -18 48v42v47l2 269zM250 715q-13 -1 -33 14l-42 42t-27 28l-39 -43t-26 -26q-16 -16 -36 -16q-14 0 -30 14q-15 13 -15 29q0 19 13 32l34.5 40
l49.5 54q19 22 51 22q25 0 45 -20l87 -96q13 -16 13 -33q0 -12 -14 -28q-14 -15 -30 -15z" />
    <glyph glyph-name="Idieresis" unicode="&#xcf;" horiz-adv-x="299" 
d="M79 417v92v109q-1 32 20 49q20 16 52 16q28 0 48 -15q19 -15 19 -42v-237v-156l1 -176q0 -31 -20 -46t-51 -15t-51 17q-20 16 -18 48v42v47l2 269zM58 732q-28 0 -46 18t-18 45q0 28 20 48t50 20q29 0 47 -18t18 -46q0 -29 -19 -48t-51 -19h-1zM230 734q-28 0 -46 18
t-18 45q0 29 19 48q20 20 49 20q28 0 48 -18q19 -18 19 -46q0 -29 -19 -48t-51 -19h-1z" />
    <glyph glyph-name="Eth" unicode="&#xd0;" horiz-adv-x="690" 
d="M72 604q0 78 121 78h54h50q151 -1 255 -86q103 -84 103 -233q0 -359 -382 -362q-60 0 -95 0.5t-46 1.5q-21 3 -40 23q-18 19 -18 45l1 199h-20q-56 0 -56 60t58 60h17l-1 213zM288 558h-44.5t-30.5 -1v-167h63q57 0 57 -61q0 -59 -66 -59h-54v-120q0 -12 5 -17
q4 -5 12 -6q5 -1 25 -1h10q250 0 250 225q0 103 -65 156q-64 52 -162 52v-1z" />
    <glyph glyph-name="Ntilde" unicode="&#xd1;" horiz-adv-x="718" 
d="M212 62q0 -70 -65 -70q-70 0 -73 60v91t1 146v215v114q1 28 27 45q25 16 57 16q25 0 42 -12q16 -12 36 -39l222 -311l53 -79q-1 46 -1.5 88.5t-0.5 82.5l-2 193q0 41 17 60q16 18 56 18q66 0 66 -69v-339v-79v-135q0 -29 -24 -45q-25 -17 -58 -17q-26 0 -42 12
q-15 11 -34 41l-282 403q-2 -65 0 -206q1 -71 1.5 -115.5t0.5 -64.5zM280 753q-5 -29 -43 -29q-20 0 -33 13q-14 13 -15 39q3 43 30 69q28 26 71 26q28 0 50 -14q23 -15 38 -27q16 -14 30 -15q22 0 23 25q5 32 45 32q17 0 31 -12q13 -12 13 -30q0 -53 -27 -80t-71 -27
q-26 0 -48 14q-19 12 -37 27q-17 14 -31 15q-22 0 -24 -23z" />
    <glyph glyph-name="Ograve" unicode="&#xd2;" horiz-adv-x="745" 
d="M373 684q137 0 236 -96t99 -243q0 -149 -97 -252q-98 -104 -240 -104q-132 0 -232 93t-100 242q0 161 102 263q101 101 232 100v-3zM567 341q-2 97 -60 155q-59 59 -141 59q-79 0 -133 -63t-54 -160q0 -96 56 -155t140 -59q79 0 136 67t57 157zM372 726q-56 52 -96 96
q-16 19 -16 39q0 19 21 37t41 18q29 0 47 -25q10 -15 39 -51l24 -31t15 -21q10 -13 10 -30q0 -16 -15 -31t-31 -15q-18 0 -37 14h-2z" />
    <glyph glyph-name="Oacute" unicode="&#xd3;" horiz-adv-x="745" 
d="M373 684q137 0 236 -96t99 -243q0 -149 -97 -252q-98 -104 -240 -104q-132 0 -232 93t-100 242q0 161 102 263q101 101 232 100v-3zM567 341q-2 97 -60 155q-59 59 -141 59q-79 0 -133 -63t-54 -160q0 -96 56 -155t140 -59q79 0 136 67t57 157zM367 720q-15 -12 -35 -12
q-16 0 -32 15q-17 15 -17 31t11 32l85 100q21 25 46 25q23 0 43 -19q21 -20 21 -42q0 -18 -19 -37q-17 -18 -42.5 -41t-59.5 -51z" />
    <glyph glyph-name="Ocircumflex" unicode="&#xd4;" horiz-adv-x="745" 
d="M373 684q137 0 236 -96t99 -243q0 -149 -97 -252q-98 -104 -240 -104q-132 0 -232 93t-100 242q0 161 102 263q101 101 232 100v-3zM567 341q-2 97 -60 155q-59 59 -141 59q-79 0 -133 -63t-54 -160q0 -96 56 -155t140 -59q79 0 136 67t57 157zM471 713q-13 -1 -33 14
l-42 42t-27 28l-39 -43t-26 -26q-16 -16 -36 -16q-14 0 -30 14q-15 13 -15 29q0 19 13 32l34.5 40l49.5 54q19 22 51 22q25 0 45 -20l87 -96q13 -16 13 -33q0 -12 -14 -28q-14 -15 -30 -15z" />
    <glyph glyph-name="Otilde" unicode="&#xd5;" horiz-adv-x="745" 
d="M373 684q137 0 236 -96t99 -243q0 -149 -97 -252q-98 -104 -240 -104q-132 0 -232 93t-100 242q0 161 102 263q101 101 232 100v-3zM567 341q-2 97 -60 155q-59 59 -141 59q-79 0 -133 -63t-54 -160q0 -96 56 -155t140 -59q79 0 136 67t57 157zM287 753q-5 -29 -43 -29
q-20 0 -33 13q-14 13 -15 39q3 43 30 69q28 26 71 26q28 0 50 -14q23 -15 38 -27q16 -14 30 -15q22 0 23 25q5 32 45 32q17 0 31 -12q13 -12 13 -30q0 -53 -27 -80t-71 -27q-26 0 -48 14q-19 12 -37 27q-17 14 -31 15q-22 0 -24 -23z" />
    <glyph glyph-name="Odieresis" unicode="&#xd6;" horiz-adv-x="745" 
d="M373 684q137 0 236 -96t99 -243q0 -149 -97 -252q-98 -104 -240 -104q-132 0 -232 93t-100 242q0 161 102 263q101 101 232 100v-3zM567 341q-2 97 -60 155q-59 59 -141 59q-79 0 -133 -63t-54 -160q0 -96 56 -155t140 -59q79 0 136 67t57 157zM279 730q-28 0 -46 18
t-18 45q0 28 20 48t50 20q29 0 47 -18t18 -46q0 -29 -19 -48t-51 -19h-1zM451 732q-28 0 -46 18t-18 45q0 29 19 48q20 20 49 20q28 0 48 -18q19 -18 19 -46q0 -29 -19 -48t-51 -19h-1z" />
    <glyph glyph-name="multiply" unicode="&#xd7;" horiz-adv-x="495" 
d="M131 228l34 37l-110 111q-14 19 -14 40q0 20 20 38q20 19 41 20q27 1 52 -27l91 -101l85 95q28 34 54 34q25 0 46 -18t21 -42q0 -8 -3 -15q-3 -8 -10 -15q-6 -6 -12 -14q-5 -6 -17 -17t-18 -18l-67 -70l100 -99q26 -26 26 -51q0 -21 -21 -40q-20 -19 -46 -19q-11 0 -21 6
q-9 5 -15 11l-6.5 6.5t-10.5 11.5l-84 92l-86 -97q-31 -31 -51 -31q-25 0 -47 20q-21 19 -21 42t15 40z" />
    <glyph glyph-name="Oslash" unicode="&#xd8;" horiz-adv-x="745" 
d="M373 685q79 0 151 -36l23 34q11 17 30 17q15 0 27 -12t12 -25q0 -10 -5 -18l-25 -38q56 -47 89 -114q33 -68 33 -147q0 -149 -97 -252q-98 -104 -240 -104q-86 0 -163 41l-29 -44q-12 -17 -28 -17q-13 0 -27 11q-13 10 -13 24q0 12 7 23l30 46q-109 96 -109 250
q0 161 102 263q101 101 232 100v-2zM567 343q0 90 -55 149l-231 -350q44 -23 94 -23q79 0 136 67t57 157h-1zM180 332q0 -87 46 -143l226 347q-43 20 -86 20q-79 0 -133 -63t-54 -160z" />
    <glyph glyph-name="Ugrave" unicode="&#xd9;" horiz-adv-x="694" 
d="M70 279q1 117 1.5 199.5t0.5 133.5q0 31 18 48q19 17 50 17q40 0 57 -17q16 -16 16 -54q-1 -23 -1 -103v-218q0 -82 37 -122q38 -41 105 -41q64 0 98 46q35 47 36 118q1 24 1.5 50t0.5 54v58.5t-1 63.5t-1 58.5v42.5q0 66 71 66q37 0 53 -19q17 -20 17 -60l1 -295
q0 -141 -75 -226t-208 -85q-127 0 -202 76t-75 213v-4zM354 726q-56 52 -96 96q-16 19 -16 39q0 19 21 37t41 18q29 0 47 -25q10 -15 39 -51l24 -31t15 -21q10 -13 10 -30q0 -16 -15 -31t-31 -15q-18 0 -37 14h-2z" />
    <glyph glyph-name="Uacute" unicode="&#xda;" horiz-adv-x="694" 
d="M70 279q1 117 1.5 199.5t0.5 133.5q0 31 18 48q19 17 50 17q40 0 57 -17q16 -16 16 -54q-1 -23 -1 -103v-218q0 -82 37 -122q38 -41 105 -41q64 0 98 46q35 47 36 118q1 24 1.5 50t0.5 54v58.5t-1 63.5t-1 58.5v42.5q0 66 71 66q37 0 53 -19q17 -20 17 -60l1 -295
q0 -141 -75 -226t-208 -85q-127 0 -202 76t-75 213v-4zM349 720q-15 -12 -35 -12q-16 0 -32 15q-17 15 -17 31t11 32l85 100q21 25 46 25q23 0 43 -19q21 -20 21 -42q0 -18 -19 -37q-17 -18 -42.5 -41t-59.5 -51z" />
    <glyph glyph-name="Ucircumflex" unicode="&#xdb;" horiz-adv-x="694" 
d="M70 279q1 117 1.5 199.5t0.5 133.5q0 31 18 48q19 17 50 17q40 0 57 -17q16 -16 16 -54q-1 -23 -1 -103v-218q0 -82 37 -122q38 -41 105 -41q64 0 98 46q35 47 36 118q1 24 1.5 50t0.5 54v58.5t-1 63.5t-1 58.5v42.5q0 66 71 66q37 0 53 -19q17 -20 17 -60l1 -295
q0 -141 -75 -226t-208 -85q-127 0 -202 76t-75 213v-4zM453 713q-13 -1 -33 14l-42 42t-27 28l-39 -43t-26 -26q-16 -16 -36 -16q-14 0 -30 14q-15 13 -15 29q0 19 13 32l34.5 40l49.5 54q19 22 51 22q25 0 45 -20l87 -96q13 -16 13 -33q0 -12 -14 -28q-14 -15 -30 -15z" />
    <glyph glyph-name="Udieresis" unicode="&#xdc;" horiz-adv-x="694" 
d="M70 279q1 117 1.5 199.5t0.5 133.5q0 31 18 48q19 17 50 17q40 0 57 -17q16 -16 16 -54q-1 -23 -1 -103v-218q0 -82 37 -122q38 -41 105 -41q64 0 98 46q35 47 36 118q1 24 1.5 50t0.5 54v58.5t-1 63.5t-1 58.5v42.5q0 66 71 66q37 0 53 -19q17 -20 17 -60l1 -295
q0 -141 -75 -226t-208 -85q-127 0 -202 76t-75 213v-4zM261 730q-28 0 -46 18t-18 45q0 28 20 48t50 20q29 0 47 -18t18 -46q0 -29 -19 -48t-51 -19h-1zM433 732q-28 0 -46 18t-18 45q0 29 19 48q20 20 49 20q28 0 48 -18q19 -18 19 -46q0 -29 -19 -48t-51 -19h-1z" />
    <glyph glyph-name="Yacute" unicode="&#xdd;" horiz-adv-x="616" 
d="M221 284l-190 288q-16 25 -16 42q0 27 23 47t51 20q34 0 53 -31l166 -267q1 3 162 264q23 35 60 35q25 0 48 -18q22 -18 22 -42q0 -23 -16 -45l-207 -315v-208q0 -27 -21 -42t-51 -15q-32 0 -51 18t-19 47v15.5t1 22.5t1 22.5v16.5v122zM307 723q-15 -12 -35 -12
q-16 0 -32 15q-17 15 -17 31t11 32l85 100q21 25 46 25q23 0 43 -19q21 -20 21 -42q0 -18 -19 -37q-17 -18 -42.5 -41t-59.5 -51z" />
    <glyph glyph-name="Thorn" unicode="&#xde;" horiz-adv-x="581" 
d="M68 605q0 77 71 77q73 0 72 -72v-57l81 2q57 2 104 -9q48 -11 84 -34q37 -24 57 -68t18 -104q-1 -76 -51 -133t-127 -72q-26 -6 -150 -6h-20v-71q0 -32 -19 -48q-20 -17 -51 -17q-34 -1 -52 17t-18 47v39t1 65t1 69v50zM210 243q45 0 74 1t43 3q88 10 90 95q1 40 -21 63
q-23 22 -48 27q-28 5 -63 5h-48t-27 -1v-193z" />
    <glyph glyph-name="germandbls" unicode="&#xdf;" horiz-adv-x="599" 
d="M281 332q0 30 21 57t42 51t21 45q0 70 -82 70q-85 0 -87 -131q0 -14 0.5 -52.5t1.5 -104.5q1 -131 0 -195q-2 -46 -19 -62q-18 -17 -57 -18q-29 -2 -45 18q-16 19 -16 51v340q0 138 63 206t169 68q92 0 146 -48t54 -131q0 -25 -14 -51t-30 -42q-17 -17 -30 -33
q-14 -17 -14 -25t5 -16q4 -6 14 -13t16 -9l21 -9q7 -3 11.5 -4.5t6.5 -2.5q91 -42 91 -135q0 -75 -46 -120q-47 -45 -135 -45q-61 0 -96 16q-36 16 -36 46q0 65 51 65q15 0 41 -6q25 -6 48 -6q22 0 36 12t14 33q0 42 -73 69q-90 31 -90 114z" />
    <glyph glyph-name="agrave" unicode="&#xe0;" 
d="M517 166q0 -20 1 -48.5t3 -66.5q0 -57 -70 -57q-26 0 -39 16q-14 16 -21 54q-44 -72 -135 -72q-99 0 -160 64t-61 162q0 110 66 179t167 69q82 0 124 -62q4 19 9 30q15 28 52 28q64 0 64 -65l-1 -78zM175 219q0 -48 29 -80t71 -32q48 0 80 33q32 34 32 87q0 56 -31 87
q-32 32 -75 32q-46 0 -76 -34q-30 -35 -30 -93zM283 538q-56 52 -96 96q-16 19 -16 39q0 19 21 37t41 18q29 0 47 -25q10 -15 39 -51l24 -31t15 -21q10 -13 10 -30q0 -16 -15 -31t-31 -15q-18 0 -37 14h-2z" />
    <glyph glyph-name="aacute" unicode="&#xe1;" 
d="M517 166q0 -20 1 -48.5t3 -66.5q0 -57 -70 -57q-26 0 -39 16q-14 16 -21 54q-44 -72 -135 -72q-99 0 -160 64t-61 162q0 110 66 179t167 69q82 0 124 -62q4 19 9 30q15 28 52 28q64 0 64 -65l-1 -78zM175 219q0 -48 29 -80t71 -32q48 0 80 33q32 34 32 87q0 56 -31 87
q-32 32 -75 32q-46 0 -76 -34q-30 -35 -30 -93zM278 532q-15 -12 -35 -12q-16 0 -32 15q-17 15 -17 31t11 32l85 100q21 25 46 25q23 0 43 -19q21 -20 21 -42q0 -18 -19 -37q-17 -18 -42.5 -41t-59.5 -51z" />
    <glyph glyph-name="acircumflex" unicode="&#xe2;" 
d="M517 166q0 -20 1 -48.5t3 -66.5q0 -57 -70 -57q-26 0 -39 16q-14 16 -21 54q-44 -72 -135 -72q-99 0 -160 64t-61 162q0 110 66 179t167 69q82 0 124 -62q4 19 9 30q15 28 52 28q64 0 64 -65l-1 -78zM175 219q0 -48 29 -80t71 -32q48 0 80 33q32 34 32 87q0 56 -31 87
q-32 32 -75 32q-46 0 -76 -34q-30 -35 -30 -93zM382 525q-13 -1 -33 14l-42 42t-27 28l-39 -43t-26 -26q-16 -16 -36 -16q-14 0 -30 14q-15 13 -15 29q0 19 13 32l34.5 40l49.5 54q19 22 51 22q25 0 45 -20l87 -96q13 -16 13 -33q0 -12 -14 -28q-14 -15 -30 -15z" />
    <glyph glyph-name="atilde" unicode="&#xe3;" 
d="M517 166q0 -20 1 -48.5t3 -66.5q0 -57 -70 -57q-26 0 -39 16q-14 16 -21 54q-44 -72 -135 -72q-99 0 -160 64t-61 162q0 110 66 179t167 69q82 0 124 -62q4 19 9 30q15 28 52 28q64 0 64 -65l-1 -78zM175 219q0 -48 29 -80t71 -32q48 0 80 33q32 34 32 87q0 56 -31 87
q-32 32 -75 32q-46 0 -76 -34q-30 -35 -30 -93zM198 565q-5 -29 -43 -29q-20 0 -33 13q-14 13 -15 39q3 43 30 69q28 26 71 26q28 0 50 -14q23 -15 38 -27q16 -14 30 -15q22 0 23 25q5 32 45 32q17 0 31 -12q13 -12 13 -30q0 -53 -27 -80t-71 -27q-26 0 -48 14
q-19 12 -37 27q-17 14 -31 15q-22 0 -24 -23z" />
    <glyph glyph-name="adieresis" unicode="&#xe4;" 
d="M517 166q0 -20 1 -48.5t3 -66.5q0 -57 -70 -57q-26 0 -39 16q-14 16 -21 54q-44 -72 -135 -72q-99 0 -160 64t-61 162q0 110 66 179t167 69q82 0 124 -62q4 19 9 30q15 28 52 28q64 0 64 -65l-1 -78zM175 219q0 -48 29 -80t71 -32q48 0 80 33q32 34 32 87q0 56 -31 87
q-32 32 -75 32q-46 0 -76 -34q-30 -35 -30 -93zM190 542q-28 0 -46 18t-18 45q0 28 20 48t50 20q29 0 47 -18t18 -46q0 -29 -19 -48t-51 -19h-1zM362 544q-28 0 -46 18t-18 45q0 29 19 48q20 20 49 20q28 0 48 -18q19 -18 19 -46q0 -29 -19 -48t-51 -19h-1z" />
    <glyph glyph-name="aring" unicode="&#xe5;" 
d="M517 166q0 -20 1 -48.5t3 -66.5q0 -57 -70 -57q-26 0 -39 16q-14 16 -21 54q-44 -72 -135 -72q-99 0 -160 64t-61 162q0 110 66 179t167 69q82 0 124 -62q4 19 9 30q15 28 52 28q64 0 64 -65l-1 -78zM175 219q0 -48 29 -80t71 -32q48 0 80 33q32 34 32 87q0 56 -31 87
q-32 32 -75 32q-46 0 -76 -34q-30 -35 -30 -93zM280 738q50 0 83 -30t33 -78q0 -50 -34 -84t-84 -34q-46 0 -82 30t-36 80q0 52 37 83q38 32 82 32zM327 626q-2 20 -15 32q-14 12 -34 12q-19 0 -33 -14q-13 -13 -13 -33t14 -32q13 -12 33 -12q19 0 33 15q14 16 14 35z" />
    <glyph glyph-name="ae" unicode="&#xe6;" horiz-adv-x="806" 
d="M471 200q5 -35 32 -59t66 -24q51 0 86 19q30 15 46 15q21 0 38 -20t17 -45q0 -37 -53 -64t-141 -27q-50 0 -97 25q-48 26 -69 61q-26 -38 -68 -62t-96 -24q-89 0 -144 38q-54 37 -54 107q0 64 51 102q52 38 139 38q16 0 42 -1.5l63 -3.5q-4 39 -31 58q-26 19 -67 19
q-26 0 -63 -12q-35 -11 -48 -13q-24 -1 -40 15t-16 42q0 30 26 48q53 37 153 37q52 0 95 -22q43 -23 66 -60q25 34 71 57t93 23q88 0 147 -57t59 -131q0 -45 -15 -63t-64 -19h-85.5t-49.5 -1zM566 361q-39 0 -67 -25t-31 -58h90.5t56.5 1q27 0 27 7q0 32 -22 53
q-23 21 -54 21v1zM234 107q32 0 58 20q25 19 33 51l3 21q-41 3 -99 3q-71 2 -71 -48q0 -48 76 -48v1z" />
    <glyph glyph-name="ccedilla" unicode="&#xe7;" horiz-adv-x="452" 
d="M215 -6q-59 11 -102 46q-43 36 -63 80q-20 43 -18 90q0 102 69 179t175 77q71 0 120 -31q25 -18 25 -47q0 -25 -16 -45q-17 -21 -40 -21q-14 0 -45 12q-21 10 -48 10q-44 0 -74 -39t-30 -85q0 -48 31 -79t76 -31q31 0 63 18q23 13 41 13q23 0 38 -21t15 -46
q0 -29 -25 -45q-47 -35 -122 -40l-10 -32q30 0 53 -22q24 -23 24 -63q0 -50 -31 -78t-81 -28q-30 0 -57 12q-27 13 -27 42q0 16 11 27q10 10 26 10q8 0 23 -6t26 -6q31 0 31 26q0 25 -30 25h-18q-17 2 -26 19q-9 19 -2 36z" />
    <glyph glyph-name="egrave" unicode="&#xe8;" horiz-adv-x="513" 
d="M172 194q5 -36 34 -60q30 -24 68 -24q46 0 84 23q26 14 45 14q23 0 39 -19q17 -20 17 -45q0 -34 -34 -53q-58 -37 -161 -37q-95 0 -162 66q-68 66 -69 159q0 106 68 179q67 72 167 72q89 0 149 -57t60 -130q0 -45 -15 -64q-15 -20 -63 -21q-63 -2 -225 -3h-2zM268 359
q-38 0 -65 -24t-30 -57q42 0 82 1t80 3q12 0 12 6q0 31 -23 51t-56 20zM267 540q-56 52 -96 96q-16 19 -16 39q0 19 21 37t41 18q29 0 47 -25q10 -15 39 -51l24 -31t15 -21q10 -13 10 -30q0 -16 -15 -31t-31 -15q-18 0 -37 14h-2z" />
    <glyph glyph-name="eacute" unicode="&#xe9;" horiz-adv-x="513" 
d="M172 194q5 -36 34 -60q30 -24 68 -24q46 0 84 23q26 14 45 14q23 0 39 -19q17 -20 17 -45q0 -34 -34 -53q-58 -37 -161 -37q-95 0 -162 66q-68 66 -69 159q0 106 68 179q67 72 167 72q89 0 149 -57t60 -130q0 -45 -15 -64q-15 -20 -63 -21q-63 -2 -225 -3h-2zM268 359
q-38 0 -65 -24t-30 -57q42 0 82 1t80 3q12 0 12 6q0 31 -23 51t-56 20zM262 534q-15 -12 -35 -12q-16 0 -32 15q-17 15 -17 31t11 32l85 100q21 25 46 25q23 0 43 -19q21 -20 21 -42q0 -18 -19 -37q-17 -18 -42.5 -41t-59.5 -51z" />
    <glyph glyph-name="ecircumflex" unicode="&#xea;" horiz-adv-x="513" 
d="M172 194q5 -36 34 -60q30 -24 68 -24q46 0 84 23q26 14 45 14q23 0 39 -19q17 -20 17 -45q0 -34 -34 -53q-58 -37 -161 -37q-95 0 -162 66q-68 66 -69 159q0 106 68 179q67 72 167 72q89 0 149 -57t60 -130q0 -45 -15 -64q-15 -20 -63 -21q-63 -2 -225 -3h-2zM268 359
q-38 0 -65 -24t-30 -57q42 0 82 1t80 3q12 0 12 6q0 31 -23 51t-56 20zM366 527q-13 -1 -33 14l-42 42t-27 28l-39 -43t-26 -26q-16 -16 -36 -16q-14 0 -30 14q-15 13 -15 29q0 19 13 32l34.5 40l49.5 54q19 22 51 22q25 0 45 -20l87 -96q13 -16 13 -33q0 -12 -14 -28
q-14 -15 -30 -15z" />
    <glyph glyph-name="edieresis" unicode="&#xeb;" horiz-adv-x="513" 
d="M172 194q5 -36 34 -60q30 -24 68 -24q46 0 84 23q26 14 45 14q23 0 39 -19q17 -20 17 -45q0 -34 -34 -53q-58 -37 -161 -37q-95 0 -162 66q-68 66 -69 159q0 106 68 179q67 72 167 72q89 0 149 -57t60 -130q0 -45 -15 -64q-15 -20 -63 -21q-63 -2 -225 -3h-2zM268 359
q-38 0 -65 -24t-30 -57q42 0 82 1t80 3q12 0 12 6q0 31 -23 51t-56 20zM174 544q-28 0 -46 18t-18 45q0 28 20 48t50 20q29 0 47 -18t18 -46q0 -29 -19 -48t-51 -19h-1zM346 546q-28 0 -46 18t-18 45q0 29 19 48q20 20 49 20q28 0 48 -18q19 -18 19 -46q0 -29 -19 -48
t-51 -19h-1z" />
    <glyph glyph-name="igrave" unicode="&#xec;" horiz-adv-x="263" 
d="M61 404q1 30 21 45q19 15 45 15q70 0 72 -63v-112v-112l1 -121q1 -30 -18 -46t-51 -16q-29 0 -49 14q-19 13 -19 41v357zM133 538q-56 52 -96 96q-16 19 -16 39q0 19 21 37t41 18q29 0 47 -25q10 -15 39 -51l24 -31t15 -21q10 -13 10 -30q0 -16 -15 -31t-31 -15
q-18 0 -37 14h-2z" />
    <glyph glyph-name="iacute" unicode="&#xed;" horiz-adv-x="263" 
d="M61 404q1 30 21 45q19 15 45 15q70 0 72 -63v-112v-112l1 -121q1 -30 -18 -46t-51 -16q-29 0 -49 14q-19 13 -19 41v357zM128 532q-15 -12 -35 -12q-16 0 -32 15q-17 15 -17 31t11 32l85 100q21 25 46 25q23 0 43 -19q21 -20 21 -42q0 -18 -19 -37q-17 -18 -42.5 -41
t-59.5 -51z" />
    <glyph glyph-name="icircumflex" unicode="&#xee;" horiz-adv-x="263" 
d="M61 404q1 30 21 45q19 15 45 15q70 0 72 -63v-112v-112l1 -121q1 -30 -18 -46t-51 -16q-29 0 -49 14q-19 13 -19 41v357zM232 525q-13 -1 -33 14l-42 42t-27 28l-39 -43t-26 -26q-16 -16 -36 -16q-14 0 -30 14q-15 13 -15 29q0 19 13 32l34.5 40l49.5 54q19 22 51 22
q25 0 45 -20l87 -96q13 -16 13 -33q0 -12 -14 -28q-14 -15 -30 -15z" />
    <glyph glyph-name="idieresis" unicode="&#xef;" horiz-adv-x="263" 
d="M61 404q1 30 21 45q19 15 45 15q70 0 72 -63v-112v-112l1 -121q1 -30 -18 -46t-51 -16q-29 0 -49 14q-19 13 -19 41v357zM40 542q-28 0 -46 18t-18 45q0 28 20 48t50 20q29 0 47 -18t18 -46q0 -29 -19 -48t-51 -19h-1zM212 544q-28 0 -46 18t-18 45q0 29 19 48
q20 20 49 20q28 0 48 -18q19 -18 19 -46q0 -29 -19 -48t-51 -19h-1z" />
    <glyph glyph-name="eth" unicode="&#xf0;" horiz-adv-x="565" 
d="M426 595q91 -118 90 -289q0 -71 -3 -93q-15 -104 -80 -162q-65 -57 -162 -57q-104 0 -172 64q-69 64 -69 166q0 103 66 165q66 61 158 63q67 1 114 -54q-1 67 -53 123l-49 -32q-10 -7 -21 -7q-14 0 -24 12q-11 13 -11 26q0 19 21 33l27 18q-41 25 -81 36q-26 7 -37 32
q-10 24 2 47q28 58 105 36q67 -20 132 -78l44 30q10 7 21 7q14 0 24 -13q11 -14 11 -27q0 -15 -28 -34zM263 337q-44 -2 -72 -30q-29 -29 -29 -75q0 -53 28 -84t72 -31q43 0 75 33t30 80q-1 46 -30 76t-72 30z" />
    <glyph glyph-name="ntilde" unicode="&#xf1;" horiz-adv-x="565" 
d="M60 390q0 38 16 55q16 18 54 18q55 0 62 -49l2 -27q15 36 54 57t83 21q86 0 132 -52t46 -148v-57v-69v-82q0 -63 -73 -63q-29 0 -47 15t-18 44v33t1 52t1 53.5v36.5q0 55 -15 87t-58 33q-60 1 -81 -36q-21 -38 -21 -114l1 -147q0 -29 -19 -42t-48 -13q-70 0 -70 57
q0 13 0.5 40.5t1.5 71.5q1 87 0 154zM205 566q-5 -29 -43 -29q-20 0 -33 13q-14 13 -15 39q3 43 30 69q28 26 71 26q28 0 50 -14q23 -15 38 -27q16 -14 30 -15q22 0 23 25q5 32 45 32q17 0 31 -12q13 -12 13 -30q0 -53 -27 -80t-71 -27q-26 0 -48 14q-19 12 -37 27
q-17 14 -31 15q-22 0 -24 -23z" />
    <glyph glyph-name="ograve" unicode="&#xf2;" horiz-adv-x="551" 
d="M296 465q20 0 33 -5q92 -14 140 -80t48 -151q0 -104 -70 -171t-177 -67q-97 0 -166 63t-69 162q0 112 69 181t191 71zM380 230q0 47 -28 81q-29 34 -75 36q-50 -2 -78 -36q-29 -35 -29 -96q0 -47 30 -78t68 -31q47 0 80 35q33 34 33 90zM274 536q-56 52 -96 96
q-16 19 -16 39q0 19 21 37t41 18q29 0 47 -25q10 -15 39 -51l24 -31t15 -21q10 -13 10 -30q0 -16 -15 -31t-31 -15q-18 0 -37 14h-2z" />
    <glyph glyph-name="oacute" unicode="&#xf3;" horiz-adv-x="551" 
d="M296 465q20 0 33 -5q92 -14 140 -80t48 -151q0 -104 -70 -171t-177 -67q-97 0 -166 63t-69 162q0 112 69 181t191 71zM380 230q0 47 -28 81q-29 34 -75 36q-50 -2 -78 -36q-29 -35 -29 -96q0 -47 30 -78t68 -31q47 0 80 35q33 34 33 90zM269 530q-15 -12 -35 -12
q-16 0 -32 15q-17 15 -17 31t11 32l85 100q21 25 46 25q23 0 43 -19q21 -20 21 -42q0 -18 -19 -37q-17 -18 -42.5 -41t-59.5 -51z" />
    <glyph glyph-name="ocircumflex" unicode="&#xf4;" horiz-adv-x="551" 
d="M296 465q20 0 33 -5q92 -14 140 -80t48 -151q0 -104 -70 -171t-177 -67q-97 0 -166 63t-69 162q0 112 69 181t191 71zM380 230q0 47 -28 81q-29 34 -75 36q-50 -2 -78 -36q-29 -35 -29 -96q0 -47 30 -78t68 -31q47 0 80 35q33 34 33 90zM373 523q-13 -1 -33 14l-42 42
t-27 28l-39 -43t-26 -26q-16 -16 -36 -16q-14 0 -30 14q-15 13 -15 29q0 19 13 32l34.5 40l49.5 54q19 22 51 22q25 0 45 -20l87 -96q13 -16 13 -33q0 -12 -14 -28q-14 -15 -30 -15z" />
    <glyph glyph-name="otilde" unicode="&#xf5;" horiz-adv-x="551" 
d="M296 465q20 0 33 -5q92 -14 140 -80t48 -151q0 -104 -70 -171t-177 -67q-97 0 -166 63t-69 162q0 112 69 181t191 71zM380 230q0 47 -28 81q-29 34 -75 36q-50 -2 -78 -36q-29 -35 -29 -96q0 -47 30 -78t68 -31q47 0 80 35q33 34 33 90zM189 563q-5 -29 -43 -29
q-20 0 -33 13q-14 13 -15 39q3 43 30 69q28 26 71 26q28 0 50 -14q23 -15 38 -27q16 -14 30 -15q22 0 23 25q5 32 45 32q17 0 31 -12q13 -12 13 -30q0 -53 -27 -80t-71 -27q-26 0 -48 14q-19 12 -37 27q-17 14 -31 15q-22 0 -24 -23z" />
    <glyph glyph-name="odieresis" unicode="&#xf6;" horiz-adv-x="551" 
d="M296 465q20 0 33 -5q92 -14 140 -80t48 -151q0 -104 -70 -171t-177 -67q-97 0 -166 63t-69 162q0 112 69 181t191 71zM380 230q0 47 -28 81q-29 34 -75 36q-50 -2 -78 -36q-29 -35 -29 -96q0 -47 30 -78t68 -31q47 0 80 35q33 34 33 90zM181 540q-28 0 -46 18t-18 45
q0 28 20 48t50 20q29 0 47 -18t18 -46q0 -29 -19 -48t-51 -19h-1zM353 542q-28 0 -46 18t-18 45q0 29 19 48q20 20 49 20q28 0 48 -18q19 -18 19 -46q0 -29 -19 -48t-51 -19h-1z" />
    <glyph glyph-name="divide" unicode="&#xf7;" horiz-adv-x="495" 
d="M77 215q-25 -1 -37 17t-12 43q2 23 16 36q16 14 40 14l328 -2q26 0 39 -16t13 -39q0 -24 -15 -39q-14 -14 -41 -16q-31 -1 -169 0q-69 1 -109 1h-51zM245 381q-29 0 -49 20q-19 19 -19 50t21 51q22 20 54 20q31 0 51 -19q21 -20 21 -51q0 -32 -21 -51q-20 -19 -56 -19z
M239 20q-29 0 -48 19t-19 48q0 31 21 51q22 20 53 20t50 -19q20 -20 20 -49q0 -32 -21 -51q-20 -19 -55 -19h-1z" />
    <glyph glyph-name="oslash" unicode="&#xf8;" horiz-adv-x="551" 
d="M292 471q21 0 34 -5q26 -5 47 -15l17 26q10 18 30 18q11 0 23 -9t12 -20t-11 -30l-12 -19q82 -69 82 -183q0 -104 -69 -171q-68 -67 -176 -67q-46 0 -88 16l-20 -31q-9 -17 -25 -17q-12 0 -24 9t-12 21q0 9 9 24l14 24q-88 67 -88 177q0 112 69 180t190 69zM167 221
q0 -39 24 -66l117 191q-17 7 -33 7q-50 -2 -78 -36q-29 -35 -29 -96h-1zM376 237q0 38 -19 63l-114 -185q10 -3 21 -3q47 0 80 35q33 34 33 90h-1z" />
    <glyph glyph-name="ugrave" unicode="&#xf9;" horiz-adv-x="571" 
d="M133 462q60 0 60 -70v-164q0 -117 75 -117q97 0 97 149l1 137q0 32 20 49q19 16 51 16q67 0 67 -63v-27v-54v-70v-38.5t1 -35.5q1 -39 3 -81q1 -21 1.5 -33t0.5 -14q0 -26 -19 -39t-48 -13q-51 0 -60 41v6t-1 11q-2 13 -3 24q-48 -86 -138 -86q-92 0 -137 58t-45 157v96
v94q0 67 76 67h-2zM283 540q-56 52 -96 96q-16 19 -16 39q0 19 21 37t41 18q29 0 47 -25q10 -15 39 -51l24 -31t15 -21q10 -13 10 -30q0 -16 -15 -31t-31 -15q-18 0 -37 14h-2z" />
    <glyph glyph-name="uacute" unicode="&#xfa;" horiz-adv-x="571" 
d="M133 462q60 0 60 -70v-164q0 -117 75 -117q97 0 97 149l1 137q0 32 20 49q19 16 51 16q67 0 67 -63v-27v-54v-70v-38.5t1 -35.5q1 -39 3 -81q1 -21 1.5 -33t0.5 -14q0 -26 -19 -39t-48 -13q-51 0 -60 41v6t-1 11q-2 13 -3 24q-48 -86 -138 -86q-92 0 -137 58t-45 157v96
v94q0 67 76 67h-2zM278 534q-15 -12 -35 -12q-16 0 -32 15q-17 15 -17 31t11 32l85 100q21 25 46 25q23 0 43 -19q21 -20 21 -42q0 -18 -19 -37q-17 -18 -42.5 -41t-59.5 -51z" />
    <glyph glyph-name="ucircumflex" unicode="&#xfb;" horiz-adv-x="571" 
d="M133 462q60 0 60 -70v-164q0 -117 75 -117q97 0 97 149l1 137q0 32 20 49q19 16 51 16q67 0 67 -63v-27v-54v-70v-38.5t1 -35.5q1 -39 3 -81q1 -21 1.5 -33t0.5 -14q0 -26 -19 -39t-48 -13q-51 0 -60 41v6t-1 11q-2 13 -3 24q-48 -86 -138 -86q-92 0 -137 58t-45 157v96
v94q0 67 76 67h-2zM382 527q-13 -1 -33 14l-42 42t-27 28l-39 -43t-26 -26q-16 -16 -36 -16q-14 0 -30 14q-15 13 -15 29q0 19 13 32l34.5 40l49.5 54q19 22 51 22q25 0 45 -20l87 -96q13 -16 13 -33q0 -12 -14 -28q-14 -15 -30 -15z" />
    <glyph glyph-name="udieresis" unicode="&#xfc;" horiz-adv-x="571" 
d="M133 462q60 0 60 -70v-164q0 -117 75 -117q97 0 97 149l1 137q0 32 20 49q19 16 51 16q67 0 67 -63v-27v-54v-70v-38.5t1 -35.5q1 -39 3 -81q1 -21 1.5 -33t0.5 -14q0 -26 -19 -39t-48 -13q-51 0 -60 41v6t-1 11q-2 13 -3 24q-48 -86 -138 -86q-92 0 -137 58t-45 157v96
v94q0 67 76 67h-2zM190 544q-28 0 -46 18t-18 45q0 28 20 48t50 20q29 0 47 -18t18 -46q0 -29 -19 -48t-51 -19h-1zM362 546q-28 0 -46 18t-18 45q0 29 19 48q20 20 49 20q28 0 48 -18q19 -18 19 -46q0 -29 -19 -48t-51 -19h-1z" />
    <glyph glyph-name="yacute" unicode="&#xfd;" horiz-adv-x="514" 
d="M360 412q18 50 58 50q29 0 52 -16q24 -17 24 -39t-14 -53l-128.5 -281.5l-93.5 -194.5q-57 -104 -154 -104q-88 0 -88 66q0 62 63 62q27 0 42 12q16 13 32 45l37 72l-24 48l-126 270q-18 34 -18 59q0 22 24 39q25 17 49 17q23 0 34 -7q13 -8 20 -25q106 -263 111 -273z
M242 533q-15 -12 -35 -12q-16 0 -32 15q-17 15 -17 31t11 32l85 100q21 25 46 25q23 0 43 -19q21 -20 21 -42q0 -18 -19 -37q-17 -18 -42.5 -41t-59.5 -51z" />
    <glyph glyph-name="thorn" unicode="&#xfe;" horiz-adv-x="583" 
d="M192 -158q-2 -60 -69 -60q-35 0 -52 17q-16 16 -16 51l4 399l-3 405q2 35 19 51q19 17 46 17q32 0 51 -13q19 -14 18 -48q-1 -118 -1.5 -183t-0.5 -77q40 67 136 67q94 0 156 -68t62 -164q0 -104 -66 -174q-66 -71 -164 -71q-86 0 -123 67v-75v-78v-63h3zM406 235
q0 51 -30 84t-74 33q-50 0 -82 -32q-31 -31 -31 -92q0 -55 30 -88t75 -33q47 0 80 36t33 92h-1z" />
    <glyph glyph-name="ydieresis" unicode="&#xff;" horiz-adv-x="514" 
d="M360 412q18 50 58 50q29 0 52 -16q24 -17 24 -39t-14 -53l-128.5 -281.5l-93.5 -194.5q-57 -104 -154 -104q-88 0 -88 66q0 62 63 62q27 0 42 12q16 13 32 45l37 72l-24 48l-126 270q-18 34 -18 59q0 22 24 39q25 17 49 17q23 0 34 -7q13 -8 20 -25q106 -263 111 -273z
M154 543q-28 0 -46 18t-18 45q0 28 20 48t50 20q29 0 47 -18t18 -46q0 -29 -19 -48t-51 -19h-1zM326 545q-28 0 -46 18t-18 45q0 29 19 48q20 20 49 20q28 0 48 -18q19 -18 19 -46q0 -29 -19 -48t-51 -19h-1z" />
    <glyph glyph-name="Amacron" unicode="&#x100;" horiz-adv-x="659" 
d="M17 61q0 23 17 63q64 141 93 216l120 294q9 23 30 35t47 12q64 0 84 -50l36 -89.5l92 -231.5q4 -6 8 -17t8 -17l46.5 -114l28.5 -68q11 -27 11 -42q0 -22 -22 -40q-23 -18 -54 -18q-49 0 -65 43l-46 118q-10 1 -48.5 1h-107.5h-93l-43 -114q-20 -47 -60 -47q-34 0 -57 16
q-24 16 -24 51zM326 513l-87 -249q49 0 91.5 0.5t79.5 1.5q-5 12 -39 114l-28.5 84.5t-16.5 49.5v-1zM236 751q-29 0 -42 15q-14 16 -14 37q0 24 15 39t44 15h37h39h24t32 1t32 1h24q54 0 54 -53t-68 -53h-89h-44h-42z" />
    <glyph glyph-name="amacron" unicode="&#x101;" 
d="M517 166q0 -20 1 -48.5t3 -66.5q0 -57 -70 -57q-26 0 -39 16q-14 16 -21 54q-44 -72 -135 -72q-99 0 -160 64t-61 162q0 110 66 179t167 69q82 0 124 -62q4 19 9 30q15 28 52 28q64 0 64 -65l-1 -78zM175 219q0 -48 29 -80t71 -32q48 0 80 33q32 34 32 87q0 56 -31 87
q-32 32 -75 32q-46 0 -76 -34q-30 -35 -30 -93zM189 561q-29 0 -42 15q-14 16 -14 37q0 24 15 39t44 15h37h39h24t32 1t32 1h24q54 0 54 -53t-68 -53h-89h-44h-42z" />
    <glyph glyph-name="Abreve" unicode="&#x102;" horiz-adv-x="659" 
d="M17 61q0 23 17 63q64 141 93 216l120 294q9 23 30 35t47 12q64 0 84 -50l36 -89.5l92 -231.5q4 -6 8 -17t8 -17l46.5 -114l28.5 -68q11 -27 11 -42q0 -22 -22 -40q-23 -18 -54 -18q-49 0 -65 43l-46 118q-10 1 -48.5 1h-107.5h-93l-43 -114q-20 -47 -60 -47q-34 0 -57 16
q-24 16 -24 51zM326 513l-87 -249q49 0 91.5 0.5t79.5 1.5q-5 12 -39 114l-28.5 84.5t-16.5 49.5v-1zM425 889q21 0 33 -12t12 -28q0 -60 -39 -99t-104 -39q-55 0 -97 36q-41 36 -43 92q-1 19 11 33t33 14q19 0 30 -10q13 -11 14 -25q8 -50 52 -50q23 0 38 15q16 16 17 36
q6 36 45 36z" />
    <glyph glyph-name="abreve" unicode="&#x103;" 
d="M517 166q0 -20 1 -48.5t3 -66.5q0 -57 -70 -57q-26 0 -39 16q-14 16 -21 54q-44 -72 -135 -72q-99 0 -160 64t-61 162q0 110 66 179t167 69q82 0 124 -62q4 19 9 30q15 28 52 28q64 0 64 -65l-1 -78zM175 219q0 -48 29 -80t71 -32q48 0 80 33q32 34 32 87q0 56 -31 87
q-32 32 -75 32q-46 0 -76 -34q-30 -35 -30 -93zM378 699q21 0 33 -12t12 -28q0 -60 -39 -99t-104 -39q-55 0 -97 36q-41 36 -43 92q-1 19 11 33t33 14q19 0 30 -10q13 -11 14 -25q8 -50 52 -50q23 0 38 15q16 16 17 36q6 36 45 36z" />
    <glyph glyph-name="Aogonek" unicode="&#x104;" horiz-adv-x="659" 
d="M537 -100q0 -32 30 -32q4 0 8 0.5t9 1.5t9 1.5t8 0.5q17 0 27 -13t10 -36q0 -25 -21 -40t-55 -15q-50 0 -84 26q-33 25 -33 80q0 69 79 127q-17 10 -27 36l-46 118q-10 1 -48.5 1h-107.5h-93l-43 -114q-20 -47 -60 -47q-34 0 -57 16q-24 16 -24 51q0 23 17 63
q64 141 93 216l120 294q9 23 30 35t47 12q64 0 84 -50l36 -89.5l92 -231.5q4 -6 8 -17t8 -17l48 -117.5l27 -64.5q11 -27 11 -42q0 -27 -30 -45q-69 -65 -69 -105zM324 511l-87 -249q49 0 91.5 0.5t79.5 1.5q-5 12 -39 114l-28.5 84.5t-16.5 49.5v-1z" />
    <glyph glyph-name="aogonek" unicode="&#x105;" 
d="M514 164q0 -31 1 -58.5t3 -52.5q0 -37 -28 -53q-73 -57 -73 -101q0 -32 30 -32q4 0 7.5 0.5t8.5 1.5t9 1.5t8 0.5q17 0 27 -13t10 -36q0 -28 -21 -41q-22 -14 -56 -14q-50 0 -83 27t-33 81q0 71 89 131q-19 16 -24 56q-44 -72 -135 -72q-99 0 -160 64t-61 162
q0 110 66 179t167 69q82 0 124 -62l3 12q1 4 1 6.5v4.5q4 16 21 27q16 10 38 10q64 0 64 -63l-1 -80zM171 217q0 -48 29 -80t72 -32q48 0 80 33q32 34 32 87q0 56 -31 87q-32 32 -75 32q-46 0 -76 -34q-30 -35 -30 -93h-1z" />
    <glyph glyph-name="Cacute" unicode="&#x106;" horiz-adv-x="610" 
d="M520 658q55 -24 54 -66q-2 -30 -16 -47q-15 -18 -43 -18q-20 2 -50 15q-53 21 -102 21q-75 0 -130 -64q-56 -65 -57 -165q-1 -91 57 -151q58 -59 135 -61q54 0 110 27q35 18 51 17q26 0 41 -22q15 -23 14 -51q-1 -39 -73 -70q-72 -32 -156 -30q-129 1 -225 93
q-96 91 -94 243q2 107 52 190q51 84 126 126q74 42 158 40q88 0 147 -27h1zM363 724q-15 -12 -35 -12q-16 0 -32 15q-17 15 -17 31t11 32l85 100q21 25 46 25q23 0 43 -19q21 -20 21 -42q0 -18 -19 -37q-17 -18 -42.5 -41t-59.5 -51z" />
    <glyph glyph-name="cacute" unicode="&#x107;" horiz-adv-x="452" 
d="M397 435q25 -18 25 -47q0 -25 -16 -45q-17 -21 -40 -21q-14 0 -45 12q-21 10 -48 10q-44 0 -74 -39t-30 -85q0 -48 31 -79t76 -31q31 0 63 18q23 13 41 13q23 0 38 -21t15 -46q0 -29 -25 -45q-53 -41 -138 -41q-59 0 -105 21q-47 21 -74 54t-42 71q-15 37 -15 77
q0 102 69 179t175 77q71 0 120 -31zM264 533q-15 -12 -35 -12q-16 0 -32 15q-17 15 -17 31t11 32l85 100q21 25 46 25q23 0 43 -19q21 -20 21 -42q0 -18 -19 -37q-17 -18 -42.5 -41t-59.5 -51z" />
    <glyph glyph-name="Ccircumflex" unicode="&#x108;" horiz-adv-x="610" 
d="M520 658q55 -24 54 -66q-2 -30 -16 -47q-15 -18 -43 -18q-20 2 -50 15q-53 21 -102 21q-75 0 -130 -64q-56 -65 -57 -165q-1 -91 57 -151q58 -59 135 -61q54 0 110 27q35 18 51 17q26 0 41 -22q15 -23 14 -51q-1 -39 -73 -70q-72 -32 -156 -30q-129 1 -225 93
q-96 91 -94 243q2 107 52 190q51 84 126 126q74 42 158 40q88 0 147 -27h1zM467 717q-13 -1 -33 14l-42 42t-27 28l-39 -43t-26 -26q-16 -16 -36 -16q-14 0 -30 14q-15 13 -15 29q0 19 13 32l34.5 40l49.5 54q19 22 51 22q25 0 45 -20l87 -96q13 -16 13 -33q0 -12 -14 -28
q-14 -15 -30 -15z" />
    <glyph glyph-name="ccircumflex" unicode="&#x109;" horiz-adv-x="452" 
d="M397 435q25 -18 25 -47q0 -25 -16 -45q-17 -21 -40 -21q-14 0 -45 12q-21 10 -48 10q-44 0 -74 -39t-30 -85q0 -48 31 -79t76 -31q31 0 63 18q23 13 41 13q23 0 38 -21t15 -46q0 -29 -25 -45q-53 -41 -138 -41q-59 0 -105 21q-47 21 -74 54t-42 71q-15 37 -15 77
q0 102 69 179t175 77q71 0 120 -31zM368 526q-13 -1 -33 14l-42 42t-27 28l-39 -43t-26 -26q-16 -16 -36 -16q-14 0 -30 14q-15 13 -15 29q0 19 13 32l34.5 40l49.5 54q19 22 51 22q25 0 45 -20l87 -96q13 -16 13 -33q0 -12 -14 -28q-14 -15 -30 -15z" />
    <glyph glyph-name="Cdotaccent" unicode="&#x10a;" horiz-adv-x="610" 
d="M520 658q55 -24 54 -66q-2 -30 -16 -47q-15 -18 -43 -18q-20 2 -50 15q-53 21 -102 21q-75 0 -130 -64q-56 -65 -57 -165q-1 -91 57 -151q58 -59 135 -61q54 0 110 27q35 18 51 17q26 0 41 -22q15 -23 14 -51q-1 -39 -73 -70q-72 -32 -156 -30q-129 1 -225 93
q-96 91 -94 243q2 107 52 190q51 84 126 126q74 42 158 40q88 0 147 -27h1zM358 738q-35 0 -56 24q-21 25 -17 59q5 29 28 47q24 18 53 18q36 0 56 -21q20 -22 20 -52q0 -37 -22 -56q-23 -20 -58 -20z" />
    <glyph glyph-name="cdotaccent" unicode="&#x10b;" horiz-adv-x="452" 
d="M397 435q25 -18 25 -47q0 -25 -16 -45q-17 -21 -40 -21q-14 0 -45 12q-21 10 -48 10q-44 0 -74 -39t-30 -85q0 -48 31 -79t76 -31q31 0 63 18q23 13 41 13q23 0 38 -21t15 -46q0 -29 -25 -45q-53 -41 -138 -41q-59 0 -105 21q-47 21 -74 54t-42 71q-15 37 -15 77
q0 102 69 179t175 77q71 0 120 -31zM259 547q-35 0 -56 24q-21 25 -17 59q5 29 28 47q24 18 53 18q36 0 56 -21q20 -22 20 -52q0 -37 -22 -56q-23 -20 -58 -20z" />
    <glyph glyph-name="Ccaron" unicode="&#x10c;" horiz-adv-x="610" 
d="M520 658q55 -24 54 -66q-2 -30 -16 -47q-15 -18 -43 -18q-20 2 -50 15q-53 21 -102 21q-75 0 -130 -64q-56 -65 -57 -165q-1 -91 57 -151q58 -59 135 -61q54 0 110 27q35 18 51 17q26 0 41 -22q15 -23 14 -51q-1 -39 -73 -70q-72 -32 -156 -30q-129 1 -225 93
q-96 91 -94 243q2 107 52 190q51 84 126 126q74 42 158 40q88 0 147 -27h1zM264 902q18 0 33 -15q20 -18 37 -35t31 -34q52 58 66 69q15 15 36 15q13 0 29 -14q15 -14 15 -27q0 -17 -13 -33q-10 -13 -31 -36l-53 -58q-18 -20 -49 -20q-27 0 -46 19l-38.5 40.5l-48.5 54.5
q-13 16 -13 33q0 13 15 27q16 14 31 14h-1z" />
    <glyph glyph-name="ccaron" unicode="&#x10d;" horiz-adv-x="452" 
d="M397 435q25 -18 25 -47q0 -25 -16 -45q-17 -21 -40 -21q-14 0 -45 12q-21 10 -48 10q-44 0 -74 -39t-30 -85q0 -48 31 -79t76 -31q31 0 63 18q23 13 41 13q23 0 38 -21t15 -46q0 -29 -25 -45q-53 -41 -138 -41q-59 0 -105 21q-47 21 -74 54t-42 71q-15 37 -15 77
q0 102 69 179t175 77q71 0 120 -31zM166 711q18 0 33 -15q20 -18 37 -35t31 -34q52 58 66 69q15 15 36 15q13 0 29 -14q15 -14 15 -27q0 -17 -13 -33q-10 -13 -31 -36l-53 -58q-17 -20 -48 -20q-27 0 -46 19l-38.5 40.5l-48.5 54.5q-13 16 -13 33q0 13 14 27t30 14z" />
    <glyph glyph-name="Dcaron" unicode="&#x10e;" horiz-adv-x="686" 
d="M68 604q0 78 121 78h54h50q151 -1 255 -86q103 -84 103 -233q0 -359 -382 -362q-60 0 -95 0.5t-46 1.5q-21 3 -40 23q-18 19 -18 45l1 210l-2 322zM284 558h-44.5t-30.5 -1v-407q0 -12 5 -17q4 -5 12 -6q5 -1 25 -1h10q250 0 250 225q0 103 -65 156q-64 52 -162 52v-1z
M236 902q18 0 33 -15q20 -18 37 -35t31 -34q52 58 66 69q15 15 36 15q13 0 29 -14q15 -14 15 -27q0 -17 -13 -33q-10 -13 -31 -36l-53 -58q-17 -20 -48 -20q-27 0 -46 19l-38.5 40.5l-48.5 54.5q-13 16 -13 33q0 13 14 27t30 14z" />
    <glyph glyph-name="dcaron" unicode="&#x10f;" horiz-adv-x="707" 
d="M619 603q-17 3 -30 18q-13 14 -13 39q-2 27 18 47t45 20q33 0 54 -21t21 -58q0 -38 -23 -75t-57 -56q-11 -8 -23 -8t-22 9t-10 21q0 16 11 25q28 22 28 39v2zM523 441v-215v-39v-63v-75q0 -57 -66 -57q-48 0 -58 39l-5 34q-47 -75 -137 -75q-102 0 -162 66t-60 158
q0 106 67 177q67 72 171 72q74 0 113 -52l-1 243q0 71 67 71q34 0 54 -15q19 -15 18 -49zM174 219q0 -46 30 -79t74 -33q48 0 80 32t32 84q0 55 -30 87t-75 32q-48 0 -79 -34t-31 -91z" />
    <glyph glyph-name="Dcroat" unicode="&#x110;" horiz-adv-x="690" 
d="M72 604q0 78 121 78h54h50q151 -1 255 -86q103 -84 103 -233q0 -359 -382 -362q-60 0 -95 0.5t-46 1.5q-21 3 -40 23q-18 19 -18 45l1 199h-20q-56 0 -56 60t58 60h17l-1 213zM288 558h-44.5t-30.5 -1v-167h63q57 0 57 -61q0 -59 -66 -59h-54v-120q0 -12 5 -17
q4 -5 12 -6q5 -1 25 -1h10q250 0 250 225q0 103 -65 156q-64 52 -162 52v-1z" />
    <glyph glyph-name="dcroat" unicode="&#x111;" horiz-adv-x="580" 
d="M519 625h26q54 0 54 -54q0 -53 -59 -53h-21v-65v-198v-30q0 -1 0.5 -44l1.5 -130q0 -57 -66 -57q-48 0 -58 39l-5 34q-47 -75 -137 -75q-102 0 -162 66t-60 158q0 106 67 177q67 72 171 72q75 0 112 -52v105h-60q-25 0 -42 14q-16 13 -16 39q0 53 59 53h59v36q0 63 72 63
q29 0 47 -15t18 -43zM170 224q0 -46 30 -79t74 -33q48 0 80 32t32 84q0 55 -30 87t-75 32q-48 0 -79 -34t-31 -91z" />
    <glyph glyph-name="Emacron" unicode="&#x112;" horiz-adv-x="550" 
d="M73 619q2 30 22 45q21 15 54 15h40h88t81 1t60 1h25q29 0 44 -15q14 -15 16 -40q2 -51 -36 -62q-21 -3 -222 -3h-35v-69l-2 -91v-7h32q42 0 79 0.5t69 1.5q39 0 57 -12t17 -49q-1 -58 -60 -58h-194q-1 -8 -1 -22v-34v-102q60 0 108 0.5t84 1.5h33h29q54 0 54 -60
q0 -63 -62 -65h-274q-60 0 -82 13t-25 54q-2 19 0 33v13t1 32q1 42 3 114q1 36 1 69v64v116v114zM207 754q-29 0 -42 15q-14 16 -14 37q0 24 15 39t44 15h37h39h24t32 1t32 1h24q54 0 54 -53t-68 -53h-89h-44h-42z" />
    <glyph glyph-name="emacron" unicode="&#x113;" horiz-adv-x="513" 
d="M172 194q5 -36 34 -60q30 -24 68 -24q46 0 84 23q26 14 45 14q23 0 39 -19q17 -20 17 -45q0 -34 -34 -53q-58 -37 -161 -37q-95 0 -162 66q-68 66 -69 159q0 106 68 179q67 72 167 72q89 0 149 -57t60 -130q0 -45 -15 -64q-15 -20 -63 -21q-63 -2 -225 -3h-2zM268 359
q-38 0 -65 -24t-30 -57q42 0 82 1t80 3q12 0 12 6q0 31 -23 51t-56 20zM173 563q-29 0 -42 15q-14 16 -14 37q0 24 15 39t44 15h37h39h24t32 1t32 1h24q54 0 54 -53t-68 -53h-89h-44h-42z" />
    <glyph glyph-name="Ebreve" unicode="&#x114;" horiz-adv-x="550" 
d="M73 619q2 30 22 45q21 15 54 15h40h88t81 1t60 1h25q29 0 44 -15q14 -15 16 -40q2 -51 -36 -62q-21 -3 -222 -3h-35v-69l-2 -91v-7h32q42 0 79 0.5t69 1.5q39 0 57 -12t17 -49q-1 -58 -60 -58h-194q-1 -8 -1 -22v-34v-102q60 0 108 0.5t84 1.5h33h29q54 0 54 -60
q0 -63 -62 -65h-274q-60 0 -82 13t-25 54q-2 19 0 33v13t1 32q1 42 3 114q1 36 1 69v64v116v114zM397 892q21 0 33 -12t12 -28q0 -60 -39 -99t-104 -39q-55 0 -97 36q-41 36 -43 92q-1 19 11 33t33 14q19 0 30 -10q13 -11 14 -25q8 -50 52 -50q23 0 38 15q16 16 17 36
q6 36 45 36z" />
    <glyph glyph-name="ebreve" unicode="&#x115;" horiz-adv-x="513" 
d="M172 194q5 -36 34 -60q30 -24 68 -24q46 0 84 23q26 14 45 14q23 0 39 -19q17 -20 17 -45q0 -34 -34 -53q-58 -37 -161 -37q-95 0 -162 66q-68 66 -69 159q0 106 68 179q67 72 167 72q89 0 149 -57t60 -130q0 -45 -15 -64q-15 -20 -63 -21q-63 -2 -225 -3h-2zM268 359
q-38 0 -65 -24t-30 -57q42 0 82 1t80 3q12 0 12 6q0 31 -23 51t-56 20zM362 701q21 0 33 -12t12 -28q0 -60 -39 -99t-104 -39q-55 0 -97 36q-41 36 -43 92q-1 19 11 33t33 14q19 0 30 -10q13 -11 14 -25q8 -50 52 -50q23 0 38 15q16 16 17 36q6 36 45 36z" />
    <glyph glyph-name="Edotaccent" unicode="&#x116;" horiz-adv-x="550" 
d="M73 619q2 30 22 45q21 15 54 15h40h88t81 1t60 1h25q29 0 44 -15q14 -15 16 -40q2 -51 -36 -62q-21 -3 -222 -3h-35v-69l-2 -91v-7h32q42 0 79 0.5t69 1.5q39 0 57 -12t17 -49q-1 -58 -60 -58h-194q-1 -8 -1 -22v-34v-102q60 0 108 0.5t84 1.5h33h29q54 0 54 -60
q0 -63 -62 -65h-274q-60 0 -82 13t-25 54q-2 19 0 33v13t1 32q1 42 3 114q1 36 1 69v64v116v114zM292 739q-35 0 -56 24q-21 25 -17 59q5 29 28 47q24 18 53 18q36 0 56 -21q20 -22 20 -52q0 -37 -22 -56q-23 -20 -58 -20z" />
    <glyph glyph-name="edotaccent" unicode="&#x117;" horiz-adv-x="513" 
d="M172 194q5 -36 34 -60q30 -24 68 -24q46 0 84 23q26 14 45 14q23 0 39 -19q17 -20 17 -45q0 -34 -34 -53q-58 -37 -161 -37q-95 0 -162 66q-68 66 -69 159q0 106 68 179q67 72 167 72q89 0 149 -57t60 -130q0 -45 -15 -64q-15 -20 -63 -21q-63 -2 -225 -3h-2zM268 359
q-38 0 -65 -24t-30 -57q42 0 82 1t80 3q12 0 12 6q0 31 -23 51t-56 20zM257 548q-35 0 -56 24q-21 25 -17 59q5 29 28 47q24 18 53 18q36 0 56 -21q20 -22 20 -52q0 -37 -22 -56q-23 -20 -58 -20z" />
    <glyph glyph-name="Eogonek" unicode="&#x118;" horiz-adv-x="550" 
d="M400 -97q0 -14 9 -23t22 -9q4 0 8 0.5t9 1.5t9 1.5t8 0.5q35 0 35 -48q0 -42 -52 -52q-12 -3 -33 -1q-47 1 -78 27q-31 25 -31 77q0 71 70 120h-198q-60 0 -82 13t-25 54q-1 3 -1 33v14t1 33q1 41 3 113q1 35 1 67.5v61.5v111v111q4 70 76 70h40h88t81 1t60 1h25
q29 0 44 -15q14 -15 16 -40q2 -51 -36 -62q-23 -3 -223 -3h-35v-62.5t-1 -96.5v-8h32h35t49 1t48 1h33q29 0 43 -13q15 -14 15 -46q0 -31 -16 -44q-17 -14 -54 -14h-184q-1 -26 -1 -65v-93h124h129q54 0 54 -58q0 -55 -45 -64q-29 -17 -48 -43t-19 -53h-5z" />
    <glyph glyph-name="eogonek" unicode="&#x119;" horiz-adv-x="513" 
d="M170 194q5 -36 34 -60q30 -24 68 -24q46 0 84 23q26 14 45 14q23 0 39 -19q17 -20 17 -45q0 -31 -34 -53q-40 -26 -67 -56q-25 -28 -25 -69q0 -33 30 -33q4 0 8 0.5t9 1.5t9 1.5t8 0.5q17 0 27 -13t10 -36q0 -25 -22 -40q-23 -15 -57 -15q-50 0 -84 26q-33 25 -33 80
q0 65 61 116q-5 -1 -13.5 -1h-19.5q-95 0 -162 66q-68 66 -69 159q0 106 68 179q67 72 167 72q89 0 149 -57t60 -130q0 -45 -15 -64q-15 -20 -63 -21q-63 -2 -225 -3h-4zM266 359q-38 0 -65 -24t-30 -57q42 0 82 1t80 3q12 0 12 6q0 31 -23 51t-56 20z" />
    <glyph glyph-name="Ecaron" unicode="&#x11a;" horiz-adv-x="550" 
d="M73 619q2 30 22 45q21 15 54 15h40h88t81 1t60 1h25q29 0 44 -15q14 -15 16 -40q2 -51 -36 -62q-21 -3 -222 -3h-35v-69l-2 -91v-7h32q42 0 79 0.5t69 1.5q39 0 57 -12t17 -49q-1 -58 -60 -58h-194q-1 -8 -1 -22v-34v-102q60 0 108 0.5t84 1.5h33h29q54 0 54 -60
q0 -63 -62 -65h-274q-60 0 -82 13t-25 54q-2 19 0 33v13t1 32q1 42 3 114q1 36 1 69v64v116v114zM197 903q18 0 33 -15q20 -18 37 -35t31 -34q52 58 66 69q15 15 36 15q13 0 29 -14q15 -14 15 -27q0 -17 -13 -33q-10 -13 -31 -36l-53 -58q-18 -20 -49 -20q-27 0 -46 19
l-38.5 40.5l-48.5 54.5q-13 16 -13 33q0 13 15 27q16 14 31 14h-1z" />
    <glyph glyph-name="ecaron" unicode="&#x11b;" horiz-adv-x="513" 
d="M172 194q5 -36 34 -60q30 -24 68 -24q46 0 84 23q26 14 45 14q23 0 39 -19q17 -20 17 -45q0 -34 -34 -53q-58 -37 -161 -37q-95 0 -162 66q-68 66 -69 159q0 106 68 179q67 72 167 72q89 0 149 -57t60 -130q0 -45 -15 -64q-15 -20 -63 -21q-63 -2 -225 -3h-2zM268 359
q-38 0 -65 -24t-30 -57q42 0 82 1t80 3q12 0 12 6q0 31 -23 51t-56 20zM163 712q18 0 33 -15q20 -18 37 -35t31 -34q52 58 66 69q15 15 36 15q13 0 29 -14q15 -14 15 -27q0 -17 -13 -33q-10 -13 -31 -36l-53 -58q-18 -20 -49 -20q-27 0 -46 19l-38.5 40.5l-48.5 54.5
q-13 16 -13 33q0 13 15 27q16 14 31 14h-1z" />
    <glyph glyph-name="Gcircumflex" unicode="&#x11c;" horiz-adv-x="716" 
d="M383 693q109 0 188 -47q43 -25 43 -58q0 -24 -15 -45t-39 -21q-28 0 -62 20q-53 29 -117 29q-80 0 -141 -64q-62 -65 -62 -156q0 -107 55 -168t147 -61q74 0 116 45q43 46 44 104h-84q-25 1 -40 18q-15 16 -15 42q0 56 59 58h143q43 0 60 -23q16 -22 16 -68
q0 -133 -83 -219q-82 -85 -231 -85q-137 0 -230 98q-93 97 -93 249q0 149 102 248t243 99zM480 722q-13 -1 -33 14l-42 42t-27 28l-39 -43t-26 -26q-16 -16 -36 -16q-14 0 -30 14q-15 13 -15 29q0 19 13 32l34.5 40l49.5 54q19 22 51 22q25 0 45 -20l87 -96q13 -16 13 -33
q0 -12 -14 -28q-14 -15 -30 -15z" />
    <glyph glyph-name="gcircumflex" unicode="&#x11d;" horiz-adv-x="573" 
d="M263 -111q46 0 81 30t35 77v49q-16 -25 -50 -42q-32 -16 -70 -16q-99 0 -162 68q-63 67 -63 162q0 105 66 176t165 71q76 0 120 -62l2 19q3 16 21 27q19 11 43 11q30 0 47 -16q18 -17 18 -43q-1 -109 -1.5 -184.5t-0.5 -117.5l1 -103q2 -98 -70 -165q-73 -68 -180 -68
q-92 0 -144 28q-42 22 -42 63q0 27 18 48t42 21q10 0 46 -13q40 -15 77 -15zM172 221q0 -50 30 -81t74 -31q43 0 75 30q31 30 31 87t-30 87t-72 30q-47 2 -77 -33t-30 -90zM388 523q-13 -1 -33 14l-42 42t-27 28l-39 -43t-26 -26q-16 -16 -36 -16q-14 0 -30 14
q-15 13 -15 29q0 19 13 32l34.5 40l49.5 54q19 22 51 22q25 0 45 -20l87 -96q13 -16 13 -33q0 -12 -14 -28q-14 -15 -30 -15z" />
    <glyph glyph-name="Gbreve" unicode="&#x11e;" horiz-adv-x="716" 
d="M383 693q109 0 188 -47q43 -25 43 -58q0 -24 -15 -45t-39 -21q-28 0 -62 20q-53 29 -117 29q-80 0 -141 -64q-62 -65 -62 -156q0 -107 55 -168t147 -61q74 0 116 45q43 46 44 104h-84q-25 1 -40 18q-15 16 -15 42q0 56 59 58h143q43 0 60 -23q16 -22 16 -68
q0 -133 -83 -219q-82 -85 -231 -85q-137 0 -230 98q-93 97 -93 249q0 149 102 248t243 99zM477 896q21 0 33 -12t12 -28q0 -60 -39 -99t-104 -39q-55 0 -97 36q-41 36 -43 92q-1 19 11 33t33 14q19 0 30 -10q13 -11 14 -25q8 -50 52 -50q23 0 38 15q16 16 17 36q6 36 45 36z
" />
    <glyph glyph-name="gbreve" unicode="&#x11f;" horiz-adv-x="573" 
d="M263 -111q46 0 81 30t35 77v49q-16 -25 -50 -42q-32 -16 -70 -16q-99 0 -162 68q-63 67 -63 162q0 105 66 176t165 71q76 0 120 -62l2 19q3 16 21 27q19 11 43 11q30 0 47 -16q18 -17 18 -43q-1 -109 -1.5 -184.5t-0.5 -117.5l1 -103q2 -98 -70 -165q-73 -68 -180 -68
q-92 0 -144 28q-42 22 -42 63q0 27 18 48t42 21q10 0 46 -13q40 -15 77 -15zM172 221q0 -50 30 -81t74 -31q43 0 75 30q31 30 31 87t-30 87t-72 30q-47 2 -77 -33t-30 -90zM384 697q21 0 33 -12t12 -28q0 -60 -39 -99t-104 -39q-55 0 -97 36q-41 36 -43 92q-1 19 11 33
t33 14q19 0 30 -10q13 -11 14 -25q8 -50 52 -50q23 0 38 15q16 16 17 36q6 36 45 36z" />
    <glyph glyph-name="Gdotaccent" unicode="&#x120;" horiz-adv-x="716" 
d="M383 693q109 0 188 -47q43 -25 43 -58q0 -24 -15 -45t-39 -21q-28 0 -62 20q-53 29 -117 29q-80 0 -141 -64q-62 -65 -62 -156q0 -107 55 -168t147 -61q74 0 116 45q43 46 44 104h-84q-25 1 -40 18q-15 16 -15 42q0 56 59 58h143q43 0 60 -23q16 -22 16 -68
q0 -133 -83 -219q-82 -85 -231 -85q-137 0 -230 98q-93 97 -93 249q0 149 102 248t243 99zM372 743q-35 0 -56 24q-21 25 -17 59q5 29 28 47q24 18 53 18q36 0 56 -21q20 -22 20 -52q0 -37 -22 -56q-23 -20 -58 -20z" />
    <glyph glyph-name="gdotaccent" unicode="&#x121;" horiz-adv-x="573" 
d="M263 -111q46 0 81 30t35 77v49q-16 -25 -50 -42q-32 -16 -70 -16q-99 0 -162 68q-63 67 -63 162q0 105 66 176t165 71q76 0 120 -62l2 19q3 16 21 27q19 11 43 11q30 0 47 -16q18 -17 18 -43q-1 -109 -1.5 -184.5t-0.5 -117.5l1 -103q2 -98 -70 -165q-73 -68 -180 -68
q-92 0 -144 28q-42 22 -42 63q0 27 18 48t42 21q10 0 46 -13q40 -15 77 -15zM172 221q0 -50 30 -81t74 -31q43 0 75 30q31 30 31 87t-30 87t-72 30q-47 2 -77 -33t-30 -90zM279 544q-35 0 -56 24q-21 25 -17 59q5 29 28 47q24 18 53 18q36 0 56 -21q20 -22 20 -52
q0 -37 -22 -56q-23 -20 -58 -20z" />
    <glyph glyph-name="Gcommaaccent" unicode="&#x122;" horiz-adv-x="716" 
d="M383 693q109 0 188 -47q43 -25 43 -58q0 -24 -15 -45t-39 -21q-28 0 -62 20q-53 29 -117 29q-80 0 -141 -64q-62 -65 -62 -156q0 -107 55 -168t147 -61q74 0 116 45q43 46 44 104h-84q-25 1 -40 18q-15 16 -15 42q0 56 59 58h143q43 0 60 -23q16 -22 16 -68
q0 -133 -83 -219q-82 -85 -231 -85q-137 0 -230 98q-93 97 -93 249q0 149 102 248t243 99zM288 -201q0 7 5 14q6 8 13 15q5 5 8 8.5t5 6.5q7 9 -8 26q-15 16 -15 33q0 24 17 41t42 17q27 0 46 -16t19 -45q0 -30 -13 -53q-14 -25 -25 -36q-6 -6 -15 -13l-20 -15
q-11 -9 -30 -9q-9 0 -19 8q-9 7 -9 20z" />
    <glyph glyph-name="gcommaaccent" unicode="&#x123;" horiz-adv-x="573" 
d="M336 679q0 -7 -14 -24t-15 -28q0 -5 12 -18q12 -14 12 -33q0 -23 -18 -39q-19 -17 -43 -17q-27 0 -46 16t-19 45t12 53q12 23 26 36q13 12 36 27q13 9 30 9q11 0 18 -7q8 -8 8 -21zM264 -110q46 0 81 30t35 77v49q-16 -25 -50 -42q-32 -16 -70 -16q-99 0 -162 68
q-63 67 -63 162q0 105 66 176t165 71q76 0 120 -62l2 19q3 16 21 27q19 11 43 11q30 0 47 -16q18 -17 18 -43q-1 -109 -1.5 -184.5t-0.5 -117.5l1 -103q2 -98 -70 -165q-73 -68 -180 -68q-92 0 -144 28q-42 22 -42 63q0 27 18 48t42 21q10 0 46 -13q40 -15 77 -15zM173 222
q0 -50 30 -81t74 -31q43 0 75 30q31 30 31 87t-30 87t-72 30q-47 2 -77 -33t-30 -90z" />
    <glyph glyph-name="Hcircumflex" unicode="&#x124;" horiz-adv-x="707" 
d="M635 55q1 -31 -18 -46q-20 -15 -55 -15q-32 0 -51 15q-20 15 -18 45v75l-1 135h-280l1 -215q0 -55 -74 -55q-68 0 -68 57q0 20 0.5 60t1.5 101q2 122 0 188l-4 219q0 62 73 62q30 0 49 -13q19 -14 21 -39v-239h19h30h34h78h80l42 1v55.5t-1 71.5t-1 66v39q3 60 73 60
q33 0 50 -16q18 -17 18 -46q0 -7 -0.5 -77.5l-1.5 -207.5zM452 716q-13 -1 -33 14l-42 42t-27 28l-39 -43t-26 -26q-16 -16 -36 -16q-14 0 -30 14q-15 13 -15 29q0 19 13 32l34.5 40l49.5 54q19 22 51 22q25 0 45 -20l87 -96q13 -16 13 -33q0 -12 -14 -28q-14 -15 -30 -15z
" />
    <glyph glyph-name="hcircumflex" unicode="&#x125;" horiz-adv-x="563" 
d="M60 660q0 70 71 70q33 0 50 -16q18 -17 18 -46v-34v-35.5t-1 -52.5t-1 -66.5v-77.5q16 30 53 48q36 18 75 18q88 0 135 -57q47 -58 47 -148v-115t-1 -94q-1 -28 -22 -43t-52 -15q-29 0 -48 15t-18 43q0 13 3 96q3 82 3 101q0 44 -21 70q-21 25 -59 25q-37 0 -66 -29
q-28 -28 -28 -75v-99v-92q0 -27 -20 -41t-51 -14q-29 0 -48 15t-19 43q0 9 0.5 25.5t1.5 40.5t1.5 39.5t0.5 23.5v477h-4zM228 738q-13 -1 -33 14l-42 42t-27 28l-39 -43t-26 -26q-16 -16 -36 -16q-14 0 -30 14q-15 13 -15 29q0 19 13 32l34.5 40l49.5 54q19 22 51 22
q25 0 45 -20l87 -96q13 -16 13 -33q0 -12 -14 -28q-14 -15 -30 -15z" />
    <glyph glyph-name="Hbar" unicode="&#x126;" horiz-adv-x="707" 
d="M635 58q1 -31 -18 -46q-20 -15 -55 -15q-72 0 -69 69v66v67v68h-280v-108v-108q0 -55 -74 -55q-68 0 -68 57v367v55h-22q-45 0 -45 47q0 46 50 46h17v53q0 63 71 63q31 0 51 -15q19 -15 19 -42v-60h282v54q0 63 71 63q67 0 67 -63v-54h21q49 0 49 -44q0 -49 -50 -49h-20
v-138zM493 393v83h-282v-84z" />
    <glyph glyph-name="hbar" unicode="&#x127;" horiz-adv-x="563" 
d="M62 662q0 69 71 69q66 0 66 -62v-49h52q52 0 52 -49q1 -25 -13 -37q-15 -12 -46 -12h-46q-1 -16 -1 -45.5v-74.5q16 30 53 48q36 18 75 18q88 0 135 -57q47 -58 47 -148v-112t-1 -97q-1 -28 -22 -43t-52 -15q-29 0 -48 15t-18 43q0 13 3 96q3 82 3 101q0 44 -21 70
q-21 25 -59 25q-37 0 -66 -29q-28 -28 -28 -75v-99v-92q0 -27 -20 -41t-51 -14q-29 0 -48 15t-19 43q0 9 0.5 25.5t1.5 40.5t1.5 39.5t0.5 23.5v337h-26q-51 0 -51 48q0 51 52 51h25v42z" />
    <glyph glyph-name="Itilde" unicode="&#x128;" horiz-adv-x="299" 
d="M79 417v92v109q-1 32 20 49q20 16 52 16q28 0 48 -15q19 -15 19 -42v-237v-156l1 -176q0 -31 -20 -46t-51 -15t-51 17q-20 16 -18 48v42v47l2 269zM67 755q-5 -29 -43 -29q-20 0 -33 13q-14 13 -15 39q3 43 30 69q28 26 71 26q28 0 50 -14q23 -15 38 -27q16 -14 30 -15
q22 0 23 25q5 32 45 32q17 0 31 -12q13 -12 13 -30q0 -53 -27 -80t-71 -27q-26 0 -48 14q-19 12 -37 27q-17 14 -31 15q-22 0 -24 -23z" />
    <glyph glyph-name="itilde" unicode="&#x129;" horiz-adv-x="263" 
d="M61 404q1 30 21 45q19 15 45 15q70 0 72 -63v-112v-112l1 -121q1 -30 -18 -46t-51 -16q-29 0 -49 14q-19 13 -19 41v357zM49 565q-5 -29 -43 -29q-20 0 -33 13q-14 13 -15 39q3 43 30 69q28 26 71 26q28 0 50 -14q23 -15 38 -27q16 -14 30 -15q22 0 23 25q5 32 45 32
q17 0 31 -12q13 -12 13 -30q0 -53 -27 -80t-71 -27q-26 0 -48 14q-19 12 -37 27q-17 14 -31 15q-22 0 -24 -23z" />
    <glyph glyph-name="Imacron" unicode="&#x12a;" horiz-adv-x="299" 
d="M79 417v92v109q-1 32 20 49q20 16 52 16q28 0 48 -15q19 -15 19 -42v-237v-156l1 -176q0 -31 -20 -46t-51 -15t-51 17q-20 16 -18 48v42v47l2 269zM57 751q-29 0 -42 15q-14 16 -14 37q0 24 15 39t44 15h37h39h24t32 1t32 1h24q54 0 54 -53t-68 -53h-89h-44h-42z" />
    <glyph glyph-name="imacron" unicode="&#x12b;" horiz-adv-x="263" 
d="M61 404q1 30 21 45q19 15 45 15q70 0 72 -63v-112v-112l1 -121q1 -30 -18 -46t-51 -16q-29 0 -49 14q-19 13 -19 41v357zM39 561q-29 0 -42 15q-14 16 -14 37q0 24 15 39t44 15h37h39h24t32 1t32 1h24q54 0 54 -53t-68 -53h-89h-44h-42z" />
    <glyph glyph-name="Ibreve" unicode="&#x12c;" horiz-adv-x="299" 
d="M79 417v92v109q-1 32 20 49q20 16 52 16q28 0 48 -15q19 -15 19 -42v-237v-156l1 -176q0 -31 -20 -46t-51 -15t-51 17q-20 16 -18 48v42v47l2 269zM247 889q21 0 33 -12t12 -28q0 -60 -39 -99t-104 -39q-55 0 -97 36q-41 36 -43 92q-1 19 11 33t33 14q19 0 30 -10
q13 -11 14 -25q8 -50 52 -50q23 0 38 15q16 16 17 36q6 36 45 36z" />
    <glyph glyph-name="ibreve" unicode="&#x12d;" horiz-adv-x="263" 
d="M61 404q1 30 21 45q19 15 45 15q70 0 72 -63v-112v-112l1 -121q1 -30 -18 -46t-51 -16q-29 0 -49 14q-19 13 -19 41v357zM229 699q21 0 33 -12t12 -28q0 -60 -39 -99t-104 -39q-55 0 -97 36q-41 36 -43 92q-1 19 11 33t33 14q19 0 30 -10q13 -11 14 -25q8 -50 52 -50
q23 0 38 15q16 16 17 36q6 36 45 36z" />
    <glyph glyph-name="Iogonek" unicode="&#x12e;" horiz-adv-x="299" 
d="M82 418v117.5t-1 81.5q-1 34 20 51q20 16 52 16q28 0 48 -15t20 -43v-201v-44v-50v-60v-37v-88v-88q0 -38 -29 -53q-69 -57 -69 -102q0 -32 30 -32q4 0 8 0.5t9 1.5t9 1.5t8 0.5q17 0 27 -13t10 -36q0 -25 -22 -40q-23 -15 -57 -15q-50 0 -84 26q-33 25 -33 80
q0 73 81 129q-30 16 -30 61v32v60v54t1 76t1 76v54z" />
    <glyph glyph-name="iogonek" unicode="&#x12f;" horiz-adv-x="266" 
d="M61 406q1 30 21 45q19 15 45 15q70 0 72 -63q1 -19 1 -46.5v-65.5v-112l1 -121q0 -35 -29 -53q-63 -56 -63 -101q0 -32 30 -32q4 0 8 0.5t9 1.5t9 1.5t8 0.5q17 0 26 -13q9 -14 9 -36q0 -25 -21 -40t-55 -15q-49 0 -83 26q-33 25 -33 80q0 67 78 126q-29 14 -29 45v357
h-4zM126 563q-38 0 -60 27q-23 27 -18 65q6 32 31 48q26 17 54 17q39 0 60 -22q21 -23 21 -57q0 -38 -25 -57t-64 -19z" />
    <glyph glyph-name="Idotaccent" unicode="&#x130;" horiz-adv-x="299" 
d="M79 417v92v109q-1 32 20 49q20 16 52 16q28 0 48 -15q19 -15 19 -42v-237v-156l1 -176q0 -31 -20 -46t-51 -15t-51 17q-20 16 -18 48v42v47l2 269zM142 736q-35 0 -56 24q-21 25 -17 59q5 29 28 47q24 18 53 18q36 0 56 -21q20 -22 20 -52q0 -37 -22 -56q-23 -20 -58 -20
z" />
    <glyph glyph-name="dotlessi" unicode="&#x131;" horiz-adv-x="263" 
d="M61 404q1 30 21 45q19 15 45 15q70 0 72 -63v-112v-112l1 -121q1 -30 -18 -46t-51 -16q-29 0 -49 14q-19 13 -19 41v357z" />
    <glyph glyph-name="IJ" unicode="&#x132;" horiz-adv-x="790" 
d="M79 417v92v109q-1 32 20 49q20 16 52 16q28 0 48 -15q19 -15 19 -42v-237v-156l1 -176q0 -31 -20 -46t-51 -15t-51 17q-20 16 -18 48v42v47l2 269zM567 615q-1 30 18 49t51 19q35 0 55 -16q21 -17 21 -51q0 -20 0.5 -49.5t1.5 -69.5t1.5 -71.5t0.5 -54.5q0 -22 -0.5 -51
t-1.5 -66q-9 -263 -235 -263q-82 0 -143 50q-32 29 -32 63q0 27 18 45t43 18t60 -24q28 -21 59 -21q54 0 72 51t18 155z" />
    <glyph glyph-name="ij" unicode="&#x133;" horiz-adv-x="531" 
d="M63 404q1 30 21 45q19 15 45 15q70 0 72 -63q1 -19 1 -46.5v-65.5v-112l1 -121q0 -30 -19 -46t-51 -16q-29 0 -49 14q-19 13 -19 41v357zM128 561q-38 0 -60 27q-23 27 -18 65q6 32 31 48q26 17 54 17q39 0 60 -22q21 -23 21 -57q0 -38 -25 -57t-64 -19zM330 406
q0 24 21 39t50 15q31 0 48 -13q18 -14 18 -39v-237v-169t-1 -83q-2 -65 -55 -111q-54 -47 -127 -48q-111 0 -111 74q0 28 15 46t35 18q9 0 24 -4q16 -5 30 -3q29 2 41 25q11 23 13 71q1 43 0 262q-2 45 -2.5 84.5t0.5 74.5zM387 554q-36 0 -58 21t-22 59t26 59q25 21 63 21
q41 0 63 -22q23 -23 23 -60q0 -79 -92 -79z" />
    <glyph glyph-name="Jcircumflex" unicode="&#x134;" horiz-adv-x="491" 
d="M270 617q-1 30 18 49t51 19q35 0 55 -16q21 -17 21 -51q0 -20 0.5 -49.5t1.5 -69.5t1.5 -71.5t0.5 -54.5q0 -22 -0.5 -51t-1.5 -66q-9 -263 -235 -263q-82 0 -143 50q-32 29 -32 63q0 27 18 45t43 18t60 -24q28 -21 59 -21q54 0 72 51t18 155zM443 716q-13 -1 -33 14
l-42 42t-27 28l-39 -43t-26 -26q-16 -16 -36 -16q-14 0 -30 14q-15 13 -15 29q0 19 13 32l34.5 40l49.5 54q19 22 51 22q25 0 45 -20l87 -96q13 -16 13 -33q0 -12 -14 -28q-14 -15 -30 -15z" />
    <glyph glyph-name="jcircumflex" unicode="&#x135;" horiz-adv-x="262" 
d="M60 410q0 24 21 39t50 15t48 -13t19 -39v-113v-124v-175.5t-1 -76.5q-2 -65 -54 -111t-128 -48q-110 0 -110 74q0 28 15 46t35 18q10 0 26 -4q18 -5 30 -3q52 1 54 96q1 42 1 107t-2 155q-2 67 -2.5 106.5t0.5 52.5zM232 525q-13 -1 -33 14l-42 42t-27 28l-39 -43
t-26 -26q-16 -16 -36 -16q-14 0 -30 14q-15 13 -15 29q0 19 13 32l34.5 40l49.5 54q19 22 51 22q25 0 45 -20l87 -96q13 -16 13 -33q0 -12 -14 -28q-14 -15 -30 -15z" />
    <glyph glyph-name="Kcommaaccent" unicode="&#x136;" horiz-adv-x="625" 
d="M440 647q31 37 63 37q27 0 50 -21t23 -43q0 -27 -27 -57q-44 -53 -153 -165q-2 -2 -6 -6.5l-9 -10.5t-8.5 -9.5l-5.5 -5.5l132 -160l75 -83q28 -31 28 -63q0 -29 -24 -48q-25 -20 -52 -20q-32 0 -58 32l-33 43l-163 214q-11 -14 -33 -36q-21 -21 -27 -29l1 -164
q0 -58 -70 -59q-32 -2 -51 15q-19 16 -19 46v38v51v234v242q0 31 20 48q19 16 51 16q33 0 51 -15t18 -45v-141.5t-1 -100.5zM247 -205q0 7 5 14q6 8 13 15q5 5 8 8.5t5 6.5q7 9 -8 26q-15 16 -15 33q0 24 17 41t42 17q27 0 46 -16t19 -45q0 -30 -13 -53q-14 -25 -25 -36
q-6 -6 -15 -13l-20 -15q-11 -9 -30 -9q-9 0 -19 8q-9 7 -9 20z" />
    <glyph glyph-name="kcommaaccent" unicode="&#x137;" horiz-adv-x="493" 
d="M457 94q16 -19 16 -39q0 -22 -22 -43q-23 -21 -48 -21q-26 0 -54 34l-120 151l-34 -33l-1 -90q-2 -62 -66 -62q-32 0 -50 18t-18 50l2 102v439v33v34q-2 29 20 44q21 15 49 15q69 0 69 -59q1 -37 1 -89.5t-2 -121.5q-3 -138 -3 -168l145 149q29 29 54 29q23 0 44 -21
t21 -44q0 -21 -20 -41q-19 -19 -61 -58t-56 -53zM192 -209q0 7 5 14q6 8 13 15t13 15q7 9 -8 26q-15 16 -15 33q0 24 17 41t42 17q27 0 46 -16t19 -45q0 -30 -13 -53q-14 -25 -25 -36q-6 -6 -15 -13l-20 -15q-11 -9 -30 -9q-9 0 -19 8q-9 7 -9 20z" />
    <glyph glyph-name="kgreenlandic" unicode="&#x138;" horiz-adv-x="493" 
d="M448 98q20 -25 20 -43q0 -22 -21 -43t-47 -21q-27 0 -55 34l-120 148h-34l-1 -120q-2 -62 -66 -62q-32 0 -50 18t-18 50l2 108l-1 232q-1 31 20 48q20 16 49 16q67 0 67 -63l-1 -105h26q19 1 37 29q9 14 18 29.5l19 33.5q20 37 39 50q31 25 72 25q25 0 43 -19
q18 -20 18 -45q-2 -43 -39 -56q-29 -11 -57 -54q-30 -45 -40 -53z" />
    <glyph glyph-name="Lacute" unicode="&#x139;" horiz-adv-x="509" 
d="M71 621q2 29 22 44q21 15 52 15q65 0 65 -59q0 -17 -0.5 -67t-1.5 -135q-1 -29 -1 -74v-105v-120h58t34 1l134 5q30 2 44 -15t14 -45q0 -69 -61 -69l-112 1q-45 0 -78 -0.5t-54 -1.5q-65 -3 -89 12t-28 61q-1 10 -1.5 19.5t-0.5 18.5q0 28 3 111q3 82 3 129v140v135z
M142 723q-15 -12 -35 -12q-16 0 -32 15q-17 15 -17 31t11 32l85 100q21 25 46 25q23 0 43 -19q21 -20 21 -42q0 -18 -19 -37q-17 -18 -42.5 -41t-59.5 -51z" />
    <glyph glyph-name="lacute" unicode="&#x13a;" horiz-adv-x="268" 
d="M168 758q-16 -13 -39 -13q-15 0 -33 15t-18 33q0 13 11 30l66 82q21 26 47 26q23 0 42 -19q20 -20 20 -43q0 -17 -19 -37zM71 661q0 31 20 48q19 16 51 16q34 0 53 -17q18 -17 17 -51q-2 -106 -3 -224.5t-1 -252.5q0 -11 0.5 -27t1.5 -36t1.5 -34.5t0.5 -23.5
q-2 -32 -15 -45t-50 -18q-77 -8 -78 93q-4 147 0 571z" />
    <glyph glyph-name="Lcommaaccent" unicode="&#x13b;" horiz-adv-x="509" 
d="M71 621q2 29 22 44q21 15 52 15q65 0 65 -59q0 -17 -0.5 -67t-1.5 -135q-1 -29 -1 -74v-105v-120h58t34 1l134 5q30 2 44 -15t14 -45q0 -69 -61 -69l-112 1q-45 0 -78 -0.5t-54 -1.5q-65 -3 -89 12t-28 61q-1 10 -1.5 19.5t-0.5 18.5q0 28 3 111q3 82 3 129v140v135z
M209 -207q0 7 5 14q6 8 13 15t13 15q7 9 -8 26q-15 16 -15 33q0 24 17 41t42 17q27 0 46 -16t19 -45q0 -30 -13 -53q-14 -25 -25 -36q-6 -6 -15 -13l-20 -15q-11 -9 -30 -9q-9 0 -19 8q-9 7 -9 20z" />
    <glyph glyph-name="lcommaaccent" unicode="&#x13c;" horiz-adv-x="268" 
d="M68 660q0 31 20 48q19 16 51 16q34 0 53 -17q18 -17 17 -51q-2 -106 -3 -224.5t-1 -252.5q0 -11 0.5 -27t1.5 -36t1.5 -34.5t0.5 -23.5q-2 -32 -15 -45t-50 -18q-77 -8 -78 93q-4 147 0 571zM70 -205q0 7 5 14q2 3 5 6.5t8 8.5q7 7 13 15q7 9 -8 26q-15 16 -15 33
q0 24 17 41t42 17q27 0 46 -16t19 -45q0 -30 -13 -53q-14 -25 -25 -36q-6 -6 -15 -13l-20 -15q-11 -9 -30 -9q-9 0 -19 8q-9 7 -9 20z" />
    <glyph glyph-name="Lcaron" unicode="&#x13d;" horiz-adv-x="519" 
d="M409 550q-17 3 -31 18q-13 14 -13 41q0 29 21 50t48 21q35 0 57 -22q23 -23 23 -63q0 -41 -24 -78q-24 -38 -61 -60q-11 -8 -24 -8q-14 0 -24 9q-11 9 -11 23q0 16 12 27q30 25 30 42v2zM69 619q2 29 22 44q21 15 52 15q65 0 65 -59q0 -17 -0.5 -67t-1.5 -135
q-1 -29 -1 -74v-105v-120h58t34 1l134 5q30 2 44 -15t14 -45q0 -69 -61 -69l-112 1q-45 0 -78 -0.5t-54 -1.5q-65 -3 -89 12t-28 61q-1 10 -1.5 19.5t-0.5 18.5q0 28 3 111q3 82 3 129v140v135z" />
    <glyph glyph-name="lcaron" unicode="&#x13e;" horiz-adv-x="388" 
d="M300 603q-17 3 -30 18q-13 14 -13 39q-2 27 18 47t45 20q33 0 54 -21t21 -58q0 -38 -23 -75t-57 -56q-11 -8 -23 -8t-22 9t-10 21q0 16 11 25q28 22 28 39v2zM69 658q0 31 20 48q19 16 51 16q34 0 53 -17q18 -17 17 -51q-2 -106 -3 -224.5t-1 -252.5q0 -11 0.5 -27
t1.5 -36t1.5 -34.5t0.5 -23.5q-2 -32 -15 -45t-50 -18q-77 -8 -78 93q-4 147 0 571z" />
    <glyph glyph-name="Ldot" unicode="&#x13f;" horiz-adv-x="509" 
d="M71 621q2 29 22 44q21 15 52 15q65 0 65 -59q0 -17 -0.5 -67t-1.5 -135q-1 -29 -1 -74v-105v-120h58t34 1l134 5q30 2 44 -15t14 -45q0 -69 -61 -69l-112 1q-45 0 -78 -0.5t-54 -1.5q-65 -3 -89 12t-28 61q-1 10 -1.5 19.5t-0.5 18.5q0 28 3 111q3 82 3 129v140v135z
M397 280q-33 0 -55 21t-22 56q0 34 24 57q25 23 60 23q34 0 57 -21t23 -56q0 -36 -24 -58q-23 -22 -61 -22h-2z" />
    <glyph glyph-name="ldot" unicode="&#x140;" horiz-adv-x="430" 
d="M68 660q0 31 20 48q19 16 51 16q34 0 53 -17q18 -17 17 -51q-2 -106 -3 -224.5t-1 -252.5q0 -11 0.5 -27t1.5 -36t1.5 -34.5t0.5 -23.5q-2 -32 -15 -45t-50 -18q-77 -8 -78 93q-4 147 0 571zM341 220q-33 0 -55 21t-22 56q0 34 24 57q25 23 60 23q34 0 57 -21t23 -56
q0 -36 -24 -58q-23 -22 -61 -22h-2z" />
    <glyph glyph-name="Lslash" unicode="&#x141;" horiz-adv-x="509" 
d="M71 620q2 29 22 44q21 15 52 15q64 0 66 -60l-2 -155v-49l40 23q22 13 45 13q19 0 34 -20t15 -42q0 -28 -41 -51l-94 -53v-44l-1 -120h58t34 1l134 5q58 0 58 -59q0 -69 -61 -69l-245 -1q-65 -2 -91 16t-25 64l3 109v25l-17 -9q-10 -7 -21 -7q-20 0 -36 21q-16 20 -16 42
q0 33 37 52l54 31v280z" />
    <glyph glyph-name="lslash" unicode="&#x142;" horiz-adv-x="291" 
d="M80 225l-15 -10q-17 -9 -28 -9q-20 0 -35 19t-15 40q0 33 37 55l56 37v144v143q0 75 71 75q36 0 53 -16q18 -17 17 -48v-41.5t-1 -57.5t-1 -61.5v-53.5l13 8q10 7 24 7q21 0 36 -18t15 -41q0 -31 -41 -57l-49 -31v-142q0 -3 1 -28.5l3 -73.5q0 -69 -63 -69q-42 0 -61 21
t-21 71z" />
    <glyph glyph-name="Nacute" unicode="&#x143;" horiz-adv-x="718" 
d="M212 62q0 -70 -65 -70q-70 0 -73 60v91t1 146v215v114q1 28 27 45q25 16 57 16q25 0 42 -12q16 -12 36 -39l222 -311l53 -79q-1 46 -1.5 88.5t-0.5 82.5l-2 193q0 41 17 60q16 18 56 18q66 0 66 -69v-339v-79v-135q0 -29 -24 -45q-25 -17 -58 -17q-26 0 -42 12
q-15 11 -34 41l-282 403q-2 -65 0 -206q1 -71 1.5 -115.5t0.5 -64.5zM360 720q-15 -12 -35 -12q-16 0 -32 15q-17 15 -17 31t11 32l85 100q21 25 46 25q23 0 43 -19q21 -20 21 -42q0 -18 -19 -37q-17 -18 -42.5 -41t-59.5 -51z" />
    <glyph glyph-name="nacute" unicode="&#x144;" horiz-adv-x="565" 
d="M60 390q0 38 16 55q16 18 54 18q55 0 62 -49l2 -27q15 36 54 57t83 21q86 0 132 -52t46 -148v-57v-69v-82q0 -63 -73 -63q-29 0 -47 15t-18 44v33t1 52t1 53.5v36.5q0 55 -15 87t-58 33q-60 1 -81 -36q-21 -38 -21 -114l1 -147q0 -29 -19 -42t-48 -13q-70 0 -70 57
q0 13 0.5 40.5t1.5 71.5q1 87 0 154zM284 533q-15 -12 -35 -12q-16 0 -32 15q-17 15 -17 31t11 32l85 100q21 25 46 25q23 0 43 -19q21 -20 21 -42q0 -18 -19 -37q-17 -18 -42.5 -41t-59.5 -51z" />
    <glyph glyph-name="Ncommaaccent" unicode="&#x145;" horiz-adv-x="718" 
d="M212 62q0 -70 -65 -70q-70 0 -73 60v91t1 146v215v114q1 28 27 45q25 16 57 16q25 0 42 -12q16 -12 36 -39l222 -311l53 -79q-1 46 -1.5 88.5t-0.5 82.5l-2 193q0 41 17 60q16 18 56 18q66 0 66 -69v-339v-79v-135q0 -29 -24 -45q-25 -17 -58 -17q-26 0 -42 12
q-15 11 -34 41l-282 403q-2 -65 0 -206q1 -71 1.5 -115.5t0.5 -64.5zM293 -210q0 7 5 14q6 8 13 15q5 5 8 8.5t5 6.5q7 9 -8 26q-15 16 -15 33q0 24 17 41t42 17q27 0 46 -16t19 -45q0 -30 -13 -53q-14 -25 -25 -36q-6 -6 -15 -13l-20 -15q-11 -9 -30 -9q-9 0 -19 8
q-9 7 -9 20z" />
    <glyph glyph-name="ncommaaccent" unicode="&#x146;" horiz-adv-x="565" 
d="M60 390q0 38 16 55q16 18 54 18q55 0 62 -49l2 -27q15 36 54 57t83 21q86 0 132 -52t46 -148v-57v-69v-82q0 -63 -73 -63q-29 0 -47 15t-18 44v33t1 52t1 53.5v36.5q0 55 -15 87t-58 33q-60 1 -81 -36q-21 -38 -21 -114l1 -147q0 -29 -19 -42t-48 -13q-70 0 -70 57
q0 13 0.5 40.5t1.5 71.5q1 87 0 154zM214 -207q0 7 5 14q6 8 13 15t13 15q7 9 -8 26q-15 16 -15 33q0 24 17 41t42 17q27 0 46 -16t19 -45q0 -30 -13 -53q-14 -25 -25 -36q-6 -6 -15 -13l-20 -15q-11 -9 -30 -9q-9 0 -19 8q-9 7 -9 20z" />
    <glyph glyph-name="Ncaron" unicode="&#x147;" horiz-adv-x="718" 
d="M212 62q0 -70 -65 -70q-70 0 -73 60v91t1 146v215v114q1 28 27 45q25 16 57 16q25 0 42 -12q16 -12 36 -39l222 -311l53 -79q-1 46 -1.5 88.5t-0.5 82.5l-2 193q0 41 17 60q16 18 56 18q66 0 66 -69v-339v-79v-135q0 -29 -24 -45q-25 -17 -58 -17q-26 0 -42 12
q-15 11 -34 41l-282 403q-2 -65 0 -206q1 -71 1.5 -115.5t0.5 -64.5zM262 898q18 0 33 -15q20 -18 37 -35t31 -34q52 58 66 69q15 15 36 15q13 0 29 -14q15 -14 15 -27q0 -17 -13 -33q-10 -13 -31 -36l-53 -58q-17 -20 -48 -20q-27 0 -46 19l-38.5 40.5l-48.5 54.5
q-13 16 -13 33q0 13 14 27t30 14z" />
    <glyph glyph-name="ncaron" unicode="&#x148;" horiz-adv-x="565" 
d="M60 390q0 38 16 55q16 18 54 18q55 0 62 -49l2 -27q15 36 54 57t83 21q86 0 132 -52t46 -148v-57v-69v-82q0 -63 -73 -63q-29 0 -47 15t-18 44v33t1 52t1 53.5v36.5q0 55 -15 87t-58 33q-60 1 -81 -36q-21 -38 -21 -114l1 -147q0 -29 -19 -42t-48 -13q-70 0 -70 57
q0 13 0.5 40.5t1.5 71.5q1 87 0 154zM185 711q18 0 33 -15q20 -18 37 -35t31 -34q52 58 66 69q15 15 36 15q13 0 29 -14q15 -14 15 -27q0 -17 -13 -33q-10 -13 -31 -36l-53 -58q-18 -20 -49 -20q-27 0 -46 19l-38.5 40.5l-48.5 54.5q-13 16 -13 33q0 13 15 27q16 14 31 14
h-1z" />
    <glyph glyph-name="napostrophe" unicode="&#x149;" horiz-adv-x="565" 
d="M40 602q-17 3 -30 18q-13 14 -13 39q0 27 20 47t45 20q33 0 54 -21t21 -58q0 -38 -23 -75t-57 -56q-8 -8 -21 -8q-14 0 -24 9t-10 21q0 14 12 25q28 25 28 40v2zM59 387q0 38 16 55q16 18 54 18q55 0 62 -49l2 -27q15 36 54 57t83 21q86 0 132 -52t46 -148v-57v-69v-82
q0 -63 -73 -63q-29 0 -47 15t-18 44v33t1 52t1 53.5v36.5q0 55 -15 87t-58 33q-60 1 -81 -36q-21 -38 -21 -114l1 -147q0 -29 -19 -42t-48 -13q-70 0 -70 57q0 13 0.5 40.5t1.5 71.5q1 87 0 154z" />
    <glyph glyph-name="Eng" unicode="&#x14a;" horiz-adv-x="718" 
d="M209 63q0 -70 -65 -70q-70 0 -73 60v91t1 146v215v114q1 28 27 45q25 16 57 16q25 0 42 -12q16 -12 36 -39l222 -311l52 -79l-1 171l-2 193q0 41 17 60q16 18 56 18q66 0 66 -69v-650q0 -86 -45 -144t-128 -60q-108 0 -108 72q0 28 15 46t35 18q8 0 23 -3q13 -3 28 -1
q28 0 39 24q10 23 10 74v27l-306 437q-2 -65 0 -206q1 -71 1.5 -115.5t0.5 -64.5v-3z" />
    <glyph glyph-name="eng" unicode="&#x14b;" horiz-adv-x="565" 
d="M376 228q0 56 -16 87q-17 31 -60 33q-60 1 -81 -36q-21 -38 -21 -114l1 -147q0 -29 -19 -42t-48 -13q-70 0 -70 57q0 13 0.5 40.5t1.5 71.5q1 87 0 154l-2 72q0 38 16 55q16 18 54 18q55 0 62 -49l2 -27q15 36 54 57t83 21q86 0 132 -52t46 -148v-323q0 -85 -52 -131
q-53 -47 -132 -48q-107 0 -107 72q0 28 14 47q13 18 33 18q8 0 23 -3t27 -3q55 2 56 97v238z" />
    <glyph glyph-name="Omacron" unicode="&#x14c;" horiz-adv-x="745" 
d="M373 684q137 0 236 -96t99 -243q0 -149 -97 -252q-98 -104 -240 -104q-132 0 -232 93t-100 242q0 161 102 263q101 101 232 100v-3zM567 341q-2 97 -60 155q-59 59 -141 59q-79 0 -133 -63t-54 -160q0 -96 56 -155t140 -59q79 0 136 67t57 157zM278 749q-29 0 -42 15
q-14 16 -14 37q0 24 15 39t44 15h37h39h24t32 1t32 1h24q54 0 54 -53t-68 -53h-89h-44h-42z" />
    <glyph glyph-name="omacron" unicode="&#x14d;" horiz-adv-x="551" 
d="M296 465q20 0 33 -5q92 -14 140 -80t48 -151q0 -104 -70 -171t-177 -67q-97 0 -166 63t-69 162q0 112 69 181t191 71zM380 230q0 47 -28 81q-29 34 -75 36q-50 -2 -78 -36q-29 -35 -29 -96q0 -47 30 -78t68 -31q47 0 80 35q33 34 33 90zM181 559q-29 0 -42 15
q-14 16 -14 37q0 24 15 39t44 15h37h39h24t32 1t32 1h24q54 0 54 -53t-68 -53h-89h-45h-42z" />
    <glyph glyph-name="Obreve" unicode="&#x14e;" horiz-adv-x="745" 
d="M373 684q137 0 236 -96t99 -243q0 -149 -97 -252q-98 -104 -240 -104q-132 0 -232 93t-100 242q0 161 102 263q101 101 232 100v-3zM567 341q-2 97 -60 155q-59 59 -141 59q-79 0 -133 -63t-54 -160q0 -96 56 -155t140 -59q79 0 136 67t57 157zM467 887q21 0 33 -12
t12 -28q0 -60 -39 -99t-104 -39q-55 0 -97 36q-41 36 -43 92q-1 19 11 33t33 14q19 0 30 -10q13 -11 14 -25q8 -50 52 -50q23 0 38 15q16 16 17 36q6 36 45 36z" />
    <glyph glyph-name="obreve" unicode="&#x14f;" horiz-adv-x="551" 
d="M296 465q20 0 33 -5q92 -14 140 -80t48 -151q0 -104 -70 -171t-177 -67q-97 0 -166 63t-69 162q0 112 69 181t191 71zM380 230q0 47 -28 81q-29 34 -75 36q-50 -2 -78 -36q-29 -35 -29 -96q0 -47 30 -78t68 -31q47 0 80 35q33 34 33 90zM369 697q21 0 33 -12t12 -28
q0 -60 -39 -99t-104 -39q-55 0 -97 36q-41 36 -43 92q-1 19 11 33t33 14q19 0 30 -10q13 -11 14 -25q8 -50 52 -50q23 0 38 15q16 16 17 36q6 36 45 36z" />
    <glyph glyph-name="Ohungarumlaut" unicode="&#x150;" horiz-adv-x="745" 
d="M373 684q137 0 236 -96t99 -243q0 -149 -97 -252q-98 -104 -240 -104q-132 0 -232 93t-100 242q0 161 102 263q101 101 232 100v-3zM567 341q-2 97 -60 155q-59 59 -141 59q-79 0 -133 -63t-54 -160q0 -96 56 -155t140 -59q79 0 136 67t57 157zM320 727q-15 -18 -34 -18
q-17 0 -30 12q-14 12 -14 29q0 11 9 28l63 97q17 29 42 29q22 0 39 -14t17 -36q0 -19 -11 -33zM484 722q-16 -16 -30 -16q-17 0 -33 11q-15 10 -15 29q0 10 11 29l66 97q19 30 42 30q20 0 38 -15t18 -33q0 -21 -14 -40z" />
    <glyph glyph-name="ohungarumlaut" unicode="&#x151;" horiz-adv-x="551" 
d="M296 465q20 0 33 -5q92 -14 140 -80t48 -151q0 -104 -70 -171t-177 -67q-97 0 -166 63t-69 162q0 112 69 181t191 71zM380 230q0 47 -28 81q-29 34 -75 36q-50 -2 -78 -36q-29 -35 -29 -96q0 -47 30 -78t68 -31q47 0 80 35q33 34 33 90zM217 537q-15 -18 -34 -18
q-17 0 -30 12q-14 12 -14 29q0 11 9 28l63 97q17 29 42 29q22 0 39 -14t17 -36q0 -19 -11 -33zM381 532q-16 -16 -30 -16q-17 0 -33 11q-15 10 -15 29q0 10 11 29l66 97q19 30 42 30q20 0 38 -15t18 -33q0 -21 -14 -40z" />
    <glyph glyph-name="OE" unicode="&#x152;" horiz-adv-x="1072" 
d="M378 686q78 0 135 -28q58 -29 84 -69q0 24 4 36q12 54 70 54h34.5t64.5 -1h62.5t64.5 1t52.5 1h24.5q27 0 43 -16t16 -40q0 -65 -54 -65h-250v-34v-33l-1.5 -71.5t-0.5 -28.5h34h58h72h31.5t28.5 -1q42 -11 41 -58q0 -58 -62 -58h-202q-1 -6 -1 -15v-22v-118q10 0 255 3
q57 0 57 -61q0 -64 -78 -64h-169.5t-85.5 -1q-87 -1 -103 63q-2 7 -3 16t-2 20q-74 -105 -226 -105q-134 0 -234 92q-99 91 -99 242q0 107 51 193t128 128t162 41zM592 347q-1 95 -62 154q-59 58 -153 58q-82 0 -140 -64q-59 -65 -59 -160q0 -96 62 -156q61 -60 149 -58
q92 2 149 67q57 67 56 159h-2z" />
    <glyph glyph-name="oe" unicode="&#x153;" horiz-adv-x="856" 
d="M299 457q44 2 87 -22t66 -63q22 40 69 67q46 27 99 27q90 0 149 -57t59 -132q0 -45 -15 -61t-64 -16h-44t-70 -1t-69.5 -1h-42.5q5 -36 34 -60q30 -24 67 -24q30 0 72 18t62 18t37 -20q16 -19 16 -45q0 -23 -25 -45q-54 -45 -172 -45q-50 0 -97 26q-46 25 -70 63
q-71 -90 -185 -90q-94 0 -163 66t-69 158q0 104 71 177q70 72 171 72q6 0 27 -7v-3zM378 231q0 46 -29 80t-75 35q-50 -2 -78 -36q-29 -35 -29 -96q0 -47 30 -78q30 -32 68 -32q49 0 82 34t33 93h-2zM616 357q-38 0 -67 -26q-28 -25 -31 -59q171 0 181 8q0 35 -24 56t-58 21
h-1z" />
    <glyph glyph-name="Racute" unicode="&#x154;" horiz-adv-x="614" 
d="M71 601q0 35 24 55q24 19 65 21q40 1 75 3h79q109 -2 177 -60q67 -58 67 -160q0 -64 -33 -115t-88 -72q16 -23 129 -171q17 -23 17 -45q0 -26 -22 -44q-22 -17 -52 -19q-14 0 -24 6q-9 5 -16 12q-6 5 -16 19l-16.5 24.5l-41.5 61.5l-84 120h-51h-51v-35t1 -54t1 -53v-32
q0 -63 -58 -67q-42 -1 -61 14q-18 15 -18 56q1 186 0 439v20t-1 29t-1 28.5v19.5zM299 559h-57.5t-33.5 -1l1 -206h81q55 0 92 26t38 78q1 51 -30 78q-32 27 -91 27v-2zM296 721q-15 -12 -35 -12q-16 0 -32 15q-17 15 -17 31t11 32l85 100q21 25 46 25q23 0 43 -19
q21 -20 21 -42q0 -18 -19 -37q-17 -18 -42.5 -41t-59.5 -51z" />
    <glyph glyph-name="racute" unicode="&#x155;" horiz-adv-x="378" 
d="M60 399q0 62 67 62q42 0 51 -39l6 -40q16 37 51 60t72 23q61 0 61 -63q0 -26 -14 -46q-13 -19 -39 -19h-15q-49 0 -77 -36q-29 -37 -29 -106q0 -4 0.5 -21.5t1.5 -49.5q2 -63 0 -74q-2 -56 -69 -56q-34 0 -50 15q-17 15 -17 53q0 20 0.5 50.5t1.5 72.5t1.5 71.5t0.5 46.5
v49v49zM207 532q-15 -12 -35 -12q-16 0 -32 15q-17 15 -17 31t11 32l85 100q21 25 46 25q23 0 43 -19q21 -20 21 -42q0 -18 -19 -37q-17 -18 -42.5 -41t-59.5 -51z" />
    <glyph glyph-name="Rcommaaccent" unicode="&#x156;" horiz-adv-x="614" 
d="M71 601q0 35 24 55q24 19 65 21q40 1 75 3h79q109 -2 177 -60q67 -58 67 -160q0 -64 -33 -115t-88 -72q16 -23 129 -171q17 -23 17 -45q0 -26 -22 -44q-22 -17 -52 -19q-14 0 -24 6q-9 5 -16 12q-6 5 -16 19l-16.5 24.5l-41.5 61.5l-84 120h-51h-51v-35t1 -54t1 -53v-32
q0 -63 -58 -67q-42 -1 -61 14q-18 15 -18 56q1 186 0 439v20t-1 29t-1 28.5v19.5zM299 559h-57.5t-33.5 -1l1 -206h81q55 0 92 26t38 78q1 51 -30 78q-32 27 -91 27v-2zM250 -209q0 7 5 14q6 8 13 15q5 5 8 8.5t5 6.5q7 9 -8 26q-15 16 -15 33q0 24 17 41t42 17q27 0 46 -16
t19 -45q0 -30 -13 -53q-14 -25 -25 -36q-6 -6 -15 -13l-20 -15q-11 -9 -30 -9q-9 0 -19 8q-9 7 -9 20z" />
    <glyph glyph-name="rcommaaccent" unicode="&#x157;" horiz-adv-x="378" 
d="M60 399q0 62 67 62q42 0 51 -39l6 -40q16 37 51 60t72 23q61 0 61 -63q0 -26 -14 -46q-13 -19 -39 -19h-15q-49 0 -77 -36q-29 -37 -29 -106q0 -4 0.5 -21.5t1.5 -49.5q2 -63 0 -74q-2 -56 -69 -56q-34 0 -50 15q-17 15 -17 53q0 20 0.5 50.5t1.5 72.5t1.5 71.5t0.5 46.5
v49v49zM54 -208q0 7 5 14q2 3 5 6.5t8 8.5q7 7 13 15q7 9 -8 26q-15 16 -15 33q0 24 17 41t42 17q27 0 46 -16t19 -45q0 -30 -13 -53q-14 -25 -25 -36q-6 -6 -15 -13l-20 -15q-11 -9 -30 -9q-9 0 -19 8q-9 7 -9 20z" />
    <glyph glyph-name="Rcaron" unicode="&#x158;" horiz-adv-x="614" 
d="M71 601q0 35 24 55q24 19 65 21q40 1 75 3h79q109 -2 177 -60q67 -58 67 -160q0 -64 -33 -115t-88 -72q16 -23 129 -171q17 -23 17 -45q0 -26 -22 -44q-22 -17 -52 -19q-14 0 -24 6q-9 5 -16 12q-6 5 -16 19l-16.5 24.5l-41.5 61.5l-84 120h-51h-51v-35t1 -54t1 -53v-32
q0 -63 -58 -67q-42 -1 -61 14q-18 15 -18 56q1 186 0 439v20t-1 29t-1 28.5v19.5zM299 559h-57.5t-33.5 -1l1 -206h81q55 0 92 26t38 78q1 51 -30 78q-32 27 -91 27v-2zM198 899q18 0 33 -15q20 -18 37 -35t31 -34q52 58 66 69q15 15 36 15q13 0 29 -14q15 -14 15 -27
q0 -17 -13 -33q-10 -13 -31 -36l-53 -58q-17 -20 -48 -20q-27 0 -46 19l-38.5 40.5l-48.5 54.5q-13 16 -13 33q0 13 14 27t30 14z" />
    <glyph glyph-name="rcaron" unicode="&#x159;" horiz-adv-x="378" 
d="M60 399q0 62 67 62q42 0 51 -39l6 -40q16 37 51 60t72 23q61 0 61 -63q0 -26 -14 -46q-13 -19 -39 -19h-15q-49 0 -77 -36q-29 -37 -29 -106q0 -4 0.5 -21.5t1.5 -49.5q2 -63 0 -74q-2 -56 -69 -56q-34 0 -50 15q-17 15 -17 53q0 20 0.5 50.5t1.5 72.5t1.5 71.5t0.5 46.5
v49v49zM109 710q18 0 33 -15q20 -18 37 -35t31 -34q52 58 66 69q15 15 36 15q13 0 29 -14q15 -14 15 -27q0 -17 -13 -33q-10 -13 -31 -36l-53 -58q-17 -20 -48 -20q-27 0 -46 19l-38.5 40.5l-48.5 54.5q-13 16 -13 33q0 13 14 27t30 14z" />
    <glyph glyph-name="Sacute" unicode="&#x15a;" horiz-adv-x="574" 
d="M472 652q37 -16 37 -60q0 -20 -17 -42q-17 -21 -42 -21q-23 0 -57 15q-48 19 -97 19q-43 0 -73 -24t-30 -58q0 -33 30 -48t92 -27q106 -23 162 -66q56 -44 56 -132q0 -99 -69 -157q-69 -59 -178 -60q-113 -2 -194 39q-46 21 -46 64q0 28 17 50q16 21 42 21q24 0 54 -13
q71 -31 124 -31q46 0 78 23q31 22 31 60q0 35 -31 54q-32 19 -87 30q-103 19 -162 62q-58 42 -58 122q0 91 72 154t173 63q100 0 174 -36zM294 723q-15 -12 -35 -12q-16 0 -32 15q-17 15 -17 31t11 32l85 100q21 25 46 25q23 0 43 -19q21 -20 21 -42q0 -18 -19 -37
q-17 -18 -42.5 -41t-59.5 -51z" />
    <glyph glyph-name="sacute" unicode="&#x15b;" horiz-adv-x="457" 
d="M226 463q87 0 134 -22q35 -14 35 -45q0 -58 -52 -58q-11 0 -52 11t-64 11q-29 0 -48 -12q-20 -12 -20 -31q0 -6 1 -9q1 -5 4 -7q4 -4 6 -5q3 -2 9 -3q4 -1 10 -3q4 -2 12 -3q10 -2 12 -2l14 -1q10 -2 14 -3q84 -12 128 -43q45 -32 45 -96q0 -73 -52 -113
q-53 -41 -145 -41q-72 0 -126 21t-54 51q0 64 53 64q19 0 63 -12q43 -12 79 -12q27 0 44 11t17 30q0 21 -18 29t-67 15q-35 4 -60 12q-26 7 -51 21q-25 13 -39 38q-13 23 -13 56q0 67 57 111q58 44 134 44zM222 530q-15 -12 -35 -12q-16 0 -32 15q-17 15 -17 31t11 32
l85 100q21 25 46 25q23 0 43 -19q21 -20 21 -42q0 -18 -19 -37q-17 -18 -42.5 -41t-59.5 -51z" />
    <glyph glyph-name="Scircumflex" unicode="&#x15c;" horiz-adv-x="574" 
d="M472 652q37 -16 37 -60q0 -20 -17 -42q-17 -21 -42 -21q-23 0 -57 15q-48 19 -97 19q-43 0 -73 -24t-30 -58q0 -33 30 -48t92 -27q106 -23 162 -66q56 -44 56 -132q0 -99 -69 -157q-69 -59 -178 -60q-113 -2 -194 39q-46 21 -46 64q0 28 17 50q16 21 42 21q24 0 54 -13
q71 -31 124 -31q46 0 78 23q31 22 31 60q0 35 -31 54q-32 19 -87 30q-103 19 -162 62q-58 42 -58 122q0 91 72 154t173 63q100 0 174 -36zM398 716q-13 -1 -33 14l-42 42t-27 28l-39 -43t-26 -26q-16 -16 -36 -16q-14 0 -30 14q-15 13 -15 29q0 19 13 32l34.5 40l49.5 54
q19 22 51 22q25 0 45 -20l87 -96q13 -16 13 -33q0 -12 -14 -28q-14 -15 -30 -15z" />
    <glyph glyph-name="scircumflex" unicode="&#x15d;" horiz-adv-x="457" 
d="M226 463q87 0 134 -22q35 -14 35 -45q0 -58 -52 -58q-11 0 -52 11t-64 11q-29 0 -48 -12q-20 -12 -20 -31q0 -6 1 -9q1 -5 4 -7q4 -4 6 -5q3 -2 9 -3q4 -1 10 -3q4 -2 12 -3q10 -2 12 -2l14 -1q10 -2 14 -3q84 -12 128 -43q45 -32 45 -96q0 -73 -52 -113
q-53 -41 -145 -41q-72 0 -126 21t-54 51q0 64 53 64q19 0 63 -12q43 -12 79 -12q27 0 44 11t17 30q0 21 -18 29t-67 15q-35 4 -60 12q-26 7 -51 21q-25 13 -39 38q-13 23 -13 56q0 67 57 111q58 44 134 44zM326 523q-13 -1 -33 14l-42 42t-27 28l-39 -43t-26 -26
q-16 -16 -36 -16q-14 0 -30 14q-15 13 -15 29q0 19 13 32l34.5 40l49.5 54q19 22 51 22q25 0 45 -20l87 -96q13 -16 13 -33q0 -12 -14 -28q-14 -15 -30 -15z" />
    <glyph glyph-name="Scedilla" unicode="&#x15e;" horiz-adv-x="574" 
d="M247 -8q-96 6 -156 37q-46 21 -46 64q0 28 17 50q16 21 42 21q24 0 54 -13q71 -31 124 -31q46 0 78 23q31 22 31 60q0 35 -31 54q-32 19 -87 30q-103 19 -162 62q-58 42 -58 122q0 91 72 154t173 63q100 0 174 -36q37 -16 37 -60q0 -20 -17 -42q-17 -21 -42 -21
q-23 0 -57 15q-48 19 -97 19q-43 0 -73 -24t-30 -58q0 -33 30 -48t92 -27q106 -23 162 -66q56 -44 56 -132q0 -91 -59 -148q-58 -56 -155 -67l-11 -36q30 0 53 -22q24 -23 24 -63q0 -50 -31 -78t-81 -28q-31 0 -56 12q-27 13 -27 42q0 16 11 27q10 10 24 10q8 0 23 -6t26 -6
q31 0 31 26q0 25 -31 25h-18q-16 1 -25 19t-3 36z" />
    <glyph glyph-name="scedilla" unicode="&#x15f;" horiz-adv-x="457" 
d="M183 -13q-65 4 -108 24q-44 20 -44 46q0 64 53 64q19 0 63 -12q43 -12 79 -12q27 0 44 11t17 30q0 21 -18 29t-67 15q-35 4 -60 12q-26 7 -51 21q-25 13 -39 38q-13 23 -13 56q0 67 57 111q58 44 134 44q87 0 134 -22q35 -14 35 -45q0 -58 -52 -58q-11 0 -52 11t-64 11
q-29 0 -48 -12q-20 -12 -20 -31q0 -6 1 -9q1 -5 4 -7q4 -4 6 -5q3 -2 9 -3q4 -1 10 -3q4 -2 12 -3q10 -2 12 -2l14 -1q10 -2 14 -3q84 -12 128 -43q45 -32 45 -96t-40 -103q-41 -40 -114 -47l-11 -35q30 0 53 -22q24 -23 24 -63q0 -50 -31 -78t-81 -28q-31 0 -56 12
q-27 13 -27 39q0 14 11 27q10 12 24 12q7 0 24 -6q16 -6 27 -6q31 0 31 26q0 25 -30 25h-18q-17 2 -26 19q-9 19 -2 36z" />
    <glyph glyph-name="Scaron" unicode="&#x160;" horiz-adv-x="574" 
d="M472 652q37 -16 37 -60q0 -20 -17 -42q-17 -21 -42 -21q-23 0 -57 15q-48 19 -97 19q-43 0 -73 -24t-30 -58q0 -33 30 -48t92 -27q106 -23 162 -66q56 -44 56 -132q0 -99 -69 -157q-69 -59 -178 -60q-113 -2 -194 39q-46 21 -46 64q0 28 17 50q16 21 42 21q24 0 54 -13
q71 -31 124 -31q46 0 78 23q31 22 31 60q0 35 -31 54q-32 19 -87 30q-103 19 -162 62q-58 42 -58 122q0 91 72 154t173 63q100 0 174 -36zM196 901q18 0 33 -15q20 -18 37 -35t31 -34q52 58 66 69q15 15 36 15q13 0 29 -14q15 -14 15 -27q0 -17 -13 -33q-10 -13 -31 -36
l-53 -58q-17 -20 -48 -20q-27 0 -46 19l-38.5 40.5l-48.5 54.5q-13 16 -13 33q0 13 14 27t30 14z" />
    <glyph glyph-name="scaron" unicode="&#x161;" horiz-adv-x="457" 
d="M226 463q87 0 134 -22q35 -14 35 -45q0 -58 -52 -58q-11 0 -52 11t-64 11q-29 0 -48 -12q-20 -12 -20 -31q0 -6 1 -9q1 -5 4 -7q4 -4 6 -5q3 -2 9 -3q4 -1 10 -3q4 -2 12 -3q10 -2 12 -2l14 -1q10 -2 14 -3q84 -12 128 -43q45 -32 45 -96q0 -73 -52 -113
q-53 -41 -145 -41q-72 0 -126 21t-54 51q0 64 53 64q19 0 63 -12q43 -12 79 -12q27 0 44 11t17 30q0 21 -18 29t-67 15q-35 4 -60 12q-26 7 -51 21q-25 13 -39 38q-13 23 -13 56q0 67 57 111q58 44 134 44zM123 708q18 0 33 -15q20 -18 37 -35t31 -34q52 58 66 69
q15 15 36 15q13 0 29 -14q15 -14 15 -27q0 -17 -13 -33q-10 -13 -31 -36l-53 -58q-18 -20 -49 -20q-27 0 -46 19l-38.5 40.5l-48.5 54.5q-13 16 -13 33q0 13 15 27q16 14 31 14h-1z" />
    <glyph glyph-name="uni0162" unicode="&#x162;" horiz-adv-x="580" 
d="M298 674q4 0 27 0.5l66 1.5t72 1.5t45 0.5q58 0 58 -58q0 -67 -59 -67l-150 1v-40q-2 -98 3 -453q1 -53 -45 -66l-11 -40q30 0 53 -22q24 -23 24 -63q0 -50 -31 -78t-81 -28q-31 0 -56 12q-28 12 -28 41q0 16 12 27q11 10 26 10q8 0 23 -6t26 -6q30 0 30 26q0 25 -30 25
h-18q-16 1 -25 19q-9 19 -2 36l22 54q-29 16 -27 57l2 360v67v69q-19 -1 -57.5 -1h-98.5q-56 0 -56 63q0 59 59 61h27h75h128z" />
    <glyph glyph-name="uni0163" unicode="&#x163;" horiz-adv-x="382" 
d="M55 340q-50 0 -50 59q0 25 15 42q15 16 39 16h41l2 62q2 77 74 77q55 0 55 -57q0 -8 -0.5 -28.5t-1.5 -53.5l72 1q56 0 56 -58q0 -26 -12 -42t-36 -16h-79v-152q0 -75 43 -75q12 0 24 3t19 3q22 0 35 -16q14 -17 14 -37q0 -41 -25 -57q-26 -17 -76 -18l-12 -35
q30 0 53 -22q24 -23 24 -63q0 -50 -31 -78t-81 -28q-31 0 -56 12q-27 13 -27 42q0 16 11 27q10 10 24 10q8 0 23 -6t26 -6q31 0 31 26q0 25 -31 25h-18q-16 1 -25 19t-3 36l22 52q-94 31 -94 174v34.5t1 48.5t1 48v33h-45z" />
    <glyph glyph-name="Tcaron" unicode="&#x164;" horiz-adv-x="580" 
d="M299 675q4 0 27 0.5l66 1.5t72 1.5t45 0.5q58 0 58 -58q0 -67 -59 -67l-150 1v-40q-2 -98 3 -453q1 -35 -18 -51q-20 -17 -56 -17q-67 0 -65 65l2 360v67v69q-19 -1 -57.5 -1h-98.5q-56 0 -56 63q0 59 59 61h27h75h128zM187 899q18 0 33 -15q20 -18 37 -35t31 -34
q52 58 66 69q15 15 36 15q13 0 29 -14q15 -14 15 -27q0 -17 -13 -33q-10 -13 -31 -36l-53 -58q-17 -20 -48 -20q-27 0 -46 19l-38.5 40.5l-48.5 54.5q-13 16 -13 33q0 13 14 27t30 14z" />
    <glyph glyph-name="tcaron" unicode="&#x165;" horiz-adv-x="493" 
d="M402 589q-16 1 -30 17q-14 15 -15 39q0 28 20 48t47 20q33 0 54 -21t21 -59t-23 -75t-57 -56q-11 -8 -23 -8t-22 9t-10 21q0 14 12 25q28 22 28 39v3zM54 339q-50 0 -50 59q0 25 15 42q15 16 39 16h41l2 62q2 77 74 77q55 0 55 -57q0 -8 -0.5 -28.5t-1.5 -53.5l72 1
q56 0 56 -58q0 -26 -12 -42t-36 -16h-79v-152q0 -75 43 -75q12 0 24 3t19 3q22 0 35 -16q14 -17 14 -37q0 -41 -25 -57q-28 -17 -85 -17q-155 0 -155 183v34.5t1 48.5t1 48v33h-45z" />
    <glyph glyph-name="Tbar" unicode="&#x166;" horiz-adv-x="576" 
d="M296 678h27t66 1t72 1h45q58 0 58 -57q0 -67 -59 -67h-148v-173h75q55 0 55 -58q0 -56 -65 -56h-65l3 -205q0 -68 -75 -68q-67 0 -65 65l2 207h-74q-28 0 -43 15t-15 39q0 27 15 44t44 17h73l-1 173q-19 -1 -57.5 -1h-97.5q-56 0 -56 63q0 59 59 61h28h74h128z" />
    <glyph glyph-name="tbar" unicode="&#x167;" horiz-adv-x="382" 
d="M56 341q-50 0 -50 59q0 25 15 42q15 16 39 16h41l2 62q2 77 74 77q55 0 55 -57q0 -8 -0.5 -28.5t-1.5 -53.5l72 1q56 0 56 -58q0 -26 -12 -42t-36 -16h-79v-58l53 1q50 0 50 -49q0 -50 -58 -50h-45v-12q0 -30 9 -45t33 -15q12 0 24 3t19 3q22 0 35 -16q14 -17 14 -37
q0 -41 -25 -57q-28 -17 -85 -17q-153 0 -153 174v18h-35q-51 0 -51 49q0 50 53 50h32v57h-44z" />
    <glyph glyph-name="Utilde" unicode="&#x168;" horiz-adv-x="694" 
d="M70 279q1 117 1.5 199.5t0.5 133.5q0 31 18 48q19 17 50 17q40 0 57 -17q16 -16 16 -54q-1 -23 -1 -103v-218q0 -82 37 -122q38 -41 105 -41q64 0 98 46q35 47 36 118q1 24 1.5 50t0.5 54v58.5t-1 63.5t-1 58.5v42.5q0 66 71 66q37 0 53 -19q17 -20 17 -60l1 -295
q0 -141 -75 -226t-208 -85q-127 0 -202 76t-75 213v-4zM270 753q-5 -29 -43 -29q-20 0 -33 13q-14 13 -15 39q3 43 30 69q28 26 71 26q28 0 50 -14q23 -15 38 -27q16 -14 30 -15q22 0 23 25q5 32 45 32q17 0 31 -12q13 -12 13 -30q0 -53 -27 -80t-71 -27q-26 0 -48 14
q-19 12 -37 27q-17 14 -31 15q-22 0 -24 -23z" />
    <glyph glyph-name="utilde" unicode="&#x169;" horiz-adv-x="571" 
d="M133 462q60 0 60 -70v-164q0 -117 75 -117q97 0 97 149l1 137q0 32 20 49q19 16 51 16q67 0 67 -63v-27v-54v-70v-38.5t1 -35.5q1 -39 3 -81q1 -21 1.5 -33t0.5 -14q0 -26 -19 -39t-48 -13q-51 0 -60 41v6t-1 11q-2 13 -3 24q-48 -86 -138 -86q-92 0 -137 58t-45 157v96
v94q0 67 76 67h-2zM198 567q-5 -29 -43 -29q-20 0 -33 13q-14 13 -15 39q3 43 30 69q28 26 71 26q28 0 50 -14q23 -15 38 -27q16 -14 30 -15q22 0 23 25q5 32 45 32q17 0 31 -12q13 -12 13 -30q0 -53 -27 -80t-71 -27q-26 0 -48 14q-19 12 -37 27q-17 14 -31 15
q-22 0 -24 -23z" />
    <glyph glyph-name="Umacron" unicode="&#x16a;" horiz-adv-x="694" 
d="M70 279q1 117 1.5 199.5t0.5 133.5q0 31 18 48q19 17 50 17q40 0 57 -17q16 -16 16 -54q-1 -23 -1 -103v-218q0 -82 37 -122q38 -41 105 -41q64 0 98 46q35 47 36 118q1 24 1.5 50t0.5 54v58.5t-1 63.5t-1 58.5v42.5q0 66 71 66q37 0 53 -19q17 -20 17 -60l1 -295
q0 -141 -75 -226t-208 -85q-127 0 -202 76t-75 213v-4zM260 749q-29 0 -42 15q-14 16 -14 37q0 24 15 39t44 15h37h39h24t32 1t32 1h24q54 0 54 -53t-68 -53h-89h-45h-41z" />
    <glyph glyph-name="umacron" unicode="&#x16b;" horiz-adv-x="571" 
d="M133 462q60 0 60 -70v-164q0 -117 75 -117q97 0 97 149l1 137q0 32 20 49q19 16 51 16q67 0 67 -63v-27v-54v-70v-38.5t1 -35.5q1 -39 3 -81q1 -21 1.5 -33t0.5 -14q0 -26 -19 -39t-48 -13q-51 0 -60 41v6t-1 11q-2 13 -3 24q-48 -86 -138 -86q-92 0 -137 58t-45 157v96
v94q0 67 76 67h-2zM189 563q-29 0 -42 15q-14 16 -14 37q0 24 15 39t44 15h37h39h24t32 1t32 1h24q54 0 54 -53t-68 -53h-89h-44h-42z" />
    <glyph glyph-name="Ubreve" unicode="&#x16c;" horiz-adv-x="694" 
d="M70 279q1 117 1.5 199.5t0.5 133.5q0 31 18 48q19 17 50 17q40 0 57 -17q16 -16 16 -54q-1 -23 -1 -103v-218q0 -82 37 -122q38 -41 105 -41q64 0 98 46q35 47 36 118q1 24 1.5 50t0.5 54v58.5t-1 63.5t-1 58.5v42.5q0 66 71 66q37 0 53 -19q17 -20 17 -60l1 -295
q0 -141 -75 -226t-208 -85q-127 0 -202 76t-75 213v-4zM450 887q21 0 33 -12t12 -28q0 -60 -39 -99t-104 -39q-55 0 -97 36q-41 36 -43 92q-1 19 11 33t33 14q19 0 30 -10q13 -11 14 -25q8 -50 52 -50q23 0 38 15q16 16 17 36q6 36 45 36z" />
    <glyph glyph-name="ubreve" unicode="&#x16d;" horiz-adv-x="571" 
d="M133 462q60 0 60 -70v-164q0 -117 75 -117q97 0 97 149l1 137q0 32 20 49q19 16 51 16q67 0 67 -63v-27v-54v-70v-38.5t1 -35.5q1 -39 3 -81q1 -21 1.5 -33t0.5 -14q0 -26 -19 -39t-48 -13q-51 0 -60 41v6t-1 11q-2 13 -3 24q-48 -86 -138 -86q-92 0 -137 58t-45 157v96
v94q0 67 76 67h-2zM378 701q21 0 33 -12t12 -28q0 -60 -39 -99t-104 -39q-55 0 -97 36q-41 36 -43 92q-1 19 11 33t33 14q19 0 30 -10q13 -11 14 -25q8 -50 52 -50q23 0 38 15q16 16 17 36q6 36 45 36z" />
    <glyph glyph-name="Uring" unicode="&#x16e;" horiz-adv-x="694" 
d="M70 279q1 117 1.5 199.5t0.5 133.5q0 31 18 48q19 17 50 17q40 0 57 -17q16 -16 16 -54q-1 -23 -1 -103v-218q0 -82 37 -122q38 -41 105 -41q64 0 98 46q35 47 36 118q1 24 1.5 50t0.5 54v58.5t-1 63.5t-1 58.5v42.5q0 66 71 66q37 0 53 -19q17 -20 17 -60l1 -295
q0 -141 -75 -226t-208 -85q-127 0 -202 76t-75 213v-4zM352 906q50 0 83 -30t33 -78q0 -50 -34 -84t-84 -34q-46 0 -82 30t-36 80q0 52 37 83q38 32 82 32zM399 794q-2 20 -15 32q-14 12 -34 12q-19 0 -33 -14q-13 -13 -13 -33t14 -32q13 -12 33 -12q19 0 33 15q14 16 14 35
z" />
    <glyph glyph-name="uring" unicode="&#x16f;" horiz-adv-x="571" 
d="M133 462q60 0 60 -70v-164q0 -117 75 -117q97 0 97 149l1 137q0 32 20 49q19 16 51 16q67 0 67 -63v-27v-54v-70v-38.5t1 -35.5q1 -39 3 -81q1 -21 1.5 -33t0.5 -14q0 -26 -19 -39t-48 -13q-51 0 -60 41v6t-1 11q-2 13 -3 24q-48 -86 -138 -86q-92 0 -137 58t-45 157v96
v94q0 67 76 67h-2zM280 740q50 0 83 -30t33 -78q0 -50 -34 -84t-84 -34q-46 0 -82 30t-36 80q0 52 37 83q38 32 82 32zM327 628q-2 20 -15 32q-14 12 -34 12q-19 0 -33 -14q-13 -13 -13 -33t14 -32q13 -12 33 -12q19 0 33 15q14 16 14 35z" />
    <glyph glyph-name="Uhungarumlaut" unicode="&#x170;" horiz-adv-x="694" 
d="M70 279q1 117 1.5 199.5t0.5 133.5q0 31 18 48q19 17 50 17q40 0 57 -17q16 -16 16 -54q-1 -23 -1 -103v-218q0 -82 37 -122q38 -41 105 -41q64 0 98 46q35 47 36 118q1 24 1.5 50t0.5 54v58.5t-1 63.5t-1 58.5v42.5q0 66 71 66q37 0 53 -19q17 -20 17 -60l1 -295
q0 -141 -75 -226t-208 -85q-127 0 -202 76t-75 213v-4zM298 727q-15 -18 -34 -18q-17 0 -30 12q-14 12 -14 29q0 11 9 28l63 97q17 29 42 29q22 0 39 -14t17 -36q0 -19 -11 -33zM462 722q-16 -16 -30 -16q-17 0 -33 11q-15 10 -15 29q0 10 11 29l66 97q19 30 42 30
q20 0 38 -15t18 -33q0 -21 -14 -40z" />
    <glyph glyph-name="uhungarumlaut" unicode="&#x171;" horiz-adv-x="571" 
d="M133 462q60 0 60 -70v-164q0 -117 75 -117q97 0 97 149l1 137q0 32 20 49q19 16 51 16q67 0 67 -63v-27v-54v-70v-38.5t1 -35.5q1 -39 3 -81q1 -21 1.5 -33t0.5 -14q0 -26 -19 -39t-48 -13q-51 0 -60 41v6t-1 11q-2 13 -3 24q-48 -86 -138 -86q-92 0 -137 58t-45 157v96
v94q0 67 76 67h-2zM225 541q-15 -18 -34 -18q-17 0 -30 12q-14 12 -14 29q0 11 9 28l63 97q17 29 42 29q22 0 39 -14t17 -36q0 -19 -11 -33zM389 536q-16 -16 -30 -16q-17 0 -33 11q-15 10 -15 29q0 10 11 29l66 97q19 30 42 30q20 0 38 -15t18 -33q0 -21 -14 -40z" />
    <glyph glyph-name="Uogonek" unicode="&#x172;" horiz-adv-x="694" 
d="M349 -101q0 -32 30 -32q4 0 8 0.5t9 1.5t8.5 1.5t7.5 0.5q17 0 27 -13t10 -36q0 -25 -21 -40t-55 -15q-50 0 -84 26q-33 25 -33 80q0 65 70 117q-119 9 -188 83q-69 73 -69 206q1 117 1.5 199.5t0.5 133.5q0 31 18 48q19 17 50 17q40 0 57 -17q16 -16 16 -54
q-1 -23 -1 -103v-218q0 -82 37 -122q38 -41 105 -41q64 0 98 46q35 47 36 118q1 24 1.5 50t0.5 54v58.5t-1 63.5t-1 58.5v42.5q0 66 71 66q37 0 53 -19q17 -20 17 -60l1 -295q0 -118 -54 -199q-54 -82 -151 -104q-70 -49 -70 -99z" />
    <glyph glyph-name="uogonek" unicode="&#x173;" horiz-adv-x="571" 
d="M407 -95q0 -32 30 -32q4 0 8 0.5t9 1.5t8.5 1.5t7.5 0.5q17 0 27 -13t10 -36q0 -25 -21 -40t-55 -15q-50 0 -84 26q-33 25 -33 80q0 70 86 129q-14 11 -17 29l-6 41q-48 -86 -138 -86q-92 0 -137 58t-45 157v96v94q0 67 76 67q60 0 60 -70v-164q0 -117 75 -117
q97 0 97 149l1 137q0 32 20 49q19 16 51 16q67 0 67 -63v-27v-54v-70v-38.5t1 -35.5q1 -39 3 -81q1 -21 1.5 -33t0.5 -14q0 -32 -28 -45q-71 -57 -71 -100z" />
    <glyph glyph-name="Wcircumflex" unicode="&#x174;" horiz-adv-x="865" 
d="M29 608q-6 33 14 54q19 21 54 21q59 0 69 -52l75 -397q2 5 29 92.5l80 258.5q16 57 80 57q25 0 44 -13q19 -14 27 -36l117 -354l33.5 176l32.5 179q7 49 24 69q16 19 51 19q31 0 54 -20q22 -20 18 -51l-111 -540q-9 -39 -25 -56t-57 -19q-19 0 -34 6t-24 18
q-10 13 -14 23l-5 12t-6 15l-126 363l-38.5 -120.5l-85.5 -260.5q-8 -25 -30 -41t-52 -15q-46 1 -64 29q-18 27 -30 89l-59.5 297t-38.5 199zM528 715q-13 -1 -33 14l-42 42t-27 28l-39 -43t-26 -26q-16 -16 -36 -16q-14 0 -30 14q-15 13 -15 29q0 19 13 32l34.5 40l49.5 54
q19 22 51 22q25 0 45 -20l87 -96q13 -16 13 -33q0 -12 -14 -28q-14 -15 -30 -15z" />
    <glyph glyph-name="wcircumflex" unicode="&#x175;" horiz-adv-x="754" 
d="M26 401l-1 5q0 26 25 42t54 16q47 0 57 -43q1 -3 4 -16l8 -36t11.5 -49.5l14.5 -56.5t13.5 -52.5t10.5 -38.5l86 247q16 39 67 39t72 -50l85 -234l42 168q5 23 10.5 43t11.5 38q13 37 57 37q29 0 52 -16q24 -17 24 -42q0 -11 -3 -21q-1 -1 -31 -100l-25.5 -82.5
t-17.5 -53.5q-5 -13 -9.5 -26.5l-9.5 -27.5l-15 -39q-9 -29 -27 -42q-19 -14 -55 -14q-56 0 -74 50q-13 27 -87 239l-79 -208q-15 -44 -33 -63t-55 -19q-38 0 -54 15q-16 14 -28 48l-101 339v4zM473 525q-13 -1 -33 14l-42 42t-27 28l-39 -43t-26 -26q-16 -16 -36 -16
q-14 0 -30 14q-15 13 -15 29q0 19 13 32l34.5 40l49.5 54q19 22 51 22q25 0 45 -20l87 -96q13 -16 13 -33q0 -12 -14 -28q-14 -15 -30 -15z" />
    <glyph glyph-name="Ycircumflex" unicode="&#x176;" horiz-adv-x="616" 
d="M221 284l-190 288q-16 25 -16 42q0 27 23 47t51 20q34 0 53 -31l166 -267q1 3 162 264q23 35 60 35q25 0 48 -18q22 -18 22 -42q0 -23 -16 -45l-207 -315v-208q0 -27 -21 -42t-51 -15q-32 0 -51 18t-19 47v15.5t1 22.5t1 22.5v16.5v122zM411 716q-13 -1 -33 14l-42 42
t-27 28l-39 -43t-26 -26q-16 -16 -36 -16q-14 0 -30 14q-15 13 -15 29q0 19 13 32l34.5 40l49.5 54q19 22 51 22q25 0 45 -20l87 -96q13 -16 13 -33q0 -12 -14 -28q-14 -15 -30 -15z" />
    <glyph glyph-name="ycircumflex" unicode="&#x177;" horiz-adv-x="514" 
d="M360 412q18 50 58 50q29 0 52 -16q24 -17 24 -39t-14 -53l-128.5 -281.5l-93.5 -194.5q-57 -104 -154 -104q-88 0 -88 66q0 62 63 62q27 0 42 12q16 13 32 45l37 72l-24 48l-126 270q-18 34 -18 59q0 22 24 39q25 17 49 17q23 0 34 -7q13 -8 20 -25q106 -263 111 -273z
M346 526q-13 -1 -33 14l-42 42t-27 28l-39 -43t-26 -26q-16 -16 -36 -16q-14 0 -30 14q-15 13 -15 29q0 19 13 32l34.5 40l49.5 54q19 22 51 22q25 0 45 -20l87 -96q13 -16 13 -33q0 -12 -14 -28q-14 -15 -30 -15z" />
    <glyph glyph-name="Ydieresis" unicode="&#x178;" horiz-adv-x="616" 
d="M221 284l-190 288q-16 25 -16 42q0 27 23 47t51 20q34 0 53 -31l166 -267q1 3 162 264q23 35 60 35q25 0 48 -18q22 -18 22 -42q0 -23 -16 -45l-207 -315v-208q0 -27 -21 -42t-51 -15q-32 0 -51 18t-19 47v15.5t1 22.5t1 22.5v16.5v122zM219 733q-28 0 -46 18t-18 45
q0 28 20 48t50 20q29 0 47 -18t18 -46q0 -29 -19 -48t-51 -19h-1zM391 735q-28 0 -46 18t-18 45q0 29 19 48q20 20 49 20q28 0 48 -18q19 -18 19 -46q0 -29 -19 -48t-51 -19h-1z" />
    <glyph glyph-name="Zacute" unicode="&#x179;" horiz-adv-x="565" 
d="M91 547q-28 0 -43 17q-15 16 -15 45q0 31 16 48q16 18 48 18l209 1h78h81q33 0 50 -16q18 -17 18 -45q0 -26 -30 -69l-23 -34l-246 -349l-19 -29t-9 -15q76 0 168 3q91 3 99 3q35 0 50 -18t15 -45t-16 -44q-17 -18 -54 -18q-64 -1 -155 -1.5t-211 -0.5q-54 0 -66 37
q-5 15 -5 28q4 43 45 99l65 89l191 265l24 35h-138h-123zM273 720q-15 -12 -35 -12q-16 0 -32 15q-17 15 -17 31t11 32l85 100q21 25 46 25q23 0 43 -19q21 -20 21 -42q0 -18 -19 -37q-17 -18 -42.5 -41t-59.5 -51z" />
    <glyph glyph-name="zacute" unicode="&#x17a;" horiz-adv-x="459" 
d="M224 342h-24t-39 -1q-47 -2 -72 0q-55 1 -55 63q0 25 15 42q15 16 47 16h95h89h12t32 1q42 2 44 0q40 -2 48 -30q5 -13 5 -34q-8 -41 -45 -84l-34.5 -38.5l-47.5 -52.5l-46 -51l-30 -33l-17 -21l107 2q60 3 67 3q27 0 42 -16q15 -17 15 -45q0 -62 -64 -63h-40h-48h-24
t-45 -1t-52.5 -1h-47.5q-76 0 -76 65q0 36 51 96l169 185l-28 -1zM226 533q-15 -12 -35 -12q-16 0 -32 15q-17 15 -17 31t11 32l85 100q21 25 46 25q23 0 43 -19q21 -20 21 -42q0 -18 -19 -37q-17 -18 -42.5 -41t-59.5 -51z" />
    <glyph glyph-name="Zdotaccent" unicode="&#x17b;" horiz-adv-x="565" 
d="M91 547q-28 0 -43 17q-15 16 -15 45q0 31 16 48q16 18 48 18l209 1h78h81q33 0 50 -16q18 -17 18 -45q0 -26 -30 -69l-23 -34l-246 -349l-19 -29t-9 -15q76 0 168 3q91 3 99 3q35 0 50 -18t15 -45t-16 -44q-17 -18 -54 -18q-64 -1 -155 -1.5t-211 -0.5q-54 0 -66 37
q-5 15 -5 28q4 43 45 99l65 89l191 265l24 35h-138h-123zM269 734q-35 0 -56 24q-21 25 -17 59q5 29 28 47q24 18 53 18q36 0 56 -21q20 -22 20 -52q0 -37 -22 -56q-23 -20 -58 -20z" />
    <glyph glyph-name="zdotaccent" unicode="&#x17c;" horiz-adv-x="459" 
d="M224 342h-24t-39 -1q-47 -2 -72 0q-55 1 -55 63q0 25 15 42q15 16 47 16h95h89h12t32 1q42 2 44 0q40 -2 48 -30q5 -13 5 -34q-8 -41 -45 -84l-34.5 -38.5l-47.5 -52.5l-46 -51l-30 -33l-17 -21l107 2q60 3 67 3q27 0 42 -16q15 -17 15 -45q0 -62 -64 -63h-40h-48h-24
t-45 -1t-52.5 -1h-47.5q-76 0 -76 65q0 36 51 96l169 185l-28 -1zM220 547q-35 0 -56 24q-21 25 -17 59q5 29 28 47q24 18 53 18q36 0 56 -21q20 -22 20 -52q0 -37 -22 -56q-23 -20 -58 -20z" />
    <glyph glyph-name="Zcaron" unicode="&#x17d;" horiz-adv-x="565" 
d="M91 547q-28 0 -43 17q-15 16 -15 45q0 31 16 48q16 18 48 18l209 1h78h81q33 0 50 -16q18 -17 18 -45q0 -26 -30 -69l-23 -34l-246 -349l-19 -29t-9 -15q76 0 168 3q91 3 99 3q35 0 50 -18t15 -45t-16 -44q-17 -18 -54 -18q-64 -1 -155 -1.5t-211 -0.5q-54 0 -66 37
q-5 15 -5 28q4 43 45 99l65 89l191 265l24 35h-138h-123zM175 898q18 0 33 -15q20 -18 37 -35t31 -34q52 58 66 69q15 15 36 15q13 0 29 -14q15 -14 15 -27q0 -17 -13 -33q-10 -13 -31 -36l-53 -58q-17 -20 -48 -20q-27 0 -46 19l-38.5 40.5l-48.5 54.5q-13 16 -13 33
q0 13 14 27t30 14z" />
    <glyph glyph-name="zcaron" unicode="&#x17e;" horiz-adv-x="459" 
d="M224 342h-24t-39 -1q-47 -2 -72 0q-55 1 -55 63q0 25 15 42q15 16 47 16h95h89h12t32 1q42 2 44 0q40 -2 48 -30q5 -13 5 -34q-8 -41 -45 -84l-34.5 -38.5l-47.5 -52.5l-46 -51l-30 -33l-17 -21l107 2q60 3 67 3q27 0 42 -16q15 -17 15 -45q0 -62 -64 -63h-40h-48h-24
t-45 -1t-52.5 -1h-47.5q-76 0 -76 65q0 36 51 96l169 185l-28 -1zM128 711q18 0 33 -15q20 -18 37 -35t31 -34q52 58 66 69q15 15 36 15q13 0 29 -14q15 -14 15 -27q0 -17 -13 -33q-10 -13 -31 -36l-53 -58q-17 -20 -48 -20q-27 0 -46 19l-38.5 40.5l-48.5 54.5
q-13 16 -13 33q0 13 14 27t30 14z" />
    <glyph glyph-name="florin" unicode="&#x192;" horiz-adv-x="470" 
d="M281 333l-43 -355q-14 -104 -64 -159q-51 -56 -136 -56q-46 0 -70 12q-28 13 -28 60q0 25 15 42t39 17h6.5t10.5 -1t11 -1h9q38 0 53 29q16 30 23 84l41 331h-43q-31 0 -45 14t-14 45q0 28 18 45q19 17 48 17h53q4 30 9 55.5t11 46.5q12 43 39 86t75 66q49 23 117 23
t68 -64q0 -22 -14 -39t-35 -17q-6 0 -12 0.5t-12 1.5t-12 1.5t-11 0.5q-71 -2 -90 -159h75q32 0 44 -15t12 -43q2 -27 -16 -45t-46 -18z" />
    <glyph glyph-name="AEacute" unicode="&#x1fc;" horiz-adv-x="917" 
d="M9 72q2 26 31 63q66 91 183 270l98.5 149l59.5 88q30 43 89 38h90h165h89q28 0 45 -15q16 -15 18 -38q0 -52 -38 -63q-19 -2 -82.5 -3t-172.5 -1v-68l-2 -91v-9h32h77h84q31 0 46 -16q15 -17 15 -42q0 -58 -61 -58h-194q-1 -9 -1 -22.5v-31.5v-51v-51q20 -1 51 -0.5
t75 2.5q87 3 119 3q29 0 44 -16q15 -17 15 -45q0 -30 -18 -48q-17 -17 -50 -19h-246q-70 0 -96 13t-31 57v89l-206 1q-2 -2 -10 -15l-22 -36l-26 -41l-21 -31q-25 -40 -73 -39q-29 1 -50 23q-22 21 -20 53zM289 271l150 1v30v30v71v51v30t1 22zM533 727q-15 -12 -35 -12
q-16 0 -32 15q-17 15 -17 31t11 32l85 100q21 25 46 25q23 0 43 -19q21 -20 21 -42q0 -18 -19 -37q-17 -18 -42.5 -41t-59.5 -51z" />
    <glyph glyph-name="aeacute" unicode="&#x1fd;" horiz-adv-x="806" 
d="M471 200q5 -35 32 -59t66 -24q51 0 86 19q30 15 46 15q21 0 38 -20t17 -45q0 -37 -53 -64t-141 -27q-50 0 -97 25q-48 26 -69 61q-26 -38 -68 -62t-96 -24q-89 0 -144 38q-54 37 -54 107q0 64 51 102q52 38 139 38q16 0 42 -1.5l63 -3.5q-4 39 -31 58q-26 19 -67 19
q-26 0 -63 -12q-35 -11 -48 -13q-24 -1 -40 15t-16 42q0 30 26 48q53 37 153 37q52 0 95 -22q43 -23 66 -60q25 34 71 57t93 23q88 0 147 -57t59 -131q0 -45 -15 -63t-64 -19h-85.5t-49.5 -1zM566 361q-39 0 -67 -25t-31 -58h90.5t56.5 1q27 0 27 7q0 32 -22 53
q-23 21 -54 21v1zM234 107q32 0 58 20q25 19 33 51l3 21q-41 3 -99 3q-71 2 -71 -48q0 -48 76 -48v1zM410 540q-15 -12 -35 -12q-16 0 -32 15q-17 15 -17 31t11 32l85 100q21 25 46 25q23 0 43 -19q21 -20 21 -42q0 -18 -19 -37q-17 -18 -42.5 -41t-59.5 -51z" />
    <glyph glyph-name="Oslashacute" unicode="&#x1fe;" horiz-adv-x="745" 
d="M373 685q79 0 151 -36l23 34q11 17 30 17q15 0 27 -12t12 -25q0 -10 -5 -18l-25 -38q56 -47 89 -114q33 -68 33 -147q0 -149 -97 -252q-98 -104 -240 -104q-86 0 -163 41l-29 -44q-12 -17 -28 -17q-13 0 -27 11q-13 10 -13 24q0 12 7 23l30 46q-109 96 -109 250
q0 161 102 263q101 101 232 100v-2zM567 343q0 90 -55 149l-231 -350q44 -23 94 -23q79 0 136 67t57 157h-1zM180 332q0 -87 46 -143l226 347q-43 20 -86 20q-79 0 -133 -63t-54 -160zM368 721q-15 -12 -35 -12q-16 0 -32 15q-17 15 -17 31t11 32l85 100q21 25 46 25
q23 0 43 -19q21 -20 21 -42q0 -18 -19 -37q-17 -18 -42.5 -41t-59.5 -51z" />
    <glyph glyph-name="oslashacute" unicode="&#x1ff;" horiz-adv-x="551" 
d="M292 471q21 0 34 -5q26 -5 47 -15l17 26q10 18 30 18q11 0 23 -9t12 -20t-11 -30l-12 -19q82 -69 82 -183q0 -104 -69 -171q-68 -67 -176 -67q-46 0 -88 16l-20 -31q-9 -17 -25 -17q-12 0 -24 9t-12 21q0 9 9 24l14 24q-88 67 -88 177q0 112 69 180t190 69zM167 221
q0 -39 24 -66l117 191q-17 7 -33 7q-50 -2 -78 -36q-29 -35 -29 -96h-1zM376 237q0 38 -19 63l-114 -185q10 -3 21 -3q47 0 80 35q33 34 33 90h-1zM265 537q-15 -12 -35 -12q-16 0 -32 15q-17 15 -17 31t11 32l85 100q21 25 46 25q23 0 43 -19q21 -20 21 -42q0 -18 -19 -37
q-17 -18 -42.5 -41t-59.5 -51z" />
    <glyph glyph-name="uni0218" unicode="&#x218;" horiz-adv-x="574" 
d="M472 652q37 -16 37 -60q0 -20 -17 -42q-17 -21 -42 -21q-23 0 -57 15q-48 19 -97 19q-43 0 -73 -24t-30 -58q0 -33 30 -48t92 -27q106 -23 162 -66q56 -44 56 -132q0 -99 -69 -157q-69 -59 -178 -60q-113 -2 -194 39q-46 21 -46 64q0 28 17 50q16 21 42 21q24 0 54 -13
q71 -31 124 -31q46 0 78 23q31 22 31 60q0 35 -31 54q-32 19 -87 30q-103 19 -162 62q-58 42 -58 122q0 91 72 154t173 63q100 0 174 -36zM227 -207q0 7 5 14q6 8 13 15t13 15q7 9 -8 26q-15 16 -15 33q0 24 17 41t42 17q27 0 46 -16t19 -45q0 -30 -13 -53q-14 -25 -25 -36
q-6 -6 -15 -13l-20 -15q-11 -9 -30 -9q-9 0 -19 8q-9 7 -9 20z" />
    <glyph glyph-name="uni0219" unicode="&#x219;" horiz-adv-x="457" 
d="M226 463q87 0 134 -22q35 -14 35 -45q0 -58 -52 -58q-11 0 -52 11t-64 11q-29 0 -48 -12q-20 -12 -20 -31q0 -6 1 -9q1 -5 4 -7q4 -4 6 -5q3 -2 9 -3q4 -1 10 -3q4 -2 12 -3q10 -2 12 -2l14 -1q10 -2 14 -3q84 -12 128 -43q45 -32 45 -96q0 -73 -52 -113
q-53 -41 -145 -41q-72 0 -126 21t-54 51q0 64 53 64q19 0 63 -12q43 -12 79 -12q27 0 44 11t17 30q0 21 -18 29t-67 15q-35 4 -60 12q-26 7 -51 21q-25 13 -39 38q-13 23 -13 56q0 67 57 111q58 44 134 44zM159 -210q0 7 5 14q6 8 13 15t13 15q7 9 -8 26q-15 16 -15 33
q0 24 17 41t42 17q27 0 46 -16t19 -45q0 -30 -13 -53q-14 -25 -25 -36q-6 -6 -15 -13l-20 -15q-11 -9 -30 -9q-9 0 -19 8q-9 7 -9 20z" />
    <glyph glyph-name="uni021A" unicode="&#x21a;" horiz-adv-x="580" 
d="M299 675q4 0 27 0.5l66 1.5t72 1.5t45 0.5q58 0 58 -58q0 -67 -59 -67l-150 1v-40q-2 -98 3 -453q1 -35 -18 -51q-20 -17 -56 -17q-67 0 -65 65l2 360v67v69q-19 -1 -57.5 -1h-98.5q-56 0 -56 63q0 59 59 61h27h75h128zM219 -209q0 7 5 14q6 8 13 15t13 15q7 9 -8 26
q-15 16 -15 33q0 24 17 41t42 17q27 0 46 -16t19 -45q0 -30 -13 -53q-14 -25 -25 -36q-6 -6 -15 -13l-20 -15q-11 -9 -30 -9q-9 0 -19 8q-9 7 -9 20z" />
    <glyph glyph-name="uni021B" unicode="&#x21b;" horiz-adv-x="382" 
d="M55 341q-50 0 -50 59q0 25 15 42q15 16 39 16h41l2 62q2 77 74 77q55 0 55 -57q0 -8 -0.5 -28.5t-1.5 -53.5l72 1q56 0 56 -58q0 -26 -12 -42t-36 -16h-79v-152q0 -75 43 -75q12 0 24 3t19 3q22 0 35 -16q14 -17 14 -37q0 -41 -25 -57q-28 -17 -85 -17q-155 0 -155 183
v34.5t1 48.5t1 48v33h-45zM155 -207q0 7 5 14q6 8 13 15t13 15q7 9 -8 26q-15 16 -15 33q0 24 17 41t42 17q27 0 46 -16t19 -45q0 -30 -13 -53q-14 -25 -25 -36q-6 -6 -15 -13l-20 -15q-11 -9 -30 -9q-9 0 -19 8q-9 7 -9 20z" />
    <glyph glyph-name="dotlessj" unicode="&#x237;" horiz-adv-x="262" 
d="M60 410q0 24 21 39t50 15t48 -13t19 -39v-113v-124v-175.5t-1 -76.5q-2 -65 -54 -111t-128 -48q-110 0 -110 74q0 28 15 46t35 18q10 0 26 -4q18 -5 30 -3q52 1 54 96q1 42 1 107t-2 155q-2 67 -2.5 106.5t0.5 52.5z" />
    <glyph glyph-name="circumflex" unicode="&#x2c6;" horiz-adv-x="375" 
d="M288 527q-13 -1 -33 14l-42 42t-27 28l-39 -43t-26 -26q-16 -16 -36 -16q-14 0 -30 14q-15 13 -15 29q0 19 13 32l34.5 40l49.5 54q19 22 51 22q25 0 45 -20l87 -96q13 -16 13 -33q0 -12 -14 -28q-14 -15 -30 -15z" />
    <glyph glyph-name="caron" unicode="&#x2c7;" horiz-adv-x="371" 
d="M85 714q18 0 33 -15q20 -18 37 -35t31 -34q52 58 66 69q15 15 36 15q13 0 29 -14q15 -14 15 -27q0 -17 -13 -33q-10 -13 -31 -36l-53 -58q-17 -20 -48 -20q-27 0 -46 19l-38.5 40.5l-48.5 54.5q-13 16 -13 33q0 13 14 27t30 14z" />
    <glyph glyph-name="breve" unicode="&#x2d8;" horiz-adv-x="371" 
d="M283 703q21 0 33 -12t12 -28q0 -60 -39 -99t-104 -39q-55 0 -97 36q-41 36 -43 92q-1 19 11 33t33 14q19 0 30 -10q13 -11 14 -25q8 -50 52 -50q23 0 38 15q16 16 17 36q6 36 45 36z" />
    <glyph glyph-name="dotaccent" unicode="&#x2d9;" horiz-adv-x="230" 
d="M107 548q-35 0 -56 24q-21 25 -17 59q5 29 28 47q24 18 53 18q36 0 56 -21q20 -22 20 -52q0 -37 -22 -56q-23 -20 -58 -20z" />
    <glyph glyph-name="ring" unicode="&#x2da;" horiz-adv-x="316" 
d="M160 740q50 0 83 -30t33 -78q0 -50 -34 -84t-84 -34q-46 0 -82 30t-36 80q0 52 37 83q38 32 82 32zM207 628q-2 20 -15 32q-14 12 -34 12q-19 0 -33 -14q-13 -13 -13 -33t14 -32q13 -12 33 -12q19 0 33 15q14 16 14 35z" />
    <glyph glyph-name="ogonek" unicode="&#x2db;" horiz-adv-x="275" 
d="M131 -98q0 -32 30 -32q4 0 8 0.5t9 1.5t9 1.5t8 0.5q17 0 27 -13t10 -36q0 -25 -21 -40t-55 -15q-50 0 -84 26q-33 25 -33 80q0 73 93 135l88 3q-42 -33 -64 -60q-21 -26 -21 -51z" />
    <glyph glyph-name="tilde" unicode="&#x2dc;" horiz-adv-x="410" 
d="M128 567q-5 -29 -43 -29q-20 0 -33 13q-14 13 -15 39q3 43 30 69q28 26 71 26q28 0 50 -14q23 -15 38 -27q16 -14 30 -15q22 0 23 25q5 32 45 32q17 0 31 -12q13 -12 13 -30q0 -53 -27 -80t-71 -27q-26 0 -48 14q-19 12 -37 27q-17 14 -31 15q-22 0 -24 -23z" />
    <glyph glyph-name="hungarumlaut" unicode="&#x2dd;" horiz-adv-x="409" 
d="M115 541q-15 -18 -34 -18q-17 0 -30 12q-14 12 -14 29q0 11 9 28l63 97q17 29 42 29q22 0 39 -14t17 -36q0 -19 -11 -33zM279 536q-16 -16 -30 -16q-17 0 -33 11q-15 10 -15 29q0 10 11 29l66 97q19 30 42 30q20 0 38 -15t18 -33q0 -21 -14 -40z" />
    <glyph glyph-name="pi" unicode="&#x3c0;" horiz-adv-x="675" 
d="M395 558l-133 -1v-41q0 -49 1 -161.5t3 -291.5q0 -69 -75 -69q-67 0 -65 66v75t1 105t1 105v75v67v69q-19 -1 -34.5 -1.5t-28.5 -0.5q-56 0 -56 63q0 59 60 61h28t42 -1t42 -1h28q17 0 61.5 0.5t118.5 1.5t128.5 1.5t89.5 0.5q55 0 55 -58q0 -34 -12 -49t-42 -15h-49v-40
q0 -54 3 -453q1 -35 -18 -51q-20 -17 -57 -17q-65 0 -63 66q1 121 1.5 210.5t0.5 149.5v137z" />
    <glyph glyph-name="Wgrave" unicode="&#x1e80;" horiz-adv-x="865" 
d="M29 608q-6 33 14 54q19 21 54 21q59 0 69 -52l75 -397q2 5 29 92.5l80 258.5q16 57 80 57q25 0 44 -13q19 -14 27 -36l117 -354l33.5 176l32.5 179q7 49 24 69q16 19 51 19q31 0 54 -20q22 -20 18 -51l-111 -540q-9 -39 -25 -56t-57 -19q-19 0 -34 6t-24 18
q-10 13 -14 23l-5 12t-6 15l-126 363l-38.5 -120.5l-85.5 -260.5q-8 -25 -30 -41t-52 -15q-46 1 -64 29q-18 27 -30 89l-59.5 297t-38.5 199zM429 728q-56 52 -96 96q-16 19 -16 39q0 19 21 37t41 18q29 0 47 -25q10 -15 39 -51l24 -31t15 -21q10 -13 10 -30q0 -16 -15 -31
t-31 -15q-18 0 -37 14h-2z" />
    <glyph glyph-name="wgrave" unicode="&#x1e81;" horiz-adv-x="754" 
d="M26 401l-1 5q0 26 25 42t54 16q47 0 57 -43q1 -3 4 -16l8 -36t11.5 -49.5l14.5 -56.5t13.5 -52.5t10.5 -38.5l86 247q16 39 67 39t72 -50l85 -234l42 168q5 23 10.5 43t11.5 38q13 37 57 37q29 0 52 -16q24 -17 24 -42q0 -11 -3 -21q-1 -1 -31 -100l-25.5 -82.5
t-17.5 -53.5q-5 -13 -9.5 -26.5l-9.5 -27.5l-15 -39q-9 -29 -27 -42q-19 -14 -55 -14q-56 0 -74 50q-13 27 -87 239l-79 -208q-15 -44 -33 -63t-55 -19q-38 0 -54 15q-16 14 -28 48l-101 339v4zM374 538q-56 52 -96 96q-16 19 -16 39q0 19 21 37t41 18q29 0 47 -25
q10 -15 39 -51l24 -31t15 -21q10 -13 10 -30q0 -16 -15 -31t-31 -15q-18 0 -37 14h-2z" />
    <glyph glyph-name="Wacute" unicode="&#x1e82;" horiz-adv-x="865" 
d="M29 608q-6 33 14 54q19 21 54 21q59 0 69 -52l75 -397q2 5 29 92.5l80 258.5q16 57 80 57q25 0 44 -13q19 -14 27 -36l117 -354l33.5 176l32.5 179q7 49 24 69q16 19 51 19q31 0 54 -20q22 -20 18 -51l-111 -540q-9 -39 -25 -56t-57 -19q-19 0 -34 6t-24 18
q-10 13 -14 23l-5 12t-6 15l-126 363l-38.5 -120.5l-85.5 -260.5q-8 -25 -30 -41t-52 -15q-46 1 -64 29q-18 27 -30 89l-59.5 297t-38.5 199zM424 722q-15 -12 -35 -12q-16 0 -32 15q-17 15 -17 31t11 32l85 100q21 25 46 25q23 0 43 -19q21 -20 21 -42q0 -18 -19 -37
q-17 -18 -42.5 -41t-59.5 -51z" />
    <glyph glyph-name="wacute" unicode="&#x1e83;" horiz-adv-x="754" 
d="M26 401l-1 5q0 26 25 42t54 16q47 0 57 -43q1 -3 4 -16l8 -36t11.5 -49.5l14.5 -56.5t13.5 -52.5t10.5 -38.5l86 247q16 39 67 39t72 -50l85 -234l42 168q5 23 10.5 43t11.5 38q13 37 57 37q29 0 52 -16q24 -17 24 -42q0 -11 -3 -21q-1 -1 -31 -100l-25.5 -82.5
t-17.5 -53.5q-5 -13 -9.5 -26.5l-9.5 -27.5l-15 -39q-9 -29 -27 -42q-19 -14 -55 -14q-56 0 -74 50q-13 27 -87 239l-79 -208q-15 -44 -33 -63t-55 -19q-38 0 -54 15q-16 14 -28 48l-101 339v4zM369 532q-15 -12 -35 -12q-16 0 -32 15q-17 15 -17 31t11 32l85 100
q21 25 46 25q23 0 43 -19q21 -20 21 -42q0 -18 -19 -37q-17 -18 -42.5 -41t-59.5 -51z" />
    <glyph glyph-name="Wdieresis" unicode="&#x1e84;" horiz-adv-x="865" 
d="M29 608q-6 33 14 54q19 21 54 21q59 0 69 -52l75 -397q2 5 29 92.5l80 258.5q16 57 80 57q25 0 44 -13q19 -14 27 -36l117 -354l33.5 176l32.5 179q7 49 24 69q16 19 51 19q31 0 54 -20q22 -20 18 -51l-111 -540q-9 -39 -25 -56t-57 -19q-19 0 -34 6t-24 18
q-10 13 -14 23l-5 12t-6 15l-126 363l-38.5 -120.5l-85.5 -260.5q-8 -25 -30 -41t-52 -15q-46 1 -64 29q-18 27 -30 89l-59.5 297t-38.5 199zM336 732q-28 0 -46 18t-18 45q0 28 20 48t50 20q29 0 47 -18t18 -46q0 -29 -19 -48t-51 -19h-1zM508 734q-28 0 -46 18t-18 45
q0 29 19 48q20 20 49 20q28 0 48 -18q19 -18 19 -46q0 -29 -19 -48t-51 -19h-1z" />
    <glyph glyph-name="wdieresis" unicode="&#x1e85;" horiz-adv-x="754" 
d="M26 401l-1 5q0 26 25 42t54 16q47 0 57 -43q1 -3 4 -16l8 -36t11.5 -49.5l14.5 -56.5t13.5 -52.5t10.5 -38.5l86 247q16 39 67 39t72 -50l85 -234l42 168q5 23 10.5 43t11.5 38q13 37 57 37q29 0 52 -16q24 -17 24 -42q0 -11 -3 -21q-1 -1 -31 -100l-25.5 -82.5
t-17.5 -53.5q-5 -13 -9.5 -26.5l-9.5 -27.5l-15 -39q-9 -29 -27 -42q-19 -14 -55 -14q-56 0 -74 50q-13 27 -87 239l-79 -208q-15 -44 -33 -63t-55 -19q-38 0 -54 15q-16 14 -28 48l-101 339v4zM281 542q-28 0 -46 18t-18 45q0 28 20 48t50 20q29 0 47 -18t18 -46
q0 -29 -19 -48t-51 -19h-1zM453 544q-28 0 -46 18t-18 45q0 29 19 48q20 20 49 20q28 0 48 -18q19 -18 19 -46q0 -29 -19 -48t-51 -19h-1z" />
    <glyph glyph-name="uni1E9E" unicode="&#x1e9e;" horiz-adv-x="680" 
d="M437 540q-8 3 -39 9q-32 6 -56 6q-59 0 -96 -46q-38 -47 -38 -115q0 -6 0.5 -39t1.5 -94q1 -122 0 -192q-2 -44 -19 -60q-18 -17 -57 -18q-30 -1 -48 17t-18 51v41v102v184q0 139 81 219q82 80 207 80q120 0 191 -42q18 -9 30 -28q12 -20 12 -40q0 -22 -14 -42l-126 -150
q17 -5 29.5 -9.5t22.5 -8.5q21 -8 50 -24q32 -18 47 -34q16 -18 30 -48q13 -29 13 -68q0 -83 -58 -141t-153 -58q-63 0 -108 20q-43 19 -43 53q0 28 15 49t41 21q16 0 46 -9t52 -9q32 0 54 20q21 19 21 53q0 42 -36 66t-100 39q-55 13 -55 69q0 29 19 51z" />
    <glyph glyph-name="Ygrave" unicode="&#x1ef2;" horiz-adv-x="616" 
d="M221 284l-190 288q-16 25 -16 42q0 27 23 47t51 20q34 0 53 -31l166 -267q1 3 162 264q23 35 60 35q25 0 48 -18q22 -18 22 -42q0 -23 -16 -45l-207 -315v-208q0 -27 -21 -42t-51 -15q-32 0 -51 18t-19 47v15.5t1 22.5t1 22.5v16.5v122zM312 729q-56 52 -96 96
q-16 19 -16 39q0 19 21 37t41 18q29 0 47 -25q10 -15 39 -51l24 -31t15 -21q10 -13 10 -30q0 -16 -15 -31t-31 -15q-18 0 -37 14h-2z" />
    <glyph glyph-name="ygrave" unicode="&#x1ef3;" horiz-adv-x="514" 
d="M360 412q18 50 58 50q29 0 52 -16q24 -17 24 -39t-14 -53l-128.5 -281.5l-93.5 -194.5q-57 -104 -154 -104q-88 0 -88 66q0 62 63 62q27 0 42 12q16 13 32 45l37 72l-24 48l-126 270q-18 34 -18 59q0 22 24 39q25 17 49 17q23 0 34 -7q13 -8 20 -25q106 -263 111 -273z
M247 539q-56 52 -96 96q-16 19 -16 39q0 19 21 37t41 18q29 0 47 -25q10 -15 39 -51l24 -31t15 -21q10 -13 10 -30q0 -16 -15 -31t-31 -15q-18 0 -37 14h-2z" />
    <glyph glyph-name="endash" unicode="&#x2013;" horiz-adv-x="500" 
d="M71 178q-30 0 -45 18t-15 44q0 63 62 63h176h184q57 0 57 -63q0 -29 -19 -45t-54 -16h-175h-172z" />
    <glyph glyph-name="emdash" unicode="&#x2014;" horiz-adv-x="1000" 
d="M85 179q-30 0 -45 18t-15 44q0 63 62 63h411h420q57 0 57 -63q0 -62 -72 -62h-411h-408h1z" />
    <glyph glyph-name="quoteleft" unicode="&#x2018;" horiz-adv-x="224" 
d="M137 605q20 -3 33 -19q14 -17 14 -43q1 -30 -21 -52t-51 -22q-38 0 -60 24q-23 25 -23 65q0 43 26 84q25 40 63 63q12 9 26 9t24 -10q11 -11 11 -24q0 -19 -13 -29q-30 -26 -30 -42v-3z" />
    <glyph glyph-name="quoteright" unicode="&#x2019;" horiz-adv-x="224" 
d="M80 578q-20 3 -33 19q-14 17 -14 43q-2 30 21 51q22 21 51 21q37 0 60 -23t23 -63q0 -44 -25 -84q-26 -41 -63 -63q-12 -9 -26 -9t-24 10q-11 11 -11 24q0 18 13 28q30 25 30 43v3h-2z" />
    <glyph glyph-name="quotesinglbase" unicode="&#x201a;" horiz-adv-x="224" 
d="M82 2q-19 3 -33 19q-15 16 -15 43q-1 30 21 52t51 22q37 0 60 -24q23 -25 23 -64q0 -44 -25 -84q-26 -41 -63 -63q-18 -8 -27 -8q-14 0 -24 10q-11 11 -11 24q0 17 13 27q30 25 30 43v2v1z" />
    <glyph glyph-name="quotedblleft" unicode="&#x201c;" horiz-adv-x="405" 
d="M137 607q20 -3 33 -19q14 -17 14 -43q1 -30 -21 -51q-23 -21 -51 -21q-37 0 -60 23t-23 63q0 43 26 84q25 40 63 63q12 9 26 9t24 -10q11 -11 11 -24q0 -18 -13 -28q-30 -26 -30 -43v-3h1zM319 607q20 -3 33 -19q14 -17 14 -43q1 -30 -21 -51q-23 -21 -51 -21
q-37 0 -60 23t-23 63q0 43 26 84q25 40 63 63q12 9 26 9t24 -10q11 -11 11 -24q0 -18 -13 -28q-30 -26 -30 -43v-3h1z" />
    <glyph glyph-name="quotedblright" unicode="&#x201d;" horiz-adv-x="405" 
d="M81 579q-20 3 -33 19q-14 17 -14 42q-2 32 21 53q22 21 51 21q37 0 60 -24q23 -25 23 -64q0 -44 -25 -84q-26 -41 -63 -63q-18 -8 -27 -8q-14 0 -24 10q-11 11 -11 24q0 17 13 27q30 25 30 43v3zM261 580q-20 3 -33 19q-14 17 -14 42q-2 32 21 53q22 21 51 21
q37 0 60 -24q23 -25 23 -64q0 -44 -25 -84q-26 -41 -63 -63q-18 -8 -27 -8q-14 0 -24 10q-11 11 -11 24q0 17 13 27q30 25 30 43v3z" />
    <glyph glyph-name="quotedblbase" unicode="&#x201e;" horiz-adv-x="405" 
d="M82 2q-19 3 -33 19q-15 16 -15 43q-1 30 21 52t51 22q37 0 60 -24q23 -25 23 -64q0 -44 -25 -84q-26 -41 -63 -63q-18 -8 -27 -8q-14 0 -24 10q-11 11 -11 24q0 17 13 27q30 25 30 43v2v1zM261 1q-20 1 -33 18q-13 16 -15 44q0 30 22 52t51 22q37 0 60 -24q23 -25 23 -64
q0 -44 -25 -82q-26 -39 -63 -63q-21 -8 -26 -8q-14 0 -24 10q-11 11 -11 24q0 17 13 27q30 25 30 43v2z" />
    <glyph glyph-name="dagger" unicode="&#x2020;" horiz-adv-x="538" 
d="M85 371q-60 0 -60 62t59 62h19t30 -1t35 -1h33l-1 166q0 68 68 68q37 0 54 -15t17 -56v-38t-1 -47t-1 -45.5v-33.5l120 1q58 0 58 -61q0 -62 -68 -62l-110 1v-252v-247q0 -32 -18 -48q-19 -17 -50 -17q-29 0 -49 17q-19 16 -19 45v129v131v122v122l-115 -1z" />
    <glyph glyph-name="daggerdbl" unicode="&#x2021;" horiz-adv-x="538" 
d="M86 369q-60 0 -60 64q0 57 59 57h116l-2 176q0 25 18 40t50 15q68 0 68 -61v-29t-1 -43t-1 -49.5v-49.5l122 2q58 0 58 -61q0 -62 -68 -62l-112 2q-2 -44 0 -123q1 -40 1 -66v-38l121 2q58 0 58 -62q0 -61 -68 -61l-111 2v-30.5t1 -44.5t1 -44.5v-30.5q0 -69 -69 -69
q-29 0 -49 17q-19 16 -19 47l1 158l-106 -1q-34 0 -50 16q-17 17 -17 45q0 62 62 62l112 -2v24v24v89v90l-115 -2v-3z" />
    <glyph glyph-name="bullet" unicode="&#x2022;" horiz-adv-x="346" 
d="M170 93q-61 0 -102 38q-40 37 -40 99q0 66 42 107q43 41 107 41q59 0 99 -40q41 -41 41 -100q0 -68 -40 -105t-108 -37z" />
    <glyph glyph-name="ellipsis" unicode="&#x2026;" horiz-adv-x="700" 
d="M110 -7q-33 0 -55 21t-22 56q0 34 24 57q25 23 60 23q34 0 57 -21t23 -56q0 -36 -24 -58q-23 -22 -61 -22h-2zM344 -7q-35 0 -57 21t-22 56q0 34 24 57q25 23 60 23q34 0 57 -21t23 -56q0 -36 -24 -58q-23 -22 -61 -22zM575 -7q-33 0 -55 22t-22 55q0 34 24 57
q25 23 60 23q34 0 57 -21t23 -56q0 -36 -24 -58q-23 -22 -61 -22h-2z" />
    <glyph glyph-name="perthousand" unicode="&#x2030;" horiz-adv-x="1167" 
d="M523 642q13 22 33 30q19 7 42 -3q46 -27 19 -72q-8 -14 -66 -105q-59 -92 -87 -141l-39 -69l-39 -66l-15 -24.5t-8 -13.5l-95 -160q-10 -17 -33 -22q-22 -4 -39 5q-18 10 -24 30q-6 19 6 42l176 281l170 293zM22 483q0 83 41 138q40 54 114 54q72 0 114 -50t42 -132
q0 -80 -45 -128t-111 -48q-62 0 -108 46t-46 121zM175 584q-58 0 -58 -94q0 -37 15 -61t42 -24q28 0 45 27q16 26 16 66q0 87 -58 87zM465 156q0 83 41 135q40 51 116 51q74 0 117 -49t43 -132q0 -81 -45 -129t-114 -48q-64 0 -111 47q-46 46 -46 123zM620 258
q-60 0 -60 -100q0 -41 15 -63q15 -23 43 -23q61 0 61 89q-1 97 -57 97h-2zM820 157q0 83 40 135t115 52q74 0 117 -49t43 -132q0 -81 -45 -129t-115 -48q-64 0 -109 47q-45 46 -45 123zM975 259q-59 0 -59 -100q0 -41 15 -63q15 -23 42 -23q29 0 46 24t15 65q0 97 -58 97h-1
z" />
    <glyph glyph-name="guilsinglleft" unicode="&#x2039;" horiz-adv-x="315" 
d="M166 236l95 -109q17 -20 17 -39q0 -13 -15 -28q-14 -14 -30 -16q-20 -2 -36 12l-133 121q-26 29 -26 57t23 51q45 46 132 126q14 11 33 11q16 0 33 -14t17 -30q0 -13 -15 -31z" />
    <glyph glyph-name="guilsinglright" unicode="&#x203a;" horiz-adv-x="315" 
d="M55 343q-15 18 -15 32q0 16 17 31q16 15 33 15q18 0 33 -12q97 -89 132 -126q23 -21 23 -51t-26 -56l-133 -122q-17 -14 -36 -12q-16 2 -30 16q-15 15 -15 28q0 19 17 39l95 109z" />
    <glyph glyph-name="fraction" unicode="&#x2044;" horiz-adv-x="459" 
d="M365 648q20 32 43 32q17 0 31 -12q13 -12 13 -28q0 -13 -11 -33l-154 -253l-197 -332q-13 -25 -39 -25q-17 0 -30 12q-14 12 -14 30q0 13 13 36l344 573h1z" />
    <glyph glyph-name="zerosuperior" unicode="&#x2070;" horiz-adv-x="368" 
d="M26 547q0 97 42 153t116 56t116 -51t42 -144q0 -92 -45 -141q-45 -50 -110 -50q-67 0 -114 47q-46 46 -46 132zM183 667q-62 0 -62 -114q0 -43 17 -71q16 -27 42 -27q31 0 49 28t18 76q0 49 -16 78q-17 30 -48 30z" />
    <glyph glyph-name="foursuperior" unicode="&#x2074;" horiz-adv-x="348" 
d="M185 564q0 20 11 33q10 12 30 12q46 0 48 -32v-51h22q38 0 38 -40q0 -49 -36 -49h-23v-32q-1 -36 -46 -37q-43 0 -43 36v34h-124q-20 0 -33 18q-13 17 -13 36q0 31 22 63l97 177q16 28 44 28q21 0 38 -13q18 -14 18 -30q0 -11 -7 -24l-98 -169l57 1v39h-2z" />
    <glyph glyph-name="fivesuperior" unicode="&#x2075;" horiz-adv-x="328" 
d="M57 707q1 20 14 34q12 13 32 13h138q44 0 44 -46q0 -43 -46 -43l-99 2l-3 -17l-5 -35q13 10 39 10q58 0 95 -32q36 -32 36 -87q0 -61 -36 -100t-106 -39q-58 0 -101 23q-30 16 -30 45q0 19 13 32q14 14 33 14q4 0 28 -9q26 -14 57 -14q20 0 33 10q14 11 14 30t-15 30
q-16 11 -36 11q-9 0 -33 -8t-36 -8q-23 0 -39 15q-17 15 -12 36q1 15 9 61l7 41t5 32v-1z" />
    <glyph glyph-name="sixsuperior" unicode="&#x2076;" horiz-adv-x="347" 
d="M198 662q-25 0 -42 -13q-18 -14 -21 -36q-2 -10 -2 -15q23 23 62 23q57 0 93 -30t36 -92q0 -61 -39 -97t-106 -36q-119 0 -141 121q-2 14 -3.5 29.5t-1.5 33.5q0 90 44 148q43 57 117 57q50 0 77 -13q29 -14 29 -42q0 -17 -11 -31q-10 -13 -30 -13q-10 0 -26 4
q-21 6 -38 6zM183 541q-23 0 -36 -12q-14 -12 -14 -34q0 -20 13 -32t33 -12q23 0 38 12t15 34q0 20 -13 32q-13 11 -36 13v-1z" />
    <glyph glyph-name="sevensuperior" unicode="&#x2077;" horiz-adv-x="314" 
d="M174 664h-57h-61q-43 0 -43 46q0 22 13 32q14 11 33 11h97h99q21 0 32 -12q11 -13 11 -31q0 -23 -18 -51q-60 -86 -96 -174q-14 -33 -24 -72q-6 -23 -16 -33t-34 -10t-37 13q-14 13 -12 33q1 24 26 87q20 47 41.5 88t46.5 76z" />
    <glyph glyph-name="eightsuperior" unicode="&#x2078;" horiz-adv-x="349" 
d="M312 647q0 -25 -12 -46t-33 -30q55 -16 55 -78q1 -63 -38 -96t-109 -33q-63 0 -106 32q-42 31 -42 87q0 29 16 52q16 24 43 34q-17 5 -29 27t-12 48q0 50 39 82q38 31 90 31q59 0 98 -30t39 -79zM176 532q-23 0 -36 -12t-13 -31q0 -18 13 -28t33 -10q52 0 52 41
q0 18 -13 30q-14 12 -36 12v-2zM140 639q0 -15 10 -25t27 -10q19 0 30 11t11 27q0 14 -12 23t-31 9q-16 0 -26 -10q-11 -11 -11 -25h2z" />
    <glyph glyph-name="ninesuperior" unicode="&#x2079;" horiz-adv-x="350" 
d="M154 463q26 0 43 16t19 45q-26 -21 -65 -21q-49 0 -87 32t-38 92q0 59 42 95t104 36q77 0 111 -49q35 -50 35 -129q0 -108 -39 -160t-125 -52q-48 0 -87 19q-24 10 -24 43q0 18 12 32t30 14q4 0 28 -6q26 -8 45 -8zM166 581q22 0 36 12t14 35q0 20 -15 32t-34 12t-34 -12
t-15 -34q0 -20 13 -32q13 -11 33 -13h2z" />
    <glyph glyph-name="zeroinferior" unicode="&#x2080;" horiz-adv-x="368" 
d="M26 7q0 97 42 153t116 56t116 -51t42 -144q0 -92 -45 -141q-45 -50 -110 -50q-67 0 -114 47q-46 46 -46 132zM183 127q-62 0 -62 -114q0 -43 17 -71q16 -27 42 -27q31 0 49 28t18 76q0 49 -16 78q-17 30 -48 30z" />
    <glyph glyph-name="oneinferior" unicode="&#x2081;" horiz-adv-x="258" 
d="M79 73q-10 -7 -26 -7t-28 15t-12 31q0 25 27 42l69 48q23 14 42 14q18 0 33 -12t15 -26v-99v-105v-105q0 -18 -13 -28t-33 -10q-48 0 -48 44q0 9 0.5 34.5t1.5 67.5t1.5 71.5t0.5 46.5q-2 -2 -4 -3.5t-4 -3.5q-3 -3 -11 -9l-8 -6h-3z" />
    <glyph glyph-name="twoinferior" unicode="&#x2082;" horiz-adv-x="324" 
d="M149 125q-21 0 -44 -23q-14 -17 -39 -17q-18 0 -30 14q-12 13 -12 32q0 28 36 54q41 32 87 32q61 1 104 -32q42 -33 42 -90q0 -52 -54 -103q-5 -5 -18 -16l-33 -28l-30 -27h52h35h15q42 0 42 -46q0 -47 -47 -47h-60h-126q-19 0 -33 14q-13 13 -13 36q0 33 30 62l85 80
q22 19 31 28q10 10 17 21q8 13 8 21q0 14 -12 25q-11 10 -30 10h-3z" />
    <glyph glyph-name="threeinferior" unicode="&#x2083;" horiz-adv-x="322" 
d="M194 -43q0 38 -58 38h-22q-17 0 -26 12t-9 31q0 14 20 37q48 45 56 51h-42h-42q-46 0 -46 44q0 18 11 32t32 14h65h114q18 0 29 -12q11 -13 11 -29q0 -25 -17 -39q-3 -4 -20 -21l-49 -49q37 -5 65 -32q26 -26 28 -72q2 -65 -40 -99q-41 -34 -105 -34q-55 0 -93 20
q-31 16 -31 45q0 19 14 33t29 14q12 0 39 -11q21 -12 40 -12q50 0 50 39h-3z" />
    <glyph glyph-name="fourinferior" unicode="&#x2084;" horiz-adv-x="348" 
d="M185 24q0 20 11 33q10 12 30 12q46 0 48 -32v-51h22q38 0 38 -40q0 -49 -36 -49h-23v-32q-1 -36 -46 -37q-43 0 -43 36v34h-124q-20 0 -33 18q-13 17 -13 36q0 31 22 63l97 177q16 28 44 28q21 0 38 -13q18 -14 18 -30q0 -11 -7 -24l-98 -169l57 1v39h-2z" />
    <glyph glyph-name="fiveinferior" unicode="&#x2085;" horiz-adv-x="328" 
d="M57 167q1 20 14 34q12 13 32 13h138q44 0 44 -46q0 -43 -46 -43l-99 2l-3 -17l-5 -35q11 10 39 10q58 0 95 -32q36 -32 36 -87q0 -61 -36 -100t-106 -39q-58 0 -101 23q-30 16 -30 45q0 19 13 32q14 14 33 14q4 0 28 -9q25 -14 57 -14q20 0 33 10q14 11 14 30t-15 30
q-16 11 -36 11q-9 0 -33 -8t-36 -8q-23 0 -39 15q-17 15 -12 36q1 15 9 61l7 41t5 32v-1z" />
    <glyph glyph-name="sixinferior" unicode="&#x2086;" horiz-adv-x="347" 
d="M198 122q-25 0 -42 -13q-18 -14 -21 -36q-2 -10 -2 -15q23 23 62 23q57 0 93 -30t36 -92q0 -61 -39 -97t-106 -36q-119 0 -141 121q-2 14 -3.5 29.5t-1.5 33.5q0 90 44 148q43 57 117 57q50 0 77 -13q29 -14 29 -42q0 -17 -11 -31q-10 -13 -30 -13q-10 0 -26 4
q-21 6 -38 6zM183 1q-23 0 -36 -12q-14 -12 -14 -34q0 -20 13 -32t33 -12q23 0 38 12t15 34q0 20 -13 32q-13 11 -36 13v-1z" />
    <glyph glyph-name="seveninferior" unicode="&#x2087;" horiz-adv-x="314" 
d="M173 124h-57h-61q-43 0 -43 46q0 22 13 32q14 11 33 11h97h99q21 0 32 -12q11 -13 11 -31q0 -23 -18 -51q-60 -86 -96 -174q-16 -40 -23 -72q-6 -23 -16 -33t-34 -10t-37 13q-14 13 -12 33q1 24 26 87q20 47 41.5 88t46.5 76z" />
    <glyph glyph-name="eightinferior" unicode="&#x2088;" horiz-adv-x="349" 
d="M312 108q0 -25 -12 -46t-33 -30q55 -16 55 -78q1 -63 -38 -96t-109 -33q-63 0 -106 32q-42 31 -42 87q0 29 16 52q16 24 43 34q-17 5 -29 27t-12 48q0 51 39 83q40 32 90 32q60 0 98 -31q39 -32 39 -81h1zM178 -5q-23 0 -36 -12t-13 -31q0 -20 12 -30q11 -10 32 -10
q52 0 52 41q0 18 -13 30q-14 12 -36 12h2zM142 102q0 -15 10 -25t27 -10q19 0 30 11t11 27q0 14 -12 23t-31 9q-16 0 -26 -10q-11 -11 -11 -25h2z" />
    <glyph glyph-name="nineinferior" unicode="&#x2089;" horiz-adv-x="350" 
d="M154 -77q26 0 43 16t19 45q-26 -21 -65 -21q-49 0 -87 32t-38 92q0 59 42 95t104 36q77 0 111 -49q35 -50 35 -129q0 -108 -39 -160t-125 -52q-48 0 -87 19q-24 10 -24 43q0 18 12 32t30 14q4 0 28 -6q26 -8 45 -8zM166 41q22 0 36 12t14 35q0 20 -15 32t-34 12t-34 -12
t-15 -34q0 -20 13 -32q13 -11 33 -13h2z" />
    <glyph glyph-name="franc" unicode="&#x20a3;" horiz-adv-x="550" 
d="M57 104q-53 0 -53 49q0 56 52 56h39v272v36v21t-1 23t-1 21.5v16.5q-2 25 9 45q16 36 57 36h24h26h43.5t76.5 1t78 1h48q76 0 76 -56q0 -30 -15 -48t-43 -18l-238 1v-86v-63l174 1q26 0 39 -16q14 -17 14 -45q0 -61 -63 -61h-168v-83h84q55 0 55 -51q0 -52 -61 -52h-77
v-41q0 -67 -67 -67q-72 0 -72 59v23v24h-35z" />
    <glyph glyph-name="lira" unicode="&#x20a4;" horiz-adv-x="553" 
d="M107 224q-49 0 -49 45q0 43 51 43h35v33h-36q-25 0 -37 9t-12 33q0 23 12 32t39 9h31v23v21q1 94 61 151t146 57q58 0 99 -21q35 -20 35 -57q0 -23 -15 -45t-38 -22q-14 0 -33 6q-20 6 -36 6q-36 0 -57 -26t-21 -71v-23q11 1 31 1h49q50 0 50 -39q0 -44 -50 -46h-80v-33
h79q42 0 42 -42q0 -22 -11 -33t-39 -11h-69v-27v-35v-25q94 -23 105 -23q19 0 42 21q22 21 46 21q27 0 44 -18q16 -18 15 -43q-2 -54 -36 -81q-35 -27 -85 -27q-39 0 -124 19q-87 19 -99 21q-27 0 -42 -16l-7 -7q-5 -5 -9 -7l-4 -2t-5 -3q-4 -2 -14 -4q-5 -1 -18 -1
q-22 0 -39 17q-25 19 -22 51q5 35 25 60q21 25 54 36q12 4 34 3l-1 71h-37v-1z" />
    <glyph glyph-name="Euro" unicode="&#x20ac;" horiz-adv-x="589" 
d="M515 668q41 -18 41 -59q0 -25 -15 -46t-41 -21q-10 0 -40 8t-51 8q-102 0 -147 -102q32 1 72.5 1h88.5q44 0 44 -48q0 -19 -12 -31t-34 -12h-184q-1 -12 -1.5 -21t-0.5 -15v-15h87h86q43 0 43 -43q0 -49 -58 -49h-77t-63 1q42 -98 156 -98q19 0 54 9q34 9 51 9
q22 0 37 -25q15 -26 15 -51q0 -38 -48 -57q-48 -20 -129 -18q-101 1 -178 62q-77 60 -102 168h-40q-24 0 -36 14q-12 13 -12 35q0 43 48 43h31q-1 3 -1 12q0 6 0.5 15.5t1.5 22.5h-23q-44 0 -44 42q0 20 14 34q13 13 36 13h36q35 107 116 170q80 63 177 61q57 0 103 -17h-1z
" />
    <glyph glyph-name="uni20B9" unicode="&#x20b9;" horiz-adv-x="533" 
d="M87 567q-29 0 -42 15q-14 16 -14 38q1 55 59 55h181h175q53 0 53 -54q0 -55 -65 -55h-65q26 -28 31 -62h47q52 0 52 -54t-65 -54h-38q-14 -50 -46 -85t-78 -52l159 -157q20 -23 20 -46q0 -27 -20 -45q-19 -17 -51 -19q-29 -2 -63 36l-183 198l-38 -1q-27 0 -41 17t-14 42
q0 55 60 57h52q79 0 103 56h-169q-29 0 -42 15q-14 16 -14 38q1 54 59 54h69h103q-15 55 -86 63h-87h-2z" />
    <glyph glyph-name="uni20BA" unicode="&#x20ba;" horiz-adv-x="561" 
d="M266 256v-119q46 -1 80 20q33 21 48 54q13 25 30 37t43 11q62 -2 60 -71q-7 -69 -70 -121q-63 -53 -154 -66q-18 -2 -40.5 -3.5t-50.5 -1.5q-88 0 -85 70v143l-39 -13q-25 -7 -43 3q-17 10 -22 29q-8 43 45 60l60 20v42l-45 -15q-26 -9 -42 0q-17 9 -21 31q-12 44 43 60
l66 23l1 170q0 65 70 65q69 0 69 -58v-57v-71l71 25q52 15 66 -29q15 -44 -39 -63l-97 -32v-43l76 27q52 15 66 -30q13 -43 -39 -61z" />
    <glyph glyph-name="uni20BD" unicode="&#x20bd;" horiz-adv-x="633" 
d="M90 257q-60 0 -60 54q0 56 60 56l34 1l-1 197q0 53 18 83t75 33q36 1 67.5 1.5t57.5 0.5q120 0 188 -52q69 -53 69 -156q0 -107 -66 -162q-67 -56 -187 -56h-82v-54h112q57 0 57 -51q0 -57 -63 -57h-105v-37q0 -66 -70 -66q-37 0 -53 18q-17 19 -17 47v40h-36
q-59 0 -59 52q0 56 62 56h32v53h-34zM264 368h90q111 1 111 101q0 95 -119 95h-41h-41v-141v-55z" />
    <glyph glyph-name="uni2113" unicode="&#x2113;" horiz-adv-x="443" 
d="M253 -5q-62 0 -107 36q-44 36 -52 90q0 4 -3 27q-23 -8 -33 -6q-16 4 -25 21q-9 16 -9 36q0 42 46 52q8 2 20 6l-2 51q-5 75 -7.5 120t-0.5 61q1 40 9 72t24 62q16 29 50 46t80 17q73 0 113 -46q41 -47 44 -115q4 -72 -33 -144q-38 -73 -99 -131q-32 -35 -60 -51v-11
q0 -81 56 -81q23 0 54 16q27 12 40 12q18 0 33 -18t15 -39q0 -31 -23 -46q-55 -37 -126 -37h-4zM193 465q0 -23 0.5 -55.5t1.5 -75.5q25 22 54 63q35 59 35 108q0 76 -43 76q-48 0 -48 -117v1z" />
    <glyph glyph-name="trademark" unicode="&#x2122;" horiz-adv-x="682" 
d="M168 676h32h48q31 0 31 -33q0 -39 -32 -39h-63l1 -180v-20v-21q0 -37 -42 -37q-18 0 -28 9q-11 9 -9 27l1 169v27.5t-1 26.5h-65q-31 0 -31 37q0 32 32 34h111h15zM375 536l-18 -163q-5 -30 -39 -30q-15 0 -28 11q-12 10 -9 27q19 139 39 267q8 26 48 26q28 0 40 -33
l59 -179l65 180q10 25 36 33h18q22 -2 33 -18l30 -230l7 -48q2 -17 -11 -26q-12 -9 -28 -9q-35 0 -36 30l-18 159l-55 -154q-13 -25 -43 -24q-10 0 -18 5q-7 4 -10 9q-2 2 -7 15z" />
    <glyph glyph-name="Omega" unicode="&#x2126;" horiz-adv-x="711" 
d="M91 -5q-28 0 -45 17t-17 45q0 32 18 50t48 18q17 0 36.5 -0.5t42.5 -1.5q-59 38 -98 98t-39 143q0 138 91 228t225 90q143 0 233 -87t89 -220q0 -80 -37 -144q-38 -65 -94 -108h39h33q66 0 66 -64t-64 -64h-170q-22 -1 -42 17q-19 18 -19 48q0 41 31 75q62 54 92 106
q32 55 32 132q0 82 -54 135q-55 53 -134 53q-80 0 -132 -54q-52 -53 -52 -141q0 -74 34 -126q34 -53 96 -105q31 -28 31 -72q0 -27 -18 -45t-49 -19z" />
    <glyph glyph-name="estimated" unicode="&#x212e;" horiz-adv-x="691" 
d="M190 292v-212q71 -50 153 -50q70 0 129 38q58 37 91 90q5 5 12 2l23 -16q1 -2 0 -6q-44 -65 -109 -105q-67 -41 -145 -41q-128 0 -213 94q-86 95 -86 225t86 224q85 93 213 93t215 -93t87 -225v-12q0 -5 -4 -5zM495 329v209q-69 51 -152 51q-85 0 -153 -53v-207h305z" />
    <glyph glyph-name="onethird" unicode="&#x2153;" horiz-adv-x="781" 
d="M491 649q20 32 42 32q17 0 31 -12q13 -12 13 -28q0 -13 -11 -33q-5 -10 -22.5 -38.5l-47.5 -76.5l-51 -82.5l-34 -56.5l-196 -332q-13 -25 -39 -25q-17 0 -30 12t-13 30q0 14 13 36l344 573zM656 118q0 38 -58 38h-22q-17 0 -26 12t-9 31q0 16 20 36q37 37 57 54h-42h-42
q-47 0 -47 44q0 18 11 32t32 14h65h114q19 0 30 -12q11 -13 11 -29q0 -22 -17 -39l-11.5 -11.5t-19.5 -18.5q-24 -23 -39 -39q36 -4 64 -32q26 -26 28 -72q2 -65 -40 -99q-41 -34 -105 -34q-55 0 -93 20q-30 16 -30 46q0 20 13 33q14 14 28 14q12 0 39 -11q20 -11 40 -11
q50 0 50 39zM88 535q-10 -7 -26 -7t-28 14q-12 13 -12 30q0 22 27 42l69 47q24 15 43 15t34 -12t15 -27v-98v-106v-105q0 -18 -14 -27t-33 -9q-47 0 -47 44q0 9 0.5 34.5t1.5 67.5t1.5 71.5t0.5 46.5q-5 -5 -11.5 -10t-16.5 -10z" />
    <glyph glyph-name="twothirds" unicode="&#x2154;" horiz-adv-x="821" 
d="M553 649q20 32 43 32q18 0 30 -12t12 -28t-11 -33q-5 -10 -22.5 -38.5l-47.5 -76.5l-51 -82.5l-34 -56.5l-196 -332q-13 -25 -39 -25q-17 0 -30 12q-14 12 -14 30q0 14 13 36l344 573zM698 118q0 38 -58 38h-22q-17 0 -26 12t-9 31q0 16 20 36q37 37 57 54h-42h-42
q-47 0 -47 44q0 18 11 32t32 14h65h114q19 0 30 -12q11 -13 11 -29q0 -22 -17 -39l-11.5 -11.5t-19.5 -18.5q-24 -23 -39 -39q36 -4 64 -32q26 -26 28 -72q2 -65 -40 -99q-41 -34 -105 -34q-55 0 -93 20q-30 16 -30 46q0 20 13 33q14 14 28 14q12 0 39 -11q20 -11 40 -11
q50 0 50 39zM160 590q-24 0 -44 -23q-13 -16 -41 -16q-17 0 -29 14q-12 13 -12 32q0 26 36 55q43 31 88 31q61 1 103 -33q42 -35 42 -90q0 -41 -21 -69q-21 -29 -69 -69q-3 -2 -7 -6q-2 -2 -6 -4l-30 -27h51h35h15q42 0 42 -46q0 -47 -47 -47h-60h-127q-19 0 -33 14
q-13 13 -13 36q0 35 31 63l84 79q5 5 9 8q43 39 48 54q1 3 1 7q0 13 -12 24q-11 10 -30 10z" />
    <glyph glyph-name="oneeighth" unicode="&#x215b;" horiz-adv-x="801" 
d="M495 649q20 32 42 32q17 0 31 -12q13 -12 13 -28q0 -13 -11 -33q-5 -10 -22.5 -38.5l-47.5 -76.5l-51 -82.5l-34 -56.5l-196 -332q-13 -25 -39 -25q-17 0 -30 12t-13 30q0 14 13 36l344 573zM754 271q0 -25 -12 -46t-33 -30q27 -8 41 -28q15 -21 15 -49q1 -64 -38 -96
q-40 -32 -109 -32q-63 0 -106 32q-42 31 -42 87q0 29 16 52q16 24 43 34q-17 5 -29 27t-12 46q0 52 39 84q38 31 91 31q59 0 98 -30t39 -79zM618 156q-22 0 -35 -12q-14 -12 -14 -31q0 -18 13 -28t33 -10q52 0 52 40q0 19 -13 31q-14 12 -36 12v-2zM582 262q0 -15 10 -25
t27 -10q19 0 30 11t11 27q0 13 -12 22t-31 9q-16 0 -26 -9q-11 -9 -11 -24zM94 534q-13 -7 -27 -7q-16 0 -28 14q-12 13 -12 30q0 22 27 42l69 47q24 15 44 15q19 0 34 -12t15 -27v-98v-106v-105q0 -18 -14 -27t-33 -9q-47 0 -47 44q0 9 0.5 34.5t1.5 67.5t1.5 71.5
t0.5 46.5q-15 -14 -28 -20z" />
    <glyph glyph-name="threeeighths" unicode="&#x215c;" horiz-adv-x="831" 
d="M539 648q20 32 43 32q17 0 31 -12q13 -12 13 -28q0 -13 -11 -33l-154 -253l-197 -332q-13 -25 -39 -25q-17 0 -30 12q-14 12 -14 30q0 13 13 36l344 573h1zM779 268q0 -24 -12 -45t-32 -30q25 -7 40 -28t15 -48q1 -64 -38 -96q-40 -32 -109 -32q-63 0 -106 32
q-42 31 -42 87q0 29 16 52q16 24 43 34q-17 5 -29 27t-12 46q0 52 39 84q38 31 91 31q58 0 99 -30q40 -30 40 -79zM642 153q-22 0 -35 -12q-14 -12 -14 -31q0 -18 13 -28t33 -10q52 0 52 40q0 19 -13 31q-14 12 -36 12v-2zM604 259q1 -14 12 -25q10 -10 27 -10q19 0 30 11
t11 27q0 13 -12 22t-30 9q-17 0 -27 -9q-11 -9 -11 -24v-1zM203 412q0 38 -58 38h-22q-17 0 -27 12q-10 11 -10 30q0 16 21 36l32.5 32.5t22.5 21.5h-40h-42q-47 0 -47 43q0 19 11 33t33 14h65h56h57q18 0 29 -12q11 -13 11 -29q0 -22 -17 -39l-11.5 -12l-19.5 -20l-37 -37
q37 -5 64 -31q26 -26 28 -72q0 -65 -42 -99q-41 -34 -103 -34q-55 0 -93 20q-31 16 -31 45q0 20 13 33q14 14 28 14t39 -11q24 -11 42 -11q50 0 50 39z" />
    <glyph glyph-name="fiveeighths" unicode="&#x215d;" horiz-adv-x="831" 
d="M540 649q20 32 42 32q17 0 31 -12q13 -12 13 -28q0 -13 -11 -33q-5 -10 -22.5 -38.5l-47.5 -76.5l-51 -82.5l-34 -56.5l-196 -332q-13 -25 -39 -25q-17 0 -30 12t-13 30q0 14 13 36l344 573zM780 271q0 -25 -12 -46t-33 -30q27 -8 41 -28q15 -21 15 -49q1 -64 -38 -96
q-40 -32 -109 -32q-63 0 -106 32q-42 31 -42 87q0 28 15 52q15 23 42 34q-17 5 -29 27t-12 46q0 52 39 84q38 31 92 31q58 0 99 -30q40 -30 40 -79zM644 156q-22 0 -35 -12q-14 -12 -14 -31q0 -18 13 -28t33 -10q52 0 52 40q0 19 -13 31q-14 12 -36 12v-2zM605 262
q0 -15 10 -25t27 -10q18 0 31 11q12 10 12 27q0 13 -12 22t-30 9q-17 0 -27 -9t-10 -24zM64 626q1 20 14 34q12 13 32 13h137q44 0 44 -45q0 -44 -46 -44l-99 2l-3 -16l-5 -35q18 9 40 9q58 0 95 -32q36 -32 36 -87q0 -60 -36 -99t-106 -39q-62 0 -102 23q-30 16 -30 45
q0 19 13 32q14 14 33 14q10 0 28 -9q30 -14 57 -14q20 0 33 10q14 11 14 30t-15 30q-16 11 -36 11q-12 0 -33 -7t-36 -7q-22 0 -37 15t-11 36q2 11 4 27t6 38t6 39t4 29z" />
    <glyph glyph-name="seveneighths" unicode="&#x215e;" horiz-adv-x="801" 
d="M492 649q20 32 43 32q18 0 30 -12t12 -28t-11 -33q-5 -10 -22.5 -38.5l-47.5 -76.5l-51 -82.5l-34 -56.5l-196 -332q-13 -25 -39 -25q-17 0 -30 12q-14 12 -14 30q0 14 13 36l344 573zM753 269q0 -24 -12 -45t-32 -30q25 -7 40 -28t15 -48q1 -64 -38 -96
q-40 -32 -109 -32q-63 0 -106 32q-42 31 -42 87q0 29 16 52q16 24 43 34q-17 5 -29 27t-12 46q0 52 39 84q38 31 91 31q58 0 99 -30q40 -30 40 -79zM616 154q-22 0 -35 -12q-14 -12 -14 -31q0 -18 13 -28t33 -10q52 0 52 40q0 19 -13 31q-14 12 -36 12v-2zM578 260
q1 -14 12 -25q10 -10 27 -10q19 0 30 11t11 27q0 13 -12 22t-30 9q-17 0 -27 -9q-11 -9 -11 -24v-1zM188 583h-57h-61q-42 0 -42 46q0 22 13 32q14 11 33 11h196q21 0 32 -12q11 -13 11 -31q0 -24 -19 -50q-32 -49 -56 -92.5t-39 -82.5q-17 -38 -24 -72q-5 -23 -15 -33
t-34 -10q-26 0 -39 13q-14 13 -12 33q1 24 26 87q35 90 87 164v-3z" />
    <glyph glyph-name="arrowleft" unicode="&#x2190;" horiz-adv-x="724" 
d="M32 240q0 39 32 69l170 159q13 12 36 12q25 0 42 -18q16 -17 16 -43v-9q0 -3 -2 -7l-3 -6q-1 -2 -6 -7l-5 -5l-6 -6l-6 -6l-91 -78l422 4q57 0 57 -59q0 -29 -15 -44t-41 -15l-173 1l-247 3l90 -76q30 -23 30 -49q0 -25 -17 -42q-16 -16 -42 -16q-22 0 -39 14l-166 153
q-33 25 -33 69z" />
    <glyph glyph-name="arrowup" unicode="&#x2191;" horiz-adv-x="563" 
d="M283 688q38 0 75 -37l153 -167q16 -16 16 -36q0 -26 -16 -42t-43 -16q-25 0 -47 27l-79 92l2 -456q0 -56 -58 -56q-60 0 -60 56l5 456l-86 -102q-19 -25 -51 -25q-26 0 -42 16t-16 43q0 19 16 36l163 177q24 33 69 33z" />
    <glyph glyph-name="arrowright" unicode="&#x2192;" horiz-adv-x="724" 
d="M688 237q0 -43 -32 -69l-169 -158q-14 -13 -38 -13q-27 0 -44 17t-17 41q0 26 31 48l93 80l-248 -3l-172 -2q-27 0 -42 15t-15 44q0 58 58 58l421 -3l-94 81l-6 6l-6 6l-5 6q-5 5 -6 7q-2 4 -4 7q-3 4 -3 9v9q0 25 17 44q16 18 42 18q21 0 35 -14l174 -162q31 -31 31 -70
z" />
    <glyph glyph-name="arrowdown" unicode="&#x2193;" horiz-adv-x="563" 
d="M282 -5q-43 0 -69 32l-166 181q-16 19 -16 38q0 25 18 42q19 17 43 17q28 0 51 -29l86 -104l-5 456q0 55 60 55q59 0 59 -56l-3 -456l80 94q26 29 48 29q28 0 45 -16q18 -17 18 -42q0 -20 -16 -36l-156 -170q-35 -36 -75 -36z" />
    <glyph glyph-name="partialdiff" unicode="&#x2202;" horiz-adv-x="566" 
d="M217 602q-42 12 -42 53q0 43 38 60q37 16 84 0q37 -10 77 -38q39 -27 75 -69q37 -43 59 -106q22 -65 24 -138q1 -88 -15 -154q-26 -107 -94 -162q-70 -56 -166 -56q-95 0 -159 56q-62 55 -64 147q0 102 69 179t175 78q79 0 115 -53q-21 163 -174 204zM281 332
q-46 -1 -79 -36t-33 -84q-1 -46 24 -73t64 -27q46 0 82 33t38 80t-25 76q-27 30 -72 30z" />
    <glyph glyph-name="Delta" unicode="&#x2206;" horiz-adv-x="643" 
d="M561 -1h-298t-181 -1q-31 0 -50 17q-18 16 -18 47q0 23 17 63l17.5 39.5l20.5 47.5l20 46.5l17 37.5l13 28t7 17l120 295q9 23 30 35t45 12q63 0 81 -50l143 -353l66 -156q18 -41 18 -65q0 -26 -18 -42q-19 -17 -49 -17zM175 120h145h145l-143 384z" />
    <glyph glyph-name="product" unicode="&#x220f;" horiz-adv-x="584" 
d="M345 560l-143 -1v-39q0 -285 3 -550q1 -34 -18 -52q-20 -18 -55 -18q-67 0 -65 66q1 121 1.5 235t0.5 223v69v71q-3 55 18 87q21 31 72 30q49 -1 114.5 -1h148.5q44 0 66 -31q22 -32 21 -81v-49q0 -98 1 -234.5t3 -315.5q0 -69 -74 -69q-65 0 -63 66q1 121 1.5 234.5
t0.5 222.5l-1 136z" />
    <glyph glyph-name="summation" unicode="&#x2211;" horiz-adv-x="548" 
d="M83 513q-47 50 -48 97q1 31 21 49q20 19 50 20q48 3 67 0q46 0 90 0.5t88 1.5l67 1.5t26 0.5q29 0 44 -16q15 -17 15 -42q1 -60 -49 -61h-126h-129l161 -192q34 -34 37 -75v-15q0 -5 -2 -13t-3 -11q-2 -6 -4 -9q-2 -2 -2.5 -4t-1.5 -4t-5 -8q-2 -3 -5 -6t-5 -6l-4 -6
l-167 -205q49 -1 202 0q25 1 40 1.5t20 0.5q56 0 56 -60q0 -65 -63 -65h-302q-58 0 -82 18t-24 57q0 40 48 99l183 231z" />
    <glyph glyph-name="minus" unicode="&#x2212;" horiz-adv-x="495" 
d="M80 210q-27 0 -40 19t-13 43q0 25 17 42q16 16 47 16h53h76h108h86q54 0 54 -61q0 -56 -58 -59h-330v0z" />
    <glyph glyph-name="uni2215" unicode="&#x2215;" horiz-adv-x="459" 
d="M360 648q20 32 43 32q17 0 31 -12q13 -12 13 -28q0 -13 -11 -33l-154 -253l-197 -332q-13 -25 -39 -25q-17 0 -30 12q-14 12 -14 30q0 13 13 36l344 573h1z" />
    <glyph glyph-name="uni2219" unicode="&#x2219;" horiz-adv-x="233" 
d="M110 162q-33 0 -55 21t-22 56q0 34 24 57q25 23 60 23q34 0 57 -21t23 -56q0 -36 -24 -58q-23 -22 -61 -22h-2z" />
    <glyph glyph-name="radical" unicode="&#x221a;" horiz-adv-x="651" 
d="M83 328q-32 -8 -53 9q-20 16 -22 51q-4 52 59 66l85 20q37 7 58 -3q20 -10 37 -51l97 -250l19 56l19 56l117 358q13 45 60 45q28 1 50 -14q21 -15 21 -42q1 -9 -15 -60l-41 -114.5l-80 -216.5l-12 -31.5l-20 -50.5l-21 -53.5l-15 -40.5q-14 -35 -31 -51t-51 -16
q-35 0 -51 15t-33 53l-116 279z" />
    <glyph glyph-name="infinity" unicode="&#x221e;" horiz-adv-x="723" 
d="M205 457q89 0 144 -94q25 43 66 72t89 29q86 1 139 -53q52 -53 52 -142t-48 -144t-133 -55q-48 0 -90 30t-73 73q-60 -95 -155 -93q-74 0 -123 54q-49 53 -49 133q0 83 53 138q52 54 132 54zM496 348q-28 -2 -53 -25q-25 -24 -42 -56q18 -29 45 -54q28 -26 52 -26
q34 0 54 21q20 22 20 56q0 35 -20 60q-20 24 -56 24zM203 191q28 0 54 27q25 27 36 54q-42 71 -89 71q-31 0 -50 -21q-20 -22 -20 -55t18 -54t50 -21z" />
    <glyph glyph-name="integral" unicode="&#x222b;" horiz-adv-x="352" 
d="M262 697q24 0 41 -16q18 -17 18 -45q0 -61 -47 -61h-8.5t-9.5 1q-10 1 -22 0q-44 0 -39 -119q1 -44 39 -180q37 -137 39 -204q1 -80 -33 -141q-16 -28 -54 -52t-87 -24q-32 0 -53 18t-22 46q0 31 14 48t36 17h9t11 -1t10.5 -1h7.5q22 0 30 24t0 86l-30 141l-14 65.5
l-10 44.5t-7 35l-6 37q-6 37 -6 69q0 37 18 81q18 43 42 66q36 33 68 49q30 15 69 15z" />
    <glyph glyph-name="approxequal" unicode="&#x2248;" horiz-adv-x="495" 
d="M146 318q-23 -30 -58 -30q-24 0 -39 18q-15 17 -13 47q5 38 44 68t86 30q35 0 63 -14q29 -14 47 -27q19 -13 38 -15q23 0 40 21q23 26 54 26q23 0 38 -16q15 -17 15 -39q-5 -47 -36 -75t-84 -28q-38 2 -83 30q-45 29 -67 30q-32 0 -47 -22zM145 117q-5 -5 -8 -9t-5 -6
q-4 -4 -16 -10t-28 -6q-22 0 -37 18q-15 17 -13 44q4 37 39 66t84 29q45 0 89 -25q45 -26 63 -27q28 0 42 20q24 26 53 26q25 0 41 -16t15 -40q-3 -45 -34 -72q-32 -27 -84 -27q-37 0 -84 26q-47 25 -69 27q-31 0 -48 -17v-1z" />
    <glyph glyph-name="notequal" unicode="&#x2260;" horiz-adv-x="495" 
d="M230 105l-16 -45q-11 -33 -42 -33q-18 0 -32 11t-14 27q0 4 3 16l9 23h-60q-27 0 -40 19t-13 43q0 25 17 42q16 16 47 16h93l32 90h-136q-27 0 -40 18q-13 17 -13 44q0 26 17 41q16 15 47 15h169l18 50q13 31 42 31q17 0 31 -10q15 -11 15 -25q0 -11 -4 -22l-9 -24h63
q54 0 54 -61q0 -57 -58 -58h-102l-33 -90h139q54 0 54 -61q0 -56 -58 -59z" />
    <glyph glyph-name="lessequal" unicode="&#x2264;" horiz-adv-x="495" 
d="M81 0q-27 0 -40 18q-13 17 -13 42q0 54 64 54h53h75h108h86q53 0 53 -57q0 -56 -57 -57h-329zM428 498q-8 -4 -38.5 -18l-85.5 -40q-110 -51 -144 -69q14 -7 50 -22.5l93 -39.5q113 -48 137 -62q19 -12 19 -36q0 -26 -16 -43q-17 -18 -42 -17q-17 1 -33 9l-293 143
q-46 22 -46 72q0 45 47 69l286 146q22 12 41 11q21 -2 36 -21q15 -20 15 -43q0 -26 -24 -38z" />
    <glyph glyph-name="greaterequal" unicode="&#x2265;" horiz-adv-x="495" 
d="M84 0q-58 1 -58 57q0 57 54 57h85h108h76h53q64 0 64 -54q0 -25 -13 -42q-14 -18 -40 -18h-329zM63 497q-24 13 -24 39q0 24 14 43q13 17 36 19q18 1 41 -11l286 -146q46 -25 46 -69q0 -49 -45 -71l-294 -142q-14 -8 -34 -10q-23 -1 -40 17q-16 17 -16 44q0 23 19 36
q11 7 44.5 22l90.5 39l92.5 40t51.5 24q-17 9 -53 26l-90 43l-85 40.5t-39 18.5z" />
    <glyph glyph-name="star" unicode="&#x22c6;" horiz-adv-x="536" 
d="M470 344q15 1 24 -6q9 -8 9 -20q0 -14 -21 -30q-8 -5 -22 -15t-36 -24l-60 -39l38 -76.5t33 -70.5q3 -9 3 -12q0 -14 -10 -23q-11 -9 -21 -9q-9 0 -17 5q-11 9 -26.5 23.5l-36.5 34.5l-36 33.5l-24 21.5q-17 -14 -48 -45l-27 -26.5t-18 -16.5q-2 -2 -5 -4.5t-7 -5.5
t-6 -5l-4 -4q-4 -4 -7 -6q-2 -2 -4 -2.5t-4 -1.5t-7 -1q-14 0 -24 9t-10 22q0 2 2 12q12 28 36 78q24 49 33 69q0 2 -3 7l-57 36l-35 22.5t-30 18.5q-13 9 -13 22q0 11 8 21q8 9 18 8q5 0 20.5 -1t41.5 -3t45.5 -3t32.5 -1q6 0 15 30q9 29 18 71q5 20 7.5 32t3.5 15
q8 26 30 26q28 0 31 -23l18 -84l9.5 -44.5l4.5 -21.5q41 1 76 3t64 5z" />
    <glyph glyph-name="triagup" unicode="&#x25b2;" horiz-adv-x="456" 
d="M178 410q1 1 3 5q1 2 3 4l3 3l3 3l3 3l4 2q2 2 5 2h6h7q22 0 33 -20q19 -32 51 -93q31 -62 48 -87l8.5 -14.5l9.5 -16.5t9.5 -15.5t7.5 -11.5t6.5 -10t7.5 -12t6.5 -12l4.5 -9t4 -7.5t4 -7.5q4 -7 6 -14q2 -8 2 -11q0 -15 -11 -26t-26 -11q-7 0 -16 3t-15 6t-15 9
q-11 7 -13 8q-44 27 -93 27h-9t-9 -1l-15 -2q-6 -2 -15 -6q-8 -4 -14 -6t-16 -7t-16 -7q-6 -4 -16 -9q-6 -3 -10.5 -5.5t-8.5 -4.5q-6 -4 -18 -7q-11 -3 -19 -3q-17 0 -27 12q-10 11 -10 26q0 10 7 23l51 98q30 52 93 204z" />
    <glyph glyph-name="triagrt" unicode="&#x25ba;" horiz-adv-x="442" 
d="M386 280q3 -3 7 -6t7 -6l4 -6q3 -5 3 -9v-12q0 -23 -19 -33q-5 -4 -23.5 -14.5l-50.5 -28.5q-63 -36 -93 -57q-113 -79 -145 -79q-16 0 -26 12q-11 13 -11 27q0 7 3 16t6 15q3 7 10 16l9 14q29 49 29 97q0 13 -3 27q-2 7 -3 12t-2 8q-2 7 -12 26q-5 10 -8 15.5t-4 7.5
q-2 3 -9 17l-9 19q-3 7 -6 18q-3 10 -3 20q0 16 11 27q10 10 24 10q8 0 21 -7l103 -52q78 -47 189 -93z" />
    <glyph glyph-name="triagdn" unicode="&#x25bc;" horiz-adv-x="444" 
d="M177 78q-48 115 -93 195l-51 98q-7 13 -7 23q0 15 10 26q10 12 27 12q14 0 23 -4q12 -5 29 -15q19 -11 20 -12q6 -2 16 -7t16 -7t14 -6q9 -5 15 -6l15 -2q5 -1 9 -1h9q49 0 93 27q4 1 14 8q9 6 15 9t15 6t16 3q15 0 26 -11t11 -26q0 -7 -1 -11q-2 -7 -6 -14
q-2 -4 -3.5 -7.5t-3.5 -7.5l-4.5 -9t-6.5 -12q-8 -15 -13 -22l-7 -11.5t-9 -15.5l-9.5 -16.5l-8.5 -14.5l-97 -172q-11 -20 -33 -20q-7 0 -10 1q-6 2 -7 2q-3 0 -6 3q-2 2 -2.5 3t-1.5 2l-4 6l-4 6h-5z" />
    <glyph glyph-name="triaglf" unicode="&#x25c4;" horiz-adv-x="442" 
d="M57 277q121 54 192 93l101 52q13 7 21 7q14 0 24 -10q11 -11 11 -27q0 -13 -3 -23q-4 -13 -13 -29q-11 -19 -12 -20l-9 -19l-5 -11.5t-4 -7.5t-3.5 -7l-3.5 -9q-4 -10 -6 -20q-1 -5 -1 -10v-10q0 -48 29 -97l9 -13q7 -9 10 -16q3 -6 6 -15t3 -16q0 -15 -12 -27t-25 -12
q-32 0 -145 79q-11 8 -23 15.5l-26 15.5l-29 17l-32 19q-35 19 -57 33q-19 10 -19 33v12q0 4 3 9l4 6q3 3 7 6t7 6z" />
    <glyph glyph-name="lozenge" unicode="&#x25ca;" horiz-adv-x="548" 
d="M52 419l67.5 106t54.5 92q40 70 96 72q33 1 54 -12q20 -13 46 -53l137 -226q15 -29 15 -49q0 -27 -15 -55l-29.5 -49.5l-45.5 -74.5l-45.5 -73l-28.5 -45q-33 -56 -88 -56q-53 0 -85 56l-128 212q-32 53 -32 81q2 33 28 74h-1zM392 346l-120 211l-120 -212l120 -209z" />
    <glyph glyph-name="uni261A" unicode="&#x261a;" horiz-adv-x="1031" 
d="M971 409v-58v-58v-46.5t1 -64.5t1 -64.5v-46.5v-12.5t-1 -10.5q-2 -10 -7 -15l-9 -9q-3 -3 -16 -4q-7 -1 -11.5 -1.5t-6.5 -0.5h-24q-10 -1 -24 -1h-34h-7h-20.5t-13.5 1q-12 2 -21 7q-11 6 -14 18t-3 34q-59 -2 -148 -25q-98 -27 -193 -27q-21 0 -40 3q-18 3 -41 11
q-20 7 -34 24q-13 16 -13 39q0 13 6 21q-26 6 -42 25t-16 45q0 20 16 27q-22 7 -39 23q-16 15 -16 36q0 31 13 40h-57t-42 1q-97 1 -97 66q0 8 2 18q1 7 8 14l10 10q3 3 14 7q5 2 8.5 2.5t5.5 1.5q6 2 17 2h17h19h17q151 0 270 -3q-23 7 -39 30q-16 22 -16 39q0 28 17 47
q16 18 44 18q15 0 23 -6q99 -68 160 -99q12 -6 26 -12t31 -11q57 -22 123 -25q7 30 55 30h22.5t31.5 -1t31.5 -1h21.5q11 0 25 -9q13 -9 13 -21z" />
    <glyph glyph-name="uni261B" unicode="&#x261b;" horiz-adv-x="1031" 
d="M51 416q0 12 13 21t25 9q9 0 22.5 0.5t31.5 1.5t31.5 1.5t21.5 0.5q47 0 55 -30q66 3 123 25q17 5 31 11t26 12q61 31 160 99q7 6 23 6q27 0 44 -18q17 -19 17 -46q0 -17 -16 -39q-17 -23 -39 -30q118 3 271 3h15h16h15q12 0 15 -1q4 -1 14 -3q9 -2 13 -4l11 -7
q6 -5 9 -10q4 -8 5 -13q1 -4 1.5 -7.5t0.5 -8.5q0 -65 -97 -66q-17 -1 -42 -1h-57q13 -9 13 -40q0 -21 -16 -36q-17 -16 -39 -23q16 -7 16 -27q0 -26 -16 -45t-42 -25q6 -8 6 -21q0 -23 -13 -39q-14 -17 -34 -24q-11 -4 -21 -6l-20 -4q-20 -3 -40 -3q-96 0 -193 27
q-89 23 -148 25q0 -41 -14 -50t-57 -9h-3h-3h-34t-24 1q-50 1 -60 9q-14 11 -14 47v46.5t1 64.5t1 64.5v46.5v58v58z" />
    <glyph glyph-name="uni261C" unicode="&#x261c;" horiz-adv-x="1031" 
d="M972 406v-58v-58v-46.5t1 -64.5t1 -64.5v-46.5v-12.5t-1 -10.5q-2 -10 -7 -15l-9 -9q-3 -3 -16 -4q-7 -1 -11.5 -1.5t-6.5 -0.5h-24q-10 -1 -24 -1h-34h-7h-20.5t-13.5 1q-12 2 -21 7q-11 6 -14 18t-3 34q-59 -2 -148 -25q-99 -28 -222 -28q-20 0 -39 3q-17 3 -39 11
q-20 8 -32 24t-12 39q0 13 5 21q-27 6 -41 25q-15 19 -15 45q0 19 15 27q-56 20 -56 57q0 21 13 30h-39q-7 0 -16 0.5t-21 1.5q-23 1 -37 6q-13 4 -29 14q-14 8 -22 23q-7 13 -7 33q0 28 21 43t42 18t53 3q45 0 131 -3q43 -2 70.5 -2.5t40.5 -1.5q-29 17 -29 60q0 28 17 50
q16 21 42 21q14 0 24 -5l103 -60t60 -33q12 -6 26 -12t31 -11q66 -25 123 -28q5 17 18 23t38 6h22.5t31.5 -1t31.5 -1h22.5q12 0 24 -9t12 -21zM305 75q0 -7 5 -12q4 -4 13 -7q5 -2 9 -2.5t9 -1.5t10 -1.5t11 -0.5h20h18h12q68 0 117 11q18 4 63 15l42.5 9.5t36.5 7.5
q34 6 63 6q19 0 24 -1q6 7 6 102v134v31q-33 4 -69.5 13t-76.5 24q-87 31 -204 109q-26 -2 -26 -30q0 -20 12 -36q11 -15 24 -25q12 -9 33 -21l6 -4q-12 -6 -33 -6q-22 0 -56 0.5t-81 1.5t-81 1.5t-56 0.5h-21h-27q-5 0 -10 -0.5t-12 -1.5q-12 -1 -19 -8q-6 -6 -6 -16
q0 -18 11 -27q10 -8 21 -10q5 -1 12.5 -1h17.5h276q7 0 12 -4q6 -5 6 -10q0 -16 -17 -16q-26 -1 -57 -1.5t-69 -0.5h-18.5t-12.5 -1q-10 -1 -19 -9t-9 -24q0 -10 8 -16q8 -7 25 -8q9 -1 15.5 -1.5t11.5 -0.5h32h48h49q15 0 15 -13q0 -17 -15 -17h-24t-28 -1t-27.5 -1h-23.5
q-42 0 -42 -32q0 -26 68 -26q11 0 24 0.5t27 1.5t24.5 1.5t17.5 0.5q22 0 22 -18q0 -4 -3 -7q-2 -2 -9 -4q-8 -2 -10 -2h-13h-13q-7 -1 -13.5 -1h-13.5h-20q-20 -2 -27 -9q-8 -8 -8 -27z" />
    </font>
</defs>
</svg>
